<svg xmlns="http://www.w3.org/2000/svg" width="241" height="193" viewBox="0 0 241 193"><g transform="translate(-538.401 -10307.659)"><path d="M539.108,10392.751l20.014,20.041-20.014,20.041" transform="translate(0 0.174)" fill="none" stroke="#333" stroke-miterlimit="10" stroke-width="2"/><g transform="translate(702.805 10307.659)"><path d="M715.3,10336.085a8.248,8.248,0,0,1-10.573,0,6.584,6.584,0,0,1-2.039-5.335v-15.839a6.584,6.584,0,0,1,2.039-5.335,8.248,8.248,0,0,1,10.573,0,6.584,6.584,0,0,1,2.039,5.335v15.839A6.584,6.584,0,0,1,715.3,10336.085Zm-3.539-21.382c0-1.375-.75-2.043-1.748-2.043s-1.748.668-1.748,2.043v16.255c0,1.376.749,2.043,1.748,2.043s1.748-.667,1.748-2.043Z" transform="translate(-702.688 -10307.659)" fill="#333"/><path d="M722.323,10337.669v-4.751l7.617-13.38a10.041,10.041,0,0,0,1.124-4.794c0-1.374-.707-2.084-1.706-2.084s-1.79.668-1.79,2.043v1.792H721.99v-1.584a6.584,6.584,0,0,1,2.039-5.335,7.683,7.683,0,0,1,5.329-1.917,6.744,6.744,0,0,1,7.284,7.294,13.294,13.294,0,0,1-1.624,6.252l-6.7,11.462h8.325v5Z" transform="translate(-702.674 -10307.659)" fill="#333"/></g><g transform="translate(688.219 10377.662)"><rect width="65.339" height="45.646" rx="3" fill="none" stroke="#333" stroke-miterlimit="10" stroke-width="2"/><path d="M706.863,10404.534v-1.939a7.247,7.247,0,0,0,3.062-6.227c0-3.811-2.4-6.9-5.359-6.9s-5.359,3.089-5.359,6.9a7.245,7.245,0,0,0,3.062,6.227v2.068a11.7,11.7,0,0,0-5.1,3.2v3.065h15.311v-3.065A11.6,11.6,0,0,0,706.863,10404.534Z" transform="translate(-688.107 -10377.494)" fill="#333"/><path d="M718.482,10392.7" transform="translate(-688.091 -10377.487)" fill="#333"/><line x1="25.832" transform="translate(30.39 13.694)" fill="none" stroke="#333" stroke-miterlimit="10" stroke-width="2"/><line x1="25.832" transform="translate(30.39 22.823)" fill="none" stroke="#333" stroke-miterlimit="10" stroke-width="2"/><line x1="15.195" transform="translate(30.39 31.952)" fill="none" stroke="#333" stroke-miterlimit="10" stroke-width="2"/><g transform="translate(33.862 15.843)"><path d="M0,0,16.639.017l.043,41.629L.043,41.629Z" transform="translate(34.128 4.714) rotate(45)" fill="#333"/><path d="M2,0,14.65.015a2.007,2.007,0,0,1,2,2l0,2.988L.005,4.99,0,2A2,2,0,0,1,2,0Z" transform="translate(38.835) rotate(45)" fill="#333"/><g transform="translate(-721.951 -10393.259)" fill="none" stroke-miterlimit="10"><path d="M726.658,10427.433l-4.707,16.5,16.476-4.713Z" stroke="none"/><path d="M 727.6476440429688 10431.25390625 L 724.86181640625 10441.0166015625 L 734.6122436523438 10438.2275390625 L 727.6476440429688 10431.25390625 M 726.6581420898438 10427.4326171875 L 738.4265747070312 10439.216796875 L 721.9508056640625 10443.9296875 L 726.6581420898438 10427.4326171875 Z" stroke="none" fill="#333"/></g></g></g><g transform="translate(657.211 10481.837)"><path d="M669.379,10487.775a17.5,17.5,0,0,0,6.987,7.276,10.114,10.114,0,0,0-1.842,2.165,16.41,16.41,0,0,1-3.263-2.686v2.284h-3.322v3.388h-2.5v-3.388h-3.442v-2.1a17.87,17.87,0,0,1-3.123,2.565,11.768,11.768,0,0,0-1.742-1.984,17.79,17.79,0,0,0,6.887-7.517h-6.105v-2.406h7.526v-3.868h2.5v3.868h7.587v2.406Zm-3.944,6.614v-4.369a23.335,23.335,0,0,1-3.142,4.369Zm5.685,0a22.334,22.334,0,0,1-3.182-4.409v4.409Z" transform="translate(-657.127 -10481.48)" fill="#fc088e"/><path d="M687.971,10481.941c-.02.32-.04.722-.06,1.143.16,2.766,1.161,11.405,8.627,14.914a7.847,7.847,0,0,0-1.841,2.023c-4.524-2.245-6.766-6.374-7.887-10.062a17.113,17.113,0,0,1-7.407,10.063,8.362,8.362,0,0,0-2-1.9c7.988-4.429,7.708-13.529,7.848-16.176Z" transform="translate(-657.112 -10481.479)" fill="#fc088e"/><path d="M697.454,10490.661a26.228,26.228,0,0,0,.821-5.23l1.681.22a27.048,27.048,0,0,1-.781,5.593Zm18.9-2.845v1.7H703.239v-1.7h5.3v-.862H704.4l.039.1-1.561.763a16.776,16.776,0,0,0-.741-2.206v14.572H700v-18.7h2.143v3.208l1.141-.481a24.126,24.126,0,0,1,1.122,2.727v-1.584h4.143v-.8H703.86v-1.705h4.684v-1.363h2.362v1.363h4.845v1.705h-4.845v.8h4.305v1.6h-4.305v.862Zm-1.341,10.1c0,1.042-.2,1.6-.922,1.924a7.668,7.668,0,0,1-3.082.34,7.867,7.867,0,0,0-.641-2.023c.822.06,1.762.039,2.022.039.28,0,.38-.08.38-.319v-.662h-5.985v3.006h-2.2v-9.941h10.43Zm-8.228-5.895v.942h5.985v-.942Zm5.985,3.549v-.922h-5.985v.922Z" transform="translate(-657.098 -10481.48)" fill="#fc088e"/><path d="M724.625,10486.611h3.343v2h-1.662l.781.2c-.34.741-.641,1.523-.921,2.124h1.5v2h-3.043v1.543h2.823v2h-2.823v3.646h-2.2v-3.646H719.44v-2h2.982v-1.543H719.28v-2h1.5a11.447,11.447,0,0,0-.661-2.145l.721-.181H718.86v-2h3.563v-1.383H719.56v-1.964h2.862v-1.744h2.2v1.744h2.6v1.964h-2.6Zm-.28,4.15c.22-.6.52-1.464.7-2.146H722a8.544,8.544,0,0,1,.7,2.146l-.64.18h2.922Zm12.792-1.163a20.5,20.5,0,0,1-2.1,6.555,9.681,9.681,0,0,0,2.783,2.186,8.219,8.219,0,0,0-1.541,1.883,10.488,10.488,0,0,1-2.5-2.124,11.107,11.107,0,0,1-2.182,2.146,6.908,6.908,0,0,0-1.1-1.243v1.182h-2.161v-17.859h8.348v3.769c0,1.022-.22,1.6-1,1.924a9.255,9.255,0,0,1-3.3.342,8.23,8.23,0,0,0-.68-2.046c.981.04,2.081.04,2.382.04.3-.02.4-.08.4-.3v-1.645H730.49v4.791h4.824l.4-.1Zm-6.647,8.679a10.331,10.331,0,0,0,1.922-2.044,19.84,19.84,0,0,1-1.922-4.33Zm1.682-7.2a15.115,15.115,0,0,0,1.421,3.107,14.582,14.582,0,0,0,1.061-3.107Z" transform="translate(-657.083 -10481.479)" fill="#fc088e"/><path d="M751.088,10482.6c0,3.788.54,11.1,7.908,15.454a12.776,12.776,0,0,0-1.921,2.083,16.927,16.927,0,0,1-7.367-9.88c-1.5,4.489-3.9,7.817-7.387,9.9a19.03,19.03,0,0,0-2.182-1.944c4.164-2.1,6.546-5.973,7.646-11.245l1.222.22c-.141-.761-.22-1.482-.28-2.164h-4.564v-2.425Z" transform="translate(-657.068 -10481.479)" fill="#fc088e"/><path d="M778.949,10485.649s-.02.822-.06,1.143c-.4,7.979-.8,10.984-1.681,12.028a2.7,2.7,0,0,1-2.042,1.122,20.47,20.47,0,0,1-3.2.04,5.536,5.536,0,0,0-.821-2.466c1.261.1,2.442.1,2.962.1a1.184,1.184,0,0,0,.942-.32c.6-.621,1-3.247,1.32-9.2h-5.605c-.319,4.15-1.721,9.021-7.346,12.208a9.508,9.508,0,0,0-1.861-1.944,12.225,12.225,0,0,0,6.646-10.264h-6.025v-2.445H768.3v-4.129h2.542v4.129Z" transform="translate(-657.052 -10481.479)" fill="#fc088e"/></g></g></svg>