<svg xmlns="http://www.w3.org/2000/svg" width="210" height="193" viewBox="0 0 210 193"><g transform="translate(-269.72 -10307.659)"><g transform="translate(359.917 10307.659)"><path d="M372.324,10336.1a8.272,8.272,0,0,1-10.593,0,6.586,6.586,0,0,1-2.043-5.338v-15.848a6.585,6.585,0,0,1,2.043-5.338,8.272,8.272,0,0,1,10.593,0,6.585,6.585,0,0,1,2.043,5.338v15.848A6.586,6.586,0,0,1,372.324,10336.1Zm-3.545-21.394c0-1.376-.751-2.044-1.751-2.044s-1.751.668-1.751,2.044v16.264c0,1.377.75,2.044,1.751,2.044s1.751-.667,1.751-2.044Z" transform="translate(-359.688 -10307.659)" fill="#333"/><path d="M385.116,10337.685v-23.146l-4.545,3.253v-6.256l4.545-3.544H390.7v29.692Z" transform="translate(-359.635 -10307.658)" fill="#333"/></g><g transform="translate(334.904 10379.868)"><line x1="29.577" y1="28.615" transform="translate(46.14 26.16)" fill="none" stroke="#333" stroke-miterlimit="10" stroke-width="2"/><line x1="29.577" y1="28.615" transform="translate(46.14 26.16)" fill="none" stroke="#333" stroke-miterlimit="10" stroke-width="2"/><line y1="28.615" x2="29.577" transform="translate(0 26.16)" fill="none" stroke="#333" stroke-miterlimit="10" stroke-width="2"/><rect width="75.716" height="54.775" fill="none" stroke="#333" stroke-miterlimit="10" stroke-width="2"/><path d="M334.738,10379.683l38.664,33.832,37.053-33.832" transform="translate(-334.738 -10379.683)" fill="none" stroke="#333" stroke-miterlimit="10" stroke-width="2"/></g><g transform="translate(269.72 10481.566)"><path d="M284.742,10483.743a15.655,15.655,0,0,0-.823,1.785,28.593,28.593,0,0,1-2.707,5.455,51.994,51.994,0,0,1,4.773,4.412l-2.066,2.307a39.851,39.851,0,0,0-4.432-4.412,25.1,25.1,0,0,1-7.46,6.2l-2.307-2.065a21.894,21.894,0,0,0,7.621-5.917,52.171,52.171,0,0,0-5.375-3.791l1.724-2.065c1.6,1,3.67,2.407,5.294,3.61a21.867,21.867,0,0,0,2.207-4.753,14.709,14.709,0,0,0,.481-1.846Z" transform="translate(-269.72 -10481.116)" fill="#fc088e"/><path d="M288.454,10489.162c.722.06,2.187.12,3.229.12h10.769c.922,0,1.825-.08,2.347-.12v3.148c-.482-.021-1.5-.1-2.347-.1H291.683c-1.143,0-2.487.04-3.229.1Z" transform="translate(-269.672 -10481.1)" fill="#fc088e"/><path d="M306.67,10497.721a9.462,9.462,0,0,0,3.409-4.793c.562-1.725.582-5.516.582-7.942a7.327,7.327,0,0,0-.18-1.825h2.948a12.8,12.8,0,0,0-.14,1.806,44.283,44.283,0,0,1-.6,8.625,11.612,11.612,0,0,1-3.57,5.755Zm9.286.3a7.619,7.619,0,0,0,.16-1.483v-11.692a8.9,8.9,0,0,0-.16-1.726h2.989a10.154,10.154,0,0,0-.141,1.746v10.488a12.7,12.7,0,0,0,4.954-4.231l1.545,2.206a22.075,22.075,0,0,1-6.8,5.475,5.136,5.136,0,0,0-.882.6Z" transform="translate(-269.626 -10481.115)" fill="#fc088e"/><path d="M343.193,10484.885a10.094,10.094,0,0,0-.782,1.042,20.177,20.177,0,0,1-4.833,5.5l-2.066-1.665a11.928,11.928,0,0,0,3.69-3.729H328.753c-.842,0-1.5.06-2.447.14v-2.787a15.934,15.934,0,0,0,2.447.2h10.809a9.949,9.949,0,0,0,2.026-.181Zm-8.183,2.707c0,4.975-.1,9.065-5.575,11.993l-2.327-1.905a7.845,7.845,0,0,0,2.106-1.1c2.547-1.764,3.029-3.891,3.029-7.179a11.019,11.019,0,0,0-.141-1.806Z" transform="translate(-269.576 -10481.114)" fill="#fc088e"/><path d="M350.975,10488.235a69.787,69.787,0,0,1,8.383,3.13l-1.124,2.787a53.621,53.621,0,0,0-7.259-2.988v5.676c0,.562.1,1.965.2,2.787h-3.149a21.708,21.708,0,0,0,.2-2.787v-11.532a14.156,14.156,0,0,0-.2-2.427h3.129a21.831,21.831,0,0,0-.18,2.427Zm5.335-.882a16.362,16.362,0,0,0-1.765-3.089l1.685-.722c.561.842,1.363,2.126,1.825,3.028Zm2.747-1.123a18.784,18.784,0,0,0-1.865-3.009l1.665-.782a26.537,26.537,0,0,1,1.885,2.969Z" transform="translate(-269.52 -10481.116)" fill="#fc088e"/><path d="M365.25,10497.66a2.611,2.611,0,0,0,.262-1.3v-10.87a12.393,12.393,0,0,0-.221-2.267h3.148a14.211,14.211,0,0,0-.2,2.267v10.409a22.762,22.762,0,0,0,10.308-6.619l1.425,2.267c-2.748,3.289-6.92,5.676-11.633,7.22a5.681,5.681,0,0,0-1.2.542Z" transform="translate(-269.476 -10481.113)" fill="#fc088e"/><path d="M396,10484.864a9.39,9.39,0,0,0-.7,1.243,29.5,29.5,0,0,1-3.148,5.515,56.447,56.447,0,0,1,5.6,5.735l-2.287,1.986a45.694,45.694,0,0,0-5.054-5.676,26.412,26.412,0,0,1-7.541,5.636l-2.065-2.166a22.724,22.724,0,0,0,8.223-5.756,15.534,15.534,0,0,0,2.989-4.914h-6.8c-.842,0-1.945.12-2.367.141v-2.848a22.473,22.473,0,0,0,2.367.14h7.06a7.229,7.229,0,0,0,2.085-.261Z" transform="translate(-269.437 -10481.112)" fill="#fc088e"/><path d="M408.181,10496.937c.762-.1,1.323-.2,1.845-.32a5.376,5.376,0,0,0,4.512-5.314c0-2.748-1.484-4.794-4.152-5.255a43.168,43.168,0,0,1-1.183,5.395c-1.183,4.011-2.908,6.458-5.074,6.458-2.187,0-4.051-2.426-4.051-5.775,0-4.573,3.991-8.5,9.145-8.5,4.913,0,8.022,3.429,8.022,7.762,0,4.172-2.568,7.14-7.581,7.9Zm-1.544-6.016a32.038,32.038,0,0,0,1.063-4.813,6.226,6.226,0,0,0-5.034,5.756c0,2,.8,2.988,1.544,2.988C405.032,10494.852,405.834,10493.608,406.637,10490.921Z" transform="translate(-269.388 -10481.112)" fill="#fc088e"/><path d="M423.953,10492.552a8.18,8.18,0,0,0-.321,2.006c0,1.263,1.183,2.186,4.051,2.186a28.155,28.155,0,0,0,6.979-.782l.02,2.808a31.658,31.658,0,0,1-6.9.662c-4.553,0-6.819-1.524-6.819-4.251a13.341,13.341,0,0,1,.381-2.869Zm10.068-10.528c.5.741,1.224,2,1.6,2.746l-1.624.7c-.16-.321-.361-.7-.561-1.1v2.388c-1.384.1-3.851.24-5.736.24-2.086,0-3.811-.1-5.415-.22v-2.647a51.474,51.474,0,0,0,5.395.239c1.9,0,4.091-.119,5.615-.26a15.292,15.292,0,0,0-.862-1.444Zm2.367-.9a22.132,22.132,0,0,1,1.624,2.728l-1.584.683a21.4,21.4,0,0,0-1.625-2.769Z" transform="translate(-269.334 -10481.12)" fill="#fc088e"/><path d="M457.711,10485.23a27.521,27.521,0,0,1-2.588,2.025,13.515,13.515,0,0,0,3.149,1.766,8.495,8.495,0,0,0-1.584,1.985,14.273,14.273,0,0,1-4.292-3.028v.822h-7.381v-.683a17.6,17.6,0,0,1-4.533,3.169,8.482,8.482,0,0,0-1.424-1.745,2.109,2.109,0,1,0,1.243-3.75l1.3-1.3a12.08,12.08,0,0,1,2.267,1.625,12.692,12.692,0,0,0,1.5-1.985h-4.111v-1.926h5.254l.4-.1,1.545.8a13.5,13.5,0,0,1-2.267,3.912h5.154a19.391,19.391,0,0,1-2.747-4.633l2.045-.643a12.85,12.85,0,0,0,1.064,2.025,16.629,16.629,0,0,0,2.005-1.905l1.8,1.284c-.862.722-1.865,1.483-2.747,2.086.3.36.622.7.942,1.022a17.513,17.513,0,0,0,2.246-2.066Zm-4.232,10.429c-.421.822-.822,1.6-1.163,2.187h5.034v1.965H440.1v-1.965h4.853a9.6,9.6,0,0,0-.922-2.086l1.043-.261H442.89v-5.556H454.5v5.556h-1.8Zm-8.283-2.045h6.838v-1.785H445.2Zm1.2,1.885a8.132,8.132,0,0,1,.962,2.126l-.761.221h3.95l-.541-.121a19.026,19.026,0,0,0,1.043-2.226Z" transform="translate(-269.288 -10481.119)" fill="#fc088e"/><path d="M467.865,10496.742c1-.582,2.326-1.424,3.629-2.286l.723,1.806c-1.184.9-2.467,1.824-3.61,2.606l-.662-1.144.06.582c-2.487.521-5.134,1.083-7.16,1.464l-.441-2.166c.842-.12,1.846-.281,2.948-.461v-5.234h-2.728v-2.006h2.728v-1.464h-1.764v-.9c-.121.12-.262.24-.382.361a6.519,6.519,0,0,0-1.424-1.545,12.814,12.814,0,0,0,3.47-4.854h1.965a19.893,19.893,0,0,1,3.35,3.45l-1.263,1.5h.18v1.985h-2.066v1.464H467.9v2.006h-2.487v4.854l2.407-.421Zm-5.515-4.071a22.934,22.934,0,0,1,.7,3.449l-1.605.441a18.271,18.271,0,0,0-.622-3.51Zm4.492-6.217a18.693,18.693,0,0,0-2.287-2.747,19.05,19.05,0,0,1-1.945,2.747Zm-1.2,9.306a24.453,24.453,0,0,0,.7-3.249l1.725.421c-.361,1.123-.682,2.406-.984,3.229Zm9.927-2.267a9.25,9.25,0,0,0,3.67,3.73,8.862,8.862,0,0,0-1.524,1.965,10.1,10.1,0,0,1-3.289-3.87v2.627c0,1-.14,1.564-.762,1.886a5.277,5.277,0,0,1-2.527.381,8.138,8.138,0,0,0-.561-2.065c.561.04,1.164.021,1.364.021.221,0,.281-.062.281-.262v-7.861h-4.132v-2.025h6.979V10487h-5.575v-1.806h5.575v-1.082h-6.016v-1.966h8.223v5.877h1.484v2.025h-4.332v.662a13,13,0,0,0,.822,2.146,16.735,16.735,0,0,0,1.806-2.407l1.865,1.145c-.8.922-1.7,1.864-2.406,2.526Zm-5.816-2.747a9.8,9.8,0,0,1,2.066,2.527l-1.665,1.1a11.465,11.465,0,0,0-1.965-2.627Z" transform="translate(-269.235 -10481.119)" fill="#fc088e"/></g></g></svg>