<svg xmlns="http://www.w3.org/2000/svg" width="283" height="132" viewBox="0 0 283 132"><g transform="translate(-236.426 -3672.689)"><g transform="translate(299.743 3781.21)"><path d="M299.719,3799.292v-18.513h3.613v18.513Z" transform="translate(-299.719 -3780.779)" fill="#333"/><path d="M319.946,3799.292v-8.19a2.259,2.259,0,1,0-4.5,0v8.19h-3.38v-13.547h3.3v1.248a4.635,4.635,0,0,1,3.38-1.4,4.4,4.4,0,0,1,3.2,1.2,5.017,5.017,0,0,1,1.378,3.849v8.658Z" transform="translate(-299.719 -3780.779)" fill="#333"/><path d="M351.718,3797.784a5.615,5.615,0,0,1-4.212,1.664,5.551,5.551,0,0,1-4.186-1.664c-1.222-1.274-1.535-2.808-1.535-5.278,0-2.444.313-3.979,1.535-5.253a5.551,5.551,0,0,1,4.186-1.664,5.615,5.615,0,0,1,4.212,1.664c1.221,1.274,1.534,2.809,1.534,5.253C353.252,3794.976,352.939,3796.51,351.718,3797.784Zm-2.626-8.555a2.139,2.139,0,0,0-1.586-.6,2.08,2.08,0,0,0-1.561.6c-.7.7-.779,1.873-.779,3.277s.078,2.6.779,3.3a2.08,2.08,0,0,0,1.561.6,2.139,2.139,0,0,0,1.586-.6c.7-.7.779-1.9.779-3.3S349.794,3789.932,349.092,3789.229Z" transform="translate(-299.719 -3780.779)" fill="#333"/><path d="M369.034,3799.292v-8.19a2.259,2.259,0,1,0-4.5,0v8.19h-3.38v-13.547h3.3v1.248a4.635,4.635,0,0,1,3.38-1.4,4.4,4.4,0,0,1,3.2,1.2,5.017,5.017,0,0,1,1.378,3.849v8.658Z" transform="translate(-299.719 -3780.779)" fill="#333"/><path d="M383.386,3793.572a2.8,2.8,0,0,0,2.964,3.016,3.747,3.747,0,0,0,3.068-1.274l2.055,2a6.454,6.454,0,0,1-5.149,2.132c-3.2,0-6.266-1.456-6.266-6.942,0-4.421,2.391-6.917,5.9-6.917,3.771,0,5.9,2.756,5.9,6.474v1.509Zm4.836-3.77a2.524,2.524,0,0,0-4.525,0,3.747,3.747,0,0,0-.311,1.456h5.147A3.711,3.711,0,0,0,388.222,3789.8Z" transform="translate(-299.719 -3780.779)" fill="#333"/><path d="M417.861,3799.292v-1.274a4.066,4.066,0,0,1-3.354,1.43,4.785,4.785,0,0,1-3.328-1.222c-1.353-1.352-1.378-3.692-1.378-5.72s.025-4.342,1.378-5.694a4.711,4.711,0,0,1,3.3-1.223,4.06,4.06,0,0,1,3.3,1.352v-6.162h3.38v18.513Zm-2.392-10.661c-2.028,0-2.288,1.664-2.288,3.875s.26,3.9,2.288,3.9,2.314-1.69,2.314-3.9S417.5,3788.631,415.469,3788.631Z" transform="translate(-299.719 -3780.779)" fill="#333"/><path d="M436.581,3799.292v-1.17a4.117,4.117,0,0,1-3.328,1.3,4.622,4.622,0,0,1-3.458-1.2,4.336,4.336,0,0,1-1.118-3.042c0-2.158,1.481-3.926,4.628-3.926h3.2v-.676c0-1.482-.728-2.133-2.523-2.133a2.908,2.908,0,0,0-2.6,1.118l-2.158-2.106c1.326-1.456,2.627-1.872,4.888-1.872,3.8,0,5.772,1.612,5.772,4.785v8.918Zm-.078-5.72h-2.679c-1.22,0-1.9.572-1.9,1.534,0,.936.624,1.56,1.95,1.56a2.683,2.683,0,0,0,2.133-.65,2.231,2.231,0,0,0,.493-1.716Z" transform="translate(-299.719 -3780.779)" fill="#333"/><path d="M453.247,3801.476a4.817,4.817,0,0,1-1.015,1.742,3.913,3.913,0,0,1-2.912,1.04h-1.326v-3.042h.781a1.462,1.462,0,0,0,1.69-1.222l.572-1.664-4.629-12.585h3.563l2.808,8.373,2.7-8.373h3.563Z" transform="translate(-299.719 -3780.779)" fill="#333"/></g><g transform="translate(236.426 3672.689)"><path d="M268.645,3736.767l-2.071-9.99h-14.76l-2.069,9.99H236.426l16.469-64.078h12.6l16.47,64.078Zm-9.451-45.268-4.949,23.759h9.9Z" transform="translate(-236.426 -3672.689)" fill="#333"/><path d="M316.163,3733.707c-2.609,2.61-6.479,3.78-11.159,3.78-5.13,0-9.63-1.08-12.779-5.76-3.06-4.59-3.33-12.689-3.33-19.169s.27-14.58,3.33-19.169c3.149-4.68,7.649-5.76,12.779-5.76,4.32,0,7.83.72,10.979,3.69s4.5,7.739,4.77,11.969H308.784a7.394,7.394,0,0,0-.9-3.33,3.123,3.123,0,0,0-2.88-1.53,3.4,3.4,0,0,0-3.15,1.89c-.9,1.98-.9,6.75-.9,12.24s0,10.259.9,12.239a3.4,3.4,0,0,0,3.15,1.89,3.336,3.336,0,0,0,2.97-1.62,7.5,7.5,0,0,0,.81-3.24h11.969C320.483,3726.327,318.953,3730.917,316.163,3733.707Z" transform="translate(-236.416 -3672.689)" fill="#333"/><path d="M356.573,3733.707c-2.61,2.61-6.479,3.78-11.159,3.78-5.13,0-9.63-1.08-12.78-5.76-3.06-4.59-3.329-12.689-3.329-19.169s.269-14.58,3.329-19.169c3.15-4.68,7.65-5.76,12.78-5.76,4.319,0,7.829.72,10.98,3.69s4.5,7.739,4.769,11.969h-11.97a7.368,7.368,0,0,0-.9-3.33,3.123,3.123,0,0,0-2.88-1.53,3.4,3.4,0,0,0-3.15,1.89c-.9,1.98-.9,6.75-.9,12.24s0,10.259.9,12.239a3.4,3.4,0,0,0,3.15,1.89,3.336,3.336,0,0,0,2.97-1.62,7.465,7.465,0,0,0,.809-3.24h11.97C360.893,3726.327,359.363,3730.917,356.573,3733.707Z" transform="translate(-236.409 -3672.689)" fill="#333"/><path d="M398.6,3731.727c-3.151,4.68-7.651,5.76-12.78,5.76s-9.63-1.08-12.78-5.76c-3.06-4.59-3.329-12.689-3.329-19.169s.269-14.58,3.329-19.169c3.15-4.68,7.65-5.76,12.78-5.76s9.629,1.08,12.78,5.76c3.059,4.589,3.33,12.689,3.33,19.169S401.662,3727.137,398.6,3731.727Zm-9.63-31.409a3.57,3.57,0,0,0-6.3,0c-.9,1.98-.9,6.75-.9,12.24s0,10.259.9,12.239a3.57,3.57,0,0,0,6.3,0c.9-1.98.9-6.749.9-12.239S389.873,3702.3,388.973,3700.318Z" transform="translate(-236.402 -3672.689)" fill="#333"/><path d="M432.442,3736.767v-3.51a12.671,12.671,0,0,1-3.509,3.06,10.214,10.214,0,0,1-4.59,1.17c-4.41,0-7.02-1.26-9.36-4.05-1.889-2.34-2.7-4.95-2.7-10.979v-34.109h12.06v33.928c0,2.97,1.62,4.41,3.78,4.41s3.779-1.44,3.779-4.41v-33.928h12.06v48.418Z" transform="translate(-236.394 -3672.689)" fill="#333"/><path d="M475.462,3736.767v-33.929c0-2.97-1.62-4.41-3.78-4.41s-3.781,1.44-3.781,4.41v33.929H455.842v-48.418h11.519v3.51a12.665,12.665,0,0,1,3.511-3.06,10.217,10.217,0,0,1,4.59-1.17c4.409,0,7.019,1.26,9.359,4.05,1.89,2.34,2.7,4.949,2.7,10.979v34.109Z" transform="translate(-236.38 -3672.689)" fill="#333"/><path d="M506.961,3733.8c-3.42-2.43-5.58-6.3-5.58-12.6v-21.869h-4.5v-9.089h4.5v-13.23H513.44v13.23h5.94v9.089h-5.94v21.059c0,3.78,1.89,5.58,5.94,5.58v10.8C514.431,3736.767,510.471,3736.317,506.961,3733.8Z" transform="translate(-236.38 -3672.689)" fill="#333"/></g></g></svg>