<svg xmlns="http://www.w3.org/2000/svg" width="242" height="211" viewBox="0 0 242 211"><g transform="translate(-363.4 -10579.659)"><g transform="translate(527.597 10579.659)"><path d="M540.285,10608.094a8.23,8.23,0,0,1-10.56,0,6.593,6.593,0,0,1-2.037-5.337v-15.844a6.594,6.594,0,0,1,2.037-5.337,8.23,8.23,0,0,1,10.56,0,6.594,6.594,0,0,1,2.037,5.337v15.844A6.593,6.593,0,0,1,540.285,10608.094Zm-3.534-21.389c0-1.376-.749-2.043-1.746-2.043s-1.746.667-1.746,2.043v16.261c0,1.376.748,2.042,1.746,2.042s1.746-.666,1.746-2.042Z" transform="translate(-527.688 -10579.659)" fill="#333"/><path d="M560.293,10605.341v4.337h-5.571v-4.337h-8.439v-5l7.65-20.347h5.362l-7.275,20.347h2.7v-3.585h5.571v3.585h2.037v5Z" transform="translate(-527.698 -10579.657)" fill="#333"/></g><path d="M364.108,10676.75,384.1,10696.8l-19.989,20.047" transform="translate(0 0.229)" fill="none" stroke="#333" stroke-miterlimit="10" stroke-width="2"/><g transform="translate(515.87 10671.077)"><path d="M542.337,10700.049v-2.34a8.747,8.747,0,0,0,3.69-7.516c0-4.6-2.891-8.326-6.457-8.326s-6.458,3.728-6.458,8.326a8.75,8.75,0,0,0,3.69,7.516v2.5a14.087,14.087,0,0,0-6.15,3.865v3.7H549.1v-3.7A14,14,0,0,0,542.337,10700.049Z" transform="translate(-515.962 -10670.836)" fill="#333"/><ellipse cx="23.914" cy="23.984" rx="23.914" ry="23.984" fill="none" stroke="#333" stroke-miterlimit="10" stroke-width="2"/><path d="M572.817,10728.68h0a6.279,6.279,0,0,1-8.9,0l-13.351-13.388,8.9-8.926,13.35,13.388A6.324,6.324,0,0,1,572.817,10728.68Z" transform="translate(-515.973 -10670.778)" fill="#333"/></g><g transform="translate(483.598 10771.932)"><path d="M499.378,10773.439v16.321H496.76v-1.583h-10.6v1.624h-2.5v-16.362Zm-2.619,12.271v-9.845h-10.6v9.845Z" transform="translate(-483.664 -10771.475)" fill="#fc088e"/><path d="M514.937,10787.681h6.4v2.045H506.36v-2.045h6.279v-1.984H507.62v-2.065h5.018v-2.326l-1.14,1.363a14.823,14.823,0,0,0-1.519-1.744,7.5,7.5,0,0,1-1.8,2.145,13.4,13.4,0,0,0-1.72-1.4,21.462,21.462,0,0,1-1.919,8.381,9.241,9.241,0,0,0-2.02-1.323c1.56-2.867,1.68-7.058,1.68-9.985v-5.434h7.3v-1.8h2.48v1.8H521.2v2.185H506.54v3.269c0,.862-.02,1.845-.08,2.908,1.64-1.1,2.4-2.928,2.64-5.254l2.16.16a13.867,13.867,0,0,1-.481,2.407,23.269,23.269,0,0,1,1.86,1.844v-4.672h2.3v4.893a7.262,7.262,0,0,0,2.16-4.632l2.119.24a12.994,12.994,0,0,1-.54,2.307,34.885,34.885,0,0,1,2.759,2.405l-1.38,1.645a24.71,24.71,0,0,0-2.259-2.146,7.421,7.421,0,0,1-1.8,2.065,8.937,8.937,0,0,0-1.06-.982v1.685h5.319v2.065h-5.319Z" transform="translate(-483.674 -10771.48)" fill="#fc088e"/><path d="M526.883,10779.337v10.869h-2.32v-17.967h7.7v7.1Zm0-5.394v1.023h3.139v-1.023Zm3.139,3.67v-1.1h-3.139v1.1Zm5.858,8.081v4.131H533.8v-4.131h-1.92a6.534,6.534,0,0,1-2.559,4.49,9,9,0,0,0-1.52-1.363,4.7,4.7,0,0,0,2.04-3.127h-2.02v-1.945h2.1v-1.5H528.1v-1.885h9.658v1.885h-1.88v1.5h2.2v1.945Zm-2.079-1.945v-1.5h-1.86v1.5Zm7.617,3.67c0,1.223-.22,1.884-.94,2.265a7.081,7.081,0,0,1-3.278.461,8.528,8.528,0,0,0-.721-2.365c.9.04,1.88.04,2.18.021.32,0,.42-.121.42-.4v-8.021h-5.5v-7.139h7.838Zm-5.578-13.476v1.023h3.239v-1.023Zm3.239,3.71v-1.143H535.84v1.143Z" transform="translate(-483.687 -10771.478)" fill="#fc088e"/><path d="M552.43,10776.672h-7.818v-1.886h7.818Zm9.976,3.89a13.546,13.546,0,0,1-3.079,5.835,13.661,13.661,0,0,0,4.119,1.726,10.223,10.223,0,0,0-1.539,2.063,13.9,13.9,0,0,1-4.4-2.185,16.12,16.12,0,0,1-4.578,2.185,10.144,10.144,0,0,0-1.24-2.063v1.021H547.51v.782h-2.019v-6.837h6.2v4.992a13.071,13.071,0,0,0,4.039-1.725,13.928,13.928,0,0,1-2.3-3.469l2.039-.662h-2.779v-2.146h.681a10.673,10.673,0,0,0-1.66-1.443v.763h-6.158v-1.825h6.158v.963a4.511,4.511,0,0,0,1.94-4.11v-2.387h6.7v4.492c0,.561.04.621.26.621h.5c.26,0,.341-.261.361-2.006a6.725,6.725,0,0,0,1.939.842c-.2,2.486-.72,3.189-2.06,3.189h-1.159c-1.6,0-2.059-.622-2.059-2.607v-2.426h-2.24v.341a6.354,6.354,0,0,1-2.479,5.594h7.037l.4-.1Zm-10.7,1.544h-6.158v-1.784h6.158Zm-.04-8.2h-6.038v-1.8h6.038Zm-2.039,11.069h-2.12v2.306h2.12Zm5.9-2.748a9.851,9.851,0,0,0,1.94,2.707,9.487,9.487,0,0,0,1.879-2.707Z" transform="translate(-483.698 -10771.479)" fill="#fc088e"/><path d="M579.089,10780.884a19.863,19.863,0,0,0,5.218,1.945,8.786,8.786,0,0,0-1.46,1.884,14.359,14.359,0,0,1-1.479-.521v5.895h-2.339v-.461h-8.417v.521h-2.24v-5.674c-.54.24-1.059.481-1.579.661a9.772,9.772,0,0,0-1.52-1.884,20.943,20.943,0,0,0,5.339-2.366h-4.638v-1.925h3.238a8.141,8.141,0,0,0-.62-1.344l.841-.16a5.83,5.83,0,0,0-.48-1.545,91,91,0,0,0,10.375-.741l1.22,1.584c-.52.08-1.059.161-1.639.221l2.359.581c-.34.5-.66.983-.94,1.4h3.359v1.925Zm-10.677-4.051h-2.2v-3.97h7.417v-1.363h2.38v1.363h7.377v3.97h-2.319v-1.965H568.412Zm5.218,7.78h-3.018v.942h3.018Zm-3.018,3.368h3.018V10787h-3.018Zm3.018-10.587c-.939.061-1.9.08-2.818.1a5.529,5.529,0,0,1,.66,1.464h2.159Zm5.279,5.595a15.671,15.671,0,0,1-2.879-2.105h-.16v1.905h-2.24v-1.846a18.019,18.019,0,0,1-2.6,2.046Zm.12,1.624H575.85v.942h3.179Zm0,3.368V10787H575.85v.982Zm-1.02-9.022a14.8,14.8,0,0,0,.859-1.965c-.939.1-1.959.2-3,.28v1.685Z" transform="translate(-483.709 -10771.48)" fill="#fc088e"/><path d="M599.113,10775.771a15.992,15.992,0,0,0,6.119,3.469,8.982,8.982,0,0,0-1.54,1.905,14.268,14.268,0,0,1-2.1-.983v7.6h3.278v2.085H586.8v-2.085h3.3v-7.641a16.819,16.819,0,0,1-2.259,1.1,10.005,10.005,0,0,0-1.48-1.845,15.6,15.6,0,0,0,5.939-3.609h-5.379v-2.065h7.658v-2.225h2.34v2.225h7.817v2.065Zm2.26,4.271a16.589,16.589,0,0,1-4.458-3.689v3.148h-2.34v-3.229a16.688,16.688,0,0,1-4.339,3.77Zm-2.24,1.945h-6.717v.8h6.717Zm-6.717,3.289h6.717v-.843h-6.717Zm6.717,2.486v-.843h-6.717v.843Z" transform="translate(-483.721 -10771.48)" fill="#fc088e"/></g></g></svg>