<svg xmlns="http://www.w3.org/2000/svg" viewBox="0 0 272.39 267.15"><defs><style>.cls-1{fill:#333;}.cls-2,.cls-5,.cls-7{fill:none;}.cls-2,.cls-6,.cls-7{stroke:#333;stroke-miterlimit:10;}.cls-2{stroke-width:2px;}.cls-3{fill:#fc088e;}.cls-4,.cls-6{fill:#fff;}.cls-6,.cls-7{stroke-width:2.98px;}</style></defs><g id="レイヤー_2" data-name="レイヤー 2"><g id="Account"><g id="account_img_step05"><path class="cls-1" d="M182.68,28.37a8.25,8.25,0,0,1-10.56,0,6.59,6.59,0,0,1-2-5.33V7.24a6.59,6.59,0,0,1,2-5.33,8.25,8.25,0,0,1,10.56,0,6.59,6.59,0,0,1,2,5.33V23A6.59,6.59,0,0,1,182.68,28.37ZM179.15,7c0-1.37-.75-2-1.75-2s-1.75.67-1.75,2V23.25c0,1.37.75,2,1.75,2s1.75-.67,1.75-2Z"/><path class="cls-1" d="M202,28.37a7.75,7.75,0,0,1-5.28,1.91,7.56,7.56,0,0,1-5.28-1.91,6.59,6.59,0,0,1-2-5.33V21.88H195v2c0,1.37.75,2,1.75,2a1.48,1.48,0,0,0,1.37-.67c.59-.79.5-3.49.5-5.07s.09-3.67-.37-4.46a1.62,1.62,0,0,0-1.5-.87c-1,0-1.75.67-1.75,2v.21h-5.32V.33h14.18v5H194.7v6.53a5.78,5.78,0,0,1,1.63-1.41,4.73,4.73,0,0,1,2.12-.54,5,5,0,0,1,4.32,1.87c1.29,1.58,1.38,4.83,1.38,7.9C204.15,23.13,204.27,26.21,202,28.37Z"/><polyline class="cls-2" points="0.71 97.09 20.71 117.09 0.71 137.09"/><path class="cls-3" d="M136.23,193.78v16.28h-2.62v-1.58H123v1.62h-2.5V193.78ZM133.61,206V196.2H123V206Z"/><path class="cls-3" d="M151.79,208h6.4v2h-15v-2h6.29v-2h-5v-2.06h5v-2.32L148.35,203a14.87,14.87,0,0,0-1.52-1.74,7.83,7.83,0,0,1-1.8,2.14,14.27,14.27,0,0,0-1.73-1.4,21.37,21.37,0,0,1-1.92,8.36,9.26,9.26,0,0,0-2-1.32c1.56-2.86,1.68-7,1.68-10v-5.42h7.31v-1.8h2.48v1.8h7.22v2.18H143.38v3.26c0,.86,0,1.84-.08,2.9,1.65-1.1,2.4-2.92,2.65-5.24l2.16.16a13.77,13.77,0,0,1-.48,2.4,23.25,23.25,0,0,1,1.86,1.84v-4.66h2.3v4.88a7.24,7.24,0,0,0,2.16-4.62l2.12.24a12.91,12.91,0,0,1-.54,2.3,35,35,0,0,1,2.76,2.4l-1.38,1.64a24.53,24.53,0,0,0-2.26-2.14,7.43,7.43,0,0,1-1.8,2.06,8.93,8.93,0,0,0-1.06-1v1.68h5.32V206h-5.32Z"/><path class="cls-3" d="M163.73,199.66V210.5h-2.32V192.58h7.7v7.08Zm0-5.38v1h3.14v-1Zm3.14,3.66v-1.1h-3.14v1.1Zm5.86,8.06v4.12h-2.08V206h-1.92a6.51,6.51,0,0,1-2.56,4.48,9,9,0,0,0-1.52-1.36,4.69,4.69,0,0,0,2-3.12h-2v-1.94h2.1v-1.5H165v-1.88h9.66v1.88h-1.88v1.5h2.2V206Zm-2.08-1.94v-1.5h-1.86v1.5Zm7.62,3.66c0,1.22-.22,1.88-.94,2.26a7.11,7.11,0,0,1-3.28.46,8.46,8.46,0,0,0-.72-2.36c.9,0,1.88,0,2.18,0s.42-.12.42-.4v-8h-5.5v-7.12h7.84Zm-5.58-13.44v1h3.24v-1Zm3.24,3.7v-1.14h-3.24V198Z"/><path class="cls-3" d="M189.28,197h-7.83v-1.88h7.83Zm10,3.88a13.49,13.49,0,0,1-3.08,5.82,13.66,13.66,0,0,0,4.12,1.72,10.25,10.25,0,0,0-1.54,2.06,13.94,13.94,0,0,1-4.4-2.18,16.15,16.15,0,0,1-4.58,2.18,10.07,10.07,0,0,0-1.24-2.06v1h-4.19v.78h-2V203.4h6.21v5a13.11,13.11,0,0,0,4-1.72,13.91,13.91,0,0,1-2.3-3.46l2-.66h-2.78V200.4h.68a10.6,10.6,0,0,0-1.66-1.44v.76h-6.17V197.9h6.17v1a4.49,4.49,0,0,0,1.94-4.1v-2.38h6.7v4.48c0,.56,0,.62.26.62h.5c.26,0,.34-.26.36-2a6.79,6.79,0,0,0,1.94.84c-.2,2.48-.72,3.18-2.06,3.18H197c-1.6,0-2.06-.62-2.06-2.6v-2.42h-2.24v.34a6.33,6.33,0,0,1-2.48,5.58h7l.4-.1Zm-10.7,1.54h-6.17v-1.78h6.17Zm0-8.18h-6.05v-1.8h6.05Zm-2.05,11h-2.12v2.3h2.12Zm5.91-2.74a9.85,9.85,0,0,0,1.94,2.7,9.48,9.48,0,0,0,1.88-2.7Z"/><path class="cls-3" d="M218.38,208c.66,0,.75-.34.84-2.4a7.57,7.57,0,0,0,2.14.9c-.26,2.9-.86,3.66-2.77,3.66H216c-2.32,0-2.88-.68-2.88-2.84V203.3h-2.6c-.4,3.44-1.5,5.92-6.52,7.24a7.43,7.43,0,0,0-1.38-2.12c4.28-.92,5-2.64,5.3-5.12h-4.74v-2.24H221v2.24h-5.49v4c0,.64.12.72.84.72ZM206,198.48h-2.42v-4.72h7.22v-1.92h2.52v1.92h7.35v4.72h-2.55V196H206Zm.92,1.14v-2.16h10.3v2.16Z"/><path class="cls-3" d="M240.32,194.44a30.64,30.64,0,0,1-6.76,6.18v7.1c0,1.38-.34,2-1.32,2.38a14.09,14.09,0,0,1-4.35.4,10.41,10.41,0,0,0-.94-2.44c1.4.08,3.05.08,3.51.06s.58-.1.58-.44v-9.06h1.34a23,23,0,0,0,3.46-3.06H224.23v-2.34h13.65l.58-.16Z"/><path class="cls-1" d="M93.72,240.52a9.37,9.37,0,0,1-2,3.76,9,9,0,0,0,2.82,1.19A7.85,7.85,0,0,0,93.4,247a9,9,0,0,1-3-1.49A10.54,10.54,0,0,1,87.7,247a6.6,6.6,0,0,0-.85-1.28V247H85v-1.29l-5.08.46-.14-1.63c.42,0,.9,0,1.39-.1v-4.86H80V238H94.18v1.51H86.85v5.86a8.45,8.45,0,0,0,2.28-1.16,9.43,9.43,0,0,1-1.46-2.37l1.06-.28H87.25v-1.46h5l.32-.06Zm-1.38-3.07H81.83v-4.91H92.34ZM83,239.55v.64H85v-.64Zm0,2.64H85v-.67H83Zm0,2.09c.67,0,1.37-.09,2.08-.16v-.62H83Zm7.49-10.53H83.65v.66h6.79Zm0,1.81H83.65v.67h6.79Zm-1.17,6a6.18,6.18,0,0,0,1.07,1.56,6.53,6.53,0,0,0,1.09-1.56Z"/><path class="cls-1" d="M102.22,244.85a24.66,24.66,0,0,0-1.62-2.36A9.08,9.08,0,0,1,97.87,247a6.46,6.46,0,0,0-1.32-1.34,8.56,8.56,0,0,0,2.76-5.73H96.68v-1.76H99.4v-2.48H99a12.39,12.39,0,0,1-1,2.09,10.54,10.54,0,0,0-1.62-.88A12.56,12.56,0,0,0,98.08,232l1.79.34c-.1.53-.23,1.05-.35,1.57H103v1.71h-1.8v2.48h2v1.76h-2.1c0,.21,0,.4-.06.61.64.65,2,2.35,2.4,2.75Zm9.25.06v1.76h-9.14v-1.76Zm-.22-10.48h-8.18v-1.77h8.18Zm-.5,6.49h-7.09v-5.26h7.09Zm-6,3.81a13.2,13.2,0,0,0-.72-3.1l1.62-.39a11.47,11.47,0,0,1,.8,3.06Zm4.15-7.41h-3.49v1.94h3.49Zm-1.37,7.09a16.91,16.91,0,0,0,1-3.26l1.87.4c-.43,1.17-.86,2.45-1.24,3.23Z"/><path class="cls-1" d="M113.88,243.68h2.54v-7.49h-2.14v-1.46a7.68,7.68,0,0,0,2.75-1h1.75v9.94H121v1.9h-7.12Z"/><path class="cls-1" d="M128.49,243.89h-3.25v1.4h-1.76V233h5Zm-3.25-9.19v2.81h1.47V234.7Zm1.47,7.49v-3h-1.47v3Zm9.54-3.75v1.38h1.54v1.65h-1.54V245c0,.91-.18,1.39-.8,1.68a7.14,7.14,0,0,1-2.67.32,6.77,6.77,0,0,0-.61-1.79c.77,0,1.66,0,1.9,0s.34-.07.34-.29v-3.44h-5.62v-1.65h5.62v-1.38h-5.65v-1.66h3.62v-1.41H129.3V233.7h3.08V232h1.87v1.68h3.2v1.67h-3.2v1.41h3.65v1.66Zm-5.3,3.22a11,11,0,0,1,1.94,2.62l-1.63.95a11.36,11.36,0,0,0-1.83-2.69Z"/><path class="cls-1" d="M142.4,238.41V247h-1.89V232.63h6.13v5.78Zm0-4.4v.85h2.46V234Zm2.46,3v-.91H142.4v.91Zm9.16,7.67c0,1-.21,1.58-.85,1.89a6.93,6.93,0,0,1-2.93.36,7.08,7.08,0,0,0-.41-1.48h-4v.81h-1.73v-6.93h6.16v5.68c.62,0,1.22,0,1.42,0s.39-.09.39-.35v-6.26h-4.36v-5.81H154Zm-8.16-3.94v1h2.64v-1Zm2.64,3.31v-1h-2.64v1ZM149.55,234v.85h2.55V234Zm2.55,3.07v-.94h-2.55v.94Z"/><path class="cls-1" d="M158.23,234.55l6.85-.6c1.64-.13,3.37-.23,4.49-.28v2.05a16.41,16.41,0,0,0-3.05.21,4.8,4.8,0,0,0-3.35,4.43c0,2.61,2.43,3.56,5.12,3.69l-.73,2.19c-3.33-.21-6.47-2-6.47-5.44a6.28,6.28,0,0,1,2.34-4.89c-1.38.15-4.71.5-6.55.9l-.21-2.18C157.32,234.62,157.93,234.59,158.23,234.55Zm10.41,4.89-1.22.54a12.89,12.89,0,0,0-1.25-2.23l1.19-.49A21.14,21.14,0,0,1,168.64,239.44Zm1.85-.79-1.2.58a13.6,13.6,0,0,0-1.31-2.16l1.17-.55A23.16,23.16,0,0,1,170.49,238.65Z"/><path class="cls-1" d="M186.78,234.31a21.3,21.3,0,0,1-2.31,8.39,8.87,8.87,0,0,0,2.9,2.59,7.06,7.06,0,0,0-1.31,1.57,10,10,0,0,1-2.76-2.45,10.59,10.59,0,0,1-2.85,2.45,7.81,7.81,0,0,0-1-1.39V247h-1.84v-2.56c-1.84.32-3.72.61-5.19.84l-.37-1.91,1.47-.16v-8.5h-1.08v-1.76h8v1.14h4.79l.32-.05Zm-11.5.37v1.52h2.28v-1.52Zm0,4.84h2.28v-1.61h-2.28Zm0,3.44,2.28-.31v-1.44h-2.28Zm4.12,2.25a8.75,8.75,0,0,0,2.77-2.54,22.38,22.38,0,0,1-2.16-6.34l1.82-.37a19.47,19.47,0,0,0,1.47,4.74,17.93,17.93,0,0,0,1.38-4.77H180v-1.25h-.56Z"/><path class="cls-1" d="M196.28,239.69a6.51,6.51,0,0,1-.06.79c-.26,3.53-.55,5.09-1.11,5.71a2.17,2.17,0,0,1-1.58.69,21.82,21.82,0,0,1-2.51,0,4.77,4.77,0,0,0-.71-2c1,.1,2,.11,2.42.11a1,1,0,0,0,.72-.19c.34-.27.54-1.28.72-3.38h-3.25c0,.26-.1.5-.14.72l-1.92-.3a53.53,53.53,0,0,0,1-5.64h4.44v-1.82h-4.82v-1.78h6.7V238h-4.64c-.08.56-.17,1.14-.27,1.68Zm5.38-7.43V247h-1.9V232.26Z"/><path class="cls-1" d="M217,234.73a7.12,7.12,0,0,0-.56,1,23.33,23.33,0,0,1-2.51,4.4,45.53,45.53,0,0,1,4.46,4.58l-1.82,1.59a35.7,35.7,0,0,0-4-4.53,21,21,0,0,1-6,4.49l-1.65-1.72a18.21,18.21,0,0,0,6.56-4.6,12.45,12.45,0,0,0,2.39-3.92h-5.43c-.67,0-1.55.1-1.89.11v-2.27c.43.06,1.41.11,1.89.11H214a5.85,5.85,0,0,0,1.67-.21Z"/><path class="cls-1" d="M233.61,235.37a8.73,8.73,0,0,0-.53,1.14,18.27,18.27,0,0,1-2.2,4.38c.59.37,1.13.74,1.53,1L231,243.79c-.39-.34-.9-.72-1.49-1.14a15.37,15.37,0,0,1-5.91,4L221.7,245a13.41,13.41,0,0,0,6-3.58c-1.08-.71-2.17-1.36-3-1.83l1.36-1.52c.85.43,1.94,1,3,1.68a11.59,11.59,0,0,0,1.67-3.41h-4.6a18.82,18.82,0,0,1-4.22,4.13l-1.73-1.33a14.71,14.71,0,0,0,5.1-5.31,7,7,0,0,0,.72-1.68l2.32.72c-.38.56-.8,1.3-1,1.63v0h3.28a5.15,5.15,0,0,0,1.39-.18Z"/><path class="cls-1" d="M236.26,238.17c.58.05,1.74.1,2.58.1h8.59c.74,0,1.46-.07,1.87-.1v2.51c-.38,0-1.2-.08-1.87-.08h-8.59c-.92,0-2,0-2.58.08Z"/><path class="cls-1" d="M262.47,241.9a46.55,46.55,0,0,0-5.78-2.38v4.53c0,.46.08,1.58.14,2.22h-2.49a18.12,18.12,0,0,0,.16-2.22v-9.19a11.37,11.37,0,0,0-.16-1.94h2.49a18.59,18.59,0,0,0-.14,1.94v2.35a51.81,51.81,0,0,1,6.69,2.48Z"/><path class="cls-1" d="M268.72,244.16a1.67,1.67,0,0,1,3.33,0,1.67,1.67,0,0,1-3.33,0ZM269,236l-.06-2.38h2.93l-.08,2.38-.56,5.48h-1.65Z"/><path class="cls-1" d="M79.07,248.38v-.8h76.44v.8Z"/><path class="cls-1" d="M90.83,261.16l4-4,.34.35-3.95,3.95,3.95,4-.34.35-4-4-4,4-.35-.35,4-4-4-3.95.35-.35Zm-2.52.34a.9.9,0,1,1-.9-.9A.9.9,0,0,1,88.31,261.5ZM90.83,259a.9.9,0,1,1,.9-.9A.91.91,0,0,1,90.83,259Zm0,5a.9.9,0,1,1-.9.9A.91.91,0,0,1,90.83,264Zm2.52-2.52a.9.9,0,1,1,.9.9A.91.91,0,0,1,93.35,261.5Z"/><path class="cls-1" d="M101.41,258.66h-4v-1.47h5.9v1.06c-2.06,2.52-2.34,4.33-2.48,7.81H99.05A12.28,12.28,0,0,1,101.41,258.66Z"/><path class="cls-1" d="M104.55,260.53a1.1,1.1,0,1,1,1.09,1.14A1.09,1.09,0,0,1,104.55,260.53Zm0,4.55a1.1,1.1,0,1,1,1.09,1.15A1.1,1.1,0,0,1,104.55,265.08Z"/><path class="cls-1" d="M108.57,261.59c0-3.07,1.2-4.57,3-4.57s3,1.51,3,4.57-1.2,4.64-3,4.64S108.57,264.65,108.57,261.59Zm4.34,0c0-2.48-.57-3.2-1.33-3.2s-1.34.72-1.34,3.2.58,3.26,1.34,3.26S112.91,264.08,112.91,261.59Z"/><path class="cls-1" d="M116.34,261.59c0-3.07,1.2-4.57,3-4.57s3,1.51,3,4.57-1.2,4.64-3,4.64S116.34,264.65,116.34,261.59Zm4.34,0c0-2.48-.58-3.2-1.33-3.2s-1.34.72-1.34,3.2.57,3.26,1.34,3.26S120.68,264.08,120.68,261.59Z"/><path class="cls-1" d="M124.35,262h3.27v1.25h-3.27Z"/><path class="cls-1" d="M128.62,265c2.41-2.16,3.84-3.82,3.84-5.19a1.27,1.27,0,0,0-1.33-1.44,2.29,2.29,0,0,0-1.63.91l-1-1a3.6,3.6,0,0,1,2.82-1.34,2.6,2.6,0,0,1,2.79,2.73c0,1.61-1.33,3.34-3,4.92.45-.05,1-.1,1.44-.1h1.93v1.49h-5.95Z"/><path class="cls-1" d="M136.25,265c2.41-2.16,3.84-3.82,3.84-5.19a1.28,1.28,0,0,0-1.33-1.44,2.33,2.33,0,0,0-1.64.91l-1-1A3.62,3.62,0,0,1,139,257a2.61,2.61,0,0,1,2.8,2.73c0,1.61-1.33,3.34-2.95,4.92.44-.05,1-.1,1.44-.1h1.93v1.49h-5.95Z"/><path class="cls-1" d="M144,260.53a1.1,1.1,0,1,1,1.09,1.14A1.09,1.09,0,0,1,144,260.53Zm0,4.55a1.1,1.1,0,1,1,1.09,1.15A1.1,1.1,0,0,1,144,265.08Z"/><path class="cls-1" d="M148.06,261.59c0-3.07,1.2-4.57,3-4.57s3,1.51,3,4.57-1.2,4.64-3,4.64S148.06,264.65,148.06,261.59Zm4.34,0c0-2.48-.57-3.2-1.33-3.2s-1.34.72-1.34,3.2.58,3.26,1.34,3.26S152.4,264.08,152.4,261.59Z"/><path class="cls-1" d="M155.83,261.59c0-3.07,1.2-4.57,3-4.57s3,1.51,3,4.57-1.2,4.64-3,4.64S155.83,264.65,155.83,261.59Zm4.34,0c0-2.48-.58-3.2-1.33-3.2s-1.34.72-1.34,3.2.57,3.26,1.34,3.26S160.17,264.08,160.17,261.59Z"/><path class="cls-1" d="M166.32,256.91A9.38,9.38,0,0,0,166,258a28.92,28.92,0,0,0-.58,4.35,7.09,7.09,0,0,0,.05.77c.17-.42.36-.82.53-1.2l.74.57a30.24,30.24,0,0,0-.85,2.92,3.06,3.06,0,0,0-.07.55c0,.13,0,.32,0,.49l-1.36.1a15.17,15.17,0,0,1-.47-3.89,33.16,33.16,0,0,1,.49-4.7,8.59,8.59,0,0,0,.12-1.16Zm2.78,5.87a3.72,3.72,0,0,0-.15,1c0,.53.46.84,1.66.84a14,14,0,0,0,3-.31l0,1.61a16.9,16.9,0,0,1-3.07.24c-2.05,0-3-.75-3-2a7.41,7.41,0,0,1,.2-1.55Zm4.15-5.09v1.54a33.39,33.39,0,0,1-5.1,0v-1.54A24.23,24.23,0,0,0,173.25,257.69Z"/><path class="cls-1" d="M179.85,261.14a9.85,9.85,0,0,1,2.28-.31c1.82,0,3.26,1,3.26,2.6,0,1.41-.73,2.46-2.61,2.93a9.19,9.19,0,0,1-1.56.19l-.55-1.52a9.3,9.3,0,0,0,1.46-.08c1-.17,1.73-.66,1.73-1.53s-.72-1.27-1.75-1.27a8.26,8.26,0,0,0-2.24.33c0,.94.06,1.85.06,2.26,0,1.48-.54,1.86-1.3,1.86-1.17,0-2.81-1-2.81-2.25,0-1.05,1.21-2.11,2.66-2.75,0-.28,0-.55,0-.83v-1l-.63,0c-.54,0-1.14,0-1.66-.06l0-1.44a12,12,0,0,0,1.64.1l.68,0c0-.42,0-.76,0-1a8.39,8.39,0,0,0-.09-1H180c0,.21-.07.73-.09,1s0,.55,0,.85a16.42,16.42,0,0,0,2.18-.44l0,1.48a22.82,22.82,0,0,1-2.27.38c0,.36,0,.72,0,1.06Zm-1.31,3.34c0-.3,0-.84,0-1.46-.73.37-1.21.86-1.21,1.28s.55.69.86.69S178.54,264.89,178.54,264.48Zm4.9-6.84a25.94,25.94,0,0,1,2.91,1.67l-.72,1.22a17.39,17.39,0,0,0-2.85-1.72Z"/><path class="cls-1" d="M198,257.5v7.1H196.5V264h-2.66v3.07h-1.5V264h-2.6v.64h-1.43V257.5h4v-1.61h1.5v1.61Zm-8.25,1.36v1.22h2.6v-1.22Zm2.6,3.8v-1.28h-2.6v1.28Zm1.5-3.8v1.22h2.66v-1.22Zm2.66,3.8v-1.28h-2.66v1.28Z"/><path class="cls-1" d="M203.12,256.59a12.4,12.4,0,0,0-.15,1.58c-.06,1.27-.15,3.93-.15,5.41a1.43,1.43,0,0,0,1.63,1.58,4.75,4.75,0,0,0,4.07-2.42l1.08,1.33a6.18,6.18,0,0,1-5.16,2.71c-1.94,0-3.2-.85-3.2-2.88,0-1.59.12-4.71.12-5.73a7.38,7.38,0,0,0-.16-1.61Z"/><path class="cls-1" d="M213.93,264.32a2.94,2.94,0,0,0,2.64,1.18c1.4.06,4.1,0,5.69-.1a7.81,7.81,0,0,0-.44,1.44c-1.44.07-3.85.1-5.28,0a4,4,0,0,1-3.24-1.33c-.52.46-1.05.93-1.7,1.44l-.69-1.49a17.5,17.5,0,0,0,1.63-1.11v-2.53h-1.38v-1.3h2.77Zm-.83-5.38a8.94,8.94,0,0,0-1.93-1.9l1.05-.86a9.7,9.7,0,0,1,2,1.81Zm4.57,0c0-.39-.1-.8-.13-1.21h-2.09v-1.34h3.3c.18,3.39.9,6.28,3.39,7.53A6.35,6.35,0,0,0,221,265a6.62,6.62,0,0,1-2.88-3.93,7.69,7.69,0,0,1-2.82,3.94,8.68,8.68,0,0,0-1.1-1.08c1.68-1,2.6-2.78,3-5.07Z"/><path class="cls-1" d="M233.94,264.47a12.25,12.25,0,0,0-1-.83,5.87,5.87,0,0,1-3,3.21l-1.27-1a5.16,5.16,0,0,0,3-3,8.38,8.38,0,0,0-2.79-.95,23.94,23.94,0,0,1-1.38,2.85,2,2,0,0,1-1.84,1,1.77,1.77,0,0,1-1.83-1.92c0-1.83,1.67-3.25,4.06-3.35.33-.77.67-1.57,1-2.14-.47,0-1.49.05-2,.09-.25,0-.67.06-1,.1l-.06-1.53c.31,0,.72.05,1,.05.67,0,1.94-.05,2.5-.1a3,3,0,0,0,.8-.18l.95.74a2.86,2.86,0,0,0-.4.51,22.83,22.83,0,0,0-1.16,2.54,10.11,10.11,0,0,1,2.55.77c0-.15,0-.28,0-.41a9.14,9.14,0,0,0,0-1.29l1.55.17a17.77,17.77,0,0,1-.22,2.21c.49.28.92.57,1.27.79Zm-6.66-2.61c-1.32.21-2,1-2,1.75,0,.34.2.57.44.57s.41-.11.62-.41A15,15,0,0,0,227.28,261.86Z"/><path class="cls-1" d="M241.28,265.15c.45-.06.79-.12,1.1-.19a3.22,3.22,0,0,0,2.7-3.18,2.94,2.94,0,0,0-2.48-3.14,25.09,25.09,0,0,1-.71,3.22c-.71,2.4-1.74,3.87-3,3.87s-2.43-1.46-2.43-3.46a5.3,5.3,0,0,1,5.47-5.08,4.53,4.53,0,0,1,4.8,4.64c0,2.49-1.54,4.27-4.53,4.72Zm-.93-3.6a17.85,17.85,0,0,0,.64-2.88,3.73,3.73,0,0,0-3,3.44c0,1.21.48,1.79.92,1.79S239.87,263.16,240.35,261.55Z"/><path class="cls-1" d="M254.83,261.91c-.1.19-.22.39-.34.58h4.87s0,.32,0,.49c-.17,2.34-.36,3.3-.68,3.64a1.1,1.1,0,0,1-.8.41,7.38,7.38,0,0,1-1.21,0,2.77,2.77,0,0,0-.32-1.12,7.94,7.94,0,0,0,.85,0,.42.42,0,0,0,.36-.13,5.25,5.25,0,0,0,.44-2.25h-.46a8.47,8.47,0,0,1-2.4,3.55,4,4,0,0,0-1-.79,6.5,6.5,0,0,0,2.23-2.76h-.71a9.11,9.11,0,0,1-2.8,3,4.51,4.51,0,0,0-.94-.84,7.19,7.19,0,0,0,2.45-2.17h-.72a7.26,7.26,0,0,1-1.39,1.18,4.84,4.84,0,0,0-.94-.84l-2.46,1.22-.52-1.44c.4-.15.91-.36,1.47-.59v-3.38h-1.2v-1.34h1.2v-2.36h1.32v2.36h1.13v1.34H251.1v2.83l1-.42.25,1a5.82,5.82,0,0,0,1.11-1.27h-1.36v-1.2h7.54v1.2Zm4-1.65h-5.67V256.2h5.67Zm-1.32-3.07h-3.1v.57h3.1Zm0,1.51h-3.1v.57h3.1Z"/><path class="cls-1" d="M267.26,255.91a12,12,0,0,0,5.13,4.13,7.34,7.34,0,0,0-.93,1.28,13.42,13.42,0,0,1-1.83-1.14V261h-6v-.84a18.19,18.19,0,0,1-1.86,1.18,5.8,5.8,0,0,0-.9-1.17,12.62,12.62,0,0,0,4.88-4.27Zm-4.39,6.29h7.6v4.92H269v-.45h-4.74v.45h-1.4Zm6.17-2.45a13.5,13.5,0,0,1-2.46-2.43,12.29,12.29,0,0,1-2.38,2.43Zm-4.77,3.71v2H269v-2Z"/><path class="cls-1" d="M144.48,115.65a37.34,37.34,0,0,1,16-25.41l2.75,3.55a32.82,32.82,0,0,0-14.34,22.37Z"/><polygon class="cls-1" points="158.24 87.59 164.21 98.03 173.15 86.1 158.24 87.59"/><path class="cls-1" d="M218.23,123.66a37.32,37.32,0,0,1-16,25.41l-2.75-3.54a32.88,32.88,0,0,0,14.35-22.37Z"/><polygon class="cls-1" points="204.47 151.72 198.51 141.28 189.56 153.21 204.47 151.72"/><path class="cls-1" d="M199.68,121.56a1.11,1.11,0,0,1-1-.63,1.08,1.08,0,0,1,.5-1.46l.14-.07a1.11,1.11,0,1,1,.94,2l-.08,0A1.12,1.12,0,0,1,199.68,121.56ZM183,119.12a1,1,0,0,1-.66-.25l-.12-.11a1.11,1.11,0,1,1,1.47-1.66,1.17,1.17,0,0,1,.17,1.61A1.14,1.14,0,0,1,183,119.12Zm23.29-3.24a1.07,1.07,0,0,1-.6-.17,1.11,1.11,0,0,1-.34-1.53,1.2,1.2,0,0,1,1.58-.4,1,1,0,0,1,.38,1.47s-.07.11-.07.12A1.14,1.14,0,0,1,206.32,115.88Zm2.55-8.38h0a1.11,1.11,0,0,1-1.09-1.13v-.2a1.11,1.11,0,1,1,2.22,0v.24A1.11,1.11,0,0,1,208.87,107.5Zm-30.56-4.58a.86.86,0,0,1-.28,0,1.06,1.06,0,0,1-.78-1.31l.05-.16a1.11,1.11,0,0,1,2.13.65A1.22,1.22,0,0,1,178.31,102.92ZM206.45,99a1.12,1.12,0,0,1-.95-.53,1.16,1.16,0,0,1,.29-1.59,1.08,1.08,0,0,1,1.51.27l.1.16a1.11,1.11,0,0,1-1,1.69Zm-23.36-3.47a1.1,1.1,0,0,1-.83-.36,1.06,1.06,0,0,1,.06-1.52l.13-.11a1.11,1.11,0,0,1,1.44,1.69A1.21,1.21,0,0,1,183.09,95.53Zm16.76-2.32a1.12,1.12,0,0,1-.44-.09l-.17-.08a1.11,1.11,0,0,1-.54-1.48,1.13,1.13,0,0,1,1.49-.53l.11,0a1.11,1.11,0,0,1-.45,2.13Zm-8.71-1.3A1.16,1.16,0,0,1,190,91a1.05,1.05,0,0,1,.88-1.25l.19,0a1.11,1.11,0,0,1,.25,2.21Z"/><circle class="cls-4" cx="170.92" cy="131.59" r="20.88"/><path class="cls-5" d="M175.71,114.36a19.48,19.48,0,0,0,11.73,10.36A18,18,0,0,0,175.71,114.36Z"/><path class="cls-5" d="M172.25,113.76c-.44,0-.88-.07-1.33-.07a17.9,17.9,0,1,0,17.89,17.9,17.73,17.73,0,0,0-.35-3.52A22.43,22.43,0,0,1,172.25,113.76Z"/><path class="cls-1" d="M215.66,106.24a22.37,22.37,0,0,0-44.74,0c0,.5,0,1,.07,1.49a22.9,22.9,0,0,1,3,.22c-.05-.57-.09-1.14-.09-1.71A19.39,19.39,0,1,1,194,125.59a24,24,0,0,1,.58,2.95A22.38,22.38,0,0,0,215.66,106.24Z"/><path class="cls-1" d="M175.71,114.36a18,18,0,0,0-3.46-.6,22.43,22.43,0,0,0,16.21,14.31,18,18,0,0,0-1-3.35A19.48,19.48,0,0,1,175.71,114.36Z"/><circle class="cls-6" cx="170.92" cy="131.59" r="20.88"/><line class="cls-7" x1="162.71" y1="129.35" x2="179.12" y2="129.35"/><line class="cls-7" x1="162.71" y1="135.32" x2="179.12" y2="135.32"/><line class="cls-7" x1="170.92" y1="140.54" x2="170.92" y2="129.35"/><polygon class="cls-1" points="170.92 130.1 167.93 130.1 164.95 123.39 167.93 123.39 170.92 130.1"/><polygon class="cls-1" points="170.92 130.1 173.9 130.1 176.88 123.39 173.9 123.39 170.92 130.1"/><path class="cls-1" d="M168.71,148.13h-.15l-.18,0a1.11,1.11,0,1,1,.37-2.19,1.16,1.16,0,0,1,1,1.27A1.08,1.08,0,0,1,168.71,148.13Zm8.6-1.22a1.11,1.11,0,0,1-1-.63,1.08,1.08,0,0,1,.5-1.46l.14-.06a1.11,1.11,0,1,1,.94,2l-.08,0A1.12,1.12,0,0,1,177.31,146.91Zm-16.65-2.43a1,1,0,0,1-.66-.26l-.12-.1a1.11,1.11,0,0,1,1.47-1.67,1.14,1.14,0,0,1-.69,2ZM184,141.24a1.08,1.08,0,0,1-.6-.18,1.11,1.11,0,0,1-.34-1.53,1.19,1.19,0,0,1,1.58-.39,1,1,0,0,1,.38,1.47l-.07.11A1.15,1.15,0,0,1,184,141.24Zm-28-4.18a1,1,0,0,1-1-.74l0-.15a1.11,1.11,0,1,1,2.14-.62,1.2,1.2,0,0,1-.74,1.46A1.48,1.48,0,0,1,155.91,137.06Zm30.59-4.21h0a1.1,1.1,0,0,1-1.09-1.12v-.21a1.11,1.11,0,1,1,2.22,0v.24A1.1,1.1,0,0,1,186.5,132.85Zm-30.56-4.58a.86.86,0,0,1-.28,0,1.06,1.06,0,0,1-.78-1.31l.05-.16a1.11,1.11,0,1,1,2.13.65A1.2,1.2,0,0,1,155.94,128.27Zm28.14-3.91a1.12,1.12,0,0,1-1-.53,1.17,1.17,0,0,1,.29-1.6,1.08,1.08,0,0,1,1.51.27l.1.16a1.12,1.12,0,0,1-.95,1.7Zm-23.36-3.48a1.1,1.1,0,0,1-.83-.36A1.06,1.06,0,0,1,160,119l.13-.11a1.1,1.1,0,0,1,1.56.13,1.11,1.11,0,0,1-.12,1.57A1.25,1.25,0,0,1,160.72,120.88Zm16.76-2.31a1,1,0,0,1-.44-.1l-.17-.07a1.11,1.11,0,0,1-.54-1.48,1.13,1.13,0,0,1,1.49-.54l.11.05a1.12,1.12,0,0,1-.45,2.14Zm-8.71-1.3a1.16,1.16,0,0,1-1.16-1,1.06,1.06,0,0,1,.88-1.25l.19,0a1.11,1.11,0,1,1,.25,2.21Z"/><path class="cls-1" d="M186.63,99.52h6.06c3.76,0,6.62.86,6.62,3.56a3.33,3.33,0,0,1-2.49,3.12v.1c2,.37,3.43,1.47,3.43,3.42,0,2.91-3.06,4.26-7.09,4.26h-6.53Zm5.79,5.88c2.32,0,3.33-.74,3.33-1.89s-1.08-1.78-3.28-1.78h-2.18v3.67Zm.42,6.35c2.49,0,3.85-.7,3.85-2.2s-1.33-2-3.85-2h-2.55v4.2Z"/><rect class="cls-1" x="189.56" y="98.29" width="2.07" height="1.47"/><rect class="cls-1" x="193.7" y="98.29" width="2.07" height="1.47"/><rect class="cls-1" x="189.56" y="112.98" width="2.07" height="2.02"/><rect class="cls-1" x="193.7" y="112.98" width="2.07" height="2.02"/></g></g></g></svg>