<svg xmlns="http://www.w3.org/2000/svg" width="367" height="193" viewBox="0 0 367 193"><g transform="translate(-883.4 -10307.659)"><path d="M884.108,10392.751l20,20.043-20,20.043" transform="translate(0 0.183)" fill="none" stroke="#333" stroke-miterlimit="10" stroke-width="2"/><path d="M1229.108,10392.751l20,20.043-20,20.043" transform="translate(0 0.183)" fill="none" stroke="#333" stroke-miterlimit="10" stroke-width="2"/><g transform="translate(1052.688 10307.659)"><path d="M1065.292,10336.089a8.235,8.235,0,0,1-10.566,0,6.587,6.587,0,0,1-2.038-5.335v-15.841a6.591,6.591,0,0,1,2.038-5.336,8.238,8.238,0,0,1,10.566,0,6.59,6.59,0,0,1,2.038,5.336v15.841A6.587,6.587,0,0,1,1065.292,10336.089Zm-3.536-21.384c0-1.376-.749-2.043-1.747-2.043s-1.747.667-1.747,2.043v16.257c0,1.376.748,2.043,1.747,2.043s1.747-.667,1.747-2.043Z" transform="translate(-1052.688 -10307.66)" fill="#333"/><path d="M1084.635,10336.132a8.364,8.364,0,0,1-10.607-.043,6.587,6.587,0,0,1-2.038-5.335v-1.584h5.574v1.792c0,1.376.79,2.043,1.789,2.043a1.624,1.624,0,0,0,1.331-.709c.54-.708.5-2.709.5-3.668s.041-2.71-.458-3.5a1.586,1.586,0,0,0-1.414-.708h-1.331v-4.669h1.331a1.46,1.46,0,0,0,1.165-.5c.582-.708.5-2.251.5-3.125a5.6,5.6,0,0,0-.416-2.877,1.367,1.367,0,0,0-1.206-.584,1.573,1.573,0,0,0-1.581,1.793v2.042H1072.2v-1.667a6.73,6.73,0,0,1,2.038-5.294,7.131,7.131,0,0,1,5.117-1.876,6.851,6.851,0,0,1,5.074,1.834c1.456,1.418,2.121,3.627,2.121,6.213a10.347,10.347,0,0,1-.707,4.5,5.011,5.011,0,0,1-1.622,1.876,6.123,6.123,0,0,1,1.747,2,10.664,10.664,0,0,1,.79,4.961C1086.756,10331.713,1086.8,10334.089,1084.635,10336.132Z" transform="translate(-1052.688 -10307.66)" fill="#333"/></g><g transform="translate(1134.748 10444.09)"><path d="M1134.748,10453.488l1.139-1.369a3.9,3.9,0,0,0,2.519,1.1c1.031,0,1.58-.443,1.58-1.14,0-.74-.6-.968-1.486-1.344l-1.327-.563a2.876,2.876,0,0,1-2.009-2.672c0-1.625,1.419-2.873,3.429-2.873a4.4,4.4,0,0,1,3.108,1.274l-1,1.25a3.157,3.157,0,0,0-2.1-.82c-.87,0-1.433.39-1.433,1.048,0,.712.71.967,1.554,1.3l1.3.552a2.743,2.743,0,0,1,2,2.7c0,1.624-1.354,3.007-3.645,3.007A5.276,5.276,0,0,1,1134.748,10453.488Z" transform="translate(-1134.748 -10443.796)" fill="#333"/><path d="M1144.254,10444.815h2.2l1.688,4.646c.214.617.4,1.275.6,1.92h.068c.214-.645.388-1.3.6-1.92l1.648-4.646h2.2v9.936h-1.808v-4.148c0-.939.147-2.322.241-3.264h-.054l-.8,2.337-1.528,4.176h-1.138l-1.542-4.176-.79-2.337h-.053c.093.941.254,2.324.254,3.264v4.148h-1.782Z" transform="translate(-1134.748 -10443.796)" fill="#333"/><path d="M1155.4,10453.488l1.139-1.369a3.9,3.9,0,0,0,2.519,1.1c1.031,0,1.58-.443,1.58-1.14,0-.74-.6-.968-1.487-1.344l-1.326-.563a2.877,2.877,0,0,1-2.01-2.672c0-1.625,1.42-2.873,3.43-2.873a4.4,4.4,0,0,1,3.108,1.274l-1,1.25a3.157,3.157,0,0,0-2.1-.82c-.871,0-1.433.39-1.433,1.048,0,.712.71.967,1.554,1.3l1.3.552a2.742,2.742,0,0,1,2,2.7c0,1.624-1.353,3.007-3.643,3.007A5.276,5.276,0,0,1,1155.4,10453.488Z" transform="translate(-1134.748 -10443.796)" fill="#333"/><path d="M1169.1,10446.857h-4.863v-1.261h4.863Zm-.348,7.533a6.062,6.062,0,0,0,.857-2.766l1.26.322a6.393,6.393,0,0,1-1.032,3.262l-1.085-.658v.658h-2.639v.523H1164.8v-4.578h3.952Zm-.014-5.707h-3.9v-1.221h3.9Zm-3.9.618h3.9v1.194h-3.9Zm3.858-4.3h-3.818v-1.207h3.818Zm-1.272,7.412h-1.313v1.544h1.313Zm2.813-6.78c.4.12.831.281,1.26.443q.12-.423.2-.848h-2.009v-1.328h6.645s0,.4-.014.591c-.133,3.035-.268,4.283-.63,4.713a1.193,1.193,0,0,1-.883.51,8.974,8.974,0,0,1-1.448.054,3.821,3.821,0,0,0-.375-1.4c-.227-.148-.468-.3-.736-.443a5.461,5.461,0,0,1-2.3,2.188,3.777,3.777,0,0,0-.9-1.128,4.412,4.412,0,0,0,1.929-1.692c-.5-.214-1.005-.416-1.474-.563Zm3.175,8.807c.255,0,.308-.174.349-1.409a3.812,3.812,0,0,0,1.3.577c-.147,1.759-.536,2.2-1.487,2.2h-1.1c-1.26,0-1.515-.443-1.515-1.772v-2.94h1.474v2.927c0,.363.027.416.268.416Zm-1.232-5.2a9.3,9.3,0,0,1,2.4,1.706l-.992,1.02a10.008,10.008,0,0,0-2.331-1.8Zm.951-4.016a10.768,10.768,0,0,1-.335,1.438,11.237,11.237,0,0,1,1.219.671l-.643,1.035c.281.013.509.013.643.013a.379.379,0,0,0,.4-.175c.188-.2.3-.993.389-2.981Zm2.358,6.083a9.974,9.974,0,0,1,1.46,3.316l-1.406.577a9.989,9.989,0,0,0-1.34-3.384Z" transform="translate(-1134.748 -10443.798)" fill="#333"/><path d="M1178.322,10445.651h4.971v1.261h-4.971Zm4.582,9.732h-2.653v.523h-1.339v-4.577h3.992Zm-.093-6.619h-3.859v-1.2h3.859Zm-3.859.671h3.859v1.209h-3.859Zm3.859-4.431h-3.778v-1.207h3.778Zm-2.56,7.586v1.53h1.287v-1.53Zm10.611,1.37v1.489h-7.529v-1.489h.817v-6.364h1.487v6.364h1.019v-8.378h-2.948v-1.518h6.9v1.518h-2.385v3.169h2.318v1.5h-2.318v3.706Z" transform="translate(-1134.748 -10443.798)" fill="#333"/></g><g transform="translate(954.005 10370.53)"><g transform="translate(0 3.707)"><path d="M954.005,10382.475v-8.38h8.361" transform="translate(-954.005 -10374.095)" fill="none" stroke="#333" stroke-miterlimit="10" stroke-width="2"/><path d="M1001.385,10382.475v-8.38h-8.361" transform="translate(-954.005 -10374.095)" fill="none" stroke="#333" stroke-miterlimit="10" stroke-width="2"/><path d="M954.005,10414.507v8.38h8.361" transform="translate(-954.005 -10374.008)" fill="none" stroke="#333" stroke-miterlimit="10" stroke-width="2"/><path d="M1001.385,10414.507v8.38h-8.361" transform="translate(-954.005 -10374.008)" fill="none" stroke="#333" stroke-miterlimit="10" stroke-width="2"/></g><g transform="translate(94.015 3.659)"><path d="M1054.177,10383.2h-3.344l-.724,2.652h-2.089l3.3-10.332h2.424l3.316,10.332h-2.16Zm-.446-1.605-.306-1.132c-.321-1.074-.6-2.262-.906-3.378h-.056c-.264,1.131-.57,2.3-.877,3.378l-.307,1.132Z" transform="translate(-1048.02 -10374.044)" fill="#fc088e"/><path d="M1058.96,10375.523h2.062v10.332h-2.062Z" transform="translate(-1048.02 -10374.044)" fill="#fc088e"/><path d="M1067.778,10381.362h2.7v1.564h-2.7v4.146h-1.616v-4.146h-2.8v-1.564h2.8v-1.479h-2.494v-1.535h2.494v-4.3h1.616v4.3h2.48v1.535h-2.48Zm-3.3-3.308a14.481,14.481,0,0,0-.877-2.862l1.351-.419a14.909,14.909,0,0,1,.975,2.792Zm3.5-.419a17.723,17.723,0,0,0,1.017-2.96l1.616.376a27.7,27.7,0,0,1-1.337,2.961Zm4.513,5.948h-1.615v-7.861h1.615Zm3.3-9.271v10.75c0,.977-.195,1.438-.766,1.7a7.373,7.373,0,0,1-2.772.321,6.1,6.1,0,0,0-.571-1.717c.905.027,1.8.027,2.089.027.265,0,.377-.083.377-.335v-10.75Z" transform="translate(-1048.02 -10374.047)" fill="#fc088e"/><path d="M1085.227,10385.188a14.385,14.385,0,0,0,1.588.084c.752,0,3.051,0,3.984-.042a6.2,6.2,0,0,0-.585,1.688h-3.483c-2.577,0-4.486-.419-5.739-2.415a7.134,7.134,0,0,1-1.867,2.653,10.184,10.184,0,0,0-1.366-1.132c1.505-1.116,2.188-3.043,2.438-5.43l1.728.167c-.084.628-.181,1.215-.307,1.773a3.755,3.755,0,0,0,1.895,2.191v-4.928h-2.967v-1.578h7.662v1.578h-2.981v1.745h3.831v1.563h-3.831Zm-5.169-6.255h-1.63v-3.49h5.057v-1.4h1.756v1.4h5.1v3.49h-1.713v-1.912h-8.568Z" transform="translate(-1048.02 -10374.047)" fill="#fc088e"/></g><path d="M983.269,10423.624v-5.3c4.939-3.027,8.361-9.5,8.361-17.015,0-10.412-6.551-18.852-14.632-18.852s-14.632,8.439-14.632,18.852c0,7.518,3.423,13.986,8.362,17.015v5.655a31.941,31.941,0,0,0-13.936,8.752v8.38H998.6v-8.38A31.7,31.7,0,0,0,983.269,10423.624Z" transform="translate(-954.005 -10370.37)" fill="#333"/><line x2="99.005" transform="translate(68.979 45.603)" fill="none" stroke="#fc088e" stroke-miterlimit="10" stroke-width="2.787"/><path d="M1108.891,10402.8l13.8,13.825-13.8,13.824" transform="translate(-954.005 -10370.326)" fill="none" stroke="#fc088e" stroke-miterlimit="10" stroke-width="2.787"/><ellipse cx="25.083" cy="25.137" rx="25.083" ry="25.137" transform="translate(91.095 20.465)" fill="#fc088e"/><g transform="translate(101.546 31.252)"><rect width="4.489" height="2.634" transform="translate(12.387)" fill="#fff"/><path d="M1077.151,10414.3h-13.935v-11.173h13.935Zm-10.1-6.983a1.4,1.4,0,1,0,1.394,1.4A1.395,1.395,0,0,0,1067.048,10407.315Zm6.271,0a1.4,1.4,0,1,0,1.393,1.4A1.4,1.4,0,0,0,1073.319,10407.315Z" transform="translate(-1055.552 -10401.577)" fill="#fff"/><g transform="translate(9.057 14.351)"><path d="M1075.758,10427.072h-11.149V10415.9h11.149Zm-7.665-7.681H1066.7v1.4h1.393Zm2.787,0h-1.393v1.4h1.393Zm2.787,0h-1.393v1.4h1.393Z" transform="translate(-1064.609 -10415.9)" fill="#fff"/><rect width="2.787" height="6.983" transform="translate(1.394 11.171)" fill="#fff"/><rect width="2.787" height="6.983" transform="translate(6.968 11.171)" fill="#fff"/></g><path d="M0,0,7.951-.008v1.4L0,1.4Z" transform="matrix(0.789, -0.614, 0.614, 0.789, 3.057, 19.387)" fill="#fff"/><path d="M1055.552,10422.171" transform="translate(-1055.552 -10401.536)" fill="none" stroke="#fff" stroke-miterlimit="10" stroke-width="1.394"/><path d="M1060.429,10424.969h-1.394v-3.49h-3.484v-1.4h4.877Z" transform="translate(-1055.552 -10401.54)" fill="#fff"/><path d="M0,0H1.4L1.387,7.949h-1.4Z" transform="matrix(0.614, -0.789, 0.789, 0.614, 19.082, 15.599)" fill="#fff"/><path d="M1079.938,10424.969h1.394v-3.49h3.484v-1.4h-4.877Z" transform="translate(-1055.552 -10401.54)" fill="#fff"/></g><g transform="translate(189.721)"><path d="M3,0H38.53a3,3,0,0,1,3,3V57.785a8,8,0,0,1-8,8H8a8,8,0,0,1-8-8V3A3,3,0,0,1,3,0Z" fill="#333"/><path d="M1,0H32.73a1,1,0,0,1,1,1V45.744a5,5,0,0,1-5,5H5a5,5,0,0,1-5-5V1A1,1,0,0,1,1,0Z" transform="translate(3.9 3.493)" fill="#fff"/><rect width="18.755" height="4.028" transform="translate(11.387 57.73)" fill="#fff"/><line x2="36.171" transform="translate(2.679 19.604)" fill="none" stroke="#333" stroke-miterlimit="10" stroke-width="1.34"/><line x2="36.171" transform="translate(2.679 35.578)" fill="none" stroke="#333" stroke-miterlimit="10" stroke-width="1.34"/><g transform="translate(9.054 24.358)"><path d="M1152.78,10400.673h1.492v-4.4h-1.257v-.855a4.528,4.528,0,0,0,1.614-.583h1.023v5.84h1.3v1.119h-4.176Z" transform="translate(-1152.78 -10394.702)" fill="#333"/><path d="M1158.619,10400.992c1.886-1.691,3-3,3-4.072a1,1,0,0,0-1.041-1.128,1.8,1.8,0,0,0-1.277.716l-.75-.753a2.811,2.811,0,0,1,2.205-1.053,2.037,2.037,0,0,1,2.186,2.143c0,1.261-1.041,2.615-2.308,3.857.347-.038.807-.076,1.126-.076h1.511v1.166h-4.655Z" transform="translate(-1152.78 -10394.702)" fill="#333"/><path d="M1164.8,10400.955l.647-.875a2.206,2.206,0,0,0,1.549.715c.7,0,1.182-.348,1.182-.968,0-.687-.4-1.11-1.914-1.11v-1c1.276,0,1.689-.442,1.689-1.062a.83.83,0,0,0-.929-.874,1.977,1.977,0,0,0-1.314.62l-.7-.847a3.078,3.078,0,0,1,2.083-.854c1.342,0,2.253.657,2.253,1.853a1.648,1.648,0,0,1-1.164,1.589v.047a1.738,1.738,0,0,1,1.389,1.712,2.17,2.17,0,0,1-2.44,2.021A2.946,2.946,0,0,1,1164.8,10400.955Z" transform="translate(-1152.78 -10394.702)" fill="#333"/><path d="M1176.15,10399.986h-.826v1.806h-1.286v-1.806h-2.955v-.94l2.589-4.213h1.652v4.1h.826Zm-2.112-1.053v-1.42c0-.4.038-1.034.057-1.439h-.038c-.169.366-.356.752-.554,1.129l-1.079,1.73Z" transform="translate(-1152.78 -10394.702)" fill="#333"/></g></g></g><g transform="translate(968.165 10481.875)"><path d="M983.328,10484.864a9.6,9.6,0,0,0-.7,1.243,29.469,29.469,0,0,1-3.141,5.514,56.067,56.067,0,0,1,5.581,5.733l-2.28,1.984a45.662,45.662,0,0,0-5.041-5.674,26.357,26.357,0,0,1-7.522,5.634l-2.06-2.166a22.657,22.657,0,0,0,8.2-5.753,15.537,15.537,0,0,0,2.98-4.911h-6.781c-.84,0-1.941.12-2.361.14v-2.846a22.359,22.359,0,0,0,2.361.14h7.041a7.2,7.2,0,0,0,2.081-.261Z" transform="translate(-968.165 -10481.496)" fill="#fc088e"/><path d="M1004.949,10485.826a5.43,5.43,0,0,0-.68.842,33.356,33.356,0,0,1-6.822,7.838c1.14,1.144,2.321,2.446,3.1,3.389l-2.34,1.864a55.578,55.578,0,0,0-3.821-4.33,42.52,42.52,0,0,0-4.4-3.849l2.12-1.705c.8.6,2.121,1.685,3.381,2.787a22.252,22.252,0,0,0,5.081-5.773H989.986c-.8,0-1.881.1-2.3.141v-2.807a19.21,19.21,0,0,0,2.3.18h11.1a6.474,6.474,0,0,0,1.86-.22Z" transform="translate(-968.165 -10481.496)" fill="#fc088e"/><path d="M1013.332,10491.022a32.541,32.541,0,0,1-3.861,5.593l-2.18-1.483a20.154,20.154,0,0,0,3.76-5.173Zm4.521-2.848v9.323c0,1.162-.68,1.884-2.1,1.884a28.5,28.5,0,0,1-3.24-.18l-.24-2.467a12.933,12.933,0,0,0,2.22.221c.52,0,.7-.2.72-.722.02-.742.02-7.1.02-8.039v-.021h-5.081c-.6,0-1.36.021-1.92.081v-2.646c.6.061,1.3.141,1.92.141h5.081v-1.6a13.318,13.318,0,0,0-.16-1.744h2.961a12.34,12.34,0,0,0-.18,1.764v1.584h4.641a15.921,15.921,0,0,0,1.981-.141v2.627c-.621-.041-1.4-.062-1.961-.062Zm4.061,1.725a46.665,46.665,0,0,1,3.42,5.272l-2.34,1.283a40.417,40.417,0,0,0-3.261-5.372Z" transform="translate(-968.165 -10481.5)" fill="#fc088e"/><path d="M1036.15,10496.934c.761-.1,1.321-.2,1.841-.321a5.37,5.37,0,0,0,4.5-5.312c0-2.746-1.48-4.791-4.141-5.252a43.233,43.233,0,0,1-1.18,5.393c-1.18,4.009-2.9,6.455-5.061,6.455-2.181,0-4.041-2.426-4.041-5.773,0-4.571,3.981-8.5,9.122-8.5,4.9,0,8,3.429,8,7.759,0,4.17-2.56,7.137-7.561,7.9Zm-1.54-6.015a31.957,31.957,0,0,0,1.06-4.812,6.223,6.223,0,0,0-5.021,5.753c0,2.006.8,2.988,1.54,2.988C1033.01,10494.849,1033.81,10493.605,1034.61,10490.919Z" transform="translate(-968.165 -10481.496)" fill="#fc088e"/><path d="M1063.848,10486.672a8.67,8.67,0,0,0-.14,1.063c-.08,2.165-.32,7.758-1.18,9.8a2.463,2.463,0,0,1-2.581,1.544c-1.14,0-2.34-.08-3.321-.16l-.3-2.687a16.6,16.6,0,0,0,2.8.281,1.065,1.065,0,0,0,1.14-.7c.58-1.264.84-5.272.84-7.437h-4.5c-.74,5.292-2.64,8.439-6.221,10.986l-2.321-1.885a11.469,11.469,0,0,0,2.621-1.965,11.8,11.8,0,0,0,3.3-7.137h-2.641c-.68,0-1.78,0-2.64.08v-2.626c.84.08,1.88.141,2.64.141h2.861c.02-.562.04-1.144.04-1.744a14.861,14.861,0,0,0-.14-1.845h2.94c-.06.461-.1,1.3-.119,1.784-.02.621-.04,1.223-.08,1.8h3.76a9.755,9.755,0,0,0,1.52-.141Z" transform="translate(-968.165 -10481.5)" fill="#fc088e"/><path d="M1082.3,10483.744a15.92,15.92,0,0,0-.82,1.784,28.59,28.59,0,0,1-2.7,5.453,51.779,51.779,0,0,1,4.762,4.41l-2.061,2.3a40.019,40.019,0,0,0-4.421-4.409,25.033,25.033,0,0,1-7.442,6.193l-2.3-2.063a21.864,21.864,0,0,0,7.6-5.914,51.961,51.961,0,0,0-5.362-3.79l1.721-2.064c1.6,1,3.661,2.405,5.281,3.608a21.88,21.88,0,0,0,2.2-4.751,14.34,14.34,0,0,0,.48-1.845Z" transform="translate(-968.165 -10481.498)" fill="#fc088e"/><path d="M1101.583,10488.9a7.268,7.268,0,0,0-.381.842,14.42,14.42,0,0,1-2.96,5.553,14.986,14.986,0,0,1-7.142,4.331l-2-2.266a13.474,13.474,0,0,0,6.941-3.509,8.691,8.691,0,0,0,2.061-3.468h-9.663c-.48,0-1.48.02-2.32.1v-2.605c.84.08,1.7.12,2.32.12h9.9a4.215,4.215,0,0,0,1.46-.2Zm-13.624-5.814a16.865,16.865,0,0,0,2.081.1h7.7a18.834,18.834,0,0,0,2.16-.1v2.587c-.54-.04-1.48-.061-2.2-.061h-7.662c-.64,0-1.5.021-2.081.061Z" transform="translate(-968.165 -10481.498)" fill="#fc088e"/><path d="M1106.363,10484.645c1.66-.141,4.941-.441,8.562-.762,2.04-.16,4.2-.281,5.6-.342l.02,2.566a20.451,20.451,0,0,0-3.821.261,6.026,6.026,0,0,0-4.181,5.554c0,3.268,3.041,4.449,6.4,4.61l-.921,2.747c-4.16-.262-8.081-2.507-8.081-6.816a7.878,7.878,0,0,1,2.921-6.115c-1.721.182-5.882.622-8.182,1.123l-.26-2.727C1105.223,10484.725,1105.983,10484.685,1106.363,10484.645Zm13,6.114-1.52.682a15.494,15.494,0,0,0-1.561-2.787l1.481-.621A26.2,26.2,0,0,1,1119.366,10490.759Zm2.321-.982-1.5.721a17.6,17.6,0,0,0-1.64-2.705l1.46-.682A30.253,30.253,0,0,1,1121.687,10489.776Z" transform="translate(-968.165 -10481.497)" fill="#fc088e"/><path d="M1142.222,10491.785a13.631,13.631,0,0,1-1.66,5.293,7.659,7.659,0,0,0,2.34,1.544,7.25,7.25,0,0,0-1.3,1.624,8.207,8.207,0,0,1-2.26-1.624,7.789,7.789,0,0,1-2.281,1.6,8.451,8.451,0,0,0-.86-1.423v1.483h-1.96v-1.784c-1.6.321-3.181.64-4.481.882l-.54-1.984c.48-.061,1.02-.121,1.62-.2v-6.314h-.96l.16,1.123-1.781.541v5.172c0,1.1-.179,1.685-.8,2.045a4.953,4.953,0,0,1-2.72.441,9.5,9.5,0,0,0-.58-2.165c.7.04,1.4.04,1.64.04s.34-.08.34-.361v-4.531c-.66.182-1.3.361-1.881.522l-.52-2.285c.68-.142,1.5-.341,2.4-.582v-3.388h-2.04v-2.186h2.04v-3.769h2.12v3.769h1.541v2.186h-1.541v2.826l1.4-.4v-.842H1142.7v1.845h-6.5v7.538a6.359,6.359,0,0,0,1.881-1.384,13.664,13.664,0,0,1-1.421-3.047l1.68-.441a10.353,10.353,0,0,0,.861,1.845,8.836,8.836,0,0,0,.74-2h-3.481v-1.8h4.141l.38-.04Zm-.86-3.467H1131.4v-6.256h9.962Zm-8.662,2.565v.882h1.541v-.882Zm0,3.368h1.541v-.922H1132.7Zm1.541,2.445v-.9H1132.7v1.123Zm4.841-13.091h-5.521v.862h5.521Zm0,2.306h-5.521v.882h5.521Z" transform="translate(-968.165 -10481.502)" fill="#fc088e"/><path d="M1149.238,10496.215a12.235,12.235,0,0,1-2.341,3.489,12.71,12.71,0,0,0-1.7-1.144,8.545,8.545,0,0,0,2.06-2.887Zm7.782-5.913h-11.6v-1.824h4.7v-.862h-3.4v-5.474h9.142v5.474h-3.581v.862h4.742Zm-4.742,5.092v2.786c0,.922-.18,1.383-.84,1.664a5.95,5.95,0,0,1-2.561.341,7.622,7.622,0,0,0-.859-1.824c.76.04,1.56.04,1.78.021.26,0,.32-.061.32-.262v-2.726h-3.281v-4.27h8.862v4.27Zm-3.441-11.126h4.842v-.782h-4.842Zm0,2.044h4.842v-.822h-4.842Zm.02,7.538h4.7v-1.2h-4.7Zm15.344-.24a15.6,15.6,0,0,1-6.822,6.6,7.246,7.246,0,0,0-1.14-1.463l-1.34.681a20.065,20.065,0,0,0-1.981-2.866l1.761-.862a25.327,25.327,0,0,1,1.7,2.186,12.2,12.2,0,0,0,5.481-5.093Zm-.84-10.887a19.144,19.144,0,0,1-5.321,4.712,9.8,9.8,0,0,0-1.7-1.7,13.761,13.761,0,0,0,4.741-3.949Zm.28,5.574a20.423,20.423,0,0,1-5.521,4.831,9.721,9.721,0,0,0-1.7-1.7,15.149,15.149,0,0,0,5.021-4.07Z" transform="translate(-968.165 -10481.5)" fill="#fc088e"/></g></g></svg>