<?xml version="1.0" encoding="utf-8"?>
<!-- Generator: Adobe Illustrator 25.0.0, SVG Export Plug-In . SVG Version: 6.00 Build 0)  -->
<svg version="1.1" id="レイヤー_1" xmlns="http://www.w3.org/2000/svg" xmlns:xlink="http://www.w3.org/1999/xlink" x="0px"
	 y="0px" viewBox="0 0 595.28 136.72" style="enable-background:new 0 0 595.28 136.72;" xml:space="preserve">
<style type="text/css">
	.st0{fill:#D9C240;}
</style>
<g>
	<path class="st0" d="M185.56,65.62c10.73-6.43,10.05-16.88,10.05-16.88c0-5.63-2.44-10-7.33-13.09c-4.89-3.1-11.87-4.65-20.96-4.65
		h-29.66l0.04,75.97H169c9.24,0,16.36-1.57,21.71-5.63c5.34-4.06,9.07-10.24,9.07-17.17c0-4.75-0.66-10.02-4.12-13.33
		C192.35,67.69,189.19,66.55,185.56,65.62z M156.01,46.09h6.87c8.94,0,12.49,1.82,12.71,6.08c0.14,2.61-0.4,5.09-2.57,6.79
		c-2.18,1.71-5.16,1.86-8.95,1.86H156L156.01,46.09L156.01,46.09z M175.93,91.4c-2.41,1.83-5.73,1.56-9.97,1.56h-9.94V74.83
		l10.29,0.24c4.24,0,8.68,0.22,11.05,1.95c2.37,1.73,3.31,3.86,3.31,6.89C180.67,87.07,178.33,89.57,175.93,91.4z"/>
	<rect x="209.29" y="49.14" class="st0" width="16.48" height="58.25"/>
	<rect x="208.68" y="28.26" class="st0" width="17.71" height="16.48"/>
	<path class="st0" d="M257.78,86.88V61.22h17.1V49.27h-17.1V33.2h-16.79v16.06h-7.26v11.96h7.26V89.7
		c0,11.87,5.78,17.22,17.14,18.44c5.88,0.63,14.75-0.31,17.14-1.57v-13.9c-1.81,0.99-4.4,2.63-7.77,2.83
		C258.42,96.01,257.78,92.35,257.78,86.88z"/>
	<path class="st0" d="M456.83,86.88V61.22h17.1V49.27h-17.1V33.2h-16.79v16.06h-7.26v11.96h7.26V89.7
		c0,11.87,5.78,17.22,17.14,18.44c5.88,0.63,14.75-0.31,17.14-1.57v-13.9c-1.81,0.99-4.4,2.63-7.77,2.83
		C457.48,96.01,456.83,90.63,456.83,86.88z"/>
	<polygon class="st0" points="344.91,31.69 327,69.39 309.47,31.69 307.41,31.69 304.52,31.69 289.69,31.69 289.69,107.11 
		307.41,107.11 307.41,62.41 320.6,89.8 332.96,89.8 345.42,61.94 346.17,107.11 363.89,107.11 363.89,31.69 348.19,31.69 	"/>
	<path class="st0" d="M401.63,46.85c-3.65,0-7.69-0.13-12.13,0.85c-4.44,0.99-8.57,1.5-11.13,2.79v14.83
		c6.4-4.14,13.78-5.56,20.88-5.59c5.84-0.02,10.59,2.56,10.59,8.95l-16.18,2.11c-13.7,1.75-20.54,8.29-20.54,19.62
		c0,5.36,1.66,9.65,4.98,12.86s7.86,5.45,13.65,5.45c7.84,0,13.75-2.44,17.75-7.29l0.23,0.63v5.24h17.4V71.77
		C427.34,53.54,418.63,46.85,401.63,46.85z M407.81,92.39c-2.17,2.34-6.22,2.93-9.67,2.93c-2.48,0-4.45-0.66-5.91-1.97
		c-1.45-1.31-1.55-2.36-1.55-4.42c0-4.52,2.99-7.17,8.96-7.93l10.19-2v3.94C409.84,86.52,409.99,90.06,407.81,92.39z"/>
	<path class="st0" d="M485.64,55.09c-6.21,5.36-9.32,14.57-9.32,23.86c0,8.04,2.27,16.5,8.06,21.59s14.63,8.26,24,8.26
		c8.02,0,14.15-2.99,18.4-5.2V85.64c-4.25,4.77-9.56,8.59-13.75,8.86c-5.27,0.34-9.79,0.07-12.74-2.76
		c-5.23-5.02-5.36-9.07-5.36-13.91c0-4.98,1.54-11.24,4.7-14.07s8.23-4.94,13.82-3.29c6.27,1.84,8.67,5.43,13.33,9.75V51.51
		c-3.22-1.71-9.04-4.45-16.23-4.45C500.16,47.06,491.86,49.74,485.64,55.09z"/>
	<path class="st0" d="M571.12,47.16c-7.54,0.1-13.5,2.4-17.9,8.45l-0.23-0.11V28.91h-17.95v78.42h17.95v-30.6
		c0.07,0.01,0-12.04,0-12.04s4.89-3.23,10.68-3.23c9.02,0,9.32,7.68,9.32,15.38v30.49h17.9v-32.9
		C590.89,60.06,587.65,46.94,571.12,47.16z"/>
	<path class="st0" d="M87.37,55.89c0-3.86-3.03-6.96-6.75-6.96h-14.8v14.13L80.9,63.2C84.89,63.19,87.37,59.33,87.37,55.89z"/>
	<path class="st0" d="M28.97,63.19l15.08-0.14V48.92h-14.8c-3.72,0-6.75,3.11-6.75,6.97C22.5,59.33,24.98,63.19,28.97,63.19z"/>
	<path class="st0" d="M29.17,70.7c-4.96,0-8.91,3.41-8.91,9.71c0,5.37,4.3,7.38,8.71,7.38h15.08l-0.21-17.27L29.17,70.7z"/>
	<path class="st0" d="M80.69,70.7l-14.67-0.18l-0.21,17.27h15.08c4.41,0,8.71-2.01,8.71-7.38C89.6,74.1,85.65,70.7,80.69,70.7z"/>
	<path class="st0" d="M77.94,17.8h-46c-15.21,0-27.55,12.34-27.55,27.55v46c0,15.21,12.34,27.55,27.55,27.55h46
		c15.21,0,27.55-12.34,27.55-27.55v-46C105.48,30.13,93.15,17.8,77.94,17.8z M51.62,55.23v9.16v3.89v13.88v9.44
		c0,2.11-1.7,3.82-3.79,3.82h-2.62v5.85c0,0.57-0.46,1.04-1.04,1.04H38.4c-0.57,0-1.04-0.46-1.04-1.04v-5.85h-4.4v5.85
		c0,0.57-0.46,1.04-1.04,1.04h-5.78c-0.57,0-1.04-0.46-1.04-1.04v-5.95c-4.67-0.58-11.72-3.91-12.41-13.72
		c-0.62-8.86,3.62-13.58,7.67-15.72c-2.75-1.8-5.08-4.83-5.46-9.68c-0.72-9.12,5.4-13.65,10.2-14.72v-6.05
		c0-0.57,0.46-1.04,1.04-1.04h5.78c0.57,0,1.04,0.46,1.04,1.04v5.85h4.41v-5.85c0-0.57,0.46-1.04,1.04-1.04h5.78
		c0.57,0,1.04,0.46,1.04,1.04v5.85h2.62c2.09,0,3.79,1.71,3.79,3.82L51.62,55.23z M97.16,81.6c-0.69,9.81-7.74,13.14-12.41,13.72
		v5.95c0,0.57-0.46,1.04-1.04,1.04h-5.78c-0.57,0-1.04-0.46-1.04-1.04v-5.85h-4.4v5.85c0,0.57-0.46,1.04-1.04,1.04h-5.78
		c-0.57,0-1.04-0.46-1.04-1.04v-5.85h-2.62c-2.09,0-3.79-1.71-3.79-3.82v-9.44V68.28v-3.89v-9.16V45.09c0-2.11,1.7-3.82,3.79-3.82
		h2.62v-5.85c0-0.57,0.46-1.04,1.04-1.04h5.78c0.57,0,1.04,0.46,1.04,1.04v5.85h4.41v-5.85c0-0.57,0.46-1.04,1.04-1.04h5.78
		c0.57,0,1.04,0.46,1.04,1.04v6.05c4.8,1.07,10.92,5.59,10.2,14.72c-0.39,4.85-2.71,7.87-5.46,9.68
		C93.54,68.02,97.78,72.75,97.16,81.6z"/>
</g>
</svg>
