<?xml version="1.0" encoding="utf-8"?>
<!-- Generator: Adobe Illustrator 25.0.0, SVG Export Plug-In . SVG Version: 6.00 Build 0)  -->
<svg version="1.1" id="レイヤー_1" xmlns="http://www.w3.org/2000/svg" xmlns:xlink="http://www.w3.org/1999/xlink" x="0px"
	 y="0px" viewBox="0 0 595.28 603.64" style="enable-background:new 0 0 595.28 603.64;" xml:space="preserve">
<style type="text/css">
	.st0{fill:#EAEAEA;}
</style>
<g>
	<path class="st0" d="M479.51,237.2c0-21.63-16.99-39.05-37.84-39.05h-83.01v79.22l84.57,0.78
		C465.59,278.13,479.51,256.5,479.51,237.2z"/>
	<path class="st0" d="M115.74,237.2c0,19.29,13.91,40.92,36.28,40.92l84.57-0.78v-79.22h-83.01
		C132.73,198.12,115.74,215.57,115.74,237.2z"/>
	<path class="st0" d="M153.19,320.22c-27.79,0-49.98,19.12-49.98,54.45c0,30.13,24.11,41.38,48.82,41.38h84.57l-1.17-96.82
		L153.19,320.22z"/>
	<path class="st0" d="M442.05,320.22l-82.27-0.99l-1.17,96.82h84.57c24.71,0,48.82-11.26,48.82-41.38
		C492.04,339.33,469.84,320.22,442.05,320.22z"/>
	<path class="st0" d="M426.62,23.64H168.66c-85.31,0-154.49,69.17-154.49,154.49v257.96c0,85.31,69.17,154.49,154.49,154.49h257.96
		c85.31,0,154.49-69.17,154.49-154.49V178.12C581.07,92.77,511.93,23.64,426.62,23.64z M279.07,233.52v51.37v21.81v77.84v52.92
		c0,11.82-9.52,21.42-21.24,21.42h-14.69v32.82c0,3.19-2.58,5.81-5.81,5.81h-32.43c-3.19,0-5.81-2.58-5.81-5.81v-32.82H174.4v32.82
		c0,3.19-2.58,5.81-5.81,5.81h-32.43c-3.19,0-5.81-2.58-5.81-5.81v-33.38c-26.16-3.26-65.7-21.95-69.56-76.92
		c-3.47-49.67,20.32-76.15,42.98-88.15c-15.4-10.12-28.46-27.08-30.62-54.27c-4.04-51.15,30.27-76.53,57.21-82.52v-33.95
		c0-3.19,2.58-5.81,5.81-5.81h32.43c3.19,0,5.81,2.58,5.81,5.81v32.82h24.71v-32.82c0-3.19,2.58-5.81,5.81-5.81h32.43
		c3.19,0,5.81,2.58,5.81,5.81v32.82h14.69c11.72,0,21.24,9.59,21.24,21.42L279.07,233.52L279.07,233.52z M534.41,381.35
		c-3.86,55.01-43.4,73.7-69.56,76.92v33.38c0,3.19-2.58,5.81-5.81,5.81h-32.43c-3.19,0-5.81-2.58-5.81-5.81v-32.82H396.1v32.82
		c0,3.19-2.58,5.81-5.81,5.81h-32.43c-3.19,0-5.81-2.58-5.81-5.81v-32.82h-14.69c-11.72,0-21.24-9.59-21.24-21.42V384.5v-77.84
		v-21.81v-51.37v-56.82c0-11.82,9.52-21.42,21.24-21.42h14.69v-32.82c0-3.19,2.58-5.81,5.81-5.81h32.43c3.19,0,5.81,2.58,5.81,5.81
		v32.82h24.71v-32.82c0-3.19,2.58-5.81,5.81-5.81h32.43c3.19,0,5.81,2.58,5.81,5.81v33.95c26.94,5.98,61.24,31.36,57.21,82.52
		c-2.16,27.19-15.19,44.14-30.62,54.27C514.09,305.21,537.88,331.72,534.41,381.35z"/>
</g>
</svg>
