<?xml version="1.0" encoding="utf-8"?>
<!-- Generator: Adobe Illustrator 25.0.0, SVG Export Plug-In . SVG Version: 6.00 Build 0)  -->
<svg version="1.1" id="レイヤー_1" xmlns="http://www.w3.org/2000/svg" xmlns:xlink="http://www.w3.org/1999/xlink" x="0px"
	 y="0px" viewBox="0 0 595.28 344.44" style="enable-background:new 0 0 595.28 344.44;" xml:space="preserve">
<style type="text/css">
	.st0{fill:#333333;}
	.st1{fill:#FC088E;}
	.st2{fill:#FFFFFF;}
</style>
<g>
	<g>
		<g>
			<path class="st0" d="M168.51,15.17h13.57c7.13,0,10.59,2.63,10.59,9.7c0,4.33-0.64,8.15-5.37,9.7v0.1
				c4.79,0.83,6.44,4.28,6.44,9.49c0,6.91-2.61,12.23-11.33,12.23h-13.89L168.51,15.17L168.51,15.17z M178.3,31.47h1.81
				c3.09,0,3.41-2.22,3.41-4.8c0-2.89-0.64-4.49-3.03-4.49h-2.18v9.29H178.3z M178.3,49.37h2.02c3.25,0,3.62-1.55,3.62-5.62
				c0-2.84-0.37-5.57-3.41-5.57h-2.23V49.37z"/>
		</g>
		<g>
			<path class="st0" d="M201.94,15.17h9.15v6.09h-9.15V15.17z M201.94,23.42h9.15v32.97h-9.15V23.42z"/>
		</g>
		<g>
			<path class="st0" d="M220.69,30.18h-2.29v-6.4h2.29v-7.17h9.15v7.17h2.29v6.4h-2.29v17.64c0,0.83,0,2.53,1.22,2.53h1.17v6.71
				h-4.42c-3.94,0-7.13-0.77-7.13-5.93V30.18H220.69z"/>
		</g>
		<g>
			<path class="st0" d="M256.98,15.17h15.43l2.77,20.43h0.11l2.77-20.43h15.43v41.22h-9.47V24.35h-0.11l-5.48,32.04h-6.38
				l-5.48-32.04h-0.11v32.04h-9.47L256.98,15.17L256.98,15.17z"/>
		</g>
		<g>
			<path class="st0" d="M323.98,56.39h-8.41v-2.53h-0.11c-1.38,2.01-3.94,3.2-6.49,3.2c-6.7,0-7.45-4.75-7.45-10.06
				c0-6.19,3.56-8.25,6.92-9.7c3.41-1.39,6.7-2.17,6.7-5.73c0-1.75-0.43-2.73-2.13-2.73c-1.65,0-2.34,0.88-2.34,2.27v2.68h-8.51
				V30.8c0-4.85,4.47-8.05,10.75-8.05c8.25,0,11.07,3.2,11.07,10.32L323.98,56.39L323.98,56.39z M315.15,39.83l-2.55,1.81
				c-1.06,0.77-1.6,1.65-1.6,2.94v4.38c0,1.86,0.75,2.63,2.02,2.63c1.44,0,2.13-1.29,2.13-2.89V39.83z"/>
		</g>
		<g>
			<path class="st0" d="M333.22,30.18h-2.29v-6.4h2.29v-7.17h9.15v7.17h2.29v6.4h-2.29v17.64c0,0.83,0,2.53,1.22,2.53h1.17v6.71
				h-4.42c-3.94,0-7.13-0.77-7.13-5.93V30.18H333.22z"/>
		</g>
		<g>
			<path class="st0" d="M351.65,32.14c0-3.87,2.08-9.39,11.23-9.39s11.23,5.52,11.23,9.39v3.51h-9.15v-4.13c0-1.14,0-2.68-2.08-2.68
				s-2.08,1.55-2.08,2.68v16.77c0,1.13,0,2.68,2.08,2.68s2.08-1.55,2.08-2.68v-5.93h9.15v5.31c0,3.87-2.08,9.39-11.23,9.39
				s-11.23-5.52-11.23-9.39V32.14z"/>
		</g>
		<g>
			<path class="st0" d="M381.86,15.17h9.15v11.3h0.11c1.54-2.42,3.41-3.71,6.65-3.71c4.36,0,6.54,3.1,6.54,7.07V56.4h-9.15V33.85
				c0-1.19,0-3.15-2.08-3.15S391,33.07,391,33.85v22.54h-9.15L381.86,15.17L381.86,15.17z"/>
		</g>
		<g>
			<path class="st0" d="M422.12,15.17v16.1l-2.02,13.21h-4.79l-2.02-13.21v-16.1H422.12z M413.29,56.39V46.9h8.83v9.49H413.29z"/>
		</g>
	</g>
	<g>
		<g>
			<path class="st1" d="M182.12,94.77c6.64,0.86,11.83,2.08,18.23,4.26l-1.18,3.4c-2.85-1.24-5.38-2.02-9.72-3.02
				c-3.38-0.78-5.63-1.19-8.62-1.57L182.12,94.77z M184.32,87.16c4.39,0.54,8.78,1.51,14.3,3.13l-1.07,3.32
				c-2.17-0.84-4.12-1.4-7.55-2.16c-2.33-0.54-4.12-0.84-6.94-1.19L184.32,87.16z M184.73,79.71c5.3,0.62,8.73,1.3,14.85,2.92
				l-1.1,3.32c-4.53-1.48-10.16-2.65-14.99-3.1L184.73,79.71z"/>
		</g>
		<g>
			<path class="st1" d="M207.22,85.78c1.15,2.08,1.7,3.37,2.69,6.4l-3.1,0.97c-0.71-2.73-1.26-4.16-2.5-6.53L207.22,85.78z
				 M222.97,85.97c-0.17,0.4-0.22,0.54-0.38,1.38c-0.8,3.67-2.03,6.64-3.79,8.99c-2.03,2.73-4.31,4.48-8.37,6.51
				c-0.71-1.19-1.04-1.59-2.2-2.67c1.92-0.73,3.05-1.32,4.67-2.48c3.21-2.29,5.05-5.05,6.23-9.37c0.36-1.32,0.49-2.27,0.49-3.1
				L222.97,85.97z M213.06,84.68c1.45,2.67,1.98,3.86,2.66,6.21l-3.05,0.94c-0.52-2.05-1.35-4.13-2.5-6.34L213.06,84.68z"/>
		</g>
		<g>
			<path class="st1" d="M229.24,102.52c0.14-0.86,0.17-1.59,0.17-3.02V82.2c0-1.32-0.06-2.02-0.17-2.75H233
				c-0.11,0.81-0.11,1.16-0.11,2.83v5.02c3.76,1.3,8.07,3.27,12.46,5.7l-1.92,3.19c-2.28-1.54-5.13-3.08-9.72-5.16
				c-0.63-0.3-0.71-0.32-0.93-0.46c0.08,0.76,0.11,1.08,0.11,1.84v7.13c0,1.4,0.03,2.11,0.11,3h-3.76V102.52z M240.8,81.17
				c1.13,1.16,1.73,2,2.64,3.64l-2.06,1.13c-0.82-1.48-1.65-2.65-2.64-3.7L240.8,81.17z M244.34,84.27c-0.8-1.4-1.56-2.51-2.58-3.59
				l1.98-1.05c1.1,1.11,1.81,2.05,2.64,3.48L244.34,84.27z"/>
		</g>
		<g>
			<path class="st1" d="M255.54,106.06c-1.54-2.19-2.17-3.29-2.91-5.13c-1.1-2.62-1.59-5.21-1.59-8.04c0-2.35,0.36-4.64,1.07-6.72
				c0.74-2.24,1.54-3.73,3.43-6.4l2.91,1.84c-1.59,2.27-2.25,3.48-2.85,5.37c-0.63,1.86-0.93,3.83-0.93,5.97
				c0,2.11,0.3,4.08,0.88,5.86c0.6,1.84,1.26,3.05,2.85,5.34L255.54,106.06z"/>
		</g>
		<g>
			<path class="st1" d="M265.02,92.53c0-0.92,0.03-1.94,0.08-3c-0.63,1.05-1.26,1.89-2.22,2.94c-0.36-1.27-0.69-2.21-1.23-3.27
				c1.98-2,3.46-4.32,4.61-7.18c0.55-1.4,0.93-2.73,1.07-3.56l3.13,0.92c-0.06,0.19-0.28,0.76-0.33,0.89
				c-0.14,0.35-0.14,0.35-0.58,1.57c-0.33,0.86-1.04,2.38-1.65,3.54v15.12c0,1.19,0.06,2.11,0.19,3.13h-3.27
				c0.17-1.08,0.19-1.78,0.19-3.16L265.02,92.53L265.02,92.53z M276.66,82c0-1.48-0.03-2.29-0.16-3.21h3.27
				c-0.14,0.94-0.17,1.67-0.17,3.21v1.75h4.56c1.15,0,1.87-0.03,2.61-0.11c-0.08,0.73-0.11,1.32-0.11,2.46v7.37
				c0,1.59,0.03,2.27,0.14,3.05h-3.1v-1.38h-4.09v4.99c0,1.62,0.05,2.51,0.17,3.4h-3.27c0.11-0.92,0.16-1.81,0.16-3.37v-5.02h-3.92
				v1.43h-2.99c0.11-0.86,0.14-1.59,0.14-3.1v-7.48c0-1.05-0.03-1.7-0.11-2.35c0.66,0.08,1.37,0.11,2.63,0.11h4.25V82H276.66z
				 M272.76,86.54v5.86h3.9v-5.86H272.76z M283.68,92.4v-5.86h-4.09v5.86H283.68z"/>
		</g>
		<g>
			<path class="st1" d="M292.04,92.4c0-1.03,0.03-1.67,0.08-3c-0.82,1.38-1.21,1.92-1.92,2.81c-0.3-1.11-0.71-2.19-1.24-3.21
				c1.81-1.97,3.05-4,4.06-6.72c0.63-1.65,0.91-2.59,1.07-3.83l3.1,0.73c-1.29,3.94-1.29,3.94-2.31,6.07v15.14
				c0,1.21,0.06,2.11,0.14,3.13h-3.16c0.14-1.11,0.17-1.86,0.17-3.16L292.04,92.4L292.04,92.4z M296.76,103.57
				c0.11-0.92,0.14-1.73,0.14-3.35V88.35c0-1.35-0.05-2.24-0.16-3.05h3.07c-0.11,0.81-0.14,1.7-0.14,3.08v11.31h12.11
				c1.4,0,2.17-0.03,3.02-0.13v2.89c-0.93-0.11-1.78-0.16-3.05-0.16h-12.08v1.3h-2.91V103.57z M299.89,83.44
				c-1.13,0-1.76,0.03-2.58,0.11v-2.81c0.74,0.11,1.48,0.13,2.91,0.13h4.89c0.11-0.94,0.14-1.19,0.22-2.24l3.02,0.16
				c-0.25,1.38-0.25,1.38-0.36,2.08h4.14c1.35,0,1.95-0.03,2.86-0.16v2.83c-0.82-0.08-1.59-0.11-2.53-0.11h-5
				c-0.17,0.78-0.17,0.78-0.38,1.78h3.93c1.18,0,1.76-0.03,2.33-0.08c-0.08,0.86-0.11,1.38-0.11,2.65v8.18
				c0,1.11,0.03,1.59,0.08,2.4c-1.02-0.05-1.51-0.08-2.33-0.08h-7.06c-0.82,0-1.26,0-2.31,0.08c0.05-0.65,0.08-1.3,0.08-2.13v-8.85
				c0-1.05-0.03-1.73-0.08-2.21c0.63,0.05,1.07,0.05,2.22,0.05h0.41c0.19-0.76,0.27-1.11,0.41-1.78L299.89,83.44L299.89,83.44z
				 M304.47,88.91h5.98v-1.4h-5.98V88.91z M304.47,92.37h5.98v-1.43h-5.98V92.37z M304.47,95.99h5.98V94.4h-5.98V95.99z"/>
		</g>
		<g>
			<path class="st1" d="M317.49,104.14c1.59-2.29,2.25-3.51,2.85-5.34c0.58-1.81,0.88-3.73,0.88-5.86s-0.3-4.1-0.93-5.97
				c-0.6-1.89-1.26-3.1-2.85-5.37l2.91-1.84c1.89,2.67,2.69,4.16,3.46,6.4c0.69,2.11,1.04,4.35,1.04,6.72
				c0,2.86-0.49,5.43-1.56,8.04c-0.77,1.84-1.4,2.94-2.94,5.13L317.49,104.14z"/>
		</g>
		<g>
			<path class="st1" d="M333.17,92.4c0-1.11,0-1.59,0.08-2.94c-0.49,0.94-1.13,1.89-1.84,2.78c-0.36-1.32-0.63-2.05-1.18-3.21
				c1.73-1.86,3.02-4.08,4.12-7.02c0.6-1.59,0.85-2.54,1.02-3.73l2.96,1.19c-0.22,0.62-0.3,0.86-0.52,1.48
				c-0.58,1.7-0.58,1.7-1.78,4.45v15.06c0,1.48,0.03,2.32,0.14,3.13H333c0.11-1.08,0.16-1.89,0.16-3.16V92.4H333.17z M353.1,86.43
				c1.04,0,1.81-0.03,2.47-0.11c-0.08,0.73-0.11,1.43-0.11,2.54v11.2c0,1.35,0.05,2.27,0.17,3.37h-3.13v-1.48h-11.64v1.48h-3.07
				c0.11-0.92,0.16-1.97,0.16-2.97V88.91c0-0.97-0.03-1.81-0.14-2.59c0.77,0.08,1.4,0.11,2.53,0.11h2.58v-3.64h-1.34
				c-1.35,0-2.36,0.05-3.24,0.13v-3c0.8,0.11,1.76,0.16,3.24,0.16h11.47c1.54,0,2.53-0.05,3.35-0.16v3
				c-0.8-0.08-1.89-0.13-3.24-0.13h-2.86v3.64L353.1,86.43L353.1,86.43z M340.72,89.02v10.31h2.2V89.02H340.72z M347.66,82.79h-2.11
				v3.64h2.11V82.79z M345.55,99.33h2.11V89.02h-2.11V99.33z M350.3,99.33h2.31V89.02h-2.31V99.33z"/>
		</g>
		<g>
			<path class="st1" d="M365.81,94.37c-0.41-0.84-0.6-1.16-1.1-1.75c-0.08,0.19-0.14,0.24-0.25,0.46c-0.93-1.54-0.96-1.59-1.62-3.05
				c0.08,1.27,0.11,2.21,0.11,3.54v6.75c0,1.43,0.05,2.48,0.17,3.32h-3.16c0.11-0.86,0.17-1.97,0.17-3.32v-5.51
				c0.11-2.32,0.11-2.32,0.19-3.51c-0.96,3.05-1.4,4.1-2.44,5.83c-0.63-1.24-0.96-1.73-1.76-2.48c1.67-2.38,3.05-5.48,3.73-8.45
				h-1.04c-0.88,0-1.43,0.03-2.03,0.11V83.5c0.44,0.08,1.1,0.14,2.06,0.14h1.26v-2.27c0-1.4-0.03-2.13-0.14-2.81h3.13
				c-0.11,0.78-0.14,1.51-0.14,2.81v2.27h0.8c0.69,0,1.15-0.03,1.59-0.11v1.97c2.17-2.11,3.79-4.78,4.25-7.04l3.05,0.51
				c-0.14,0.27-0.19,0.43-0.47,1.08c-0.05,0.19-0.14,0.35-0.27,0.67h3.84c1.24,0,1.87-0.03,2.39-0.13l1.67,1.75
				c-0.27,0.38-0.36,0.49-0.74,1.19c-1.18,1.97-2.33,3.48-3.76,4.91c2.5,1.48,4.5,2.35,7,3c-0.74,0.94-1.18,1.73-1.54,2.83
				l-1.21-0.49c-0.03,0.32-0.03,0.51-0.03,1.13v5.94c0,1.27,0.03,2.05,0.14,2.7h-3.13v-1.35h-6.94v1.38h-3.05
				c0.11-0.7,0.14-1.4,0.14-2.67v-5.97c0-0.38,0-0.54,0-0.94L365.81,94.37z M363.04,86.19c0.74,1.75,1.59,3.08,3.02,4.67
				c-0.25,0.24-0.33,0.32-0.52,0.54c1.98-0.78,3.62-1.65,5.41-2.89c-0.93-0.86-1.34-1.32-2.31-2.54c-0.82,1-1.26,1.48-2.11,2.24
				c-0.49-0.78-1.07-1.46-1.73-2c-0.52-0.03-0.66-0.03-1.02-0.03L363.04,86.19L363.04,86.19z M377.45,93.15c0.36,0,0.36,0,0.58,0
				c-1.65-0.76-3.21-1.67-4.89-2.83c-1.56,1.19-2.39,1.67-4.69,2.83H377.45z M369.6,99.5h6.94v-3.78h-6.94V99.5z M370.48,83.35
				c-0.11,0.19-0.14,0.24-0.27,0.46c1.15,1.54,1.73,2.13,2.86,3.05c1.32-1.24,1.95-2.02,2.77-3.51L370.48,83.35L370.48,83.35z"/>
		</g>
		<g>
			<path class="st1" d="M382.4,82.46c0.6,0.03,0.91,0.03,1.04,0.03c0.49,0,0.49,0,4.53-0.27c1.54-0.08,6.09-0.32,13.7-0.67
				c2.25-0.11,2.66-0.13,3.16-0.24l0.19,3.43c-0.3-0.03-0.3-0.03-0.58-0.03c-1.65,0-3.68,0.54-5.44,1.46
				c-3.49,1.78-5.54,4.48-5.54,7.21c0,2.11,1.35,3.73,3.65,4.4c1.34,0.4,3.1,0.7,4.09,0.7c0.03,0,0.27,0,0.55-0.03l-0.49,3.67
				c-0.33-0.08-0.47-0.08-0.93-0.16c-3.02-0.38-4.75-0.86-6.42-1.78c-2.53-1.4-3.93-3.7-3.93-6.51c0-2.29,0.93-4.56,2.61-6.34
				c1.04-1.11,2.03-1.84,3.82-2.73c-2.22,0.32-3.29,0.43-9.25,0.86c-1.84,0.13-3.49,0.32-4.56,0.54L382.4,82.46z M401.21,86.43
				c1.1,1.24,1.59,1.97,2.44,3.64l-2.09,1.08c-0.82-1.59-1.48-2.59-2.44-3.7L401.21,86.43z M404.61,89.64
				c-0.77-1.48-1.43-2.48-2.36-3.59l2-0.97c1.04,1.13,1.65,2,2.42,3.48L404.61,89.64z"/>
		</g>
		<g>
			<path class="st1" d="M249.72,136.63c0,1.4,0.06,2.24,0.17,2.92h-3.21c0.11-0.86,0.16-1.84,0.16-2.92v-2.51
				c-2.74,0.81-4.61,1.3-5.85,1.54c-1.04,0.22-1.78,0.4-2.2,0.57l-0.77-3.08c0.63-0.03,1.1-0.08,2.11-0.27v-14.74
				c-0.93,0.03-1.24,0.05-1.84,0.11v-2.92c0.77,0.08,1.54,0.14,2.47,0.14h8.37c1.1,0,1.7-0.03,2.5-0.14V117
				c0.49,0.03,1.07,0.05,1.76,0.05h7.19c0.74,0,1.51-0.05,2.22-0.13c-0.05,0.35-0.11,0.89-0.19,1.7c-0.41,4.62-1.78,9.15-3.93,12.82
				c1.54,2.08,2.8,3.21,5.3,4.75c-0.71,1.05-1.29,2.08-1.65,3.02c-2.77-1.97-3.9-3.02-5.43-5.1c-1.62,2.13-2.91,3.29-5.52,5.13
				c-0.49-1.24-0.91-1.97-1.67-3v0.39H249.72z M243.02,121.11h3.82v-2.97h-3.82V121.11z M243.02,126.4h3.82v-2.89h-3.82V126.4z
				 M243.02,132.34c1.81-0.35,2-0.38,3.82-0.86v-2.62h-3.82V132.34z M249.72,136.2c2.66-1.59,3.79-2.59,5.49-4.75
				c-0.91-1.67-1.51-3.13-2.03-4.83c-0.6-2-0.88-3.43-1.26-6.83c-0.52,0.03-0.71,0.05-1.15,0.11v-1.73
				c-0.27-0.03-0.44-0.03-1.04-0.03v18.06H249.72z M254.72,119.76c0.55,4.4,1.04,6.21,2.28,8.85c1.26-2.46,1.95-4.86,2.58-8.85
				H254.72z"/>
		</g>
		<g>
			<path class="st1" d="M277.75,127.4c0.99,0,1.59-0.03,2.25-0.11c-0.05,0.54-0.08,0.73-0.11,1.43c-0.17,3.7-0.74,6.77-1.62,8.45
				c-0.69,1.35-1.87,1.81-4.5,1.81c-1.29,0-2.58-0.08-4.34-0.24c-0.14-1.24-0.3-1.89-0.71-3.08c2.09,0.35,3.62,0.51,5.08,0.51
				c1.07,0,1.54-0.16,1.78-0.67c0.55-1.08,0.88-2.78,1.1-5.51h-7.58c-0.77,0-1.4,0.03-2.03,0.08c0.74-2.73,1.24-5.97,1.32-8.58
				c0.6,0.08,1.18,0.11,2.14,0.11h6.12v-3.29h-6.45c-1.02,0-1.98,0.05-2.88,0.16v-3c0.82,0.11,1.81,0.16,2.91,0.16h6.89
				c1.07,0,1.89-0.03,2.66-0.11c-0.05,0.67-0.08,1.3-0.08,2.19v4.43c0,0.89,0.03,1.46,0.08,2.11c-0.69-0.05-1.56-0.08-2.44-0.08
				h-6.12c-0.16,1.16-0.33,2.08-0.58,3.24L277.75,127.4L277.75,127.4z M288.73,114.98c-0.14,0.97-0.17,1.59-0.17,3v17.95
				c0,1.62,0.03,2.38,0.17,3.46h-3.49c0.14-1.13,0.19-1.89,0.19-3.46v-17.95c0-1.4-0.03-1.94-0.19-3H288.73z"/>
		</g>
		<g>
			<path class="st1" d="M317.57,124c-0.16,0.4-0.16,0.4-0.6,1.43c-1.21,2.92-2.31,4.89-3.71,6.75c0.52,0.94,1.07,1.7,1.65,2.32
				c0.47,0.49,1.07,0.97,1.24,0.97c0.11,0,0.22-0.16,0.36-0.51c0.19-0.62,0.19-0.62,0.52-3.16c0.93,0.92,1.29,1.19,2.47,1.81
				c-0.63,3.64-1.59,5.24-3.1,5.24c-1.4,0-3.57-1.81-5.16-4.35c-2.06,2-4.2,3.54-6.64,4.72c-0.85-1.24-1.15-1.57-2.09-2.35
				c2.88-1.16,5.3-2.78,7.38-4.97c-1.15-2.78-1.76-6.02-2.06-10.77h-8.51c-0.03,2.59-0.03,2.59-0.06,3.56h5.05
				c0.96,0,1.37-0.03,1.95-0.11c-0.05,0.49-0.11,1.24-0.16,2.29c-0.27,4.86-0.44,6.29-0.91,7.42c-0.44,1.08-1.43,1.48-3.54,1.48
				c-0.77,0-1.21-0.03-2.09-0.08c-0.14-1.16-0.3-1.81-0.71-2.86c1.46,0.19,1.87,0.22,2.66,0.22c0.85,0,1.1-0.16,1.24-0.84
				c0.22-0.94,0.36-2.7,0.41-4.89h-4.01c-0.19,3.08-0.44,4.94-0.85,6.77c-0.49,2.16-1.04,3.37-2.25,5.26
				c-0.85-1.08-1.4-1.59-2.39-2.29c0.96-1.46,1.54-2.73,1.89-4.26c0.55-2.27,0.82-5.86,0.82-10.66c0-2.08-0.03-2.75-0.17-3.83
				c0.99,0.08,2.11,0.13,3.54,0.13h7.96c-0.03-0.22-0.03-0.92-0.08-2.11c-0.03-1-0.03-1.11-0.14-1.7h3.27
				c-0.08,0.57-0.14,1.67-0.14,2.56c0,0.24,0,0.97,0,1.24h3.62c-0.77-1-1.29-1.57-2.42-2.48l2.11-1.32
				c1.26,1.05,1.73,1.51,2.77,2.83l-1.43,0.97h0.82c1.45,0,2.2-0.03,2.91-0.16v2.97c-0.91-0.08-1.95-0.13-3.35-0.13h-4.94
				c0.25,3.54,0.63,6.02,1.26,8.07c1.37-2.19,2.31-4.43,2.64-6.32L317.57,124z"/>
		</g>
		<g>
			<path class="st1" d="M335.47,135.23c1.67-3.43,3.79-10.12,4.12-12.93l3.54,1c-0.3,0.57-0.33,0.73-0.93,2.59
				c-0.99,3.24-2.44,7.05-3.51,9.34h4.94c1.4,0,2.55-0.05,3.49-0.16v3.24c-0.96-0.14-2.03-0.19-3.49-0.19h-17.9
				c-1.46,0-2.66,0.05-3.57,0.19v-3.24c0.96,0.11,2.09,0.16,3.57,0.16L335.47,135.23L335.47,135.23z M332.86,116.82
				c0-0.78-0.06-1.35-0.19-2.11h3.46c-0.14,0.65-0.19,1.32-0.19,2.08v1.84h6.62c1.48,0,2.69-0.05,3.54-0.19v3.24
				c-0.91-0.11-2.11-0.16-3.54-0.16h-15.95c-1.37,0-2.58,0.05-3.46,0.16v-3.24c0.82,0.13,1.98,0.19,3.46,0.19h6.26L332.86,116.82
				L332.86,116.82z M329.32,122.54c1.21,3.24,1.87,5.4,3.13,10.5l-3.07,1.08c-0.71-3.83-1.7-7.34-3.02-10.55L329.32,122.54z"/>
		</g>
		<g>
			<g>
				<path class="st1" d="M331.37,69.63l0.4,0.41l-4.45,4.4l4.45,4.37l-0.4,0.41l-4.45-4.33l-4.43,4.33l-0.41-0.41l4.45-4.37
					l-4.45-4.4l0.41-0.41l4.43,4.37L331.37,69.63z M324.29,74.42c0,0.53-0.43,0.95-0.95,0.95s-0.96-0.43-0.96-0.95
					s0.43-0.94,0.96-0.94C323.86,73.48,324.29,73.9,324.29,74.42z M327.87,78.02c0,0.52-0.44,0.95-0.95,0.95
					c-0.5,0-0.96-0.46-0.96-0.95c0-0.47,0.45-0.95,0.88-0.95c0.01,0,0.03,0,0.04,0c0.01,0.01,0.01,0.01,0.02,0.01c0,0,0,0,0.03-0.01
					C327.44,77.07,327.87,77.49,327.87,78.02z M327.88,70.86c0,0.53-0.43,0.95-0.95,0.95s-0.96-0.43-0.96-0.95s0.44-0.94,0.96-0.94
					S327.88,70.34,327.88,70.86z M331.45,74.43c0,0.52-0.43,0.94-0.95,0.94s-0.95-0.42-0.95-0.94s0.43-0.94,0.95-0.94
					S331.45,73.91,331.45,74.43z"/>
			</g>
		</g>
	</g>
	<g>
		<path class="st0" d="M507.82,186.09c2.32,0,4.64,0,6.97,0c3.52,1.8,6.91,4,10.61,5.3c4.96,1.74,7.73,4.61,8.13,10
			c0.29,4.01,0.48,8.28,2.02,11.87c1.79,4.16,0.38,6.49-2.37,9.08c-2.52,2.36-5.28,4.66-7.1,7.52c-4.02,6.28-2.57,10.37,4.15,13.26
			c7.64,3.28,14.6,7,12.44,17.31c-18.19,0-36.39,0-54.58,0c-1.49-8.61,3.11-13.31,10.43-16.26c0.89-0.36,1.75-0.79,2.63-1.17
			c6.09-2.61,7.58-6.02,4.37-11.96c-1.6-2.95-4.09-5.58-6.67-7.79c-3.6-3.09-5.68-5.9-2.84-10.81c1.25-2.16,1.23-5.2,1.34-7.86
			C497.67,196.56,500.39,190.02,507.82,186.09z"/>
	</g>
	<g>
		<g>
			<path class="st0" d="M72.77,186.09c2.32,0,4.64,0,6.97,0c3.52,1.8,6.91,4,10.61,5.3c4.96,1.74,7.73,4.61,8.13,10
				c0.29,4.01,0.48,8.28,2.02,11.87c1.79,4.16,0.38,6.49-2.37,9.08c-2.52,2.36-5.28,4.66-7.1,7.52c-4.02,6.28-2.57,10.37,4.15,13.26
				c7.64,3.28,14.6,7,12.44,17.31c-18.19,0-36.39,0-54.58,0c-1.49-8.61,3.11-13.31,10.43-16.26c0.89-0.36,1.75-0.79,2.63-1.17
				c6.09-2.61,7.58-6.02,4.37-11.96c-1.6-2.95-4.09-5.58-6.67-7.79c-3.6-3.09-5.68-5.9-2.84-10.81c1.25-2.16,1.23-5.2,1.34-7.86
				C62.62,196.56,65.34,190.02,72.77,186.09z"/>
		</g>
		<g>
			<path class="st0" d="M80.37,179.1l-8.77-20.55H22.56c-4.11,0-7.45-3.34-7.45-7.45v-23.13c0-4.11,3.34-7.45,7.45-7.45H138.2
				c4.11,0,7.45,3.34,7.45,7.45v23.13c0,4.11-3.34,7.45-7.45,7.45H89.15L80.37,179.1z M22.56,124.51c-1.9,0-3.45,1.55-3.45,3.45
				v23.13c0,1.9,1.55,3.45,3.45,3.45h51.69l6.13,14.36l6.13-14.36h51.69c1.9,0,3.45-1.55,3.45-3.45v-23.13
				c0-1.9-1.55-3.45-3.45-3.45H22.56z"/>
		</g>
		<g>
			<g>
				<path class="st1" d="M47.94,140.48c-0.06,0.24-0.08,0.38-0.12,0.86c-0.18,1.89-0.87,3.47-1.97,4.57
					c-0.63,0.62-1.52,1.22-2.39,1.64c-0.55,0.26-1.05,0.44-2.19,0.76c-0.45-0.96-0.77-1.44-1.46-2.21c1.26-0.18,1.91-0.34,2.78-0.74
					c1.42-0.64,2.23-1.42,2.62-2.47c0.18-0.54,0.32-1.32,0.32-1.87c0-0.18-0.02-0.42-0.06-0.64L47.94,140.48z M40.19,142.06
					c0.08-0.46,0.1-0.9,0.1-1.44v-1.42c0-0.62-0.02-1.02-0.08-1.48c0.63,0.06,1.18,0.08,2.17,0.08h13.4c0.97,0,1.48-0.02,2.19-0.08
					c-0.06,0.42-0.08,0.76-0.08,1.42v1.46c0,0.6,0.02,1.02,0.1,1.46h-2.37v-2.31h-13.1v2.31L40.19,142.06L40.19,142.06z
					 M47.86,131.33c0-0.72-0.02-1.06-0.1-1.54h2.47c-0.1,0.4-0.12,0.8-0.12,1.54v0.24h5.48c1.12,0,1.91-0.04,2.43-0.12v2.11
					c-0.63-0.06-1.32-0.1-2.37-0.1h-5.54v1.32h4.52c1.03,0,1.54-0.02,2.07-0.1v2.05c-0.57-0.06-1.05-0.08-2.07-0.08H43.54
					c-0.95,0-1.46,0.02-2.05,0.08v-2.05c0.53,0.08,1.03,0.1,2.05,0.1h4.32v-1.32h-5.21c-1.08,0-1.7,0.02-2.39,0.1v-2.11
					c0.53,0.08,1.32,0.12,2.45,0.12h5.15C47.86,131.57,47.86,131.33,47.86,131.33z M52.07,145.25c0,0.52,0.18,0.6,1.56,0.6
					c1.42,0,1.87-0.08,2.05-0.34s0.26-0.8,0.37-2.47c0.69,0.34,1.3,0.54,2.17,0.68c-0.16,2.01-0.47,3.09-1.01,3.59
					c-0.47,0.44-1.42,0.58-3.75,0.58c-3.08,0-3.63-0.26-3.63-1.72v-4.09c0-0.82-0.02-1.24-0.08-1.66h2.43
					c-0.08,0.46-0.1,0.82-0.1,1.56v3.27H52.07z"/>
			</g>
			<g>
				<path class="st1" d="M66.88,130.31c-0.24,0.68-0.34,1.2-0.73,3.85c-0.14,0.84-0.22,1.52-0.26,1.99h0.06
					c0.04-0.12,0.04-0.12,0.12-0.44c0.2-0.7,0.73-1.68,1.28-2.37c1.12-1.36,2.37-2.03,3.85-2.03c1.38,0,2.6,0.64,3.47,1.79
					c1.01,1.34,1.46,2.95,1.46,5.3c0,3.85-1.83,6.72-5.23,8.2c-1.03,0.46-2.45,0.86-3.97,1.12c-0.41-1.14-0.63-1.58-1.2-2.35
					c2.03-0.22,3.2-0.52,4.44-1.14c2.35-1.18,3.43-3.07,3.43-6.1c0-2.87-0.97-4.47-2.72-4.47c-0.77,0-1.48,0.34-2.19,1.06
					c-1.58,1.62-2.56,4.07-2.56,6.44c0,0.1,0,0.24,0,0.42l-2.43,0.04c0.02-0.12,0.02-0.22,0.02-0.26c0-0.08,0-0.2,0-0.38
					c-0.02-0.58-0.06-2.05-0.06-2.45c0-1.62,0.12-3.83,0.28-5.21l0.3-2.47c0.04-0.34,0.06-0.42,0.06-0.68L66.88,130.31z"/>
			</g>
			<g>
				<path class="st1" d="M82.3,133.36c0.73,0.12,1.54,0.18,2.72,0.18c0.24,0,0.47,0,0.93-0.02c0.18-0.96,0.39-2.49,0.39-3.05
					c0-0.08,0-0.2-0.02-0.36l2.68,0.24c-0.14,0.46-0.14,0.46-0.39,1.91c-0.1,0.56-0.12,0.68-0.2,1.14c1.5-0.14,2.45-0.3,3.47-0.6
					l0.1,2.29c-0.16,0.02-0.16,0.02-0.65,0.1c-1.03,0.2-2.66,0.4-3.33,0.42c-0.22,1.24-0.73,3.35-1.26,5.17
					c-0.59,2.07-0.93,3.07-2.27,6.6l-2.56-0.98c1.4-2.53,2.96-7.18,3.63-10.73c-0.14,0.02-0.22,0.02-0.26,0.02H84.1
					c-0.1,0-0.3,0-0.65-0.02c-0.37-0.02-0.65-0.02-0.81-0.02c-0.1,0-0.2,0-0.39,0.02L82.3,133.36z M92.36,141.1
					c-0.81,1-1.05,1.5-1.05,2.19c0,1.02,1.01,1.54,3.04,1.54c1.48,0,3.43-0.32,4.6-0.74l0.18,2.45c-0.36,0.04-0.53,0.06-0.99,0.14
					c-1.68,0.24-2.58,0.32-3.77,0.32c-1.81,0-3.1-0.26-4.08-0.8c-0.87-0.5-1.44-1.46-1.44-2.45c0-1.06,0.39-1.95,1.5-3.45
					L92.36,141.1z M98.38,138.49c-0.97-0.1-1.54-0.14-2.56-0.14c-2.01,0-3.35,0.14-5.35,0.58l-0.18-2.19
					c2.88-0.54,3.85-0.64,6.04-0.64c0.55,0,0.73,0,2.01,0.02L98.38,138.49z"/>
			</g>
			<g>
				<path class="st1" d="M106.01,131.94c-0.1,0.74-0.16,1.71-0.16,3.03c0,1.74,0.16,4.13,0.39,5.34c0.34,2.07,0.99,3.35,1.64,3.35
					c0.3,0,0.59-0.3,0.83-0.86c0.49-1.08,0.85-2.27,1.07-3.61c0.71,0.8,1.03,1.1,2.03,1.81c-1.05,3.89-2.23,5.5-3.95,5.5
					c-1.36,0-2.45-0.98-3.27-2.89c-0.83-1.99-1.2-4.89-1.28-10.41c-0.02-0.7-0.02-0.84-0.08-1.28h2.78V131.94z M115.6,132.84
					c2.56,3.01,3.97,6.34,4.56,10.73l-2.51,0.94c-0.12-1.87-0.59-3.95-1.3-5.76c-0.69-1.81-1.66-3.43-2.88-4.91L115.6,132.84z"/>
			</g>
		</g>
	</g>
	<g>
		<g>
			<path class="st0" d="M507.38,186.09c2.32,0,4.64,0,6.97,0c3.52,1.8,6.91,4,10.61,5.3c4.96,1.74,7.73,4.61,8.13,10
				c0.29,4.01,0.48,8.28,2.02,11.87c1.79,4.16,0.38,6.49-2.37,9.08c-2.52,2.36-5.28,4.66-7.1,7.52c-4.02,6.28-2.57,10.37,4.15,13.26
				c7.64,3.28,14.6,7,12.44,17.31c-18.19,0-36.39,0-54.58,0c-1.49-8.61,3.11-13.31,10.43-16.26c0.89-0.36,1.75-0.79,2.63-1.17
				c6.09-2.61,7.58-6.02,4.37-11.96c-1.6-2.95-4.09-5.58-6.67-7.79c-3.6-3.09-5.68-5.9-2.84-10.81c1.25-2.16,1.23-5.2,1.34-7.86
				C497.24,196.56,499.96,190.02,507.38,186.09z"/>
		</g>
		<g>
			<path class="st0" d="M514.99,179.1l-8.77-20.55h-49.05c-4.11,0-7.45-3.34-7.45-7.45v-23.13c0-4.11,3.34-7.45,7.45-7.45h115.64
				c4.11,0,7.46,3.34,7.46,7.45v23.13c0,4.11-3.34,7.45-7.46,7.45h-49.05L514.99,179.1z M457.17,124.51c-1.9,0-3.45,1.55-3.45,3.45
				v23.13c0,1.9,1.55,3.45,3.45,3.45h51.69l6.13,14.36l6.13-14.36h51.69c1.91,0,3.46-1.55,3.46-3.45v-23.13
				c0-1.9-1.55-3.45-3.46-3.45H457.17z"/>
		</g>
		<g>
			<g>
				<path class="st1" d="M478.62,144.95c-0.87,0-1.48,0.02-2.19,0.08c0.06-0.56,0.1-1.24,0.1-2.35v-4.59c0-1-0.04-1.66-0.1-2.25
					c0.63,0.04,1.05,0.06,2.13,0.06h10.28c1.18,0,1.66-0.02,2.23-0.06c-0.06,0.66-0.08,1.2-0.08,2.27v4.64
					c0,1.12,0.02,1.81,0.08,2.27c-0.67-0.06-1.28-0.08-2.15-0.08h-1.5c1.44,0.78,3.33,1.3,5.8,1.56c-0.47,0.6-0.71,1.02-1.1,1.93
					c-1.8-0.28-2.7-0.5-3.97-1c-1.24-0.48-1.91-0.82-3-1.52l1.22-0.98h-5.68l1.26,0.98c-1.01,0.74-1.62,1.08-2.78,1.54
					c-1.28,0.52-2.15,0.76-3.69,1.04c-0.26-0.68-0.59-1.16-1.24-1.81c2.58-0.38,4.42-0.96,5.56-1.73L478.62,144.95L478.62,144.95z
					 M492.23,133.6c0,0.76,0.02,1.16,0.08,1.62c-0.49-0.04-1.01-0.06-2.13-0.06h-12.94c-1.01,0-1.66,0.02-2.11,0.06
					c0.08-0.5,0.1-0.88,0.1-1.62v-1.56c0-0.74-0.02-1.12-0.1-1.68c0.59,0.06,1.16,0.08,2.29,0.08h12.59c1.14,0,1.72-0.02,2.29-0.08
					c-0.06,0.54-0.08,0.9-0.08,1.68L492.23,133.6L492.23,133.6z M480.14,132.16h-2.82v1.28h2.82V132.16z M478.72,138.45h10.08v-0.88
					h-10.08V138.45z M478.72,140.8h10.08v-0.84h-10.08V140.8z M478.72,143.27h10.08v-0.96h-10.08V143.27z M484.99,132.16h-2.8v1.28
					h2.8V132.16z M490.06,133.44v-1.28h-3.02v1.28H490.06z"/>
			</g>
			<g>
				<path class="st1" d="M499.25,131.94c-0.1,0.74-0.16,1.71-0.16,3.03c0,1.74,0.16,4.13,0.39,5.34c0.34,2.07,0.99,3.35,1.64,3.35
					c0.3,0,0.59-0.3,0.83-0.86c0.49-1.08,0.85-2.27,1.08-3.61c0.71,0.8,1.03,1.1,2.03,1.81c-1.05,3.89-2.23,5.5-3.96,5.5
					c-1.36,0-2.45-0.98-3.26-2.89c-0.83-1.99-1.2-4.89-1.28-10.41c-0.02-0.7-0.02-0.84-0.08-1.28h2.77V131.94z M508.84,132.84
					c2.55,3.01,3.97,6.34,4.56,10.73l-2.51,0.94c-0.12-1.87-0.59-3.95-1.3-5.76c-0.69-1.81-1.66-3.43-2.88-4.91L508.84,132.84z"/>
			</g>
			<g>
				<path class="st1" d="M516.92,133.36c0.73,0.12,1.54,0.18,2.72,0.18c0.24,0,0.47,0,0.93-0.02c0.18-0.96,0.38-2.49,0.38-3.05
					c0-0.08,0-0.2-0.02-0.36l2.68,0.24c-0.14,0.46-0.14,0.46-0.39,1.91c-0.1,0.56-0.12,0.68-0.2,1.14c1.5-0.14,2.45-0.3,3.47-0.6
					l0.1,2.29c-0.16,0.02-0.16,0.02-0.65,0.1c-1.03,0.2-2.66,0.4-3.33,0.42c-0.22,1.24-0.73,3.35-1.26,5.17
					c-0.59,2.07-0.93,3.07-2.27,6.6l-2.56-0.98c1.4-2.53,2.96-7.18,3.63-10.73c-0.14,0.02-0.22,0.02-0.26,0.02h-1.18
					c-0.1,0-0.3,0-0.65-0.02c-0.37-0.02-0.65-0.02-0.81-0.02c-0.1,0-0.2,0-0.39,0.02L516.92,133.36z M526.98,141.1
					c-0.81,1-1.05,1.5-1.05,2.19c0,1.02,1.01,1.54,3.04,1.54c1.48,0,3.43-0.32,4.6-0.74l0.18,2.45c-0.36,0.04-0.53,0.06-0.99,0.14
					c-1.68,0.24-2.58,0.32-3.77,0.32c-1.81,0-3.1-0.26-4.08-0.8c-0.87-0.5-1.44-1.46-1.44-2.45c0-1.06,0.39-1.95,1.5-3.45
					L526.98,141.1z M533,138.49c-0.97-0.1-1.54-0.14-2.55-0.14c-2.01,0-3.35,0.14-5.35,0.58l-0.18-2.19
					c2.88-0.54,3.85-0.64,6.04-0.64c0.55,0,0.73,0,2.01,0.02L533,138.49z"/>
			</g>
			<g>
				<path class="st1" d="M540.63,131.94c-0.1,0.74-0.16,1.71-0.16,3.03c0,1.74,0.16,4.13,0.39,5.34c0.34,2.07,0.99,3.35,1.64,3.35
					c0.3,0,0.59-0.3,0.83-0.86c0.49-1.08,0.85-2.27,1.08-3.61c0.71,0.8,1.03,1.1,2.03,1.81c-1.05,3.89-2.23,5.5-3.96,5.5
					c-1.36,0-2.45-0.98-3.26-2.89c-0.83-1.99-1.2-4.89-1.28-10.41c-0.02-0.7-0.02-0.84-0.08-1.28h2.77V131.94z M550.22,132.84
					c2.55,3.01,3.97,6.34,4.56,10.73l-2.51,0.94c-0.12-1.87-0.59-3.95-1.3-5.76c-0.69-1.81-1.66-3.43-2.88-4.91L550.22,132.84z"/>
			</g>
		</g>
	</g>
	<g>
		<g>
			<g>
				<rect x="114.38" y="220.82" class="st1" width="106.04" height="2.62"/>
			</g>
			<g>
				<rect x="374.24" y="220.82" class="st1" width="106.04" height="2.62"/>
			</g>
		</g>
		<g>
			<circle class="st1" cx="298.82" cy="222.13" r="69.71"/>
		</g>
		<g>
			<g>
				<g>
					<path class="st2" d="M286.81,191.82c-1.1,0-2,0.9-2,2v3.2c0,1.1,0.9,2,2,2s2-0.9,2-2v-3.2
						C288.81,192.71,287.91,191.82,286.81,191.82z"/>
				</g>
				<g>
					<path class="st2" d="M298.82,191.82c-1.1,0-2,0.9-2,2v3.2c0,1.1,0.9,2,2,2s2-0.9,2-2v-3.2
						C300.82,192.71,299.93,191.82,298.82,191.82z"/>
				</g>
				<g>
					<path class="st2" d="M310.84,191.82c-1.1,0-2,0.9-2,2v3.2c0,1.1,0.9,2,2,2s2-0.9,2-2v-3.2
						C312.84,192.71,311.94,191.82,310.84,191.82z"/>
				</g>
				<g>
					<path class="st2" d="M286.81,207.67c-1.1,0-2,0.9-2,2v3.2c0,1.1,0.9,2,2,2s2-0.9,2-2v-3.2
						C288.81,208.57,287.91,207.67,286.81,207.67z"/>
				</g>
				<g>
					<path class="st2" d="M298.82,207.67c-1.1,0-2,0.9-2,2v3.2c0,1.1,0.9,2,2,2s2-0.9,2-2v-3.2
						C300.82,208.57,299.93,207.67,298.82,207.67z"/>
				</g>
				<g>
					<path class="st2" d="M310.84,207.67c-1.1,0-2,0.9-2,2v3.2c0,1.1,0.9,2,2,2s2-0.9,2-2v-3.2
						C312.84,208.57,311.94,207.67,310.84,207.67z"/>
				</g>
				<g>
					<path class="st2" d="M286.81,223.52c-1.1,0-2,0.9-2,2v3.2c0,1.1,0.9,2,2,2s2-0.9,2-2v-3.2
						C288.81,224.42,287.91,223.52,286.81,223.52z"/>
				</g>
				<g>
					<path class="st2" d="M298.82,223.52c-1.1,0-2,0.9-2,2v3.2c0,1.1,0.9,2,2,2s2-0.9,2-2v-3.2
						C300.82,224.42,299.93,223.52,298.82,223.52z"/>
				</g>
				<g>
					<path class="st2" d="M310.84,223.52c-1.1,0-2,0.9-2,2v3.2c0,1.1,0.9,2,2,2s2-0.9,2-2v-3.2
						C312.84,224.42,311.94,223.52,310.84,223.52z"/>
				</g>
				<g>
					<path class="st2" d="M335.55,204.11H324.6v-25.48c0-1.1-0.9-2-2-2h-47.56c-1.1,0-2,0.9-2,2v25.48H262.1c-1.1,0-2,0.9-2,2v42.27
						c0,1.1,0.9,2,2,2h12.95h47.56h12.95c1.1,0,2-0.9,2-2v-42.27C337.55,205.01,336.65,204.11,335.55,204.11z M264.1,208.11h8.95
						v38.27h-8.95V208.11z M312.84,246.39v-5.01c0-1.1-0.9-2-2-2h-12.03c-1.1,0-2,0.9-2,2c0,0.09,0.01,0.17,0.02,0.26v4.75h-19.78
						v-65.75h43.56v65.75H312.84z M333.55,246.39h-8.95v-38.27h8.95V246.39z"/>
				</g>
			</g>
			<g>
				<g>
					<path class="st2" d="M286.28,259.12c0-0.86-0.04-1.43-0.13-2h2.25c-0.09,0.51-0.13,1.07-0.13,2v5.87h5.48
						c0.69,0,1.09-0.02,1.69-0.1c-0.06,0.57-0.09,1.03-0.09,1.73v7.64c0,0.93,0.04,1.6,0.13,2.27h-2.08v-1.05h-12.6
						c-0.94,0-1.58,0.04-2.21,0.13v-2.06c0.62,0.08,1.13,0.1,2.12,0.1h12.72v-2.67h-11.99c-0.9,0-1.46,0.02-1.99,0.08v-1.98
						c0.49,0.08,1.03,0.1,2.03,0.1h11.95v-2.38h-12.57c-0.92,0-1.41,0.02-2.1,0.1v-2.02c0.64,0.08,1.22,0.1,2.16,0.1h5.35
						L286.28,259.12L286.28,259.12z M280.69,258.24c1.54,1.96,2.4,3.26,3.32,5.13l-1.76,1.01c-0.98-2.1-1.82-3.41-3.28-5.2
						L280.69,258.24z M295.57,259.02c-1.26,2.57-1.99,3.77-3.43,5.53l-1.67-1.01c1.48-1.75,2.23-3.03,3.21-5.39L295.57,259.02z"/>
				</g>
				<g>
					<path class="st2" d="M305.03,274.34c0,0.99,0.02,1.54,0.11,2.13h-2.16c0.08-0.63,0.13-1.2,0.13-2.15v-5.83
						c-0.92,0.86-1.43,1.28-2.63,2.1c-0.21-0.63-0.58-1.28-0.96-1.77c1.56-0.93,2.63-1.77,3.81-3.03c1.03-1.09,1.67-2.02,2.4-3.45
						h-3.68c-0.75,0-1.2,0.02-1.78,0.08v-1.96c0.58,0.06,1.01,0.08,1.69,0.08h1.16v-1.85c0-0.55-0.04-1.14-0.13-1.6h2.18
						c-0.09,0.46-0.13,0.97-0.13,1.64v1.81h1.03c0.66,0,0.96-0.02,1.24-0.06l0.88,0.95c-0.19,0.27-0.3,0.5-0.47,0.84
						c-0.71,1.47-1.28,2.42-2.25,3.64c1.07,1.18,1.93,1.87,3.42,2.76c-0.43,0.57-0.71,1.03-0.98,1.7c-1.22-0.8-1.97-1.45-2.87-2.48
						L305.03,274.34L305.03,274.34z M314,273.6h2.89c1.09,0,1.78-0.04,2.4-0.13v2.19c-0.71-0.1-1.5-0.15-2.4-0.15h-7.45
						c-0.92,0-1.67,0.04-2.38,0.15v-2.19c0.66,0.08,1.33,0.13,2.4,0.13h2.57v-8.5h-1.8c-0.77,0-1.46,0.04-2.12,0.1v-2.06
						c0.58,0.08,1.18,0.13,2.12,0.13h1.8v-4.04c0-0.8-0.04-1.3-0.15-2.08h2.27c-0.13,0.8-0.15,1.24-0.15,2.08v4.04h2.48
						c0.96,0,1.52-0.04,2.1-0.13v2.06c-0.66-0.06-1.33-0.1-2.1-0.1H314V273.6z"/>
				</g>
			</g>
		</g>
	</g>
	<g>
		<g>
			<path d="M232.97,314.66l0.62,0.63l-6.93,6.85l6.93,6.81l-0.62,0.63l-6.93-6.75l-6.91,6.75l-0.64-0.63l6.93-6.81l-6.93-6.85
				l0.64-0.63l6.91,6.81L232.97,314.66z M221.94,322.13c0,0.82-0.66,1.48-1.48,1.48c-0.82,0-1.5-0.67-1.5-1.48s0.66-1.46,1.5-1.46
				C221.28,320.67,221.94,321.32,221.94,322.13z M227.52,327.73c0,0.81-0.68,1.48-1.48,1.48c-0.78,0-1.5-0.71-1.5-1.48
				c0-0.73,0.7-1.48,1.37-1.48c0.02,0,0.04,0,0.06,0c0.02,0.02,0.02,0.02,0.04,0.02c0,0,0,0,0.04-0.02
				C226.86,326.25,227.52,326.9,227.52,327.73z M227.54,316.58c0,0.82-0.66,1.48-1.48,1.48c-0.82,0-1.5-0.67-1.5-1.48
				s0.68-1.46,1.5-1.46C226.88,315.13,227.54,315.78,227.54,316.58z M233.1,322.15c0,0.81-0.66,1.46-1.48,1.46
				c-0.82,0-1.48-0.65-1.48-1.46s0.66-1.46,1.48-1.46S233.1,321.34,233.1,322.15z"/>
		</g>
		<g>
			<path d="M253.76,315.18c0-0.81-0.04-1.3-0.12-1.78h1.78c-0.08,0.46-0.12,0.94-0.12,1.78v5.5h5.02c0.62,0,0.96-0.02,1.54-0.12
				c-0.06,0.56-0.08,0.9-0.08,1.55v6.85c0,0.82,0.04,1.4,0.12,2.03h-1.6v-1h-11.71c-0.78,0-1.33,0.04-1.89,0.12v-1.63
				c0.53,0.08,0.98,0.1,1.85,0.1h11.77v-2.69h-11.07c-0.8,0-1.27,0.02-1.78,0.1v-1.57c0.47,0.08,0.92,0.1,1.83,0.1h11.01v-2.44
				H248.7c-0.84,0-1.21,0.02-1.85,0.1v-1.59c0.57,0.08,1.05,0.1,1.89,0.1h5.02V315.18z M248.45,314.51c1.5,1.9,2.09,2.76,3.04,4.66
				l-1.37,0.79c-1-2.07-1.58-2.99-3.01-4.72L248.45,314.51z M261.95,315.09c-1.17,2.42-1.8,3.41-3.2,5.12l-1.29-0.79
				c1.42-1.65,2.09-2.74,3.02-5.01L261.95,315.09z"/>
		</g>
		<g>
			<path d="M270.66,329.03c0,0.84,0.04,1.38,0.1,1.9h-1.7c0.08-0.56,0.12-1.09,0.12-1.92v-5.64c-0.92,0.88-1.42,1.29-2.56,2.09
				c-0.21-0.54-0.45-0.92-0.8-1.34c1.39-0.82,2.42-1.65,3.51-2.8c0.98-1.04,1.58-1.92,2.3-3.36h-3.51c-0.62,0-1.05,0.02-1.6,0.08
				v-1.52c0.57,0.06,0.94,0.08,1.54,0.08h1.11v-1.75c0-0.52-0.04-1.07-0.12-1.48h1.72c-0.08,0.4-0.12,0.9-0.12,1.52v1.71h1.05
				c0.57,0,0.88-0.02,1.11-0.06l0.7,0.77c-0.14,0.21-0.27,0.44-0.45,0.81c-0.62,1.29-1.17,2.13-2.11,3.26
				c1.01,1.13,1.8,1.78,3.14,2.57c-0.35,0.44-0.55,0.77-0.78,1.3c-1.13-0.77-1.89-1.44-2.67-2.36v6.14H270.66z M278.74,328.55h2.89
				c1.02,0,1.62-0.04,2.15-0.12v1.71c-0.62-0.1-1.33-0.13-2.15-0.13h-6.93c-0.86,0-1.5,0.04-2.13,0.13v-1.71
				c0.57,0.08,1.13,0.12,2.15,0.12h2.5v-7.98h-1.8c-0.7,0-1.33,0.04-1.91,0.1v-1.61c0.53,0.08,1.07,0.12,1.91,0.12h1.8v-3.93
				c0-0.67-0.04-1.09-0.14-1.8h1.8c-0.12,0.73-0.14,1.09-0.14,1.8v3.93h2.44c0.86,0,1.37-0.02,1.91-0.12v1.61
				c-0.59-0.06-1.19-0.1-1.91-0.1h-2.44L278.74,328.55L278.74,328.55z"/>
		</g>
		<g>
			<path d="M297.19,323.18h-3.42c-0.74,0-1.11,0.02-1.56,0.08v-0.98c-0.9,0.44-1.05,0.5-1.85,0.84v6.14c0,1.17-0.47,1.52-2.05,1.52
				c-0.35,0-0.92-0.04-1.56-0.08c-0.04-0.54-0.12-0.9-0.31-1.44c0.8,0.12,1.27,0.15,1.78,0.15c0.55,0,0.7-0.11,0.7-0.56v-5.14
				c-1.68,0.63-1.68,0.63-2.26,0.9l-0.35-1.53c0.78-0.12,1.31-0.29,2.61-0.81v-3.84h-1.03c-0.47,0-0.92,0.02-1.44,0.1v-1.52
				c0.53,0.08,0.92,0.12,1.46,0.12h1.01v-1.69c0-0.9-0.02-1.4-0.12-1.94h1.68c-0.1,0.52-0.12,1.02-0.12,1.92v1.71h0.8
				c0.68,0,0.86-0.02,1.31-0.08v1.44c-0.39-0.04-0.7-0.06-1.29-0.06h-0.82v3.28c0.9-0.38,1.17-0.5,1.99-0.9v1.04
				c0.43,0.06,0.94,0.08,1.54,0.08h8.12c0.72,0,1.27-0.04,1.74-0.12v1.46c-0.55-0.08-1.01-0.1-1.74-0.1h-3.4v2.03h2.54
				c0.8,0,1.31-0.02,1.72-0.1v1.4c-0.49-0.08-0.92-0.1-1.72-0.1h-2.54v2.53c0.78,0.12,1.44,0.15,2.4,0.15
				c1.02,0,2.01-0.04,3.14-0.13c-0.25,0.58-0.33,0.88-0.41,1.48c-0.58,0-1.83,0-1.85,0c-4.47,0-6.15-0.58-7.9-2.7
				c-0.59,1.19-1.21,2.11-2.21,3.18c-0.41-0.44-0.68-0.67-1.17-0.94c1.25-1.17,1.91-2.13,2.52-3.64c0.35-0.88,0.51-1.48,0.6-2.36
				l1.48,0.35c-0.14,0.38-0.14,0.38-0.23,0.71c-0.2,0.67-0.31,1.04-0.45,1.4c0.76,1.11,1.48,1.69,2.65,2.15v-5.4H297.19z
				 M295.04,320.63c-0.72,0-1.23,0.02-1.72,0.06c0.04-0.56,0.04-0.56,0.06-1.86v-2.88c0-0.69-0.02-1.29-0.06-1.76
				c0.53,0.06,1.07,0.08,1.83,0.08h5.46c0.82,0,1.35-0.02,1.85-0.08c-0.06,0.4-0.08,0.88-0.08,1.57v3.15c0,0.67,0,0.86,0.08,1.78
				c-0.53-0.04-1.11-0.06-1.89-0.06H295.04z M294.77,316.83H301v-1.36h-6.23V316.83z M294.77,319.46H301v-1.44h-6.23V319.46z"/>
		</g>
		<g>
			<path d="M312.2,322.49c-0.98,2.74-2.34,4.95-4.14,6.69c-0.53-0.52-0.78-0.71-1.35-1.04c1.76-1.44,3.3-3.85,3.96-6.21
				L312.2,322.49z M309.2,320.42c-0.92,0-1.52,0.04-2.13,0.12v-1.67c0.62,0.1,1.13,0.12,2.15,0.12h12.57c0.92,0,1.54-0.04,2.13-0.12
				v1.67c-0.64-0.08-1.21-0.12-2.13-0.12h-5.35v8.34c0,1.42-0.41,1.73-2.34,1.73c-0.82,0-1.74-0.04-2.5-0.1
				c-0.08-0.67-0.16-0.98-0.39-1.55c0.98,0.15,1.85,0.23,2.61,0.23c0.86,0,0.98-0.06,0.98-0.48v-8.17H309.2z M321.96,316.16
				c-0.64-0.08-1.31-0.11-2.13-0.11h-8.86c-0.74,0-1.46,0.04-2.11,0.11v-1.67c0.61,0.08,1.23,0.12,2.13,0.12h8.84
				c0.84,0,1.52-0.04,2.13-0.12L321.96,316.16L321.96,316.16z M320.3,321.92c0.86,1.92,1.46,2.95,2.54,4.3
				c0.55,0.69,0.92,1.07,1.62,1.73c-0.47,0.35-0.78,0.63-1.29,1.19c-1.97-2.15-2.89-3.59-4.25-6.64L320.3,321.92z"/>
		</g>
		<g>
			<path d="M338.89,327.13c1.95-1.02,3.08-2.9,3.08-5.12c0-2.09-1.03-3.78-2.89-4.66c-0.68-0.33-1.23-0.46-2.19-0.52
				c-0.33,2.82-1.03,5.64-1.95,7.67c-1.11,2.51-2.28,3.66-3.75,3.66c-1.97,0-3.42-2.05-3.42-4.85c0-1.99,0.74-3.91,2.09-5.37
				c1.58-1.71,3.77-2.59,6.42-2.59c4.43,0,7.38,2.69,7.38,6.73c0,2.97-1.54,5.35-4.27,6.64c-0.94,0.44-1.76,0.69-3.26,1
				c-0.25-0.77-0.39-1.02-0.84-1.55C336.99,327.9,337.93,327.63,338.89,327.13z M332.43,317.77c-1.89,1.17-3.04,3.28-3.04,5.56
				c0,1.75,0.78,3.13,1.8,3.13c0.76,0,1.5-0.88,2.3-2.69c0.78-1.78,1.48-4.53,1.74-6.9C334.08,316.97,333.28,317.22,332.43,317.77z"
				/>
		</g>
		<g>
			<path d="M350.62,314.61c-0.08,0.48-0.1,0.92-0.1,1.98l-0.08,11.18c2.22-0.38,3.96-1,5.52-1.98c1.89-1.19,3.16-2.53,4.25-4.55
				c0.55,0.77,0.72,0.96,1.31,1.44c-2.67,3.95-5.66,5.79-10.95,6.81c-0.66,0.12-0.88,0.17-1.15,0.29l-0.92-1.11
				c0.12-0.38,0.14-0.61,0.16-1.44l0.04-10.61c0-1.44,0-1.44-0.08-2.01L350.62,314.61L350.62,314.61z"/>
		</g>
		<g>
			<path d="M364.3,321.15c0.62,0.08,1.35,0.12,2.69,0.12h10.97c1.56,0,1.95-0.02,2.63-0.12v1.9c-0.74-0.08-1.31-0.1-2.65-0.1h-10.93
				c-1.54,0-2.03,0.02-2.71,0.1L364.3,321.15L364.3,321.15z"/>
		</g>
		<g>
			<path d="M386.63,330.1c0.1-0.63,0.12-1.13,0.12-2.22V316.2c0-1.15-0.02-1.61-0.12-2.11h1.97c-0.08,0.56-0.1,1.09-0.1,2.17v3.41
				c2.75,0.96,5.41,2.17,8.72,4.05l-0.98,1.67c-1.72-1.19-4.41-2.61-7.18-3.76c-0.29-0.13-0.37-0.15-0.64-0.33
				c0.06,0.48,0.08,0.81,0.08,1.57v5.01c0,1.02,0.02,1.63,0.1,2.22L386.63,330.1L386.63,330.1z"/>
		</g>
		<g>
			<path d="M412.28,327.13c1.95-1.02,3.08-2.9,3.08-5.12c0-2.09-1.03-3.78-2.89-4.66c-0.68-0.33-1.23-0.46-2.19-0.52
				c-0.33,2.82-1.03,5.64-1.95,7.67c-1.11,2.51-2.28,3.66-3.75,3.66c-1.97,0-3.42-2.05-3.42-4.85c0-1.99,0.74-3.91,2.09-5.37
				c1.58-1.71,3.77-2.59,6.42-2.59c4.43,0,7.38,2.69,7.38,6.73c0,2.97-1.54,5.35-4.27,6.64c-0.94,0.44-1.76,0.69-3.26,1
				c-0.25-0.77-0.39-1.02-0.84-1.55C410.39,327.9,411.33,327.63,412.28,327.13z M405.82,317.77c-1.89,1.17-3.04,3.28-3.04,5.56
				c0,1.75,0.78,3.13,1.8,3.13c0.76,0,1.5-0.88,2.3-2.69c0.78-1.78,1.48-4.53,1.74-6.9C407.48,316.97,406.68,317.22,405.82,317.77z"
				/>
		</g>
		<g>
			<path d="M421.21,325.16c4.8,0.73,8.31,1.59,12.61,3.15l-0.62,1.71c-1.89-0.84-3.57-1.4-6.69-2.15c-2.42-0.59-3.98-0.88-5.97-1.15
				L421.21,325.16z M422.75,319.77c3.22,0.46,6.15,1.13,9.78,2.24l-0.58,1.65c-2.77-1.04-6.28-1.88-9.88-2.34L422.75,319.77z
				 M423.08,314.51c3.4,0.42,6.09,1,10.03,2.11l-0.59,1.67c-2.73-0.96-6.83-1.86-10.11-2.23L423.08,314.51z"/>
		</g>
		<g>
			<path d="M440.96,318.79c0.8,1.36,1.17,2.23,1.93,4.33l-1.58,0.52c-0.47-1.73-0.98-2.97-1.82-4.37L440.96,318.79z M452.03,318.75
				c-0.12,0.35-0.16,0.48-0.25,0.88c-0.68,2.86-1.5,4.72-2.81,6.41c-1.37,1.75-3.1,3.05-5.62,4.28c-0.35-0.58-0.55-0.79-1.11-1.3
				c3.84-1.59,6.11-3.87,7.38-7.46c0.45-1.25,0.7-2.44,0.7-3.16L452.03,318.75z M445,318.02c1.03,1.88,1.39,2.65,1.89,4.2
				l-1.54,0.52c-0.37-1.4-0.96-2.82-1.8-4.28L445,318.02z"/>
		</g>
		<g>
			<path d="M459.86,330.1c0.1-0.63,0.12-1.13,0.12-2.22V316.2c0-1.17-0.02-1.61-0.12-2.11h1.97c-0.08,0.54-0.1,1.07-0.1,2.15v3.43
				c2.75,0.94,5.41,2.17,8.72,4.05l-0.98,1.67c-1.72-1.19-4.41-2.61-7.18-3.78c-0.29-0.11-0.35-0.15-0.64-0.31
				c0.06,0.48,0.08,0.81,0.08,1.57v5.01c0,1.02,0.02,1.63,0.1,2.22L459.86,330.1L459.86,330.1z M467.78,314.88
				c0.92,1.07,1.37,1.73,2.05,2.97l-1.15,0.63c-0.61-1.19-1.23-2.15-2.03-3.03L467.78,314.88z M470,313.84
				c0.92,1.06,1.35,1.65,2.05,2.92l-1.13,0.63c-0.57-1.11-1.15-1.98-2.01-2.97L470,313.84z"/>
		</g>
		<g>
			<path d="M476.33,331.03c-1.15-1.34-1.68-2.13-2.26-3.36c-0.84-1.76-1.25-3.57-1.25-5.52s0.41-3.76,1.25-5.52
				c0.59-1.23,1.11-2.01,2.26-3.36h1.99c-1.46,1.52-2.07,2.36-2.71,3.68c-0.78,1.61-1.15,3.32-1.15,5.2s0.37,3.59,1.15,5.2
				c0.64,1.32,1.25,2.17,2.71,3.68L476.33,331.03L476.33,331.03z"/>
		</g>
		<g>
			<path d="M482.17,322.53c0-0.79,0.02-1.34,0.08-2.28c-0.49,0.9-1,1.59-1.89,2.61c-0.29-0.71-0.41-0.9-0.8-1.46
				c1.5-1.52,2.65-3.28,3.55-5.43c0.43-1.02,0.72-1.96,0.8-2.57l1.62,0.52c-0.1,0.23-0.18,0.4-0.33,0.86
				c-0.41,1.07-0.92,2.23-1.56,3.41v10.55c0,0.88,0.04,1.57,0.14,2.24h-1.74c0.1-0.71,0.14-1.27,0.14-2.28v-6.17H482.17z
				 M490.37,315.74c0-0.94-0.04-1.52-0.12-2.15h1.7c-0.08,0.63-0.12,1.21-0.12,2.17v1.63h3.45c0.84,0,1.37-0.02,1.85-0.08
				c-0.06,0.54-0.08,0.86-0.08,1.67v4.7c0,1.07,0.02,1.53,0.1,2.05h-1.58v-1.09h-3.75v3.93c0,1.04,0.04,1.75,0.12,2.34h-1.7
				c0.08-0.59,0.12-1.32,0.12-2.32v-3.95h-3.47v1.13h-1.54c0.08-0.56,0.1-1.05,0.1-2.07v-4.78c0-0.75-0.02-1.15-0.08-1.61
				c0.47,0.06,0.96,0.08,1.87,0.08h3.12L490.37,315.74L490.37,315.74z M486.91,318.77v4.51h3.45v-4.51H486.91z M495.58,323.28v-4.51
				h-3.75v4.51H495.58z"/>
		</g>
		<g>
			<path d="M501.34,322.38c0-0.9,0-1.13,0.06-2.24c-0.55,1.02-0.9,1.59-1.66,2.55c-0.21-0.5-0.53-1.02-0.82-1.4
				c1.44-1.61,2.36-3.15,3.14-5.22c0.45-1.21,0.63-1.8,0.74-2.7l1.6,0.4c-0.16,0.42-0.23,0.63-0.37,1.04
				c-0.45,1.36-0.61,1.78-1.27,3.2v10.61c0,0.9,0.02,1.59,0.1,2.24h-1.64c0.08-0.69,0.12-1.3,0.12-2.28V322.38z M504.52,330.93
				c0.08-0.65,0.1-1.21,0.1-2.36v-8.44c0-0.88-0.04-1.5-0.12-2.07h1.62c-0.08,0.52-0.1,1.19-0.1,2.09v8.44h9.02
				c1,0,1.52-0.02,2.05-0.1V330c-0.64-0.08-1.19-0.12-2.05-0.12h-9.02v1.04L504.52,330.93L504.52,330.93z M506.55,316.6
				c-0.78,0-1.23,0.02-1.8,0.08v-1.44c0.53,0.08,1,0.1,1.91,0.1h3.81c0.1-0.69,0.14-0.98,0.2-1.84l1.52,0.1
				c-0.14,0.88-0.18,1.07-0.29,1.75h3.49c0.9,0,1.29-0.02,1.89-0.11v1.48c-0.61-0.08-1.13-0.1-1.76-0.1h-3.88
				c-0.16,0.75-0.16,0.75-0.39,1.67h2.95c0.82,0,1.29-0.02,1.7-0.06c-0.06,0.52-0.06,0.86-0.06,1.82v5.66c0,0.73,0,1.11,0.06,1.65
				c-0.82-0.06-1.07-0.06-1.72-0.06h-4.66c-0.64,0-0.92,0-1.7,0.06c0.04-0.46,0.06-0.96,0.06-1.55v-5.95
				c-0.04-0.92-0.06-1.46-0.08-1.63c0.45,0.04,0.88,0.06,1.62,0.06h0.43c0.23-0.86,0.29-1.09,0.41-1.67h-3.71V316.6z M509.22,320.86
				h5.27v-1.42h-5.27V320.86z M509.22,323.43h5.27v-1.42h-5.27V323.43z M509.22,326.12h5.27v-1.53h-5.27V326.12z"/>
		</g>
		<g>
			<path d="M517.99,331.03c1.46-1.51,2.07-2.36,2.71-3.68c0.78-1.61,1.15-3.28,1.15-5.2s-0.37-3.59-1.15-5.2
				c-0.64-1.32-1.25-2.17-2.71-3.68H520c1.13,1.34,1.66,2.13,2.24,3.36c0.84,1.76,1.25,3.55,1.25,5.52s-0.41,3.76-1.25,5.52
				c-0.59,1.23-1.11,2.01-2.24,3.36L517.99,331.03L517.99,331.03z"/>
		</g>
		<g>
			<path d="M528.55,322.47c0-0.94,0-1.34,0.06-2.24c-0.43,0.86-0.88,1.57-1.6,2.53c-0.25-0.59-0.45-0.92-0.8-1.4
				c1.33-1.48,2.32-3.18,3.18-5.45c0.43-1.17,0.59-1.75,0.72-2.69l1.54,0.58c-0.14,0.35-0.17,0.48-0.37,1.04
				c-0.41,1.23-0.63,1.78-1.31,3.3v10.59c0,1,0.02,1.63,0.1,2.24h-1.64c0.08-0.71,0.12-1.34,0.12-2.28L528.55,322.47L528.55,322.47z
				 M542.27,319.1c0.82,0,1.33-0.02,1.74-0.08c-0.06,0.42-0.08,0.92-0.08,1.73v7.86c0,0.86,0.02,1.48,0.12,2.19h-1.56v-1.21h-9.29
				v1.21h-1.54c0.08-0.59,0.12-1.28,0.12-2.05v-7.94c0-0.69-0.04-1.27-0.1-1.78c0.49,0.06,0.96,0.08,1.76,0.08h1.95V316h-1.54
				c-0.88,0-1.5,0.04-2.11,0.12v-1.57c0.53,0.08,1.17,0.12,2.11,0.12h8.68c0.94,0,1.6-0.04,2.15-0.12v1.57
				c-0.57-0.08-1.23-0.12-2.11-0.12h-2.3v3.11h2V319.1z M533.19,320.4v7.88h2.19v-7.88H533.19z M538.87,315.99h-2.11v3.11h2.11
				V315.99z M536.77,328.28h2.11v-7.88h-2.11V328.28z M540.26,328.28h2.23v-7.88h-2.23V328.28z"/>
		</g>
		<g>
			<path d="M549.57,315.37c0-1.09-0.04-1.57-0.12-1.99h1.66c-0.08,0.54-0.1,1.04-0.1,1.98v1.8h0.78c0.53,0,0.88-0.02,1.21-0.08v1.4
				c-0.39-0.04-0.74-0.06-1.21-0.06h-0.74c0.12,0.33,0.21,0.5,0.47,0.9c0.68,1.17,1.02,1.61,1.83,2.49
				c-0.33,0.29-0.61,0.61-0.9,1.02c-0.64-0.88-0.84-1.21-1.54-2.63c0.06,1,0.1,2.01,0.1,2.95v5.54c0,1.02,0.02,1.71,0.12,2.26h-1.68
				c0.08-0.56,0.14-1.29,0.14-2.26v-4.97c0-0.54,0.02-1.15,0.12-2.86c-0.45,1.71-0.64,2.24-1.09,3.32
				c-0.37,0.84-0.59,1.25-1.09,1.99c-0.31-0.56-0.53-0.84-0.94-1.21c1.25-1.71,2.3-4.16,2.81-6.56h-0.94
				c-0.63,0-0.98,0.02-1.41,0.08v-1.42c0.31,0.06,0.76,0.08,1.41,0.08h1.11L549.57,315.37L549.57,315.37z M560.25,315.11
				c1,0,1.41-0.02,1.8-0.1l0.88,0.92c-0.16,0.21-0.16,0.21-0.47,0.79c-0.9,1.5-1.76,2.63-2.87,3.72c1.58,1.15,3.12,1.9,5.41,2.65
				c-0.35,0.48-0.61,0.9-0.8,1.4c-0.72-0.29-0.88-0.36-1.29-0.54c-0.04,0.31-0.04,0.58-0.04,1.38v3.68c0,0.98,0.02,1.52,0.1,1.94
				h-1.52v-1.07h-5.8v1.07h-1.52c0.06-0.44,0.1-0.98,0.1-1.92v-3.7c0-0.69-0.02-0.98-0.04-1.3c-0.43,0.21-0.6,0.29-1.17,0.54
				c-0.31-0.56-0.43-0.73-0.92-1.19c2.4-0.92,3.73-1.65,5.41-2.92c-0.82-0.79-1.27-1.28-2.13-2.44c-0.58,0.81-1.07,1.38-1.79,2.11
				c-0.31-0.44-0.59-0.71-1.03-1.02c1.74-1.52,3.3-3.97,3.69-5.79l1.52,0.33c-0.06,0.11-0.06,0.13-0.12,0.27
				c-0.16,0.38-0.31,0.69-0.55,1.19L560.25,315.11L560.25,315.11z M561.34,323.81c0.58,0,0.82,0,1.23-0.02
				c-1.46-0.65-2.62-1.36-4.02-2.46c-1.21,0.98-2.26,1.65-3.92,2.46c0.37,0.02,0.53,0.02,1.07,0.02H561.34z M555.64,328.59h5.8
				v-3.49h-5.8V328.59z M556.42,316.41c-0.14,0.23-0.17,0.29-0.29,0.48c0.86,1.25,1.41,1.86,2.38,2.7c1.09-1.04,1.7-1.82,2.44-3.18
				L556.42,316.41L556.42,316.41z"/>
		</g>
	</g>
</g>
</svg>
