<svg xmlns="http://www.w3.org/2000/svg" width="532" height="70" viewBox="0 0 532 70"><g transform="translate(-243.159 -7562.516)"><path d="M294.373,7585.046c-.981,12.243-3.377,21.893-7.3,29.449a29.26,29.26,0,0,0,9.153,8.272,30.256,30.256,0,0,0-5.448,6.619,35.54,35.54,0,0,1-8.554-7.611,37.248,37.248,0,0,1-8.827,7.722,33.342,33.342,0,0,0-4.086-5.515v5.68h-7.628V7621.5c-5.993,1.049-12.149,1.986-17.053,2.813l-1.47-8c1.47-.165,3.105-.33,4.849-.551v-28.235h-3.487v-7.39h28V7584h15.309l1.361-.221Zm-38.846,2.482v4.08h6.156v-4.08Zm0,15.55h6.156v-4.356h-6.156Zm6.156,10.92v-3.805h-6.156v4.633Zm7.628,8.328a28.525,28.525,0,0,0,8.227-7.832c-3.16-6.011-5.339-13.07-7.029-21.066l7.574-1.488a67.952,67.952,0,0,0,4.032,13.841,68.489,68.489,0,0,0,3.651-13.952H270.891v-4.3H269.31Z" transform="translate(0 0.232)" fill="#333"/><path d="M328.463,7603.711s-.054,2.206-.217,3.253c-.818,11.748-1.8,17.207-3.814,19.468-1.69,1.93-3.433,2.537-5.994,2.813a65.621,65.621,0,0,1-8.554.221,18.885,18.885,0,0,0-2.942-8.438c3.106.277,6.539.331,8.064.331a3.824,3.824,0,0,0,2.506-.662c.981-.827,1.69-3.805,2.234-9.6h-9.208l-.489,2.482-7.955-1.269a198.573,198.573,0,0,0,3.323-20.736h14.656v-4.853H304.381v-7.444h23.537v19.741H312.5c-.272,1.6-.491,3.144-.709,4.688Zm18.251-25.479v51.4h-8.008v-51.4Z" transform="translate(0.06 0.208)" fill="#333"/><path d="M408.2,7613.378H387.117v7.169c0,4.467-1.035,6.508-3.977,7.722s-7.137,1.434-12.586,1.378a34.2,34.2,0,0,0-3.214-7.94c3.759.165,8.445.165,9.753.165,1.252,0,1.743-.386,1.743-1.49v-7H357.642v-7.831h21.193v-5.129h-17.38v-7.665h17.38v-5.35c-5.5.5-11.005.772-16.181.938a29.945,29.945,0,0,0-1.961-7.058c13.239-.5,27.786-1.931,37.1-4.246l5.721,6.673a146.946,146.946,0,0,1-16.4,2.867v6.176h17.762v7.665H387.117v5.129H408.2Z" transform="translate(0.116 0.191)" fill="#333"/><path d="M465.084,7594.516c-1.035,7.775-2.724,14.338-5.448,19.8a24.881,24.881,0,0,0,9.153,8.217,31.4,31.4,0,0,0-5.5,7,30.115,30.115,0,0,1-8.555-7.831,35.536,35.536,0,0,1-10.9,8.162,32.677,32.677,0,0,0-2.343-4.247l-3.105,3.2a42.913,42.913,0,0,0-5.285-4.027c-3.268,2.317-7.628,3.806-13.457,4.964a16.827,16.827,0,0,0-3.105-6.617,29.92,29.92,0,0,0,9.752-2.316c-.6-.276-1.144-.551-1.744-.827l-.435.771-6.92-2.04c1.144-1.875,2.507-4.192,3.814-6.673h-4.74v-6.4h8.009q.9-1.821,1.635-3.475l1.035.221v-3.916a40.616,40.616,0,0,1-7.3,5.46,27.277,27.277,0,0,0-3.978-5.791,29.836,29.836,0,0,0,8.936-5.846h-7.519v-6.231h3.432a33.286,33.286,0,0,0-2.507-5.791l5.612-2.371a23.356,23.356,0,0,1,3.16,6.728l-3.269,1.434h3.432V7577.2h7.246v7.224a50.919,50.919,0,0,0,3.269-6.728l6.647,2.592c-1.635,2.1-3.16,4.247-4.413,5.791h4.413v6.231H436.7c2.4,1.323,5.284,2.979,6.265,3.641l-4.141,5.459c-1.089-1.1-2.833-2.647-4.631-4.19v5.789h-4.358l3.377.718-.926,1.93h11.169a45.675,45.675,0,0,0-3.923-3.418c4.577-5.571,7.137-15.111,8.281-25.038l8.009,1.158c-.435,2.978-.926,5.9-1.58,8.769h13.784v7.391Zm-37.213,19.576c1.253.5,2.507,1.049,3.706,1.6a18.713,18.713,0,0,0,1.416-3.639h-4.032Zm6.32-28.015h3.432l-3.432-1.544Zm6.211,25.975a26.068,26.068,0,0,1-2.4,7.058c1.308.773,2.561,1.6,3.651,2.317a24.962,24.962,0,0,0,8.717-7.335,63.457,63.457,0,0,1-2.942-8.6,27.908,27.908,0,0,1-1.689,2.481,18.351,18.351,0,0,0-1.471-1.544v5.625Zm12.1-17.537a70.015,70.015,0,0,0,2.451,10.091,57.861,57.861,0,0,0,2.016-10.091Z" transform="translate(0.174 0.194)" fill="#333"/><path d="M521.375,7614.92v14.669h-7.409V7616.3l-14.274,2.592L498.6,7612l-4.467,5.846c-.708-1.6-1.852-3.7-3.051-5.791v17.426h-7.3v-17.812a57.657,57.657,0,0,1-5.558,12.464,51.176,51.176,0,0,0-3.487-8.383c2.507-3.089,4.9-8.272,6.484-12.74h-5.394v-7.443h7.955v-17.979h7.3v15.441a110.169,110.169,0,0,0,2.562-12.9l6.592,1.378c-1.416,4.634-3,9.928-4.3,13.235l-4.849-1.268v2.1h7.574v7.443h-7.574v.221a106.589,106.589,0,0,1,7.574,8.107l15.31-2.758V7577.2h7.409v30.055l5.121-.937,1.144,7.445Zm-43.7-19.854a57.851,57.851,0,0,0-2.179-13.18l5.448-1.435a58.892,58.892,0,0,1,2.561,13.07Zm24.735-1.765a45.453,45.453,0,0,1,9.207,6.452l-3.977,6.4a48.268,48.268,0,0,0-8.935-7.115Zm7.029-.937c-1.635-2.151-5.448-5.184-8.446-7.224l3.814-5.4c3,1.819,6.919,4.577,8.718,6.617Z" transform="translate(0.234 0.194)" fill="#333"/><path d="M557.028,7581.239c-.38,1.655-.817,3.7-1.144,5.239-.272,1.49-.6,2.979-.926,4.412,1.417-.11,2.67-.165,3.651-.165,6.211,0,10.3,2.978,10.3,11.139,0,6.4-.709,15.167-3,20.02-1.852,3.915-5.012,5.294-9.426,5.294a31.623,31.623,0,0,1-6.538-.772l-1.416-8.714a33.874,33.874,0,0,0,6.593,1.158,3.651,3.651,0,0,0,3.65-2.1c1.362-2.7,2.016-8.933,2.016-14.008,0-3.971-1.635-4.466-5.013-4.466-.6,0-1.526.054-2.505.11-2.179,8.492-6.211,21.618-10.788,29.117l-8.554-3.473c5.121-7,8.609-17.207,10.625-24.652-1.417.221-2.616.386-3.378.5-1.744.221-4.849.662-6.647.993l-.709-8.878a59.723,59.723,0,0,0,6.265,0c1.581-.056,3.814-.221,6.211-.387a55.47,55.47,0,0,0,1.035-11.415Zm19.178,5.847a101.008,101.008,0,0,1,8.718,19.632l-8.336,3.917c-1.307-6.343-4.9-16.048-8.826-21.123l4.74-1.985a71.008,71.008,0,0,0-3.7-6.728l5.121-2.1c1.362,2.042,3.269,5.625,4.25,7.556Zm3.6-1.325a61.707,61.707,0,0,0-4.3-7.609l5.121-2.1a79.256,79.256,0,0,1,4.3,7.5Z" transform="translate(0.294 0.179)" fill="#333"/><path d="M602.408,7583.838a31.064,31.064,0,0,1-2.978,2.574,68.294,68.294,0,0,0-8.645-6.985,41.971,41.971,0,0,0,14.892-16.839l10.388,3.089a48.555,48.555,0,0,1-2.325,4.265h42.5v9.338h-6.466v7.647h9.081v9.486h-9.081v7.572h7.991v9.486H593.981v-9.486h8.426v-7.572h-9.661v-9.486h9.661Zm-10.533,44.56c3.051-3.088,6.174-8.9,7.773-14.266l10.315,2.5a44.422,44.422,0,0,1-7.846,15.882Zm19.832-41.471h3.559v-7.647h-3.559Zm0,17.058h3.559v-7.572h-3.559Zm11.041,11.913a91.246,91.246,0,0,1,1.889,14.191l-10.388,1.544a101.084,101.084,0,0,0-1.308-14.559Zm4.868-28.971v-7.647h-3.633v7.647Zm-3.633,9.486v7.572h3.633v-7.572Zm13.148,19.264a75.737,75.737,0,0,1,4.068,13.971l-10.606,2.059a79.557,79.557,0,0,0-3.414-14.339Zm2.979-36.4h-3.778v7.647h3.778Zm0,17.133h-3.778v7.572h3.778Zm11.478,17.426c3.123,4.558,7.119,10.809,8.935,15l-10.9,3.6c-1.452-4.043-5.157-10.588-8.208-15.44Z" transform="translate(0.351 0.001)" fill="#fc088e"/><path d="M731.417,7612.81v19.56h-9.88v-17.722L702.5,7618.1l-1.452-9.191-5.957,7.793c-.945-2.132-2.47-4.926-4.068-7.721v23.236h-9.735v-23.75c-2.106,6.322-4.649,12.352-7.409,16.617a68.28,68.28,0,0,0-4.65-11.175c3.342-4.118,6.539-11.03,8.645-16.986h-7.191V7587h10.606V7563.03h9.735v20.588a147.124,147.124,0,0,0,3.414-17.205l8.79,1.838c-1.889,6.177-4,13.235-5.74,17.647l-6.465-1.691V7587h10.1v9.926h-10.1v.294a142.295,142.295,0,0,1,10.1,10.809l20.413-3.676v-41.838h9.88v40.073l6.829-1.25,1.526,9.926Zm-58.261-26.471a77.125,77.125,0,0,0-2.9-17.573l7.263-1.912a78.391,78.391,0,0,1,3.414,17.428Zm32.981-2.353c4.14,2.28,9.661,5.883,12.276,8.6l-5.3,8.53c-2.4-2.795-7.773-6.838-11.913-9.485Zm9.37-1.249c-2.179-2.868-7.264-6.913-11.26-9.633l5.085-7.206c4,2.427,9.226,6.1,11.624,8.824Z" transform="translate(0.431 0)" fill="#fc088e"/><path d="M741.443,7563.811l3.952,4,3.951-4,.348.352-3.953,4,3.953,4-.348.352-3.951-4-3.964,4.012-.347-.352,3.964-4.012-3.952-4Zm.539,5.26a.909.909,0,1,1,.9-.91A.911.911,0,0,1,741.982,7569.071Zm2.515-4.364a.9.9,0,1,1,.9.909A.911.911,0,0,1,744.5,7564.707Zm1.8,6.91a.9.9,0,1,1-.9-.909A.911.911,0,0,1,746.293,7571.616Zm2.514-4.364a.909.909,0,1,1-.9.909A.91.91,0,0,1,748.808,7567.252Z" transform="translate(0.503 0.017)"/><path d="M774.647,7618.773a12.133,12.133,0,1,1-12.132-12.279A12.181,12.181,0,0,1,774.647,7618.773Zm-6.1,0a6.03,6.03,0,1,0-6.029,6.1A6.052,6.052,0,0,0,768.543,7618.773Z" transform="translate(0.512 0.581)" fill="#fc088e"/></g></svg>