<svg xmlns="http://www.w3.org/2000/svg" width="498" height="50" viewBox="0 0 498 50"><g transform="translate(-250.585 -7489.241)"><path d="M250.585,7493.977h11.656c12.364,0,20.533,6.008,20.533,20.286s-8.17,20.728-19.989,20.728h-12.2Zm11.057,33.076c6.537,0,11.166-3.032,11.166-12.79s-4.629-12.458-11.166-12.458h-1.307v25.248Z" transform="translate(0 0.061)" fill="#333"/><path d="M292.6,7493.977h10.512l6.427,17.7c.818,2.371,1.471,4.962,2.234,7.5h.272c.818-2.535,1.471-5.126,2.234-7.5l6.208-17.7H331.05v41.014h-8.877v-14.058a137.838,137.838,0,0,1,1.253-14.222h-.218l-3.376,9.813-5.447,14.994h-5.338l-5.5-14.994-3.269-9.812h-.217a137.821,137.821,0,0,1,1.253,14.222v14.058H292.6Z" transform="translate(0.03 0.061)" fill="#333"/><path d="M342.681,7493.977h10.512l6.427,17.7c.818,2.371,1.471,4.962,2.234,7.5h.272c.818-2.535,1.471-5.126,2.234-7.5l6.208-17.7h10.566v41.014h-8.877v-14.058a137.821,137.821,0,0,1,1.253-14.222h-.218l-3.376,9.813-5.447,14.994h-5.338l-5.5-14.994-3.269-9.812h-.217a137.838,137.838,0,0,1,1.253,14.222v14.058h-8.715Z" transform="translate(0.065 0.061)" fill="#333"/><path d="M409.409,7493.977h14.162c8.387,0,15.087,2.26,15.087,10.143,0,3.638-2.014,7.607-5.283,8.875v.221c4.085,1.1,7.189,4.189,7.189,9.647,0,8.379-7.026,12.128-15.849,12.128H409.409Zm13.781,16.262c4.139,0,5.991-1.819,5.991-4.631,0-2.922-1.906-4.134-5.991-4.134h-4.031v8.765Zm.817,17.2c4.684,0,7.081-1.709,7.081-5.237,0-3.363-2.343-4.687-7.081-4.687h-4.847v9.924Z" transform="translate(0.112 0.061)" fill="#333"/><path d="M448.569,7494.313c0-2.977,2.288-5.072,5.556-5.072,3.213,0,5.5,2.1,5.5,5.072,0,2.921-2.288,5.017-5.5,5.017C450.857,7499.33,448.569,7497.234,448.569,7494.313Zm.708,9.371h9.641v31.368h-9.641Z" transform="translate(0.139)" fill="#333"/><path d="M470.572,7523.341v-12.073h-4.195v-7.276l4.739-.387,1.09-8.269h8.061v8.269h7.3v7.663h-7.3v11.962c0,3.473,1.634,4.851,3.922,4.851a10.818,10.818,0,0,0,2.832-.55l1.525,7.055a22.533,22.533,0,0,1-7.026,1.158C473.731,7535.745,470.572,7530.783,470.572,7523.341Z" transform="translate(0.152 0.078)" fill="#333"/><path d="M493.939,7519.223c0-10.419,7.625-16.483,16.285-16.483a13.32,13.32,0,0,1,9.042,3.363l-4.521,6.285a5.871,5.871,0,0,0-3.976-1.71c-4.249,0-6.918,3.308-6.918,8.545,0,5.181,2.778,8.489,6.591,8.489a8.823,8.823,0,0,0,5.392-2.206l3.7,6.45a15.332,15.332,0,0,1-10.186,3.694C500.639,7535.649,493.939,7529.586,493.939,7519.223Z" transform="translate(0.171 0.174)" fill="#333"/><path d="M524.734,7519.223c0-10.419,7.3-16.483,15.2-16.483,7.843,0,15.142,6.064,15.142,16.483,0,10.363-7.3,16.427-15.142,16.427C532.033,7535.649,524.734,7529.586,524.734,7519.223Zm20.425,0c0-5.238-1.634-8.545-5.229-8.545-3.65,0-5.284,3.308-5.284,8.545,0,5.181,1.634,8.489,5.284,8.489C543.525,7527.712,545.159,7524.4,545.159,7519.223Z" transform="translate(0.193 0.174)" fill="#333"/><path d="M562.866,7494.313c0-2.977,2.287-5.072,5.555-5.072,3.213,0,5.5,2.1,5.5,5.072,0,2.921-2.289,5.017-5.5,5.017C565.153,7499.33,562.866,7497.234,562.866,7494.313Zm.707,9.371h9.641v31.368h-9.641Z" transform="translate(0.22)" fill="#333"/><path d="M583.51,7503.51h7.9l.654,3.915h.218c2.56-2.537,5.719-4.686,9.913-4.686,6.754,0,9.641,4.905,9.641,12.734v19.4h-9.695v-18.192c0-4.3-1.145-5.567-3.6-5.567-2.179,0-3.485.991-5.392,2.812v20.947H583.51Z" transform="translate(0.234 0.174)" fill="#333"/><path d="M648.5,7503.4a84.811,84.811,0,0,1-9.15,1.875,101.753,101.753,0,0,1-11.438,23.484l-7.9-4.025a85.425,85.425,0,0,0,10.73-18.688c-.6.055-1.2.055-1.742.055-2.288,0-4.466-.055-6.972-.22l-.6-7.608c2.506.276,5.719.387,7.516.387,1.416,0,2.778-.055,4.194-.166a43.886,43.886,0,0,0,1.362-8.93l8.932.882c-.381,1.708-.981,4.189-1.743,6.946,2.506-.5,4.793-1.047,6.591-1.6Zm7.57,4.135c-.163,2.37-.054,4.961,0,7.662.055,1.268.164,3.417.272,5.678a34.744,34.744,0,0,1,11.167,7.111l-4.3,7.111a57.6,57.6,0,0,0-6.537-5.567c-.163,5.238-3,9.151-10.948,9.151-7.135,0-12.691-3.362-12.691-9.7,0-5.457,4.249-10.143,12.582-10.143a23.708,23.708,0,0,1,2.833.166c-.218-3.915-.436-8.38-.6-11.466Zm-7.352,18.357a19.436,19.436,0,0,0-3.65-.386c-2.669,0-4.3,1.1-4.3,2.645,0,1.765,1.471,2.978,3.759,2.978,3.213,0,4.194-1.929,4.194-4.961Zm15.74-14.664a77.058,77.058,0,0,0-13.289-7.883l4.194-6.56a107.159,107.159,0,0,1,13.726,7.5Z" transform="translate(0.26 0.005)" fill="#333"/><path d="M687.718,7513.1a27.054,27.054,0,0,1,14.924-4.41c10.131,0,15.632,6.394,15.632,13.064,0,10.144-7.353,18.358-31.1,16.262l-2.56-8.654c15.741,2.371,24.455-1.1,24.455-7.773,0-3.087-2.941-5.4-7.244-5.4-5.5,0-10.784,2.094-13.943,5.953a14.093,14.093,0,0,0-2.234,3.417l-7.461-1.874a211.743,211.743,0,0,0,2.669-23.208l8.768,1.212A95.858,95.858,0,0,0,687.718,7513.1Zm.708-22.933c5.392,1.708,17.266,3.693,22,4.245l-1.96,8.159c-5.665-.772-17.866-3.363-22.114-4.466Z" transform="translate(0.301 0.012)" fill="#333"/><path d="M741.222,7538.837a114.631,114.631,0,0,0-11.547-12.073l6.917-6.009a99.2,99.2,0,0,1,11.656,11.962Z" transform="translate(0.337 0.404)" fill="#333"/></g></svg>