<svg xmlns="http://www.w3.org/2000/svg" width="416" height="116" viewBox="0 0 416 116"><g transform="translate(-511.277 -7186.226)"><g transform="translate(511.277 7186.226)"><path d="M542.423,7247.428c-3.239,3.074-7.109,4.611-12.42,4.611-7.2,0-10.981-2.894-13.951-6.418-5.13-6.149-4.769-17.72-4.769-26.4s-.361-20.432,4.769-26.578c2.97-3.527,6.75-6.419,13.951-6.419,5.31,0,9.18,1.537,12.42,4.61,3.33,3.164,5.4,8.227,5.67,14.375h-12.78a12.24,12.24,0,0,0-.99-4.972c-.72-1.536-1.98-2.441-4.32-2.441a4.265,4.265,0,0,0-4.23,2.531c-1.53,2.983-1.71,11.03-1.71,18.8s.18,15.821,1.71,18.8a4.265,4.265,0,0,0,4.23,2.531,4.4,4.4,0,0,0,4.41-2.531,12.238,12.238,0,0,0,.989-4.973h12.781C547.913,7239.112,545.753,7244.264,542.423,7247.428Z" transform="translate(-511.277 -7186.226)" fill="#333"/><path d="M586.164,7246.182c-3.15,4.7-7.65,5.786-12.781,5.786s-9.63-1.085-12.78-5.786c-3.06-4.61-3.33-12.747-3.33-19.256s.27-14.645,3.33-19.255c3.149-4.7,7.649-5.787,12.78-5.787s9.63,1.085,12.781,5.787c3.06,4.61,3.33,12.746,3.33,19.255S589.224,7241.572,586.164,7246.182Zm-9.63-31.55a3.562,3.562,0,0,0-6.3,0c-.9,1.989-.9,6.779-.9,12.294s0,10.307.9,12.3a3.564,3.564,0,0,0,6.3,0c.9-1.989.9-6.781.9-12.3S577.433,7216.621,576.533,7214.632Z" transform="translate(-511.275 -7186.155)" fill="#333"/><path d="M639.263,7251.245v-34.081c0-2.983-1.62-4.43-3.78-4.43s-3.78,1.447-3.78,4.43v34.081h-12.06v-34.081c0-2.983-1.62-4.43-3.78-4.43s-3.78,1.447-3.78,4.43v34.081H600.022v-48.637h11.521v3.526a12.671,12.671,0,0,1,3.51-3.074,10.183,10.183,0,0,1,4.59-1.176,11.552,11.552,0,0,1,9.629,4.973,18.17,18.17,0,0,1,4.86-3.8,12.3,12.3,0,0,1,4.77-1.176c4.77,0,7.38,1.266,9.72,4.069,1.89,2.351,2.7,4.972,2.7,11.03v34.262Z" transform="translate(-511.273 -7186.155)" fill="#333"/><path d="M702.262,7251.245v-34.081c0-2.983-1.62-4.43-3.781-4.43s-3.779,1.447-3.779,4.43v34.081h-12.06v-34.081c0-2.983-1.62-4.43-3.781-4.43s-3.779,1.447-3.779,4.43v34.081H663.021v-48.637h11.521v3.526a12.67,12.67,0,0,1,3.51-3.074,10.176,10.176,0,0,1,4.59-1.176,11.553,11.553,0,0,1,9.63,4.973,18.138,18.138,0,0,1,4.86-3.8,12.289,12.289,0,0,1,4.769-1.176c4.77,0,7.38,1.266,9.721,4.069,1.89,2.351,2.7,4.972,2.7,11.03v34.262Z" transform="translate(-511.27 -7186.155)" fill="#333"/><path d="M725.66,7199.242v-12.837h12.78v12.837Zm.36,52.072v-46.738h12.061v46.738Z" transform="translate(-511.266 -7186.225)" fill="#333"/><path d="M775.43,7247.9c-3.15,3.165-7.02,4.069-11.341,4.069s-8.819-1.446-11.52-4.249a15.556,15.556,0,0,1-4.59-11.12h11.881a4.848,4.848,0,0,0,1.26,3.165,4.078,4.078,0,0,0,2.969,1.265,3.655,3.655,0,0,0,2.88-.995,3.845,3.845,0,0,0,.99-2.712,4.357,4.357,0,0,0-.81-2.712,7.4,7.4,0,0,0-3.149-2.079l-6.75-2.622c-3.42-1.356-5.94-3.165-7.47-5.605a12.808,12.808,0,0,1-1.62-6.779,14.758,14.758,0,0,1,4.41-11.211,15.788,15.788,0,0,1,11.431-4.43,16.2,16.2,0,0,1,10.98,3.979,14.5,14.5,0,0,1,4.5,10.938H767.69a4.651,4.651,0,0,0-.99-3.073,3.892,3.892,0,0,0-2.7-1.175,3.942,3.942,0,0,0-2.791,1.084,3.377,3.377,0,0,0-.989,2.713,3.437,3.437,0,0,0,.63,2.168,5.843,5.843,0,0,0,3.06,2.17l6.659,2.531c3.42,1.356,5.67,2.893,7.29,5.153a13.306,13.306,0,0,1,2.16,7.956A15.949,15.949,0,0,1,775.43,7247.9Z" transform="translate(-511.265 -7186.155)" fill="#333"/><path d="M815.569,7247.9c-3.15,3.165-7.02,4.069-11.34,4.069s-8.82-1.446-11.521-4.249a15.556,15.556,0,0,1-4.59-11.12H800a4.848,4.848,0,0,0,1.26,3.165,4.078,4.078,0,0,0,2.97,1.265,3.654,3.654,0,0,0,2.879-.995,3.846,3.846,0,0,0,.991-2.712,4.364,4.364,0,0,0-.81-2.712,7.413,7.413,0,0,0-3.15-2.079l-6.75-2.622c-3.42-1.356-5.94-3.165-7.47-5.605a12.808,12.808,0,0,1-1.62-6.779,14.758,14.758,0,0,1,4.41-11.211,15.788,15.788,0,0,1,11.431-4.43,16.194,16.194,0,0,1,10.98,3.979,14.5,14.5,0,0,1,4.5,10.938H807.83a4.657,4.657,0,0,0-.99-3.073,3.894,3.894,0,0,0-2.7-1.175,3.938,3.938,0,0,0-2.79,1.084,3.374,3.374,0,0,0-.99,2.713,3.436,3.436,0,0,0,.63,2.168,5.843,5.843,0,0,0,3.06,2.17l6.659,2.531c3.42,1.356,5.67,2.893,7.29,5.153a13.306,13.306,0,0,1,2.16,7.956A15.949,15.949,0,0,1,815.569,7247.9Z" transform="translate(-511.263 -7186.155)" fill="#333"/><path d="M829.878,7199.242v-12.837h12.781v12.837Zm.36,52.072v-46.738H842.3v46.738Z" transform="translate(-511.261 -7186.225)" fill="#333"/><path d="M881.718,7246.182c-3.15,4.7-7.65,5.786-12.781,5.786s-9.63-1.085-12.78-5.786c-3.06-4.61-3.33-12.747-3.33-19.256s.27-14.645,3.33-19.255c3.15-4.7,7.65-5.787,12.78-5.787s9.63,1.085,12.781,5.787c3.06,4.61,3.33,12.746,3.33,19.255S884.779,7241.572,881.718,7246.182Zm-9.63-31.55a3.562,3.562,0,0,0-6.3,0c-.9,1.989-.9,6.779-.9,12.294s0,10.307.9,12.3a3.563,3.563,0,0,0,6.3,0c.9-1.989.9-6.781.9-12.3S872.988,7216.621,872.088,7214.632Z" transform="translate(-511.26 -7186.155)" fill="#333"/><path d="M915.2,7251.245v-34.081c0-2.983-1.62-4.43-3.78-4.43s-3.78,1.447-3.78,4.43v34.081h-12.06v-48.637H907.1v3.526a12.671,12.671,0,0,1,3.51-3.074,10.183,10.183,0,0,1,4.59-1.176c4.41,0,7.02,1.266,9.36,4.069,1.89,2.351,2.7,4.972,2.7,11.03v34.262Z" transform="translate(-511.258 -7186.155)" fill="#333"/></g><g transform="translate(655.238 7283.265)"><path d="M658.846,7286.274v4.571h7.306v3.238h-7.306v7.548h-3.615v-18.6h12.2v3.238Z" transform="translate(-655.231 -7282.827)" fill="#333"/><path d="M684.873,7300.095a5.6,5.6,0,0,1-4.212,1.671,5.539,5.539,0,0,1-4.186-1.671c-1.223-1.28-1.535-2.821-1.535-5.3,0-2.455.312-4,1.535-5.276a5.537,5.537,0,0,1,4.186-1.671,5.6,5.6,0,0,1,4.212,1.671c1.222,1.28,1.534,2.821,1.534,5.276C686.407,7297.274,686.095,7298.815,684.873,7300.095Zm-2.626-8.593a2.135,2.135,0,0,0-1.586-.6,2.068,2.068,0,0,0-1.56.6c-.7.705-.781,1.88-.781,3.291s.078,2.611.781,3.317a2.068,2.068,0,0,0,1.56.6,2.135,2.135,0,0,0,1.586-.6c.7-.706.779-1.907.779-3.317S682.948,7292.207,682.246,7291.5Z" transform="translate(-655.23 -7282.805)" fill="#333"/><path d="M702.188,7291.711a2.259,2.259,0,0,0-3.979,1.7v8.2h-3.38V7288h3.3v1.306a4.575,4.575,0,0,1,3.407-1.462,4.074,4.074,0,0,1,3.2,1.28Z" transform="translate(-655.229 -7282.805)" fill="#333"/><path d="M726.887,7291v10.63h-3.381V7291h-1.4v-2.585h1.4v-1.7a3.7,3.7,0,0,1,3.952-3.892h1.925v2.873h-1.326c-.807,0-1.17.444-1.17,1.228v1.488h2.5V7291Z" transform="translate(-655.228 -7282.828)" fill="#333"/><path d="M744.541,7291.711a2.259,2.259,0,0,0-3.978,1.7v8.2h-3.38V7288h3.3v1.306a4.572,4.572,0,0,1,3.406-1.462,4.076,4.076,0,0,1,3.2,1.28Z" transform="translate(-655.227 -7282.805)" fill="#333"/><path d="M756.865,7295.864a2.8,2.8,0,0,0,2.964,3.03,3.74,3.74,0,0,0,3.068-1.28l2.054,2.011a6.437,6.437,0,0,1-5.148,2.142c-3.2,0-6.266-1.462-6.266-6.973,0-4.44,2.392-6.947,5.9-6.947,3.771,0,5.9,2.769,5.9,6.5v1.515Zm4.836-3.787a2.519,2.519,0,0,0-4.524,0,3.764,3.764,0,0,0-.312,1.463h5.148A3.764,3.764,0,0,0,761.7,7292.077Z" transform="translate(-655.226 -7282.805)" fill="#333"/><path d="M776.312,7295.864a2.8,2.8,0,0,0,2.964,3.03,3.74,3.74,0,0,0,3.068-1.28l2.054,2.011a6.437,6.437,0,0,1-5.148,2.142c-3.2,0-6.266-1.462-6.266-6.973,0-4.44,2.392-6.947,5.9-6.947,3.77,0,5.9,2.769,5.9,6.5v1.515Zm4.836-3.787a2.519,2.519,0,0,0-4.524,0,3.764,3.764,0,0,0-.312,1.463h5.148A3.764,3.764,0,0,0,781.148,7292.077Z" transform="translate(-655.225 -7282.805)" fill="#333"/></g></g></svg>