<svg xmlns="http://www.w3.org/2000/svg" width="175" height="44" preserveAspectRatio="xMinYMid" viewBox="0 0 185.61 42.97"><defs><style>.cls-1{fill:#333;}</style></defs><g id="レイヤー_2" data-name="レイヤー 2"><g id="CryptoAsset"><g id="cryptoasset_catch-02"><path class="cls-1" d="M14.17,34.11H5.89v4.18H0V2.65H14.17ZM5.89,8.46v6.93H8.28V8.46ZM8.28,28.3V21.06H5.89V28.3ZM41.35,13.72v5.67H14.8V13.72H20a33.67,33.67,0,0,0-1.13-4.5l2.25-.36H15.52V3.28h9.14V.36h6.48V3.28h9.72V8.86H35.41l2.25.41c-.76,1.71-1.35,3.24-1.89,4.45ZM17.19,21.37H39.1V42.7H32.85V41.08H23.13V42.7H17.19Zm5.94,5.22v2.12h9.72V26.59Zm9.72,9.14V33.48H23.13v2.25ZM24.66,8.86a25,25,0,0,1,1.26,4.46l-2.12.4h8L30,13.36a44.7,44.7,0,0,0,1.26-4.5Z"/><path class="cls-1" d="M63.63,23.89,63,25.74h21.2s-.14,1.8-.32,2.65c-.81,7.07-1.84,10.67-3.51,12.24s-3.19,1.85-5.53,2c-1.8.13-4.77.13-7.88,0a13.08,13.08,0,0,0-2.29-6.25c2.92.27,6.3.31,7.69.31a3.77,3.77,0,0,0,2.25-.45c.72-.54,1.31-2.07,1.8-4.68H61.11c-.27.72-.5,1.4-.72,2l-7.16-1c1-2.3,2.12-5.54,3.11-8.69H48.46V18H89v5.89ZM84,16.29H54V1.44H84ZM77.17,7.11H60.39v3.55H77.17Z"/><path class="cls-1" d="M125.08,35c4.23,1.71,9,3.69,11.75,5.13l-7.74,2.84a73,73,0,0,0-11.21-5.58L122.16,35h-12l4.1,1.85A54.79,54.79,0,0,1,100,43a49.85,49.85,0,0,0-4.86-4.77A51.58,51.58,0,0,0,106.54,35H101V16.51h9.76a17.74,17.74,0,0,0-2.34-3.42l.14,1c-3.83,1.13-7.92,2.21-11.3,3.11l-2.43-5.67C98.22,11,103.17,9.94,108,9l.45,4c6.84-1.08,9.18-2.83,10.17-5.53h-2.38a25.35,25.35,0,0,1-3.42,3.46,17.55,17.55,0,0,0-4.91-3.06A19.43,19.43,0,0,0,114.51,0l5.71,1c-.31.63-.67,1.26-1,1.89h12.15l1-.18,4.27,1a36.23,36.23,0,0,1-4.09,7.07l-5-1.44a20.78,20.78,0,0,0,1.26-2H125c1,2.56,3.55,4.54,12.55,5.44a18.86,18.86,0,0,0-3.19,5.4c-.9-.13-1.76-.31-2.57-.49V35ZM106.14,8.55A65.3,65.3,0,0,0,96.69,5L99.52.54a63.15,63.15,0,0,1,9.59,3.1Zm1.17,13h17.82V20.29H107.31Zm0,4.82h17.82V25.11H107.31Zm0,4.86h17.82V29.92H107.31Zm20.38-14.72a13.52,13.52,0,0,1-5.67-4,14.66,14.66,0,0,1-6.75,4Z"/><path class="cls-1" d="M153.35,19.75a59.54,59.54,0,0,1-.27,6A19.38,19.38,0,0,0,157.94,18l5.8,1.35c-.22.63-.45,1.22-.72,1.85h3.11V18.22h6.43v2.93H183v5h-10.4v2.65h9.09v4.91h-9.09v3H185.2V42H153.8V36.63h12.33v-3h-9V29.29A34.76,34.76,0,0,0,153,26.77c-.54,5.54-1.89,11.61-4.91,15.89a26.11,26.11,0,0,0-5-4.19c3.74-5.44,4.05-13.36,4.05-18.76V12.24H155a22.24,22.24,0,0,0-1.35-3.74l.36-.09h-7.11V2.92h15V0h6.57V2.92h14.94V8.41H178c-.86,1.4-1.71,2.7-2.43,3.83h10.08v5.58H153.35Zm6.93,6.35a17.6,17.6,0,0,1-2,2.65h7.88V26.1Zm0-17.69a15.73,15.73,0,0,1,1.26,3.65l-.67.18h8.19c.4-1.13.85-2.52,1.17-3.83Z"/></g></g></g></svg>