<svg xmlns="http://www.w3.org/2000/svg" width="285" height="52" preserveAspectRatio="xMinYMid" viewBox="0 0 225.98 41.49"><defs><style>.cls-1{fill:#333;}</style></defs><g id="レイヤー_2" data-name="レイヤー 2"><g id="CryptoAsset"><g id="cryptoasset_catch-04"><path class="cls-1" d="M40.68,6.57c-1,9.67-3.42,17.23-6.89,23a24.72,24.72,0,0,0,8.73,7.87,16.35,16.35,0,0,0-2.88,3.42,28.16,28.16,0,0,1-8.46-7.56,30.64,30.64,0,0,1-8.59,7.47A16.35,16.35,0,0,0,20,37.57v3.69H15.93V33.57C10.48,34.47,5,35.37.76,36L0,31.86c1.26-.14,2.65-.36,4.23-.54V6.61H.94V2.74H23V6H37.26L38,5.85Zm-32.45,0v5.22h7.7V6.61Zm0,14.45h7.7V15.57H8.23Zm7.7,8.64V24.84H8.23v5.94ZM20,37.35a25.74,25.74,0,0,0,8.73-7.83A63.27,63.27,0,0,1,22.32,11l4.05-.81a56.65,56.65,0,0,0,4.86,15.21,50.11,50.11,0,0,0,4.86-15.34H21.82V6.61H20Z"/><path class="cls-1" d="M56.22,13.14C58.2,9,62.52,4.23,68,4.23c6.12,0,10.67,6,10.67,15.7,0,12.56-7.83,18.32-19.31,20.43l-2.7-4.09c9.86-1.53,17.24-5.18,17.24-16.34,0-7-2.39-11.61-6.66-11.61-5.49,0-10.49,8.1-10.89,14a20.4,20.4,0,0,0,.18,5.18l-4.41.31a55.53,55.53,0,0,1-.5-7.29A117.84,117.84,0,0,1,52.89,6.07a41.64,41.64,0,0,0,.36-4.27l4.9.22A88,88,0,0,0,56.22,13.14Z"/><path class="cls-1" d="M100,24.52V36.63c0,2.16-.45,3.28-1.8,4s-3.24.72-6.3.67a14.16,14.16,0,0,0-1.17-3.82c1.89.09,3.74.09,4.32,0s.86-.18.86-.85V25.69l-5.72,1.62-1-4.09c1.89-.41,4.23-1,6.75-1.67V12.64H89.85V8.77h6.08V0H100V8.77h4.82v3.87H100v7.79c1.62-.45,3.29-.9,4.91-1.4l.54,3.92Zm30.37-10.35c-1.44,7.74-4.23,13.68-8,18.23a25.23,25.23,0,0,0,8.87,5.31,15.92,15.92,0,0,0-2.79,3.64,25.68,25.68,0,0,1-8.91-6,32.14,32.14,0,0,1-9.09,5.81A12.54,12.54,0,0,0,108,37.84a25.9,25.9,0,0,0,8.91-5.58,41,41,0,0,1-5.62-11.34c-.95,8.28-2.79,15-6.62,20.21a25.46,25.46,0,0,0-3.6-2.66c5.76-7,6.84-18.27,7-32.35H105V2.25h15.16l.63-.18,2.88.4c-.45,3.15-1.08,7.11-1.8,10.89H127l.77-.13Zm-18.22-8c0,1.84-.09,3.64-.18,5.4,1.49,7,3.92,13.14,7.65,17.86a33.53,33.53,0,0,0,6-12.28h-4.5l-.4,2-3.83-.45c.77-3.82,1.66-8.77,2.29-12.55Z"/><path class="cls-1" d="M144.63,10.93A100.91,100.91,0,0,0,145,21.06c.67,7.06,2.52,11.83,5.53,11.83,2.25,0,4.23-4.9,5.27-9l3.55,4.19c-2.83,7.69-5.62,10.35-8.91,10.35-4.54,0-8.73-4.32-9.94-16.16-.45-4-.5-9.36-.5-12.06A23.1,23.1,0,0,0,139.59,6l5.49.09A37.87,37.87,0,0,0,144.63,10.93ZM176.18,30l-4.64,1.8c-.76-7.74-3.33-17.73-7.87-23.13l4.45-1.48C172.26,12.42,175.59,22.72,176.18,30Z"/><path class="cls-1" d="M222.87,12.1c-1,7-2.61,12.74-5.22,17.42A21.14,21.14,0,0,0,226,37.71a15.19,15.19,0,0,0-2.93,3.6,24.16,24.16,0,0,1-8-7.88,29.29,29.29,0,0,1-10,8.06,18.51,18.51,0,0,0-1.58-2.66L202,40.36a33.17,33.17,0,0,0-5-3.46c-2.61,2.07-6.17,3.46-10.94,4.45a8.75,8.75,0,0,0-1.8-3.46c3.92-.59,6.89-1.53,9.09-3-1.17-.58-2.34-1.17-3.55-1.71l-.59,1-3.64-1.13c1-1.66,2.16-3.82,3.37-6.07h-4.81V23.53h6.52c.63-1.21,1.17-2.43,1.67-3.55l1.08.22V15a32,32,0,0,1-7.34,5.9,16.38,16.38,0,0,0-2.2-3.15,22.42,22.42,0,0,0,8.41-6.44h-7.78V7.92h4.05A22.1,22.1,0,0,0,186,2.25L189,1a20.29,20.29,0,0,1,2.88,5.62l-3,1.31h4.5V0h3.87V7.92h8.81v3.37h-8.59c2,1.13,6.39,3.83,7.52,4.64l-2.25,2.92c-1.08-1-3.47-2.92-5.49-4.45v6.16h-2.25l1.21.27c-.4.86-.85,1.76-1.3,2.7h11.33V27h-3.69a18.32,18.32,0,0,1-2.83,7,45.45,45.45,0,0,1,4.54,2.83,23.74,23.74,0,0,0,8.51-7.56,54.5,54.5,0,0,1-3.6-10.8,30.91,30.91,0,0,1-2.79,4.59,24.06,24.06,0,0,0-3.33-2.92c3.73-4.68,6-12.24,7.2-20.16l4.23.63c-.45,2.56-1,5.08-1.58,7.51h12.56v4ZM193.22,27c-.58,1-1.12,2.11-1.66,3.1,1.57.63,3.19,1.31,4.72,2.07A14,14,0,0,0,198.62,27Zm12.2-24.75c-1.44,2-2.88,4.18-4,5.58l-2.79-1.26a36.54,36.54,0,0,0,3.2-5.81Zm6.43,9.85a61.05,61.05,0,0,0,3.46,12.69,50,50,0,0,0,3.24-12.69Z"/></g></g></g></svg>