<svg xmlns="http://www.w3.org/2000/svg" width="1020" height="596" viewBox="0 0 1020 596"><path d="M841.371,8658.651l-.34-.1-238.806-38.515-.021-.27L473.191,8482.476l-.443.028.179-.249L242.64,8334.423l.357-.437,151.131-184.729.267.1L721.62,8272.275l221.974-119.822.2.124,257.792,163.053L858.075,8440.594ZM704.562,8427.685l-230.58,54.742,128.992,137,237.718,38.185m.7-1.027,15.775-215.872-151.806-13.081m16-153.838-247,207.811L704.484,8426.9m-460.516-92.844,229.438,147.53L721.027,8272.9,394.382,8150.2Zm461.308,92.794,151.708,13.087L722.175,8273.985m.374-.8,135.358,166.623,340.972-124.041Zm.449-.756,476.094,42.562-255.53-161.624Zm478.01,43.338-.638-.472-152.29,206.576-189.821-81.818,85.7-287.032-.759-.226-85.8,287.369-.1.338,190.757,82.223.29.124Zm-343,124.834-.456-.647L602.371,8619.408l.457.648ZM721.787,8273.082l-.275-.743-223.333,52.346-103.612-175.2-.62.493L497.737,8325.4l.178.224ZM824.739,8439.1a32.909,32.909,0,1,0,32.909-32.873A32.891,32.891,0,0,0,824.739,8439.1Zm32.909,35.282a35.282,35.282,0,1,1,35.32-35.282A35.341,35.341,0,0,1,857.648,8474.384Zm0-65.747a30.465,30.465,0,1,0,30.5,30.465A30.517,30.517,0,0,0,857.648,8408.637Zm-39.812,27.375-3.271-.25c.086-1.134.219-2.271.394-3.383l3.241.507C818.038,8433.913,817.916,8434.964,817.835,8436.012Zm.638-4.676-3.219-.634c.218-1.108.484-2.224.791-3.313l3.159.887C818.921,8429.283,818.675,8430.313,818.473,8431.336Zm1.19-4.569-3.122-1.012c.349-1.074.747-2.15,1.182-3.2l3.031,1.258C820.353,8424.781,819.985,8425.774,819.664,8426.767Zm1.724-4.4L818.41,8421c.474-1.025,1-2.047,1.552-3.034l2.861,1.607C822.309,8420.479,821.827,8421.423,821.388,8422.37Zm2.236-4.16-2.794-1.718c.594-.963,1.233-1.915,1.9-2.828l2.649,1.935C824.764,8416.441,824.173,8417.32,823.624,8418.21Zm2.713-3.864-2.573-2.036c.705-.891,1.453-1.76,2.223-2.585l2.4,2.232C827.678,8412.72,826.987,8413.522,826.336,8414.346Zm3.147-3.521-2.314-2.324c.8-.8,1.646-1.573,2.509-2.3l2.125,2.5C831.006,8409.37,830.225,8410.087,829.483,8410.824Zm3.539-3.126L831,8405.119c.891-.7,1.821-1.37,2.763-1.994l1.814,2.73C834.705,8406.433,833.846,8407.052,833.022,8407.7Zm3.882-2.687-1.705-2.8c.966-.589,1.969-1.145,2.978-1.654l1.48,2.925C838.724,8403.952,837.8,8404.467,836.9,8405.011Zm4.17-2.209-1.363-2.981c1.028-.47,2.089-.9,3.153-1.29l1.124,3.079C843,8401.967,842.023,8402.368,841.074,8402.8Zm4.4-1.7-1-3.123c1.075-.342,2.18-.647,3.286-.906l.748,3.191C847.491,8400.5,846.47,8400.784,845.477,8401.1Zm4.576-1.164-.62-3.221c1.112-.213,2.246-.385,3.371-.51l.363,3.257C852.128,8399.579,851.08,8399.738,850.053,8399.937Zm50.679,35.824a43.191,43.191,0,0,0-39.741-39.7l-.25,3.268a39.915,39.915,0,0,1,36.72,36.68Zm-46.178,43.11a39.913,39.913,0,0,1-36.719-36.68l-3.271.25a43.182,43.182,0,0,0,39.739,39.7Zm7.939,3.126-.365-3.258c1.042-.116,2.091-.275,3.116-.472l.619,3.218C864.753,8481.7,863.62,8481.871,862.493,8482Zm5.037-.865-.745-3.193c1.017-.235,2.037-.518,3.033-.836l1,3.121C869.739,8480.568,868.633,8480.875,867.53,8481.132Zm4.9-1.458-1.122-3.081c.981-.356,1.961-.758,2.913-1.191l1.363,2.981C874.554,8478.854,873.493,8479.287,872.431,8479.674Zm4.689-2.028-1.481-2.925c.935-.473,1.862-.988,2.754-1.529l1.705,2.8C879.135,8476.578,878.133,8477.134,877.12,8477.646Zm4.415-2.568-1.816-2.73c.871-.577,1.73-1.2,2.554-1.843l2.026,2.58C883.407,8473.78,882.478,8474.45,881.535,8475.077Zm4.082-3.07-2.125-2.5c.8-.68,1.578-1.4,2.32-2.131l2.314,2.323C887.325,8470.5,886.481,8471.272,885.617,8472.007Zm3.692-3.529-2.4-2.233c.709-.762,1.4-1.564,2.051-2.387l2.573,2.035C890.826,8466.782,890.078,8467.652,889.309,8468.478Zm3.255-3.94-2.65-1.933c.616-.841,1.206-1.72,1.756-2.613l2.795,1.719C893.869,8462.677,893.23,8463.627,892.564,8464.537Zm2.767-4.3-2.86-1.607c.513-.91,1-1.854,1.436-2.8l2.977,1.377C896.409,8458.234,895.886,8459.255,895.331,8460.24Zm2.242-4.6-3.031-1.257c.4-.967.769-1.96,1.091-2.951l3.121,1.012C898.4,8453.521,898.006,8454.6,897.572,8455.644Zm1.677-4.831-3.159-.887c.284-1.007.529-2.036.731-3.059l3.22.633C899.823,8448.608,899.557,8449.723,899.25,8450.813Zm1.088-4.989-3.243-.507c.162-1.032.285-2.084.365-3.127l3.272.253C900.645,8443.569,900.513,8444.706,900.338,8445.823Zm115.178,76.54a32.7,32.7,0,1,0,32.7-32.656A32.677,32.677,0,0,0,1015.516,8522.363Zm32.7,35.052a35.05,35.05,0,1,1,35.088-35.052A35.11,35.11,0,0,1,1048.213,8557.415Zm0-65.316a30.266,30.266,0,1,0,30.3,30.265A30.319,30.319,0,0,0,1048.213,8492.1Zm-39.557,27.2-3.25-.251c.087-1.128.218-2.259.393-3.36l3.219.5C1008.86,8517.207,1008.739,8518.253,1008.657,8519.3Zm.635-4.646-3.2-.63c.217-1.1.482-2.212.787-3.293l3.137.884C1009.738,8512.607,1009.493,8513.63,1009.292,8514.649Zm1.181-4.538-3.1-1.007c.346-1.067.743-2.135,1.175-3.176l3.01,1.247C1011.158,8508.139,1010.793,8509.124,1010.473,8510.111Zm1.715-4.369-2.96-1.367c.467-1.009.985-2.021,1.542-3.011l2.844,1.592C1013.1,8503.872,1012.62,8504.811,1012.188,8505.742Zm2.221-4.134-2.777-1.705c.587-.954,1.222-1.9,1.888-2.812l2.634,1.922C1015.538,8499.856,1014.951,8500.729,1014.409,8501.608Zm2.692-3.839-2.554-2.023c.693-.873,1.434-1.737,2.2-2.566l2.391,2.214C1018.429,8496.162,1017.742,8496.961,1017.1,8497.77Zm3.13-3.5-2.3-2.309c.8-.8,1.642-1.57,2.494-2.291l2.109,2.484C1021.748,8492.822,1020.973,8493.535,1020.23,8494.272Zm3.516-3.105-2.012-2.562c.882-.691,1.806-1.358,2.746-1.981l1.8,2.71C1025.415,8489.91,1024.562,8490.527,1023.746,8491.167Zm3.856-2.67-1.7-2.783c.959-.582,1.953-1.135,2.961-1.645l1.47,2.907C1029.407,8487.446,1028.486,8487.957,1027.6,8488.5Zm4.143-2.2-1.354-2.961c1.011-.462,2.065-.894,3.131-1.283l1.119,3.06C1033.655,8485.477,1032.68,8485.875,1031.745,8486.3Zm4.376-1.689-.992-3.1c1.075-.342,2.174-.646,3.265-.9l.743,3.172C1038.129,8484.015,1037.114,8484.3,1036.121,8484.612Zm4.544-1.158-.617-3.2c1.1-.21,2.224-.382,3.349-.507l.362,3.234C1042.72,8483.1,1041.678,8483.261,1040.665,8483.454Zm50.348,35.592a43.152,43.152,0,0,0-39.481-39.437l-.249,3.246a39.876,39.876,0,0,1,36.481,36.439Zm-45.876,42.825a39.885,39.885,0,0,1-36.481-36.438l-3.25.249a43.164,43.164,0,0,0,39.481,39.436Zm7.886,3.107-.362-3.235c1.038-.116,2.08-.274,3.094-.47l.617,3.2C1055.275,8564.682,1054.147,8564.853,1053.023,8564.979Zm5.005-.858-.743-3.172c1.009-.234,2.024-.515,3.017-.832l.992,3.1C1060.219,8563.561,1059.121,8563.864,1058.028,8564.12Zm4.868-1.453-1.116-3.058c.979-.356,1.953-.754,2.9-1.184l1.351,2.961C1065.01,8561.853,1063.955,8562.283,1062.9,8562.667Zm4.658-2.01-1.47-2.907c.93-.469,1.85-.98,2.735-1.52l1.7,2.782C1069.557,8559.6,1068.562,8560.147,1067.555,8560.657Zm4.387-2.551-1.8-2.71c.869-.578,1.723-1.194,2.539-1.834l2.012,2.562C1073.806,8556.815,1072.881,8557.482,1071.942,8558.106Zm4.054-3.05-2.109-2.485c.786-.665,1.561-1.378,2.3-2.114l2.3,2.309C1077.687,8553.563,1076.847,8554.334,1076,8555.057Zm3.673-3.51-2.391-2.214c.713-.768,1.4-1.566,2.042-2.375l2.553,2.023C1081.18,8549.854,1080.439,8550.718,1079.669,8551.547Zm3.232-3.912-2.634-1.922c.616-.842,1.2-1.714,1.745-2.594l2.778,1.705C1084.2,8545.778,1083.567,8546.723,1082.9,8547.635Zm2.752-4.271-2.844-1.593c.515-.918.994-1.854,1.425-2.785l2.96,1.365C1086.726,8541.361,1086.208,8542.374,1085.652,8543.364Zm2.22-4.563-3.01-1.247c.4-.963.764-1.95,1.084-2.937l3.1,1.008C1088.7,8536.692,1088.3,8537.76,1087.872,8538.8Zm1.668-4.8-3.137-.884c.281-1,.525-2.02.727-3.039l3.2.63C1090.111,8531.813,1089.845,8532.922,1089.54,8534Zm1.082-4.959-3.22-.5c.16-1.022.282-2.067.361-3.1l3.25.246C1090.927,8526.8,1090.8,8527.936,1090.622,8529.043ZM363.153,8149.728a31.1,31.1,0,1,0,31.1-31.069A31.087,31.087,0,0,0,363.153,8149.728Zm31.1,33.346a33.346,33.346,0,1,1,33.382-33.346A33.4,33.4,0,0,1,394.255,8183.074Zm0-62.14a28.794,28.794,0,1,0,28.825,28.793A28.841,28.841,0,0,0,394.255,8120.935Zm-37.627,25.873-3.092-.236c.082-1.074.207-2.149.373-3.2l3.063.483C356.82,8144.823,356.7,8145.816,356.628,8146.807Zm.6-4.418-3.043-.6c.207-1.049.458-2.1.748-3.131l2.986.839C357.656,8140.447,357.423,8141.42,357.231,8142.389Zm1.124-4.319-2.95-.957c.331-1.017.706-2.033,1.117-3.021l2.864,1.187C359.008,8136.192,358.661,8137.131,358.356,8138.07Zm1.63-4.155-2.815-1.3c.45-.972.944-1.936,1.468-2.868l2.7,1.52C360.858,8132.127,360.4,8133.018,359.986,8133.916Zm2.112-3.93-2.641-1.625c.562-.912,1.166-1.811,1.8-2.673l2.5,1.828C363.177,8128.313,362.618,8129.144,362.1,8129.986Zm2.564-3.656-2.431-1.924c.667-.84,1.373-1.662,2.1-2.442l2.273,2.109C365.932,8124.793,365.278,8125.554,364.662,8126.33Zm2.976-3.327-2.188-2.2c.755-.751,1.553-1.483,2.371-2.178l2.008,2.36C369.073,8121.632,368.336,8122.309,367.638,8123Zm3.345-2.955-1.914-2.437c.842-.66,1.721-1.294,2.611-1.885l1.717,2.58C372.573,8118.853,371.761,8119.438,370.983,8120.048Zm3.668-2.539-1.612-2.646c.916-.558,1.862-1.083,2.815-1.565l1.4,2.765C376.373,8116.509,375.5,8116.994,374.651,8117.51Zm3.94-2.089L377.3,8112.6c.977-.446,1.98-.855,2.981-1.219l1.06,2.911C380.421,8114.629,379.495,8115.009,378.591,8115.42Zm4.162-1.608-.943-2.951c1.015-.325,2.06-.612,3.106-.858l.708,3.017C384.658,8113.246,383.692,8113.513,382.753,8113.812Zm4.325-1.1-.586-3.042c1.045-.2,2.116-.363,3.185-.482l.345,3.078C389.034,8112.375,388.044,8112.525,387.078,8112.71Zm47.9,33.86a41.059,41.059,0,0,0-37.56-37.517l-.236,3.088a37.936,37.936,0,0,1,34.7,34.667Zm-43.643,40.744a37.941,37.941,0,0,1-34.7-34.668l-3.092.237a41.064,41.064,0,0,0,37.558,37.521Zm7.5,2.956-.345-3.079c.987-.11,1.977-.261,2.944-.446l.586,3.042C400.977,8189.987,399.906,8190.15,398.837,8190.27Zm4.762-.818-.709-3.015c.966-.227,1.932-.494,2.871-.793l.944,2.952C405.69,8188.917,404.645,8189.207,403.6,8189.451Zm4.63-1.378-1.059-2.911c.923-.336,1.849-.715,2.753-1.127l1.288,2.818C410.233,8187.3,409.23,8187.708,408.23,8188.073Zm4.432-1.917-1.4-2.765c.88-.444,1.755-.93,2.6-1.445l1.612,2.646C414.56,8185.149,413.614,8185.676,412.662,8186.156Zm4.173-2.428-1.717-2.58c.823-.546,1.635-1.132,2.414-1.743l1.914,2.438C418.6,8182.5,417.724,8183.138,416.835,8183.729Zm3.859-2.9-2.009-2.36c.757-.643,1.494-1.32,2.193-2.015l2.188,2.2C422.309,8179.4,421.511,8180.131,420.694,8180.826Zm3.491-3.337-2.273-2.107c.672-.722,1.324-1.482,1.939-2.257l2.431,1.923C425.617,8175.886,424.911,8176.708,424.184,8177.489Zm3.074-3.722-2.506-1.827c.584-.8,1.143-1.631,1.661-2.471l2.641,1.625C428.493,8172,427.889,8172.9,427.258,8173.767Zm2.615-4.062-2.7-1.52c.484-.858.94-1.75,1.356-2.647l2.815,1.3C430.891,8167.812,430.4,8168.776,429.873,8169.705Zm2.117-4.344-2.865-1.187c.38-.913.727-1.852,1.032-2.791l2.95.956C432.775,8163.357,432.4,8164.373,431.989,8165.361Zm1.586-4.565-2.986-.839c.267-.951.5-1.923.691-2.893l3.043.6C434.117,8158.714,433.865,8159.767,433.576,8160.8Zm1.028-4.716-3.064-.48c.152-.971.267-1.964.343-2.953l3.093.235C434.894,8153.952,434.769,8155.028,434.6,8156.08Zm35.406,169.076a28.037,28.037,0,1,0,28.037-28A28.023,28.023,0,0,0,470.01,8325.155Zm28.037,30.059a30.058,30.058,0,1,1,30.091-30.059A30.108,30.108,0,0,1,498.047,8355.214Zm0-56.012a25.955,25.955,0,1,0,25.983,25.953A26,26,0,0,0,498.047,8299.2Zm-33.918,23.322-2.787-.214c.074-.969.187-1.938.336-2.882l2.762.434C464.3,8320.733,464.2,8321.63,464.129,8322.524Zm.544-3.984-2.743-.54c.186-.943.413-1.893.674-2.821l2.692.756C465.054,8316.792,464.845,8317.668,464.673,8318.54Zm1.013-3.893-2.659-.862c.3-.916.636-1.832,1.007-2.724l2.582,1.07C466.274,8312.955,465.961,8313.8,465.686,8314.647Zm1.469-3.746-2.537-1.171c.4-.874.85-1.743,1.323-2.584l2.437,1.369C467.942,8309.292,467.53,8310.095,467.156,8310.9Zm1.905-3.542-2.381-1.465c.5-.813,1.047-1.625,1.618-2.408l2.26,1.645C470.028,8305.856,469.525,8306.606,469.061,8307.359Zm2.311-3.294-2.192-1.734c.6-.759,1.239-1.5,1.893-2.2l2.047,1.9C472.516,8302.681,471.927,8303.364,471.372,8304.065Zm2.681-3-1.971-1.979c.68-.676,1.4-1.337,2.136-1.964l1.811,2.127C475.347,8299.829,474.681,8300.441,474.052,8301.065Zm3.015-2.662-1.724-2.2c.758-.594,1.55-1.166,2.354-1.7l1.547,2.326C478.5,8297.326,477.768,8297.854,477.067,8298.4Zm3.308-2.289-1.455-2.386c.825-.5,1.679-.977,2.54-1.41l1.259,2.493C481.925,8295.211,481.136,8295.649,480.375,8296.114Zm3.552-1.884-1.161-2.539c.881-.4,1.785-.772,2.688-1.1l.955,2.623C485.575,8293.519,484.74,8293.859,483.927,8294.23Zm3.751-1.447-.849-2.66c.921-.294,1.863-.556,2.8-.773l.637,2.719C489.4,8292.271,488.529,8292.511,487.678,8292.783Zm3.9-1-.528-2.742c.945-.181,1.911-.328,2.871-.437l.311,2.776C493.343,8291.484,492.451,8291.621,491.576,8291.788Zm43.176,30.522a37.009,37.009,0,0,0-33.856-33.819l-.213,2.783a34.2,34.2,0,0,1,31.281,31.25Zm-39.34,36.727a34.2,34.2,0,0,1-31.283-31.251l-2.787.215a37.015,37.015,0,0,0,33.856,33.82Zm6.765,2.663-.31-2.775c.887-.1,1.779-.233,2.654-.4l.527,2.742C504.1,8361.447,503.137,8361.593,502.177,8361.7Zm4.291-.737-.637-2.719c.868-.2,1.738-.443,2.586-.714l.853,2.66C508.35,8360.483,507.407,8360.743,506.468,8360.963Zm4.175-1.241-.955-2.623c.835-.3,1.67-.646,2.482-1.018l1.161,2.54C512.452,8359.023,511.548,8359.393,510.643,8359.722Zm3.995-1.728-1.261-2.492c.8-.4,1.585-.841,2.345-1.3l1.455,2.386C516.353,8357.084,515.5,8357.56,514.638,8357.994Zm3.762-2.189-1.548-2.325c.743-.494,1.475-1.022,2.177-1.571l1.724,2.2C519.994,8354.7,519.2,8355.271,518.4,8355.8Zm3.478-2.615-1.809-2.127c.676-.576,1.342-1.187,1.975-1.817l1.971,1.979C523.33,8351.906,522.611,8352.567,521.878,8353.189Zm3.145-3.007-2.045-1.9c.605-.65,1.193-1.334,1.747-2.034l2.192,1.733C526.316,8348.737,525.68,8349.477,525.022,8350.183Zm2.775-3.357-2.259-1.646c.53-.725,1.033-1.476,1.5-2.228l2.381,1.465C528.913,8345.229,528.369,8346.04,527.8,8346.825Zm2.357-3.66-2.438-1.368c.438-.78.849-1.583,1.222-2.388l2.538,1.172C531.072,8341.451,530.628,8342.322,530.154,8343.165Zm1.906-3.916-2.581-1.071c.342-.822.654-1.668.929-2.514l2.659.861C532.769,8337.441,532.431,8338.357,532.06,8339.249Zm1.43-4.116-2.692-.756c.242-.859.451-1.735.623-2.606l2.743.54C533.979,8333.255,533.752,8334.2,533.49,8335.133Zm.927-4.251-2.763-.433c.138-.875.241-1.77.31-2.663l2.788.215C534.679,8328.965,534.566,8329.936,534.418,8330.882Zm641.964-15.347a24.305,24.305,0,1,0,24.307-24.279A24.291,24.291,0,0,0,1176.382,8315.535Zm24.307,26.056a26.057,26.057,0,1,1,26.083-26.056A26.1,26.1,0,0,1,1200.688,8341.591Zm0-48.557a22.5,22.5,0,1,0,22.523,22.5A22.539,22.539,0,0,0,1200.688,8293.034Zm-29.4,20.218-2.417-.183c.064-.837.162-1.678.292-2.5l2.394.376C1171.432,8311.705,1171.341,8312.481,1171.283,8313.252Zm.47-3.452-2.378-.469c.163-.821.359-1.644.584-2.445l2.333.654C1172.086,8308.28,1171.9,8309.041,1171.754,8309.8Zm.88-3.375-2.306-.748c.256-.787.549-1.581.872-2.358l2.238.925C1173.141,8304.963,1172.87,8305.7,1172.634,8306.425Zm1.273-3.246-2.2-1.017c.353-.763.74-1.517,1.148-2.241l2.112,1.189C1174.59,8301.778,1174.233,8302.474,1173.907,8303.179Zm1.651-3.071-2.064-1.27c.441-.714.913-1.418,1.4-2.089l1.957,1.428C1176.4,8298.8,1175.964,8299.447,1175.558,8300.107Zm2-2.855-1.9-1.5c.519-.655,1.071-1.3,1.639-1.908l1.775,1.647C1178.552,8296.053,1178.042,8296.646,1177.562,8297.252Zm2.324-2.6-1.708-1.718c.591-.588,1.214-1.161,1.851-1.7l1.57,1.844C1181.01,8293.579,1180.433,8294.107,1179.885,8294.652Zm2.614-2.31-1.494-1.905c.653-.513,1.34-1.007,2.039-1.473l1.342,2.016C1183.739,8291.411,1183.105,8291.869,1182.5,8292.343Zm2.868-1.985-1.261-2.066c.713-.435,1.453-.847,2.2-1.223l1.1,2.159C1186.709,8289.576,1186.025,8289.957,1185.367,8290.357Zm3.079-1.632-1.007-2.2c.759-.347,1.543-.667,2.329-.953l.829,2.274C1189.871,8288.109,1189.147,8288.405,1188.446,8288.726Zm3.252-1.257-.737-2.3c.8-.255,1.612-.48,2.428-.67l.551,2.356C1193.187,8287.026,1192.432,8287.233,1191.7,8287.469Zm3.381-.86-.459-2.377c.82-.158,1.657-.285,2.489-.378l.269,2.406C1196.608,8286.345,1195.835,8286.463,1195.078,8286.608Zm37.428,26.46a32.077,32.077,0,0,0-29.349-29.317l-.184,2.413a29.641,29.641,0,0,1,27.116,27.089Zm-34.1,31.838a29.647,29.647,0,0,1-27.119-27.091l-2.417.186a32.088,32.088,0,0,0,29.35,29.319Zm5.863,2.31-.269-2.406c.769-.084,1.542-.2,2.3-.348l.458,2.378C1205.935,8347,1205.1,8347.123,1204.266,8347.216Zm3.721-.639-.551-2.357c.752-.176,1.505-.384,2.24-.618l.738,2.306C1209.619,8346.161,1208.8,8346.387,1207.987,8346.577Zm3.619-1.076-.829-2.275c.726-.264,1.45-.561,2.151-.881l1.007,2.2C1213.175,8344.893,1212.392,8345.214,1211.606,8345.5Zm3.465-1.5-1.094-2.16c.69-.349,1.373-.729,2.031-1.13l1.262,2.067C1216.557,8343.214,1215.817,8343.625,1215.071,8344Zm3.259-1.9-1.341-2.016c.643-.427,1.278-.886,1.886-1.362l1.494,1.905C1219.712,8341.147,1219.026,8341.643,1218.33,8342.105Zm3.016-2.269-1.569-1.844c.589-.5,1.165-1.031,1.713-1.574l1.708,1.716C1222.606,8338.723,1221.982,8339.295,1221.345,8339.837Zm2.728-2.605-1.775-1.647c.526-.566,1.036-1.159,1.516-1.765l1.9,1.5C1225.194,8335.977,1224.642,8336.62,1224.073,8337.231Zm2.4-2.911-1.958-1.427c.454-.621.89-1.271,1.3-1.93l2.063,1.269C1227.44,8332.945,1226.967,8333.647,1226.476,8334.32Zm2.044-3.174-2.113-1.185c.378-.672.734-1.369,1.06-2.072l2.2,1.018C1229.313,8329.667,1228.928,8330.421,1228.52,8331.146Zm1.653-3.393-2.239-.93c.3-.71.566-1.442.805-2.18l2.306.748C1230.786,8326.188,1230.494,8326.983,1230.173,8327.754Zm1.239-3.569-2.333-.654c.208-.741.389-1.5.54-2.262l2.378.47C1231.834,8322.56,1231.638,8323.382,1231.413,8324.185Zm.8-3.687-2.394-.374c.119-.762.209-1.538.268-2.308l2.417.184C1232.443,8318.832,1232.345,8319.674,1232.215,8320.5Zm-660.44,299.234a30.824,30.824,0,1,0,30.824-30.79A30.807,30.807,0,0,0,571.775,8619.732Zm30.824,33.046a33.046,33.046,0,1,1,33.081-33.046A33.1,33.1,0,0,1,602.6,8652.778Zm0-61.58a28.535,28.535,0,1,0,28.566,28.534A28.4,28.4,0,0,0,602.6,8591.2Zm-37.292,25.641-3.065-.235c.081-1.057.206-2.123.369-3.169l3.038.475C565.5,8614.876,565.382,8615.86,565.307,8616.839Zm.6-4.378-3.015-.6c.206-1.042.456-2.087.742-3.1l2.959.835C566.326,8610.532,566.1,8611.5,565.905,8612.461Zm1.115-4.28-2.924-.95c.327-1,.7-2.012,1.108-2.994l2.838,1.176C567.667,8606.32,567.323,8607.251,567.02,8608.181Zm1.615-4.117-2.79-1.289c.443-.957.932-1.913,1.454-2.841l2.68,1.5C569.5,8602.294,569.045,8603.178,568.636,8604.063Zm2.1-3.9-2.618-1.612c.556-.9,1.154-1.79,1.78-2.646l2.484,1.811C571.8,8598.51,571.244,8599.334,570.731,8600.166Zm2.54-3.622-2.408-1.907c.658-.829,1.357-1.643,2.08-2.42l2.251,2.09C574.527,8595.025,573.88,8595.779,573.271,8596.544Zm2.949-3.3-2.167-2.175c.75-.746,1.541-1.474,2.351-2.16l1.99,2.341C577.645,8591.886,576.914,8592.559,576.22,8593.247Zm3.316-2.927-1.9-2.415c.826-.648,1.7-1.276,2.587-1.869l1.7,2.555C581.1,8589.14,580.3,8589.722,579.535,8590.32Zm3.636-2.517-1.6-2.623c.908-.553,1.847-1.075,2.791-1.551l1.386,2.741C584.878,8586.81,584.01,8587.291,583.171,8587.8Zm3.906-2.07-1.278-2.792c.963-.438,1.957-.847,2.956-1.209l1.05,2.886C588.883,8584.953,587.965,8585.327,587.077,8585.733Zm4.124-1.595-.937-2.923c1.009-.323,2.045-.611,3.08-.851l.7,2.988C593.09,8583.578,592.133,8583.841,591.2,8584.139Zm4.285-1.092-.58-3.014c1.044-.2,2.107-.362,3.157-.479l.341,3.051C597.435,8582.713,596.452,8582.862,595.486,8583.047Zm47.468,33.557a40.689,40.689,0,0,0-37.224-37.181l-.235,3.062a37.6,37.6,0,0,1,34.394,34.354ZM599.7,8656.984a37.6,37.6,0,0,1-34.4-34.357l-3.065.234a40.7,40.7,0,0,0,37.225,37.185Zm7.434,2.928-.337-3.05c.964-.106,1.945-.255,2.916-.442l.58,3.015C609.245,8659.637,608.181,8659.8,607.136,8659.912Zm4.721-.808-.7-2.99c.953-.223,1.91-.487,2.843-.785l.936,2.923C613.927,8658.575,612.89,8658.862,611.857,8659.1Zm4.59-1.368-1.05-2.884c.922-.336,1.839-.71,2.728-1.117l1.278,2.792C618.44,8656.968,617.445,8657.374,616.447,8657.736Zm4.391-1.9-1.385-2.742c.87-.439,1.737-.92,2.577-1.434l1.6,2.623C622.722,8654.843,621.782,8655.363,620.838,8655.841Zm4.138-2.408-1.7-2.557c.814-.54,1.618-1.122,2.392-1.727l1.9,2.414C626.727,8652.22,625.856,8652.848,624.976,8653.433Zm3.823-2.878-1.99-2.339c.748-.636,1.479-1.308,2.171-2l2.169,2.176C630.4,8649.143,629.609,8649.867,628.8,8650.555Zm3.459-3.306-2.253-2.09c.664-.713,1.311-1.466,1.924-2.237l2.407,1.907C633.675,8645.663,632.975,8646.478,632.258,8647.249Zm3.049-3.689-2.484-1.812c.576-.787,1.13-1.611,1.645-2.448l2.618,1.612C636.528,8641.814,635.93,8642.705,635.307,8643.56Zm2.592-4.024-2.681-1.5c.484-.862.937-1.746,1.344-2.627l2.79,1.289C638.911,8637.648,638.421,8638.6,637.9,8639.535Zm2.1-4.3-2.838-1.18c.374-.9.718-1.829,1.022-2.767l2.924.951C640.772,8633.25,640.4,8634.257,639.994,8635.232Zm1.571-4.528-2.958-.833c.265-.941.5-1.9.685-2.864l3.015.594C642.1,8628.641,641.853,8629.685,641.565,8630.7Zm1.021-4.675-3.038-.473c.152-.97.266-1.955.341-2.93l3.065.234C642.874,8623.915,642.749,8624.981,642.586,8626.029Zm55.837-353.32a23.227,23.227,0,1,0,23.226-23.2A23.214,23.214,0,0,0,698.424,8272.709Zm23.226,24.9a24.9,24.9,0,1,1,24.93-24.9A24.943,24.943,0,0,1,721.649,8297.61Zm0-46.4a21.5,21.5,0,1,0,21.527,21.5A21.537,21.537,0,0,0,721.649,8251.208Zm-28.1,19.321-2.309-.177c.061-.8.154-1.6.277-2.385l2.289.355C693.693,8269.051,693.607,8269.792,693.55,8270.529Zm.45-3.3-2.272-.447c.154-.785.342-1.572.558-2.339l2.23.626C694.317,8265.779,694.143,8266.5,694,8267.23Zm.84-3.227-2.2-.714c.247-.758.527-1.517.834-2.256l2.139.886C695.326,8262.6,695.067,8263.306,694.84,8264Zm1.217-3.1-2.1-.972c.335-.723.7-1.441,1.1-2.14l2.018,1.133C696.706,8259.57,696.366,8260.235,696.057,8260.9Zm1.578-2.937-1.972-1.212c.419-.681.871-1.353,1.342-2l1.87,1.365C698.44,8256.717,698.023,8257.338,697.636,8257.966Zm1.913-2.728-1.815-1.438c.5-.625,1.023-1.238,1.568-1.823l1.7,1.574C700.5,8254.092,700.007,8254.659,699.549,8255.238Zm2.221-2.486-1.633-1.639c.568-.565,1.164-1.112,1.771-1.627l1.5,1.762C702.847,8251.725,702.3,8252.231,701.771,8252.752Zm2.5-2.206-1.428-1.82c.628-.493,1.284-.967,1.949-1.407l1.282,1.927C705.456,8249.653,704.849,8250.09,704.268,8250.546Zm2.74-1.9-1.2-1.977c.681-.415,1.389-.808,2.1-1.168l1.044,2.065C708.291,8247.9,707.638,8248.267,707.008,8248.65Zm2.943-1.561-.962-2.1c.727-.331,1.476-.639,2.227-.91l.791,2.174C711.314,8246.5,710.623,8246.783,709.95,8247.09Zm3.108-1.2-.7-2.2c.762-.243,1.542-.458,2.32-.639l.527,2.252C714.484,8245.467,713.762,8245.665,713.058,8245.89Zm3.23-.823-.437-2.271c.783-.151,1.584-.273,2.379-.362l.257,2.3C717.752,8244.815,717.012,8244.928,716.288,8245.066Zm35.771,25.286a30.66,30.66,0,0,0-28.049-28.018l-.177,2.307a28.329,28.329,0,0,1,25.917,25.888Zm-32.592,30.425a28.332,28.332,0,0,1-25.917-25.887l-2.309.177a30.661,30.661,0,0,0,28.049,28.016Zm5.6,2.207-.256-2.3c.731-.081,1.47-.192,2.2-.332l.438,2.271C726.661,8302.775,725.86,8302.9,725.069,8302.984Zm3.556-.61-.527-2.253c.717-.167,1.438-.366,2.143-.591l.705,2.2C730.182,8301.977,729.4,8302.192,728.625,8302.374Zm3.46-1.029-.792-2.174c.692-.252,1.384-.535,2.055-.841l.962,2.1C733.584,8300.765,732.835,8301.072,732.085,8301.345Zm3.308-1.431-1.044-2.064c.659-.333,1.312-.7,1.942-1.079l1.2,1.976C736.814,8299.161,736.107,8299.555,735.393,8299.914Zm3.118-1.813-1.282-1.926c.616-.409,1.222-.847,1.8-1.3l1.429,1.819C739.833,8297.186,739.176,8297.659,738.51,8298.1Zm2.881-2.167-1.5-1.763c.564-.478,1.114-.984,1.636-1.5l1.634,1.639C742.6,8294.87,742,8295.417,741.391,8295.934Zm2.608-2.492-1.7-1.573c.506-.544.993-1.111,1.449-1.687l1.814,1.438C745.073,8292.24,744.546,8292.854,744,8293.441Zm2.3-2.779-1.87-1.364c.435-.595.853-1.215,1.24-1.844l1.971,1.213C747.217,8289.347,746.765,8290.019,746.294,8290.662Zm1.954-3.032-2.018-1.134c.362-.643.7-1.309,1.012-1.978l2.1.97C749.009,8286.214,748.64,8286.935,748.249,8287.63Zm1.58-3.244-2.139-.885c.282-.682.542-1.384.77-2.085l2.2.715C750.415,8282.891,750.135,8283.649,749.829,8284.386Zm1.183-3.41-2.229-.625c.2-.711.373-1.438.515-2.16l2.272.447C751.416,8279.42,751.229,8280.207,751.012,8280.976Zm.768-3.522-2.288-.356c.114-.73.2-1.473.257-2.206l2.309.177C752,8275.862,751.9,8276.664,751.78,8277.453Zm-532,56.785a23.523,23.523,0,1,0,23.523-23.5A23.51,23.51,0,0,0,219.78,8334.238Zm23.523,25.217a25.217,25.217,0,1,1,25.247-25.217A25.26,25.26,0,0,1,243.3,8359.455Zm0-46.993a21.775,21.775,0,1,0,21.8,21.776A21.812,21.812,0,0,0,243.3,8312.462Zm-28.457,19.568-2.34-.18c.062-.8.157-1.619.282-2.416l2.317.361C214.99,8330.532,214.9,8331.284,214.846,8332.03Zm.455-3.342-2.3-.454c.157-.795.347-1.592.565-2.368l2.259.635C215.622,8327.218,215.446,8327.952,215.3,8328.688Zm.85-3.267-2.231-.725c.25-.77.534-1.539.844-2.285l2.167.9C216.645,8324,216.382,8324.71,216.151,8325.422Zm1.233-3.144-2.128-.982c.34-.735.714-1.466,1.111-2.17l2.043,1.15C218.044,8320.927,217.7,8321.6,217.384,8322.278Zm1.6-2.972-2-1.229c.424-.687.881-1.369,1.359-2.021l1.893,1.382C219.8,8318.041,219.375,8318.67,218.983,8319.307Zm1.937-2.765-1.838-1.454c.5-.634,1.037-1.256,1.588-1.848l1.717,1.595C221.878,8315.383,221.385,8315.957,220.92,8316.542Zm2.251-2.516-1.654-1.661c.574-.569,1.177-1.124,1.794-1.647l1.518,1.785C224.259,8312.987,223.7,8313.5,223.171,8314.026Zm2.53-2.234-1.447-1.844c.639-.5,1.3-.981,1.975-1.426l1.3,1.953C226.9,8310.886,226.29,8311.329,225.7,8311.792Zm2.775-1.921-1.22-2c.693-.421,1.41-.82,2.13-1.183l1.057,2.091C229.777,8309.114,229.115,8309.481,228.475,8309.871Zm2.98-1.58-.974-2.13c.736-.337,1.494-.647,2.256-.922l.8,2.2C232.835,8307.7,232.135,8307.981,231.455,8308.291Zm3.148-1.214-.713-2.232c.77-.246,1.561-.464,2.349-.648l.535,2.281C236.045,8306.648,235.314,8306.85,234.6,8307.077Zm3.271-.834-.443-2.3c.792-.153,1.6-.276,2.41-.365l.26,2.328C239.354,8305.989,238.605,8306.1,237.873,8306.243Zm36.226,25.607a31.052,31.052,0,0,0-28.407-28.375l-.179,2.338a28.69,28.69,0,0,1,26.247,26.217Zm-33.007,30.813a28.691,28.691,0,0,1-26.246-26.219l-2.34.18A31.053,31.053,0,0,0,240.913,8365Zm5.674,2.235-.259-2.328c.744-.083,1.493-.2,2.226-.338l.443,2.3C248.384,8364.687,247.572,8364.81,246.766,8364.9Zm3.6-.619-.535-2.281c.728-.171,1.458-.371,2.171-.6l.713,2.231C251.946,8363.878,251.155,8364.1,250.368,8364.28Zm3.5-1.042-.8-2.2c.7-.255,1.4-.541,2.081-.851l.975,2.13C255.389,8362.652,254.631,8362.961,253.87,8363.238Zm3.351-1.449-1.056-2.092c.664-.334,1.326-.7,1.966-1.092l1.22,2C258.658,8361.028,257.941,8361.426,257.221,8361.789Zm3.156-1.836-1.3-1.952c.62-.411,1.234-.854,1.824-1.316l1.447,1.843C261.713,8359.028,261.049,8359.507,260.376,8359.953Zm2.92-2.2-1.519-1.784c.57-.484,1.128-1,1.657-1.523l1.654,1.661C264.516,8356.679,263.913,8357.233,263.3,8357.757Zm2.639-2.521-1.717-1.595c.509-.548,1-1.121,1.467-1.708l1.838,1.455C267.02,8354.021,266.486,8354.644,265.935,8355.235Zm2.326-2.816-1.893-1.382c.441-.6.863-1.232,1.255-1.868l2,1.229C269.2,8351.086,268.737,8351.766,268.26,8352.419Zm1.978-3.072-2.044-1.148c.367-.65.712-1.323,1.026-2l2.129.982C271.009,8347.914,270.636,8348.643,270.239,8349.347Zm1.6-3.284-2.167-.9c.286-.687.549-1.4.78-2.11l2.231.724C272.434,8344.549,272.15,8345.318,271.84,8346.063Zm1.2-3.455-2.259-.633c.2-.717.377-1.453.523-2.187l2.3.453C273.448,8341.036,273.257,8341.833,273.039,8342.607Zm.778-3.565-2.318-.362c.115-.736.2-1.489.26-2.234l2.339.18C274.037,8337.431,273.942,8338.244,273.818,8339.042Zm531.474,319.126a35.854,35.854,0,1,0,35.85-35.814A35.832,35.832,0,0,0,805.291,8658.168Zm35.85,38.436a38.437,38.437,0,1,1,38.484-38.436A38.5,38.5,0,0,1,841.142,8696.6Zm0-71.626a33.189,33.189,0,1,0,33.231,33.19A33.246,33.246,0,0,0,841.142,8624.978ZM797.77,8654.8l-3.565-.273c.094-1.229.239-2.47.428-3.685l3.532.55C797.99,8652.52,797.857,8653.666,797.77,8654.8Zm.694-5.095-3.507-.691c.239-1.212.529-2.428.862-3.608l3.442.966C798.955,8647.466,798.687,8648.588,798.465,8649.708Zm1.3-4.978-3.4-1.1c.381-1.172.814-2.342,1.287-3.481l3.3,1.367C800.512,8642.566,800.112,8643.648,799.761,8644.73Zm1.879-4.789-3.245-1.5c.518-1.12,1.088-2.231,1.693-3.307l3.116,1.75C802.645,8637.881,802.119,8638.907,801.64,8639.941Zm2.436-4.53-3.043-1.875c.648-1.05,1.345-2.086,2.07-3.077l2.887,2.105C805.319,8633.48,804.675,8634.439,804.076,8635.411Zm2.954-4.214-2.8-2.221c.771-.97,1.585-1.918,2.421-2.812l2.617,2.432C808.495,8629.424,807.743,8630.3,807.03,8631.2Zm3.432-3.835-2.523-2.531c.876-.87,1.8-1.716,2.735-2.511l2.314,2.723C812.12,8625.777,811.27,8626.559,810.461,8627.362Zm3.855-3.405-2.2-2.812c.969-.759,1.982-1.489,3.009-2.171l1.979,2.974C816.15,8622.579,815.214,8623.256,814.316,8623.957Zm4.229-2.928-1.858-3.05c1.047-.636,2.137-1.244,3.243-1.8l1.616,3.185C820.523,8619.881,819.514,8620.44,818.545,8621.029Zm4.542-2.4-1.485-3.249c1.118-.512,2.276-.983,3.436-1.405l1.224,3.354C825.189,8617.715,824.121,8618.152,823.087,8618.625Zm4.8-1.856-1.087-3.4c1.167-.372,2.371-.705,3.577-.989l.821,3.476C830.078,8616.117,828.964,8616.427,827.885,8616.769Zm4.986-1.269-.677-3.506c1.206-.231,2.442-.42,3.671-.558l.4,3.547C835.127,8615.111,833.986,8615.285,832.871,8615.5Zm55.213,39.029a47.321,47.321,0,0,0-43.3-43.248l-.271,3.562a43.722,43.722,0,0,1,40.006,39.96Zm-50.308,46.962a43.732,43.732,0,0,1-40.006-39.959l-3.565.272a47.333,47.333,0,0,0,43.3,43.248Zm8.649,3.408-.4-3.548c1.137-.128,2.279-.3,3.394-.516l.677,3.506C848.889,8704.573,847.653,8704.761,846.425,8704.9Zm5.487-.944-.816-3.476c1.111-.261,2.226-.568,3.309-.913l1.088,3.4C854.319,8703.343,853.114,8703.675,851.912,8703.955Zm5.341-1.588-1.227-3.354c1.079-.394,2.148-.83,3.176-1.3l1.486,3.247C859.575,8701.47,858.42,8701.942,857.254,8702.367Zm5.1-2.21-1.616-3.185c1.025-.52,2.036-1.081,3-1.667l1.856,3.05C864.556,8698.99,863.465,8699.6,862.358,8700.157Zm4.814-2.8-1.982-2.975c.955-.634,1.892-1.31,2.782-2.009l2.208,2.812C869.215,8695.942,868.2,8696.674,867.172,8697.36Zm4.444-3.348-2.314-2.722c.868-.735,1.717-1.516,2.526-2.32l2.521,2.531C873.475,8692.372,872.555,8693.216,871.616,8694.013Zm4.026-3.845-2.62-2.43c.774-.832,1.525-1.707,2.236-2.6l2.8,2.22C877.292,8688.322,876.478,8689.27,875.642,8690.168Zm3.543-4.291-2.885-2.106c.67-.917,1.314-1.875,1.913-2.847l3.043,1.875C880.608,8683.849,879.911,8684.886,879.185,8685.877Zm3.017-4.679-3.118-1.75c.561-1,1.086-2.024,1.564-3.056l3.245,1.5C883.376,8679.009,882.807,8680.12,882.2,8681.2Zm2.439-5.008-3.3-1.37c.437-1.047.838-2.129,1.191-3.217l3.4,1.1C885.545,8673.886,885.111,8675.058,884.64,8676.19Zm1.825-5.264-3.441-.966c.308-1.1.578-2.223.8-3.336l3.507.692C887.092,8668.522,886.8,8669.736,886.466,8670.927Zm1.188-5.436-3.532-.554c.177-1.121.31-2.265.4-3.4l3.565.271C887.99,8663.037,887.845,8664.276,887.654,8665.491Zm26.355-512.579a29.569,29.569,0,1,0,29.569-29.536A29.553,29.553,0,0,0,914.009,8152.912Zm29.569,31.7a31.7,31.7,0,1,1,31.735-31.7A31.753,31.753,0,0,1,943.578,8184.61Zm0-59.07a27.372,27.372,0,1,0,27.4,27.372A27.418,27.418,0,0,0,943.578,8125.54Zm-35.77,24.6-2.939-.225c.077-1.017.2-2.04.353-3.04l2.914.456C907.991,8148.252,907.881,8149.2,907.808,8150.136Zm.573-4.2-2.893-.57c.2-1,.436-2,.711-2.976l2.839.795C908.784,8144.091,908.563,8145.016,908.381,8145.936Zm1.068-4.105-2.8-.91c.316-.971.674-1.937,1.062-2.872l2.724,1.129C910.07,8140.041,909.741,8140.933,909.449,8141.831Zm1.55-3.95-2.676-1.237c.425-.917.893-1.833,1.394-2.724l2.571,1.44C911.827,8136.186,911.393,8137.034,911,8137.881Zm2.008-3.738L910.5,8132.6c.535-.869,1.11-1.724,1.708-2.541l2.38,1.737C914.033,8132.55,913.5,8133.341,913.008,8134.143Zm2.436-3.474-2.311-1.829c.63-.8,1.3-1.577,2-2.322l2.16,2C916.646,8129.212,916.026,8129.934,915.443,8130.669Zm2.83-3.164-2.082-2.087c.724-.72,1.483-1.417,2.256-2.071l1.907,2.244C919.641,8126.2,918.942,8126.84,918.273,8127.506Zm3.179-2.809-1.819-2.317c.8-.625,1.632-1.227,2.482-1.792l1.633,2.451C922.961,8123.563,922.188,8124.12,921.452,8124.7Zm3.487-2.414-1.533-2.516c.865-.526,1.765-1.027,2.675-1.486l1.331,2.627C926.571,8121.333,925.739,8121.8,924.939,8122.284Zm3.746-1.985-1.225-2.68c.923-.42,1.876-.811,2.834-1.159l1.009,2.767C930.418,8119.548,929.537,8119.909,928.685,8120.3Zm3.957-1.529-.9-2.8c.967-.309,1.961-.583,2.952-.816l.673,2.868C934.452,8118.232,933.535,8118.485,932.642,8118.77Zm4.11-1.047-.555-2.892c1-.193,2.018-.347,3.028-.459l.326,2.927C938.619,8117.4,937.677,8117.544,936.752,8117.723Zm45.536,32.189a39.031,39.031,0,0,0-35.708-35.667l-.225,2.937a36.064,36.064,0,0,1,32.994,32.955Zm-41.49,38.73a36.06,36.06,0,0,1-32.99-32.955l-2.939.225a39.026,39.026,0,0,0,35.7,35.666Zm7.133,2.81-.326-2.926c.931-.1,1.873-.247,2.8-.425l.556,2.893C949.958,8191.185,948.939,8191.34,947.93,8191.452Zm4.529-.777-.673-2.868c.916-.214,1.834-.467,2.728-.753l.9,2.806C954.444,8190.167,953.451,8190.442,952.459,8190.674Zm4.4-1.31-1.009-2.768c.885-.322,1.766-.682,2.619-1.071l1.224,2.68C958.772,8188.626,957.818,8189.016,956.86,8189.365Zm4.212-1.823-1.329-2.628c.839-.424,1.67-.886,2.473-1.374l1.533,2.515C962.882,8186.583,961.981,8187.083,961.072,8187.542Zm3.969-2.306-1.634-2.452c.787-.523,1.559-1.081,2.3-1.658l1.818,2.317C966.726,8184.068,965.89,8184.67,965.041,8185.236Zm3.667-2.759-1.908-2.245c.716-.607,1.417-1.252,2.083-1.914l2.08,2.086C970.241,8181.121,969.483,8181.818,968.708,8182.477Zm3.318-3.171-2.159-2c.641-.689,1.262-1.411,1.844-2.146l2.311,1.829C973.39,8177.778,972.72,8178.56,972.026,8179.305Zm2.925-3.54-2.381-1.738c.555-.757,1.085-1.548,1.578-2.347l2.51,1.543C976.126,8174.09,975.551,8174.945,974.951,8175.766Zm2.488-3.862-2.571-1.441c.462-.824.9-1.673,1.289-2.52l2.676,1.236C978.407,8170.1,977.938,8171.012,977.438,8171.9Zm2.01-4.127-2.722-1.13c.358-.862.688-1.754.98-2.652l2.8.91C980.194,8165.875,979.837,8166.842,979.448,8167.776Zm1.509-4.342-2.839-.8c.253-.905.475-1.831.656-2.75l2.894.57C981.47,8161.454,981.232,8162.455,980.957,8163.434Zm.976-4.482-2.913-.457c.145-.924.255-1.868.327-2.808l2.94.225C982.209,8156.929,982.091,8157.952,981.933,8158.952ZM571.813,8619.732a30.786,30.786,0,1,0,30.785-30.755A30.77,30.77,0,0,0,571.813,8619.732Zm30.785,33.007a33.007,33.007,0,1,1,33.042-33.007A33.061,33.061,0,0,1,602.6,8652.739Zm0-61.508a28.5,28.5,0,1,0,28.532,28.5A28.549,28.549,0,0,0,602.6,8591.231ZM436.279,8482.057a37.277,37.277,0,1,0,37.276-37.235A37.255,37.255,0,0,0,436.279,8482.057Zm37.276,39.963a39.963,39.963,0,1,1,40.01-39.963A40.031,40.031,0,0,1,473.555,8522.02Zm0-74.473a34.509,34.509,0,1,0,34.548,34.51A34.568,34.568,0,0,0,473.555,8447.547Zm-45.1,31.01-3.706-.284c.1-1.277.248-2.566.446-3.831l3.673.575C428.688,8476.185,428.549,8477.376,428.458,8478.557Zm.723-5.295-3.647-.72c.249-1.26.551-2.522.9-3.753l3.577,1.006C429.69,8470.932,429.412,8472.1,429.182,8473.262Zm1.347-5.177-3.536-1.146c.4-1.221.847-2.44,1.339-3.622l3.432,1.424C431.311,8465.832,430.895,8466.958,430.529,8468.085Zm1.953-4.979-3.374-1.56c.536-1.157,1.128-2.313,1.759-3.435l3.24,1.819C433.525,8460.967,432.978,8462.035,432.482,8463.105Zm2.533-4.711-3.165-1.948c.669-1.087,1.394-2.164,2.153-3.2l3,2.19C436.3,8456.394,435.634,8457.391,435.015,8458.395Zm3.072-4.38-2.913-2.307c.793-1,1.639-1.985,2.515-2.927l2.724,2.525C439.6,8452.179,438.821,8453.089,438.087,8454.015Zm3.565-3.988-2.621-2.632c.912-.906,1.867-1.784,2.842-2.611l2.407,2.829C443.379,8448.377,442.5,8449.189,441.652,8450.026Zm4.01-3.541-2.294-2.922c1.007-.788,2.06-1.55,3.129-2.259l2.057,3.093C447.567,8445.053,446.593,8445.756,445.662,8446.485Zm4.4-3.043-1.932-3.173c1.1-.667,2.232-1.3,3.374-1.875l1.677,3.315C452.121,8442.242,451.072,8442.826,450.058,8443.442Zm4.723-2.5-1.543-3.377c1.166-.531,2.369-1.023,3.573-1.462l1.271,3.489C456.969,8439.993,455.859,8440.447,454.781,8440.938Zm4.987-1.926-1.13-3.536c1.221-.391,2.474-.735,3.724-1.026l.845,3.614C462.053,8438.333,460.9,8438.652,459.768,8439.012Zm5.185-1.321-.7-3.645c1.258-.241,2.544-.437,3.819-.578l.412,3.689C467.3,8437.288,466.114,8437.468,464.953,8437.69Zm57.407,40.582a49.205,49.205,0,0,0-45.018-44.965l-.283,3.7a45.465,45.465,0,0,1,41.595,41.547Zm-52.308,48.834a45.472,45.472,0,0,1-41.593-41.55l-3.706.282a49.212,49.212,0,0,0,45.015,44.969Zm9,3.543-.416-3.69c1.181-.133,2.369-.314,3.53-.536l.7,3.646C481.608,8530.31,480.325,8530.5,479.048,8530.649Zm5.705-.982-.85-3.613c1.162-.274,2.32-.594,3.439-.951l1.133,3.535C487.262,8529.025,486.011,8529.373,484.754,8529.667Zm5.548-1.652-1.269-3.49c1.109-.4,2.22-.855,3.3-1.348l1.543,3.376C492.707,8527.087,491.5,8527.578,490.3,8528.015Zm5.31-2.3-1.675-3.315c1.053-.532,2.1-1.113,3.118-1.731l1.932,3.173C497.889,8524.512,496.753,8525.143,495.612,8525.718Zm5-2.909-2.055-3.095c.982-.65,1.953-1.353,2.891-2.087l2.3,2.921C502.731,8521.343,501.678,8522.1,500.614,8522.809Zm4.626-3.479-2.408-2.83c.9-.766,1.787-1.578,2.628-2.413l2.622,2.633C507.172,8517.622,506.216,8518.5,505.24,8519.33Zm4.182-4-2.72-2.531c.8-.86,1.583-1.769,2.324-2.7l2.913,2.3C511.137,8513.414,510.291,8514.4,509.422,8515.331Zm3.686-4.464-3-2.191c.7-.952,1.366-1.947,1.989-2.958l3.166,1.946C514.588,8508.757,513.864,8509.835,513.108,8510.867Zm3.136-4.865L513,8504.181c.58-1.03,1.127-2.1,1.625-3.174l3.373,1.561C517.464,8503.731,516.872,8504.885,516.243,8506Zm2.537-5.206-3.432-1.425c.453-1.089.869-2.214,1.236-3.343l3.535,1.146C519.721,8498.4,519.27,8499.617,518.78,8500.8Zm1.9-5.474-3.579-1c.321-1.138.6-2.3.829-3.467l3.647.719C521.329,8492.828,521.026,8494.091,520.68,8495.322Zm1.233-5.652-3.673-.575c.183-1.166.322-2.357.413-3.539l3.706.283C522.262,8487.118,522.112,8488.406,521.914,8489.67Z" transform="translate(-212.506 -8109.053)" fill="#999" opacity="0.2"/></svg>