<svg xmlns="http://www.w3.org/2000/svg" width="468" height="128" viewBox="0 0 468 128"><g transform="translate(-144.642 -1071.667)"><g transform="translate(144.642 1071.667)"><path d="M175.816,1132.843c-3.243,3.073-7.117,4.609-12.431,4.609-7.207,0-10.991-2.892-13.964-6.415-5.135-6.145-4.775-17.712-4.775-26.386s-.36-20.423,4.775-26.567c2.973-3.524,6.757-6.416,13.964-6.416,5.314,0,9.188,1.536,12.431,4.609,3.332,3.163,5.405,8.223,5.674,14.368H168.7a12.236,12.236,0,0,0-.99-4.97c-.721-1.536-1.982-2.439-4.324-2.439a4.267,4.267,0,0,0-4.234,2.529c-1.531,2.982-1.712,11.025-1.712,18.8s.18,15.813,1.712,18.8a4.268,4.268,0,0,0,4.234,2.53,4.4,4.4,0,0,0,4.413-2.53,12.219,12.219,0,0,0,.991-4.97h12.792C181.31,1124.53,179.148,1129.681,175.816,1132.843Z" transform="translate(-144.642 -1071.667)" fill="#333"/><path d="M211.535,1099.255c-4.053,0-7.476,2.892-7.476,7.772v29.639H191.986v-48.616h11.531v5.241a15.826,15.826,0,0,1,5.315-4.338,16.5,16.5,0,0,1,7.117-1.627v11.929Z" transform="translate(-144.596 -1071.603)" fill="#333"/><path d="M245.468,1141.09c-2.793,10.935-10.63,11.3-20.27,11.3v-10.663c3.695-.09,7.118.361,8.468-4.428l.181-.633-12.342-48.616h13.332l5.405,29.369,5.405-29.369H258.98Z" transform="translate(-144.567 -1071.6)" fill="#333"/><path d="M295.692,1133.412c-2.342,2.982-5.045,3.976-9.009,3.976a10.205,10.205,0,0,1-4.594-1.175,12.593,12.593,0,0,1-2.973-2.44v18.616H267.045v-64.34h11.53v3.524a13.057,13.057,0,0,1,3.513-3.073,10.205,10.205,0,0,1,4.594-1.175c3.964,0,6.666.994,9.009,3.976,3.333,4.157,3.333,11.386,3.333,21.055S299.025,1129.256,295.692,1133.412Zm-9.639-33.344a3.4,3.4,0,0,0-3.152-1.9,4.1,4.1,0,0,0-2.614.994,4.774,4.774,0,0,0-1.171,3.434v19.518a4.774,4.774,0,0,0,1.171,3.434,4.1,4.1,0,0,0,2.614.994,3.4,3.4,0,0,0,3.152-1.9c.9-1.988.9-6.778.9-12.29S286.953,1102.056,286.052,1100.068Z" transform="translate(-144.523 -1071.603)" fill="#333"/><path d="M317.274,1133.726c-3.423-2.44-5.584-6.325-5.584-12.651v-21.958h-4.5v-9.127h4.5v-13.283H323.76v13.283h5.946v9.127H323.76v21.145c0,3.8,1.892,5.6,5.946,5.6v10.843C324.751,1136.708,320.786,1136.256,317.274,1133.726Z" transform="translate(-144.484 -1071.646)" fill="#333"/><path d="M366.792,1131.605c-3.154,4.7-7.658,5.782-12.792,5.782s-9.639-1.084-12.792-5.782c-3.062-4.609-3.332-12.742-3.332-19.248s.27-14.639,3.332-19.247c3.153-4.7,7.657-5.784,12.792-5.784s9.638,1.084,12.792,5.784c3.062,4.609,3.333,12.742,3.333,19.247S369.854,1127,366.792,1131.605Zm-9.639-31.537a3.568,3.568,0,0,0-6.306,0c-.9,1.988-.9,6.778-.9,12.289s0,10.3.9,12.29a3.568,3.568,0,0,0,6.306,0c.9-1.988.9-6.778.9-12.29S358.052,1102.056,357.153,1100.068Z" transform="translate(-144.455 -1071.603)" fill="#333"/><path d="M409.274,1136.726,407.2,1126.7H392.429l-2.072,10.03H377.024l16.486-64.339h12.612l16.485,64.339Zm-9.459-45.453-4.954,23.856h9.909Z" transform="translate(-144.417 -1071.664)" fill="#333"/><path d="M456.34,1133.321c-3.154,3.163-7.027,4.066-11.351,4.066s-8.828-1.446-11.531-4.247a15.539,15.539,0,0,1-4.594-11.114h11.892a4.84,4.84,0,0,0,1.261,3.163,4.079,4.079,0,0,0,2.973,1.265,3.664,3.664,0,0,0,2.883-.994,3.851,3.851,0,0,0,.991-2.711,4.358,4.358,0,0,0-.811-2.711,7.425,7.425,0,0,0-3.153-2.078l-6.757-2.621c-3.423-1.355-5.946-3.163-7.476-5.6a12.786,12.786,0,0,1-1.623-6.777,14.744,14.744,0,0,1,4.414-11.206,15.811,15.811,0,0,1,11.441-4.428,16.22,16.22,0,0,1,10.99,3.976,14.479,14.479,0,0,1,4.5,10.934h-11.8a4.651,4.651,0,0,0-.99-3.073,3.9,3.9,0,0,0-2.7-1.175,3.94,3.94,0,0,0-2.793,1.084,3.366,3.366,0,0,0-.99,2.711,3.44,3.44,0,0,0,.629,2.169,5.861,5.861,0,0,0,3.064,2.169l6.666,2.529c3.423,1.356,5.675,2.892,7.3,5.151a13.288,13.288,0,0,1,2.162,7.952A15.933,15.933,0,0,1,456.34,1133.321Z" transform="translate(-144.366 -1071.603)" fill="#333"/><path d="M496.478,1133.321c-3.153,3.163-7.026,4.066-11.351,4.066s-8.828-1.446-11.53-4.247A15.539,15.539,0,0,1,469,1122.026h11.891a4.84,4.84,0,0,0,1.261,3.163,4.075,4.075,0,0,0,2.972,1.265,3.661,3.661,0,0,0,2.883-.994,3.846,3.846,0,0,0,.991-2.711,4.357,4.357,0,0,0-.81-2.711,7.428,7.428,0,0,0-3.154-2.078l-6.757-2.621c-3.422-1.355-5.945-3.163-7.475-5.6a12.785,12.785,0,0,1-1.623-6.777,14.744,14.744,0,0,1,4.414-11.206,15.809,15.809,0,0,1,11.44-4.428,16.221,16.221,0,0,1,10.991,3.976,14.482,14.482,0,0,1,4.5,10.934h-11.8a4.652,4.652,0,0,0-.99-3.073,3.9,3.9,0,0,0-2.7-1.175,3.942,3.942,0,0,0-2.793,1.084,3.369,3.369,0,0,0-.99,2.711,3.441,3.441,0,0,0,.63,2.169,5.857,5.857,0,0,0,3.064,2.169l6.666,2.529c3.423,1.356,5.675,2.892,7.3,5.151a13.289,13.289,0,0,1,2.162,7.952A15.929,15.929,0,0,1,496.478,1133.321Z" transform="translate(-144.328 -1071.603)" fill="#333"/><path d="M521.843,1116.243c0,3.253.18,7.049.9,8.4a3.5,3.5,0,0,0,3.154,1.9,3.535,3.535,0,0,0,3.153-1.9,8.411,8.411,0,0,0,.63-2.982h11.982c-.271,3.8-1.351,8.223-4.323,11.566-2.7,2.982-6.757,4.157-11.441,4.157-4.865,0-7.928-.9-11.351-4.247-4.685-4.517-4.775-13.464-4.775-20.784s.09-16.356,4.775-20.874c3.423-3.344,7.3-4.157,11.351-4.157,4.233,0,7.928.723,11.261,4.157,5.4,5.693,4.685,16.988,4.774,24.76Zm7.207-16.265a3.655,3.655,0,0,0-6.307,0c-.63.994-.9,4.247-.9,7.5h8.017C529.859,1104.225,529.679,1100.972,529.05,1099.978Z" transform="translate(-144.288 -1071.603)" fill="#333"/><path d="M560.18,1133.726c-3.423-2.44-5.585-6.325-5.585-12.651v-21.958h-4.5v-9.127h4.5v-13.283h12.072v13.283h5.946v9.127h-5.946v21.145c0,3.8,1.891,5.6,5.946,5.6v10.843C567.657,1136.708,563.693,1136.256,560.18,1133.726Z" transform="translate(-144.249 -1071.646)" fill="#333"/><path d="M607.627,1133.321c-3.154,3.163-7.028,4.066-11.351,4.066s-8.83-1.446-11.531-4.247a15.535,15.535,0,0,1-4.594-11.114h11.89a4.846,4.846,0,0,0,1.261,3.163,4.083,4.083,0,0,0,2.974,1.265,3.66,3.66,0,0,0,2.882-.994,3.842,3.842,0,0,0,.991-2.711,4.352,4.352,0,0,0-.811-2.711,7.408,7.408,0,0,0-3.152-2.078l-6.757-2.621c-3.423-1.355-5.946-3.163-7.477-5.6a12.785,12.785,0,0,1-1.622-6.777,14.741,14.741,0,0,1,4.414-11.206,15.81,15.81,0,0,1,11.441-4.428,16.218,16.218,0,0,1,10.989,3.976,14.479,14.479,0,0,1,4.5,10.934h-11.8a4.647,4.647,0,0,0-.991-3.073,3.9,3.9,0,0,0-2.7-1.175,3.944,3.944,0,0,0-2.794,1.084,3.369,3.369,0,0,0-.99,2.711,3.435,3.435,0,0,0,.631,2.169,5.849,5.849,0,0,0,3.063,2.169l6.665,2.529c3.423,1.356,5.675,2.892,7.3,5.151a13.288,13.288,0,0,1,2.162,7.952A15.932,15.932,0,0,1,607.627,1133.321Z" transform="translate(-144.22 -1071.603)" fill="#333"/></g><g transform="translate(277.885 1180.765)"><path d="M289.6,1197.186a7.179,7.179,0,0,1-10.021,0c-1.874-1.88-1.821-4.2-1.821-7.414s-.053-5.535,1.821-7.414a7.182,7.182,0,0,1,10.021,0c1.874,1.88,1.848,4.2,1.848,7.414S291.471,1195.306,289.6,1197.186Zm-2.681-12.635a3,3,0,0,0-2.316-.992,3.058,3.058,0,0,0-2.342.992c-.7.783-.886,1.645-.886,5.221s.182,4.438.886,5.221a3.058,3.058,0,0,0,2.342.992,3,3,0,0,0,2.316-.992c.7-.783.91-1.645.91-5.221S287.619,1185.333,286.917,1184.55Z" transform="translate(-277.756 -1180.321)" fill="#333"/><path d="M307.949,1199.046v-8.224a2.262,2.262,0,1,0-4.5,0v8.224h-3.383v-13.6h3.305v1.253a4.637,4.637,0,0,1,3.384-1.41,4.393,4.393,0,0,1,3.2,1.2,5.047,5.047,0,0,1,1.38,3.864v8.694Z" transform="translate(-277.734 -1180.301)" fill="#333"/><path d="M323.987,1199.066a3.691,3.691,0,0,1-3.956-3.891v-14.7h3.383v14.489c0,.809.339,1.227,1.2,1.227h1.3v2.873Z" transform="translate(-277.715 -1180.321)" fill="#333"/><path d="M333.76,1183.14v-2.767h3.46v2.767Zm.051,15.926v-13.6h3.383v13.6Z" transform="translate(-277.702 -1180.321)" fill="#333"/><path d="M354.047,1199.046v-8.224a2.262,2.262,0,1,0-4.5,0v8.224H346.16v-13.6h3.306v1.253a4.633,4.633,0,0,1,3.383-1.41,4.4,4.4,0,0,1,3.2,1.2,5.05,5.05,0,0,1,1.379,3.864v8.694Z" transform="translate(-277.69 -1180.301)" fill="#333"/><path d="M368.914,1193.3a2.8,2.8,0,0,0,2.967,3.028,3.747,3.747,0,0,0,3.071-1.279l2.056,2.01a6.447,6.447,0,0,1-5.152,2.142c-3.2,0-6.273-1.463-6.273-6.971,0-4.438,2.394-6.944,5.908-6.944,3.775,0,5.908,2.767,5.908,6.5v1.514Zm4.841-3.785a2.523,2.523,0,0,0-4.528,0,3.8,3.8,0,0,0-.312,1.462h5.153A3.76,3.76,0,0,0,373.755,1189.516Z" transform="translate(-277.671 -1180.301)" fill="#333"/><path d="M401.181,1199.06a3.684,3.684,0,0,1-3.93-3.891v-6.735H395.82v-2.584h1.431v-4.02h3.384v4.02h2.393v2.584h-2.393v6.527c0,.783.363,1.227,1.171,1.227h1.222v2.873Z" transform="translate(-277.642 -1180.315)" fill="#333"/><path d="M418.655,1189.151a2.261,2.261,0,0,0-3.982,1.7v8.2H411.29v-13.6H414.6v1.305a4.585,4.585,0,0,1,3.409-1.462,4.082,4.082,0,0,1,3.2,1.279Z" transform="translate(-277.627 -1180.301)" fill="#333"/><path d="M435.27,1199.046v-1.176a4.114,4.114,0,0,1-3.331,1.305,4.613,4.613,0,0,1-3.461-1.2,4.366,4.366,0,0,1-1.12-3.054c0-2.167,1.484-3.942,4.632-3.942h3.2v-.679c0-1.488-.73-2.141-2.524-2.141a2.906,2.906,0,0,0-2.6,1.123l-2.161-2.115c1.327-1.462,2.629-1.88,4.893-1.88,3.8,0,5.779,1.619,5.779,4.8v8.955Zm-.078-5.744h-2.681c-1.224,0-1.9.574-1.9,1.54,0,.94.625,1.566,1.953,1.566a2.673,2.673,0,0,0,2.133-.653,2.236,2.236,0,0,0,.5-1.723Z" transform="translate(-277.611 -1180.301)" fill="#333"/><path d="M454.9,1199.066v-1.28a4.068,4.068,0,0,1-3.358,1.437,4.781,4.781,0,0,1-3.331-1.228c-1.353-1.357-1.378-3.707-1.378-5.743s.025-4.36,1.378-5.717a4.717,4.717,0,0,1,3.306-1.227,4.052,4.052,0,0,1,3.3,1.358v-6.187H458.2v18.589Zm-2.394-10.7c-2.03,0-2.291,1.671-2.291,3.89s.261,3.916,2.291,3.916,2.315-1.7,2.315-3.916S454.534,1188.361,452.505,1188.361Z" transform="translate(-277.592 -1180.321)" fill="#333"/><path d="M469.845,1193.3a2.8,2.8,0,0,0,2.967,3.028,3.747,3.747,0,0,0,3.071-1.279l2.056,2.01a6.449,6.449,0,0,1-5.154,2.142c-3.2,0-6.271-1.463-6.271-6.971,0-4.438,2.394-6.944,5.908-6.944,3.774,0,5.908,2.767,5.908,6.5v1.514Zm4.841-3.785a2.523,2.523,0,0,0-4.528,0,3.724,3.724,0,0,0-.312,1.462H475A3.76,3.76,0,0,0,474.686,1189.516Z" transform="translate(-277.573 -1180.301)" fill="#333"/></g></g></svg>