<svg xmlns="http://www.w3.org/2000/svg" viewBox="0 0 437.19 56.7"><defs><style>.cls-1{fill:#fc088e;}.cls-2{fill:#333;}</style></defs><g id="レイヤー_2" data-name="レイヤー 2"><g id="CryptoAsset"><path class="cls-1" d="M4.68,44.16h9.48V19.92H5.94v-6.6A31.23,31.23,0,0,0,17,9.24h7.86V44.16h8V52.8H4.68Z" transform="translate(-4.68 -1.86)"/><path class="cls-1" d="M42.39,47.46l4.86-6.72c2.52,2.4,5.64,4.26,9.18,4.26,4.32,0,7-2.16,7-6.36s-2.7-6.42-6.54-6.42c-2.46,0-3.66.54-6.3,2.22l-4.68-3.06L47.07,9.24H72.15v8.94H56.25l-.66,7.56a11.32,11.32,0,0,1,4.62-.9c7.56,0,13.92,4.26,13.92,13.5,0,9.66-7.56,15.3-16.14,15.3A21.27,21.27,0,0,1,42.39,47.46Z" transform="translate(-4.68 -1.86)"/><path class="cls-1" d="M140.89,50.88v6.78H104.11V50.88h14.64V49.26H107.47V42.72h11.28v-1.8h-11V35.64l-4.32,6c-.6-1.32-1.5-3.12-2.52-4.92V58.5H92.41V40a48,48,0,0,1-5.28,9.48,46.75,46.75,0,0,0-4-8.4c3.12-3.66,6.06-9.36,8.1-14.58H84.43v-8.1h8v-5.7c-2.22.36-4.38.72-6.48,1A27.72,27.72,0,0,0,83.53,7C90.13,5.88,97.27,4.08,102,2l5.76,6.72a71.59,71.59,0,0,1-6.9,2.16v7.5H106V11.94h12.72V10.26c-3.6.18-7.14.24-10.5.24a23.89,23.89,0,0,0-1.86-6.42c9.84-.24,21-1,28.2-2.22l4.92,6.42c-3.78.66-8,1.14-12.42,1.5v2.16h12.48V18.6H127.09v1.56h11.64V40.92H127.09v1.8h11.46v6.54H127.09v1.62Zm-40-23.7c1.44,1.14,5.16,5.1,6.84,6.9V20.16h11V18.6H106.63v7.86h-5.76ZM118.75,26h-3.54v2h3.54Zm0,9V33h-3.54v2Zm8.34-9v2h3.78V26Zm3.78,7h-3.78v2h3.78Z" transform="translate(-4.68 -1.86)"/><path class="cls-1" d="M197.84,45.9a86.85,86.85,0,0,1,9.84,7.86l-6.6,4.68a80.3,80.3,0,0,0-9.42-8.4l6.06-4.14h-13l6.12,4a44.38,44.38,0,0,1-12.36,8.64,43.84,43.84,0,0,0-5.28-5.28l-1.44,1.56A64.84,64.84,0,0,0,164.66,49c-2,3.36-5.4,6.48-11,8.82a26.85,26.85,0,0,0-4.62-6.42c6.48-2.58,9.12-6.24,10.08-9.84h-8.28V34.14h8.82V30.48h7.8v3.66h9.6v7.44h-9.9l-.06.36a77.85,77.85,0,0,1,10,7l-3.36,3.72a36.94,36.94,0,0,0,9.6-6.78h-4.44V13.8h7.2c.18-1,.42-1.86.6-2.82h-9.3V3.6h28.68V11H196c-.42,1-.84,1.92-1.26,2.82h10V45.9ZM159.92,25.44a29.16,29.16,0,0,1-5.52,5.4,33.82,33.82,0,0,0-5-5.58,28.48,28.48,0,0,0,8.16-7.08h-6.72V11.52h2.64A23.57,23.57,0,0,0,151,4.8l5.7-2.1a23.26,23.26,0,0,1,2.88,6.84l-5.1,2h5.4V2.28h7.5v9.24h9.12v6.66h-8c2.82,1.44,7.68,4.26,9.06,5.16l-4.5,6a67.17,67.17,0,0,0-5.64-4.8v4.74h-7.5ZM177.32,4.2c-1.5,2.76-2.88,5.46-4,7.26l-5.52-1.68a48.11,48.11,0,0,0,2.4-7.38Zm19.14,16h-9.72v2.52h9.72Zm0,8.4h-9.72v2.52h9.72Zm0,8.4h-9.72v2.58h9.72Z" transform="translate(-4.68 -1.86)"/><path class="cls-2" d="M234.38,20.65c-.27,1.21-.54,2.47-.81,3.64,1.22-.09,2.25-.13,3.06-.13,5.18,0,8.6,2.43,8.6,9.18,0,5.26-.59,12.64-2.52,16.6-1.53,3.24-4.19,4.37-7.83,4.37a27.31,27.31,0,0,1-5.49-.63l-1.17-7.16a29.19,29.19,0,0,0,5.49.95,3.06,3.06,0,0,0,3.06-1.71c1.12-2.25,1.66-7.52,1.66-11.7,0-3.29-1.35-3.69-4.14-3.69-.54,0-1.26,0-2.16.13-1.8,7-5.17,17.91-9,24.08L216,51.74c4.28-5.76,7.2-14.31,8.87-20.47-1.17.18-2.16.31-2.79.4-1.44.23-4,.59-5.54.86l-.63-7.34a48.76,48.76,0,0,0,5.27,0c1.3,0,3.15-.18,5.17-.31a45.63,45.63,0,0,0,.86-9.41l8.1.86C235,17.68,234.65,19.39,234.38,20.65Zm24.21,16.69-7,3.2c-1.08-5.22-4.1-13.46-7.34-17.6l6.57-2.74C253.6,24.25,257.29,33,258.59,37.34Z" transform="translate(-4.68 -1.86)"/><path class="cls-2" d="M274.92,34.24a22.7,22.7,0,0,1,12.47-3.65c8.46,0,13.05,5.27,13.05,10.8,0,8.33-6.17,15.12-26,13.41l-2.11-7.15c13.14,1.93,20.38-.9,20.38-6.39,0-2.57-2.43-4.46-6-4.46-4.59,0-9,1.71-11.65,4.91a11.48,11.48,0,0,0-1.85,2.79L267,43a164.52,164.52,0,0,0,2.25-19.13l7.33,1A70.5,70.5,0,0,0,274.92,34.24Zm18.95-15.39-1.62,6.7c-4.73-.63-14.9-2.79-18.45-3.69l1.71-6.52A143,143,0,0,0,293.87,18.85Z" transform="translate(-4.68 -1.86)"/><path class="cls-2" d="M344.7,49.72c2.56-.09,5-.23,7-.41a30.07,30.07,0,0,0-1.94,6.08c-6.07.31-16.15.4-22.09.13-5.22-.22-8.64-1.44-11.29-4.9-1.58,1.71-3.24,3.33-5.36,5.31l-3-6.26c1.53-1,3.28-2.29,4.9-3.64v-9h-4.18V31H319V45.49a7.74,7.74,0,0,0,5.44,3.87,41,41,0,0,0-4.1-3.29,32.14,32.14,0,0,0,7.25-2.7h-7.47V38.65H327v-2.3h-5.62V31.72H327V29.78h6.12v1.94h4V29.78h6.21v1.94h5.8v4.63h-5.8v2.3h7.2v4.72h-7.61a82.86,82.86,0,0,1,7.88,4.23Zm-30.91-24a35.19,35.19,0,0,0-5.63-7.79l5.18-3.24a35.52,35.52,0,0,1,6,7.38ZM328.5,18.8h-8v-4h13.4v9.31h-2.29a14.67,14.67,0,0,0,4.23,1.49c-.54,3.15-1.94,4-4.95,4h-4.18c-4.42,0-5.63-1.22-5.63-5.36V20.06h7.38Zm5.94,25.83a30.76,30.76,0,0,1-8.46,5l1.71.13c3.91.18,10.26.18,16.11,0a50.13,50.13,0,0,0-7.38-4.54l3.33-1.85h-9Zm-4.19-19.21c.77,0,1-.23,1.17-1.31h-5v.14c0,1,.18,1.17,1.17,1.17Zm2.88,13.23h4v-2.3h-4ZM343.39,18.8h-8.28v-4h13.82v9.31h-2.48a14.67,14.67,0,0,0,4.23,1.49c-.54,3.15-1.93,4-4.95,4h-4.18c-4.41,0-5.63-1.22-5.63-5.36V20.06h7.47Zm1.67,6.62c.76,0,1-.23,1.17-1.31h-5v.14c0,1,.18,1.17,1.17,1.17Z" transform="translate(-4.68 -1.86)"/><path class="cls-2" d="M361.48,35.05c1.94-2,5.22-6.35,8.1-9.63,3.42-3.87,6.66-4.1,10.13-.81,3.28,3.15,6.93,7.87,9.44,10.62,3,3.24,6.48,6.88,10.89,10.89l-5.76,6.48a140,140,0,0,1-9.4-10.67c-2.7-3.28-6-7.51-8.19-9.9-1.35-1.57-2.25-1.39-3.42.14-1.62,2-4.59,6.16-6.34,8.59-1.08,1.62-2.12,3.6-3,5l-6.57-6.84A32.69,32.69,0,0,0,361.48,35.05ZM393.07,28l-4.82,2.07a41,41,0,0,0-4.09-7.38l4.68-1.93A75.44,75.44,0,0,1,393.07,28Zm6.3-2.79-4.68,2.25a44.92,44.92,0,0,0-4.32-7.15L395,18.17A61.79,61.79,0,0,1,399.37,25.19Z" transform="translate(-4.68 -1.86)"/><path class="cls-2" d="M415.86,17.45c2.43,0,11.43-.13,14.09-.36a23.56,23.56,0,0,0,4-.54l3.38,4.82c-1.17.72-2.34,1.39-3.47,2.2-2.52,1.71-6.48,4.95-8.95,6.84a15.78,15.78,0,0,1,3.15-.27c7.74,0,13.81,5,13.81,11.75,0,7-5.08,13.18-16.74,13.18-6.34,0-11.61-3-11.61-7.92,0-4,3.6-7.65,8.73-7.65,5.49,0,9,3.2,9.77,7.47a5.86,5.86,0,0,0,2.65-5.17c0-3.87-4-6.3-8.91-6.3-6.57,0-11.29,4-15.61,9.22l-4.95-5.13c2.88-2.25,8.14-6.7,10.8-8.91s6.7-5.31,8.86-7.24c-2.25,0-6.88.22-9.31.4-1.35.09-3,.23-4.05.41l-.23-7.07A38.25,38.25,0,0,0,415.86,17.45Zm7.88,31.41c.72,0,1.39,0,2-.09-.22-2.47-1.57-4.09-3.46-4.09-1.49,0-2.34.9-2.34,1.8C420,47.87,421.44,48.86,423.74,48.86Z" transform="translate(-4.68 -1.86)"/></g></g></svg>