<svg xmlns="http://www.w3.org/2000/svg" width="350" height="70" preserveAspectRatio="xMinYMid" viewBox="0 0 319.76 64.42"><defs><style>.cls-1{fill:#fc088e;}</style></defs><g id="レイヤー_2" data-name="レイヤー 2"><g id="CryptoAsset"><g id="cryptoasset_catch-05"><path class="cls-1" d="M51.24,9.46V64.18H41.88V61.24h-33v2.94H0V9.46ZM41.88,53.2V17.44h-33V53.2ZM40.62,44v7H10.32V44h11V38.5h-9V31.24h9V27.16H10.86V19.6H39.78v7.56H29.4v4.08h9.18V38.5H37a35.54,35.54,0,0,1,3.12,4.14L37.68,44ZM29.4,44h3.84c-.9-1.32-2-2.76-2.94-4l2.88-1.5H29.4Z"/><path class="cls-1" d="M115.13,54.82c0,4.38-.9,6.72-3.66,8.1s-6.6,1.5-11.94,1.5a30,30,0,0,0-2.82-8.58c3.12.18,7.14.18,8.28.18s1.5-.36,1.5-1.38v-8l-6.36,4.92a85.62,85.62,0,0,0-9.48-11A30.57,30.57,0,0,1,78.77,53.08a36,36,0,0,0-5.16-5.7v17H64.85V17.14H85.43V7.3h9v9.84h20.7ZM73.61,45.88c9.54-5.22,11.46-13.32,11.76-20.22H73.61ZM94.37,25.66a55.79,55.79,0,0,1-.72,6.18,162.13,162.13,0,0,1,12.84,12.9V25.66Z"/><path class="cls-1" d="M143.94,13.9h10.92L166,35.32l4.38,9.9h.3a155,155,0,0,1-1.44-16.5V13.9h10.2V58.6H168.48l-11-21.54-4.38-9.78h-.3c.48,5,1.38,11.1,1.38,16.5V58.6h-10.2Z"/><path class="cls-1" d="M190.84,41.5c0-11.28,8-17.88,16.74-17.88s16.68,6.6,16.68,17.88-8,17.94-16.68,17.94S190.84,52.84,190.84,41.5Zm22.5,0c0-5.64-1.8-9.24-5.76-9.24s-5.82,3.6-5.82,9.24,1.8,9.3,5.82,9.3S213.34,47.2,213.34,41.5Z"/><path class="cls-1" d="M233.81,52.78a6.36,6.36,0,1,1,12.72,0,6.37,6.37,0,1,1-12.72,0Z"/><path class="cls-1" d="M259.13,50h9.48V25.72h-8.22v-6.6a31.23,31.23,0,0,0,11-4.08h7.86V50h8V58.6h-28.2Z"/><path class="cls-1" d="M319.73.9l-9.9,9.9,9.9,9.9-.87.87-9.9-9.9L299,21.6l-.87-.87,9.93-9.93L298.19.9l.87-.87,9.9,9.9,9.9-9.9ZM300.41,13.05a2.25,2.25,0,1,1,2.25-2.25A2.27,2.27,0,0,1,300.41,13.05Zm6.3-10.8a2.25,2.25,0,0,1,4.5,0,2.25,2.25,0,0,1-4.5,0Zm4.5,17.1A2.25,2.25,0,1,1,309,17.1,2.27,2.27,0,0,1,311.21,19.35Zm6.3-10.8a2.25,2.25,0,1,1-2.25,2.25A2.27,2.27,0,0,1,317.51,8.55Z"/></g></g></g></svg>