<svg xmlns="http://www.w3.org/2000/svg" width="450" height="53" preserveAspectRatio="xMinYMid" viewBox="0 0 349.37 41.08"><defs><style>.cls-1{fill:#333;}</style></defs><g id="レイヤー_2" data-name="レイヤー 2"><g id="CryptoAsset"><g id="cryptoasset_catch-03"><path class="cls-1" d="M.5,33.25V8.1A27.22,27.22,0,0,0,.09,3.55H5.67a28.87,28.87,0,0,0-.36,4.5V32.67c8.05-2.16,18.27-8,23.94-15.12l2.56,4c-6,7.33-15.3,12.78-26.23,16.15a9.3,9.3,0,0,0-2.25,1L0,35.77A5,5,0,0,0,.5,33.25Z"/><path class="cls-1" d="M47.81,6.75l5.09,1c-.32,1.13-.72,2.84-.95,3.83a94.84,94.84,0,0,1-4,13.86A65.37,65.37,0,0,1,41.38,38L36.47,36a57.59,57.59,0,0,0,7-12.33A67.6,67.6,0,0,0,47.81,6.75Zm11.3,1,4.63-1.53a157.52,157.52,0,0,1,6.62,14.44C72.07,25,74.45,32,75.67,36.22l-5.13,1.67a154,154,0,0,0-4.91-15.66A119.73,119.73,0,0,0,59.11,7.74Zm13.36.36L69.55,9.36A54.87,54.87,0,0,0,66,3.15l2.92-1.21A53.52,53.52,0,0,1,72.47,8.1Zm5.22-2-2.92,1.3a50.43,50.43,0,0,0-3.69-6.2L74,0C75.13,1.71,76.84,4.5,77.69,6.12Z"/><path class="cls-1" d="M88.94,33.25V8.1a26.2,26.2,0,0,0-.41-4.55h5.58a30.14,30.14,0,0,0-.36,4.5V32.67c8.06-2.16,18.27-8,23.94-15.12l2.57,4c-6,7.33-15.3,12.78-26.24,16.15a9.47,9.47,0,0,0-2.25,1l-3.33-2.84A5,5,0,0,0,88.94,33.25Z"/><path class="cls-1" d="M138.37,23.62l-4.28,1.58A90.22,90.22,0,0,0,130,14.94l4.23-1.53C135.26,15.48,137.51,21.15,138.37,23.62Zm21.91-7A36.08,36.08,0,0,1,154,30.19a34.85,34.85,0,0,1-14.8,10.89l-3.74-3.82a30.59,30.59,0,0,0,14.76-9.5,31.19,31.19,0,0,0,6-15.39L161.13,14C160.73,15.07,160.46,15.88,160.28,16.6Zm-12,4.23-4.23,1.53a81.76,81.76,0,0,0-3.6-9.9l4.23-1.39C145.52,13,147.73,18.85,148.31,20.83Z"/><path class="cls-1" d="M184,18.94l-2.61,4a111,111,0,0,0-10-6.3l2.52-3.87C176.72,14.31,181.84,17.46,184,18.94Zm4.54,10.58a46,46,0,0,0,17.24-16.7l2.74,4.77a54.22,54.22,0,0,1-17.59,16.16A53.86,53.86,0,0,1,176,39.28l-2.65-4.63A49.49,49.49,0,0,0,188.5,29.52ZM190.75,9l-2.7,3.87c-2.29-1.67-7.11-4.82-9.85-6.39l2.57-3.92C183.55,4.14,188.59,7.47,190.75,9Zm13.5,1.35L201.1,11.7a39.21,39.21,0,0,0-4-7.06l3.06-1.31A63,63,0,0,1,204.25,10.35ZM210.42,8,207.27,9.4A44,44,0,0,0,203,2.48l3.1-1.31A66.24,66.24,0,0,1,210.42,8Z"/><path class="cls-1" d="M257.77,6.12c-1,9.67-3.42,17.23-6.89,23A24.72,24.72,0,0,0,259.61,37a16.35,16.35,0,0,0-2.88,3.42,28.16,28.16,0,0,1-8.46-7.56,30.64,30.64,0,0,1-8.59,7.47,16.35,16.35,0,0,0-2.61-3.24v3.69h-4V33.12c-5.45.9-11,1.8-15.17,2.47l-.76-4.18c1.26-.14,2.65-.36,4.23-.54V6.17H218V2.29h22.05V5.53h14.27l.72-.13Zm-32.45,0v5.21H233V6.17Zm0,14.44H233V15.12h-7.7Zm7.7,8.64V24.39h-7.7v5.94Zm4,7.65a25.74,25.74,0,0,0,8.73-7.83,63.27,63.27,0,0,1-6.39-18.5l4.05-.81A56.65,56.65,0,0,0,248.32,25a50.11,50.11,0,0,0,4.86-15.34H238.91V6.17h-1.84Z"/><path class="cls-1" d="M285.56,21.06a12.49,12.49,0,0,1-.18,1.84c-.76,10.26-1.53,14.54-3.1,16.16-1,1.17-2.2,1.48-4,1.62a52,52,0,0,1-7,0,10.25,10.25,0,0,0-1.53-4.37c2.84.27,5.76.32,6.89.32a2.84,2.84,0,0,0,2-.5c1-.85,1.71-4.05,2.3-11.2H270.31l-.45,2.16-4.18-.68c.94-3.91,2-10.08,2.65-14.85h12.83V5.26H267V1.4h18.27V15.48H272c-.27,1.84-.63,3.78-1,5.58ZM300.77.14V40.86h-4.23V.14Z"/><path class="cls-1" d="M332.41,39.06l-2.66-4.23a28.73,28.73,0,0,0,4-.63c5.76-1.31,10.89-5.54,10.89-12.78,0-6.53-4-11.7-10.89-12.56a90.38,90.38,0,0,1-2.7,12.65c-2.7,9.18-6.44,14.26-10.89,14.26s-8.55-5-8.55-12.46c0-10.08,8.82-18.72,20.11-18.72,10.8,0,17.64,7.56,17.64,17S343.34,37.48,332.41,39.06Zm-12.1-8.64c2,0,4.14-2.93,6.21-9.86A72.06,72.06,0,0,0,329,9c-8.1,1.31-12.82,8.33-12.82,13.91C316.17,28,318.37,30.42,320.31,30.42Z"/></g></g></g></svg>