<svg xmlns="http://www.w3.org/2000/svg" width="247" height="30" viewBox="0 0 247 30"><g transform="translate(-121.19 -35.358)"><g transform="translate(121.19 36.166)"><path d="M213.782,36.166h-10.2l-3.794,13.55-4.206-13.55h-9.42l-2.857,14.805-2.652-14.805h-10.2l-3.8,13.55-4.2-13.55h-9.437l-2.133,11.1c-1.6-7.064-8.068-11.1-17.8-11.1h-11.9V65.012h14.43c4.636,0,9.8-1.461,12.906-5.356l-1.032,5.356h10.09l2.082-12.1,3.517,12.1h7.889l3.012-12.038,1.833,12.038h14.772l2.081-12.1,3.534,12.1h7.889l3.01-12.038,1.832,12.038h9.938ZM133.9,55.007V46c2.185,0,5.5.1,5.5,4.481C139.4,54.97,136.216,55.007,133.9,55.007Z" transform="translate(-121.19 -36.166)"/></g><g transform="translate(223.586 35.358)"><path d="M255.515,39.974h8.365l.574-4.615H256.09Z" transform="translate(-223.59 -35.358)" fill="#fc088e"/><path d="M252.469,65.012h8.221l2.831-22.731H255.3Z" transform="translate(-223.59 -35.358)" fill="#fc088e"/><path d="M334.936,35.358l-.575,4.615h8.364l.575-4.615Z" transform="translate(-223.592 -35.358)" fill="#fc088e"/><path d="M331.315,65.012h8.221l2.83-22.731h-8.22Z" transform="translate(-223.592 -35.358)" fill="#fc088e"/><path d="M359.834,41.935c-6.04,0-7.694.226-12.558.341-.388.009-.792.006-1.218.006-.084,1.165-.229,2.2-.48,4.085l-2.321,18.645h8.37l2.2-17.639a9.934,9.934,0,0,1,2.506-.347c3.358,0,3.781,1.652,3.146,6.762l-1.37,11.224h8.222s1.131-9.15,1.7-13.775C368.765,45.272,367.215,41.935,359.834,41.935Z" transform="translate(-223.592 -35.358)" fill="#fc088e"/><path d="M318.719,41.417c-9.144,0-13.293,4.462-14.239,12.131-.952,7.707,2.531,11.81,11.223,11.81,9.059,0,13.215-4.067,14.171-11.81C330.819,45.879,327.565,41.417,318.719,41.417Zm2.856,12.124c-.494,3.623-1.569,7.13-5.314,7.13-3.922,0-3.982-3.458-3.5-7.123.494-3.748,1.66-7.516,5.443-7.516C322.176,46.032,322.08,49.838,321.574,53.541Z" transform="translate(-223.591 -35.358)" fill="#fc088e"/><path d="M245.659,49.8a7.682,7.682,0,0,0,4.565-6.482,6.275,6.275,0,0,0-.377-3.154,5.421,5.421,0,0,0-2.007-2.421,7.814,7.814,0,0,0-1.5-.809,9.2,9.2,0,0,0-1.8-.465,18.061,18.061,0,0,0-2.342-.243c-.888-.04-1.926-.06-3.107-.06h-11.91l-3.592,28.846H237.03c9.1,0,12.9-3.195,13.511-8.041C251.014,53.185,247.953,50.76,245.659,49.8Zm-3.873,6.692c-.282,1.944-2.342,3.184-5.412,3.184h-3.818l.878-7.008h3.581C241.3,52.668,242.056,54.627,241.786,56.492Zm.522-12.223c-.289,3.256-4.2,3.435-5.87,3.435h-2.387c.137-1.106.65-5.21.806-6.461h3.674C242,41.243,242.441,42.755,242.308,44.269Z" transform="translate(-223.589 -35.358)" fill="#fc088e"/><path d="M276.146,36.973h-8.1l-2.529,20.54c-.318,2.906.779,7.673,7.346,7.673a34.772,34.772,0,0,0,5.778-.371l.567-4.617c-5.437.552-5.745-1.391-5.474-3.709l1.149-9.3h5.625l.606-4.9H275.49Z" transform="translate(-223.59 -35.358)" fill="#fc088e"/><path d="M281.57,53.5c-.157,1.239-1.854,11.858,12.814,11.858a38.326,38.326,0,0,0,6.872-.551l.532-4.37a24.265,24.265,0,0,1-4.231.316c-7.033,0-8.113-3.863-7.69-7.252.38-3.028,2.608-6.96,9.361-6.9a27.768,27.768,0,0,1,4.494.352l.539-4.384a30.08,30.08,0,0,0-6.164-.632C288.542,41.768,282.625,45.361,281.57,53.5Z" transform="translate(-223.591 -35.358)" fill="#fc088e"/></g></g></svg>