<?xml version="1.0" encoding="utf-8"?>
<!-- Generator: Adobe Illustrator 25.0.0, SVG Export Plug-In . SVG Version: 6.00 Build 0)  -->
<svg version="1.1" id="レイヤー_1" xmlns="http://www.w3.org/2000/svg" xmlns:xlink="http://www.w3.org/1999/xlink" x="0px"
	 y="0px" viewBox="0 0 630 61" style="enable-background:new 0 0 630 61;" xml:space="preserve">
<style type="text/css">
	.st0{fill:#333333;}
</style>
<g>
	<path class="st0" d="M57.63,9.29l5.84,5.48c-2.19,6.41-5.84,13-10.84,19.9c6.15,4.87,12.42,10.66,17.72,16.27l-7.37,7.95
		c-4.5-5.3-10.41-11.34-16.44-16.76c-6.76,7.33-15.22,13.31-24.05,17.07l-5.84-9.12c11.08-4.25,21.43-12.02,28.07-21.01
		c2.98-3.94,5.54-8.19,6.27-10.54H21.77V9.29H57.63z"/>
	<path class="st0" d="M115.6,12l8.83,8.32c-1.28,23.17-11.02,34.01-35.68,39.8l-5.36-9.24c11.87-2.09,18.2-4.74,22.83-9.43
		c4.87-4.93,7.55-11.95,7.73-20.27H77.55V12H115.6z M134.05,9.66c0,4.13-3.35,7.52-7.49,7.52c-4.02,0-7.37-3.45-7.37-7.58
		c0-4.07,3.41-7.46,7.49-7.46C130.7,2.14,134.05,5.59,134.05,9.66z M123.27,9.66c0,1.85,1.52,3.39,3.35,3.39s3.35-1.54,3.35-3.39
		c0-1.85-1.52-3.39-3.35-3.39S123.27,7.87,123.27,9.66z"/>
	<path class="st0" d="M156.05,6.39v40.36c11.26-3.57,23.44-13.68,30.14-25.02l6.51,9.12c-8.65,13.56-24.23,24.34-41.22,28.53
		l-6.27-5.85V6.39H156.05z"/>
	<path class="st0" d="M209.32,40.4c-1.58-6.78-3.29-11.83-6.27-18.61l8.28-3.88c2.98,6.16,4.99,11.71,6.82,19.1L209.32,40.4z
		 M212.42,52.29c18.69-5.48,23.26-12.08,25.21-36.11l9.31,2.59c-2.92,25.94-9.56,35.24-29.35,41.34L212.42,52.29z M222.35,37.81
		c-1.4-6.35-2.62-10.1-5.91-18.61l8.4-3.45c2.92,6.16,4.63,11.21,6.39,18.79L222.35,37.81z"/>
	<path class="st0" d="M275.4,5.28V22.1c12.3,3.82,21.31,7.21,28.13,10.66l-5.18,9.61c-5.84-3.02-13.33-6.16-22.95-9.67V60h-10.72
		V5.28H275.4z M291.96,22.53c-1.16-3.27-3.17-6.96-6.27-11.46l5.05-2.1c2.44,3.27,4.32,6.53,6.39,11.28L291.96,22.53z M301.09,20.07
		c-1.46-3.88-3.71-8.01-6.27-11.46l4.87-1.85c2.37,2.77,4.38,6.22,6.33,10.78L301.09,20.07z"/>
	<path class="st0" d="M332.26,14.93l0.22-0.4c1.91-3.13,2.47-4.03,3.14-5.28l9.26,1.14c-0.22,0.4-0.34,0.57-0.56,0.91l-1.12,1.82
		l-0.96,1.48l-0.22,0.34h16.73v7.96h-22.29c-1.63,2.22-2.98,3.86-4.38,5.46c3.14-1.65,5.22-2.27,7.69-2.27
		c3.82,0,6.4,1.65,8.14,5.11c5.45-1.76,7.75-2.5,12.52-3.92l3.54,7.67c-5.62,1.48-10.89,2.95-14.54,4.21
		c0.17,2.95,0.22,4.03,0.22,7.96l-8.93,0.51v-0.4c0-2.61,0-3.41-0.06-5.06c-5.73,2.33-8.59,4.32-8.59,6.14s2.86,2.39,12.19,2.39
		c5.17,0,9.32-0.23,15.5-0.85l0.96,8.69c-6.23,0.45-10.84,0.63-16.96,0.63c-6.96,0-12.18-0.63-15.33-1.82
		c-3.76-1.42-5.73-4.26-5.73-8.24c0-6.25,5.11-10.8,16.73-15c-0.62-0.97-1.29-1.36-2.36-1.36c-3.43,0-9.32,3.35-16.51,9.38
		l-5.17-6.14c4.04-3.58,7.64-7.61,11.51-13.07h-9.15v-7.96H332.26z"/>
	<path class="st0" d="M422.2,10.78v7.16h-37.51c-0.56,0.85-0.84,1.25-1.29,1.82h33.41v6.65h-34.37v-5.46
		c-1.57,1.93-2.7,3.07-4.55,4.66l-6.23-6.42c3.87-2.96,7.47-7.79,9.1-12.05l8.98,1.31c-0.5,1.19-0.67,1.65-1.01,2.33H422.2z
		 M416.13,29.81c0,8.01,0.34,13.81,1.07,17.27c0.22,1.36,0.67,2.61,0.9,2.61c0.34,0,1.01-3.01,1.4-6.59l6.57,6.25
		c-1.63,8.18-4.38,12.16-8.42,12.16c-2.86,0-5.28-2.1-7.13-6.19c-1.85-4.09-2.64-8.92-2.92-18.07l-0.06-1.7h-9.32l6.68,3.18
		c-1.52,2.56-3.03,4.66-5.73,7.67c1.69,0.91,5.73,3.58,8.14,5.28l-5.73,7.22c-3.26-2.44-6.4-4.66-8.87-6.31
		c-4.32,3.64-10.11,6.88-15.33,8.64l-5.05-7.27c4.72-1.53,8.42-3.35,12.69-6.19c-3.2-1.82-5.17-2.84-8.54-4.55l5.62-6.02
		c1.97,0.97,5.11,2.56,9.49,4.83c1.74-1.88,3.71-4.49,4.83-6.48h-22.8v-7.27h42.51V29.81z"/>
	<path class="st0" d="M435.97,59.87c-0.9-7.33-1.18-12.39-1.18-20.06c0-10.63,0.73-20,2.25-30.17l8.98,0.91
		c-1.46,9.32-2.08,16.99-2.08,26.82c0,7.78,0.39,14.04,1.35,21.37L435.97,59.87z M482.02,56.75c-3.76,0.51-9.21,0.79-13.98,0.79
		c-5.95,0-10.78-0.91-13.7-2.5c-3.71-2.1-5.78-5.68-5.78-10.06c0-3.58,1.12-6.88,3.14-9.43l7.75,3.24c-1.12,1.71-1.68,3.35-1.68,5
		c0,1.48,0.56,2.56,1.57,3.07c2.13,1.02,5.45,1.53,9.66,1.53c3.65,0,9.04-0.34,12.18-0.79L482.02,56.75z M479.77,14.3v9.04h-27.12
		V14.3H479.77z"/>
	<path class="st0" d="M531.68,9.47v11.59h9.43v8.35h-9.43v7.67c0,5.63-1.74,7.33-7.41,7.33c-2.98,0-5.73-0.57-8.65-1.76v-7.61
		c2.53,0.68,4.94,1.19,5.9,1.19c0.67,0,0.95-0.34,0.95-1.25v-5.57h-13.81V47.6c0,1.19,0.45,1.7,1.74,2.04
		c1.46,0.34,4.83,0.51,9.15,0.51c5.17,0,10.5-0.23,15.78-0.74v8.64c-7.64,0.34-13.42,0.51-17.35,0.51c-8.59,0-12.18-0.4-14.66-1.59
		c-2.7-1.31-3.88-3.81-3.88-8.18V29.42h-9.21v-8.35h9.21V9.98h9.21v11.08h13.81V9.47H531.68z"/>
	<path class="st0" d="M584.55,8.79v7.56h15.33v7.73h-15.33v9.89c0.95,2.33,1.35,4.32,1.35,6.59c0,6.25-1.57,10.91-4.66,14.15
		c-3.42,3.52-8.14,5.74-14.99,6.99l-4.77-6.93c8.14-1.25,12.47-3.3,14.6-6.93c-1.85,1.48-3.59,2.1-5.78,2.1
		c-6.91,0-11.29-4.55-11.29-11.71c0-7.33,5.05-12.22,12.58-12.22c1.29,0,2.42,0.17,3.71,0.63v-2.56h-25.21v-7.73h25.21V8.79H584.55z
		 M575.68,37.26c0-2.33-1.57-4.03-3.76-4.03c-2.25,0-4.1,2.1-4.1,4.77c0,2.61,1.8,4.72,4.1,4.72c2.02,0,3.76-1.93,3.76-4.2V37.26z
		 M590.28,15.49c-0.56-2.27-2.13-5.68-3.54-7.73l4.77-0.8c1.4,1.93,2.86,4.89,3.54,7.27L590.28,15.49z M598.31,14.7
		c-0.62-2.27-1.96-5.17-3.54-7.56l4.66-0.74c1.57,2.05,2.81,4.49,3.48,6.93L598.31,14.7z"/>
	<path class="st0" d="M613.13,61.64c-3.71-6.14-8.31-12.5-11.79-16.31l6.79-5.97c4.27,4.49,9.1,10.74,12.35,15.91L613.13,61.64z"/>
</g>
</svg>
