<?xml version="1.0" encoding="utf-8"?>
<!-- Generator: Adobe Illustrator 25.0.0, SVG Export Plug-In . SVG Version: 6.00 Build 0)  -->
<svg version="1.1" id="レイヤー_1" xmlns="http://www.w3.org/2000/svg" xmlns:xlink="http://www.w3.org/1999/xlink" x="0px"
	 y="0px" viewBox="0 0 635 77" style="enable-background:new 0 0 635 77;" xml:space="preserve">
<style type="text/css">
	.st0{fill:#333333;}
	.st1{fill:#FC088E;}
</style>
<g>
	<path class="st0" d="M62.96,73.3h-8.79v-1.93H21.28v1.93h-8.79V20.97h50.46V73.3z M21.28,63.66h32.89V28.34H21.28V63.66z
		 M41.52,41.15h9.3v7.09H48.5c0.79,1.3,1.81,3.35,2.44,5.22h1.59v7.43H22.81v-7.43h9.75v-5.22h-8.39v-7.09h8.39v-3.63h-9.13v-7.09
		h28.35v7.09H41.52V41.15z M41.52,48.24v5.22h2.72c-0.74-1.7-1.08-2.38-1.76-3.52l4.65-1.7H41.52z"/>
	<path class="st0" d="M93.9,19.44h9.53v7.6h19.96V66.1c0,4.65-2.33,6.86-7.31,6.86c-2.67,0-6.92-0.11-10.55-0.34l-2.04-8.79
		c2.78,0.34,6.41,0.62,8.79,0.62c1.25,0,1.7-0.34,1.7-1.42V52.1l-4.99,7.03c-2.89-3.29-6.41-6.86-9.36-9.58
		c-2.55,5.05-6.29,9.02-11.57,12.25l-4.37-6.12V73.3h-9.41V27.03H93.9V19.44z M83.69,35.6v17.97c5.73-3.29,9.13-9.36,9.98-17.97
		H83.69z M103.26,35.6c-0.17,1.87-0.45,3.91-0.85,5.78c5.16,3.63,9.13,6.92,11.57,9.58V35.6H103.26z"/>
	<path class="st0" d="M170.33,28.45c1.25-3.12,2.38-6.63,2.95-9.19l8.51,1.76c-0.85,2.38-2.1,5.22-3.23,7.43h7.94v8.17h-9.07v3.74
		h7.6v7.37h-7.6v3.8h7.6v7.37h-7.6v3.97h10.04v8.28h-22.62v2.15h-7.99V46.88c-0.17,0.34-0.23,0.45-0.4,0.74l-1.13,1.81l-1.47-4.37
		v17.75H142.6v3.91h-8.33v-42.7h19.56V36.5c2.89-5.27,5.05-11.17,6.46-17.63l8.73,1.76c-0.79,2.72-1.81,5.56-2.72,7.82H170.33z
		 M142.6,53.85h3.46V32.87h-3.46V53.85z M164.83,40.36h4.59v-3.74h-4.59V40.36z M164.83,51.53h4.59v-3.8h-4.59V51.53z M164.83,62.87
		h4.59V58.9h-4.59V62.87z"/>
	<path class="st0" d="M248.84,40.08v10.09H195.6V40.08H248.84z"/>
	<path class="st0" d="M285.43,63.15c4.88-1.19,9.24-3.35,11.91-5.9c2.78-2.67,4.14-6.41,4.14-11.17c0-7.94-3.74-12.98-10.83-14.69
		c-1.64,12.59-3.74,20.07-7.82,27.73c-3.23,6.12-7.09,9.07-11.68,9.07c-7.03,0-12.53-8.11-12.53-18.37c0-9.07,4.03-16.95,11.4-22.34
		c4.59-3.35,10.04-4.99,16.27-4.99c14.69,0,24.72,9.58,24.72,23.59c0,7.03-2.15,13.1-5.95,16.95c-3.69,3.69-8.79,6.41-15.08,7.99
		L285.43,63.15z M281.63,31.17c-2.61,0.62-4.42,1.47-6.24,2.83c-4.88,3.74-7.48,9.36-7.48,15.93c0,2.61,0.45,4.99,1.25,6.41
		c0.68,1.25,1.59,2.1,2.32,2.1c1.08,0,2.1-1.3,3.63-4.37c3.01-6.29,5.22-13.95,6.35-22.06L281.63,31.17z"/>
	<path class="st1" d="M345.62,51.68c0.31,0.15,0.7,0.39,1.24,0.7c2.32,1.31,5.41,3.48,8.5,5.88l-5.72,9.2
		c-1.47-1.78-3.4-3.94-5.33-5.8v13.61h-11.68V61.58c-2.78,4.87-5.57,8.35-8.43,10.59l-6.19-10.28c3.87-2.55,7.89-6.26,10.82-10.21
		h-8.81V41.4h12.6v-4.33h-14.07V26.78h7.11l-0.08-0.54l-0.08-0.39c-0.46-2.32-0.93-4.41-1.39-5.95h-4.1V9.62h12.6V1.81h11.68v7.81
		h12.14V19.9h-3.79c-0.46,2.09-1.39,5.03-2.09,6.88h6.8v10.28H344.3v4.33h12.14v10.28H345.62z M341.05,26.78
		c0.54-1.86,1.08-4.48,1.39-6.88h-8.2c0.39,1.55,1,5.03,1.24,6.88H341.05z M370.82,39.54v0.39c-0.31,16.62-2.63,27.37-7.96,36.18
		l-10.21-7.73c5.03-8.43,6.57-15.93,6.57-32.16V7.61c9.9-0.7,19.87-2.4,26.91-4.72l6.18,10.28c-5.64,1.78-14.38,3.48-21.49,4.17
		v9.51h21.65v12.22h-6.26v36.18h-11.75V39.08h-3.63V39.54z"/>
	<path class="st1" d="M473.1,52.84c-3.02,3.48-4.95,5.49-7.96,8.35c1.31,1.24,2.24,1.86,2.71,1.86c0.85,0,1.47-2.01,1.7-5.41
		l7.73,5.1c-0.23,2.4-0.77,5.03-1.47,7.27c-1.08,3.32-2.78,4.87-5.26,4.87c-3.79,0-8.97-2.86-13.22-7.27
		c-4.18,3.02-8.27,5.41-12.83,7.42l-5.95-8.43c4.64-1.78,8.89-3.94,12.99-6.65c-1.78-3.25-3.02-7.11-3.87-11.67h-6.42l-0.15,1.39
		c-0.08,0.23-0.08,0.31-0.08,0.7c3.48,2.63,5.49,4.41,8.04,7.34l-6.34,6.57c-0.7-1.16-2.24-3.17-3.71-4.87
		c-2.09,6.34-5.18,11.52-9.59,16l-6.96-7.58c4.79-4.64,7.96-11.52,8.89-19.56h-3.87v-7.65l-3.63,7.04c-1.08-1.7-1.78-2.71-2.86-4.02
		v31.62h-10.36V46.58c-1.62,5.49-3.25,10.05-5.03,13.53L401.2,47.2c3.33-5.18,6.34-12.45,8.2-19.79h-6.96V16.35h8.2V1.81h10.36
		v14.54h4.79l3.63-2.71c2.09-3.56,3.4-6.8,4.95-11.6l7.58,3.4c-1.86,3.79-3.87,7.19-6.49,10.9c0.7,0.85,1.16,1.31,1.7,2.09
		c1.47-2.4,2.55-4.18,4.1-7.27l4.64,3.02l-0.08-12.37h9.67l0.15,12.76l2.47-2.01c1.7-3.02,3.4-6.88,4.72-10.59l7.81,3.4
		c-1.7,3.25-4.1,7.04-6.26,10.13c0.16,0.15,0.39,0.39,0.62,0.7c0.31,0.31,0.54,0.7,0.85,1.08c1.01-1.39,2.78-4.25,4.25-6.8l6.42,4.1
		c-2.24,3.63-5.26,7.58-8.89,11.67c0.46-0.08,1-0.15,1.55-0.23l4.87-2.78c1.62,3.25,2.71,6.49,3.48,10.28l-7.27,2.47
		c-0.23-1.55-0.31-2.17-0.46-2.94c-4.17,0.93-8.97,1.78-13.76,2.32l0.15,1.86c0.08,0.85,0.08,0.93,0.08,1.62h4.25
		c-0.46-1.16-0.77-1.7-1.24-2.55l8.27-1.24c1.01,1.78,1.47,2.63,1.86,3.79h6.73v9.43h-9.82L473.1,52.84z M439.7,37.53l-0.39-2.63
		c-3.71,0.7-8.2,1.24-11.67,1.55l-1.86-7.96c1.31,0,3.48,0,4.25-0.08c0.39-0.46,0.62-0.7,0.7-0.77c0.62-0.93,1.24-1.7,1.86-2.55
		c-1.55-2.17-4.33-5.57-6.11-7.35v9.66h-5.49v5.57l1.78,1.47c1.47,1.16,3.48,3.02,4.79,4.41h18.94l-0.08-1.24l-0.08-1.16l-0.08-0.77
		v-0.46L439.7,37.53z M445.89,17.2c-2.71,4.48-4.1,6.34-7.81,10.75h0.23l5.18-2.86c1.16,2.86,2.24,6.65,2.78,9.59
		c-0.23-5.57-0.23-5.88-0.31-11.44L445.89,17.2z M455.71,23.15c0,0.93,0,1.93,0.08,3.25v0.77c0.77,0,1.08,0,2.55-0.08l0.39-0.46
		c0.85-0.93,1.55-1.86,2.55-3.09c-2.09-2.55-3.4-3.94-5.64-6.26L455.71,23.15z M457.48,48.28c0.46,2.17,1.08,4.18,1.86,5.57
		c2.78-2.71,3.17-3.17,5.03-5.57H457.48z"/>
	<path class="st1" d="M517.19,29.03c-0.46-1.31-1.31-3.17-1.78-4.25c-7.81,1.31-16.55,2.24-27.37,2.94l-2.01-10.52
		c2.09,0,2.4,0,3.63-0.08h1.55l0.46-0.7c3.01-5.49,5.57-10.9,6.96-14.92l12.06,2.01c-1.78,3.87-4.72,9.28-7.19,13.22
		c3.4-0.15,4.72-0.23,7.5-0.46c-0.62-1.08-1.93-3.09-2.94-4.56l9.74-3.63c3.32,4.48,6.88,10.36,9.12,15.08V1.81h11.75v7.73
		c4.56-1.7,9.9-4.17,12.91-5.95l6.96,8.66c-5.33,2.47-13.92,5.49-19.87,6.96v3.71c0,1.86,0.7,2.24,4.1,2.24
		c3.63,0,5.18-0.23,5.57-0.85c0.39-0.54,0.62-2.47,0.7-5.72l10.9,3.02c-0.08,5.57-0.77,9.2-2.24,10.9
		c-1.78,2.09-5.72,2.86-14.54,2.86c-13.07,0-16.24-1.55-16.24-8.04v-2.78L517.19,29.03z M522.37,67.38c0,5.26-1.93,6.96-8.12,6.96
		c-2.01,0-4.72-0.15-6.19-0.31l-2.09-9.82c1.78,0.31,2.86,0.39,4.1,0.39c0.93,0,1.16-0.23,1.16-1.31v-3.71h-9.59v15.7h-11.52V30.03
		h32.24V67.38z M501.65,41.4h9.59v-3.48h-9.59V41.4z M501.65,52.22h9.59v-3.48h-9.59V52.22z M538.84,45.96
		c6.65-2.78,10.05-4.41,13.53-6.57l7.19,9.2c-5.57,2.86-12.76,5.57-20.72,7.89v4.95c0,1.62,0.54,1.86,4.72,1.86
		c4.1,0,5.1-0.23,5.41-1.31c0.23-1,0.39-3.25,0.46-6.11l11.29,2.55c-0.31,7.27-1.01,10.9-2.55,12.91
		c-1.86,2.32-5.33,2.94-16.62,2.94c-5.72,0-8.2-0.23-10.05-0.93c-3.09-1.16-4.56-3.48-4.56-7.27V38.07h11.91V45.96z"/>
	<path class="st0" d="M581.65,69.86c-2.77-2.09-4.65-6.07-4.65-9.75c0-3.65,1.93-7.66,4.65-9.71h2.56
		c-2.99,3.42-4.24,6.31-4.24,9.75c0,3.42,1.27,6.31,4.24,9.71H581.65z"/>
	<path class="st0" d="M591.18,60.13c0,1.09-0.9,1.99-2.01,1.99c-1.07,0-1.97-0.9-1.97-1.99s0.9-1.99,1.99-1.99
		C590.26,58.14,591.18,59.06,591.18,60.13z M596.12,59.1l7.64-7.64l1.03,1.02l-7.64,7.64l7.64,7.64l-1.03,1.02l-7.64-7.64
		l-7.64,7.64l-1.02-1.02l7.64-7.64l-7.64-7.64l1.02-1.02L596.12,59.1z M598.11,53.2c0,1.09-0.9,1.99-2.01,1.99
		c-1.07,0-1.97-0.9-1.97-1.99s0.9-1.99,1.99-1.99C597.18,51.21,598.11,52.14,598.11,53.2z M598.11,67.06c0,1.09-0.9,1.99-2.01,1.99
		c-1.07,0-1.97-0.9-1.97-1.99c0-1.09,0.9-1.99,1.99-1.99C597.18,65.07,598.11,65.99,598.11,67.06z M605.03,60.13
		c0,1.09-0.9,1.99-2.01,1.99c-1.07,0-1.97-0.9-1.97-1.99s0.9-1.99,1.99-1.99C604.11,58.14,605.03,59.06,605.03,60.13z"/>
	<path class="st0" d="M613.46,55.4c-1.33,0.41-3.09,0.84-3.91,0.96l-0.7-3.01c2.05-0.43,4.45-1.23,5.55-1.82h2.93v16.91h-3.87V55.4z
		"/>
	<path class="st0" d="M622.93,69.86c2.97-3.42,4.24-6.31,4.24-9.73s-1.25-6.29-4.24-9.73h2.56c2.77,2.11,4.65,6.07,4.65,9.73
		s-1.93,7.68-4.65,9.73H622.93z"/>
</g>
</svg>
