<svg xmlns="http://www.w3.org/2000/svg" width="518" height="38" viewBox="0 0 518 38"><g transform="translate(-460.305 -1444.744)"><path d="M487.289,1456.949c-.16.4-.4,1.125-.681,1.848,4.484,1.607,7.567,5.182,7.567,9.922,0,5.583-3.083,11.327-13.092,12.814l-3.163-5.021c7.927-.884,10.29-4.86,10.29-8.074a5.172,5.172,0,0,0-3.243-4.82,29.93,29.93,0,0,1-8.047,11.569c.28.964.561,1.888.881,2.812l-5.525,1.646c-.16-.4-.28-.883-.44-1.365a14.332,14.332,0,0,1-5.805,1.365c-3.082,0-5.725-1.847-5.725-6.266,0-5.1,4.083-10.525,9.648-13.216.08-1.486.2-3.013.361-4.46h-.641c-2.322,0-5.4-.2-7.367-.281l-.16-5.5a64.329,64.329,0,0,0,7.727.563h.96l.16-1.606a19.29,19.29,0,0,0,.121-2.651l6.2.161c-.28.924-.44,1.647-.6,2.33-.12.522-.241,1.084-.321,1.646a63.024,63.024,0,0,0,13.172-1.727l.04,5.5a109.473,109.473,0,0,1-13.971,1.405q-.122,1.446-.24,2.893a25.047,25.047,0,0,1,5.525-.6h.24a21.219,21.219,0,0,0,.319-2.25Zm-16.654,15.908a59.088,59.088,0,0,1-.721-6.869c-2.443,1.847-3.964,4.378-3.964,6.106,0,1.084.4,1.687,1.562,1.687A7.13,7.13,0,0,0,470.635,1472.856Zm8.967-10.123a19.373,19.373,0,0,0-4.364.723,53.455,53.455,0,0,0,.36,5.422A22.3,22.3,0,0,0,479.6,1462.733Z" transform="translate(0 0.006)" fill="#333"/><path d="M506.6,1460.155c2.642-.8,9.449-3.053,14.333-3.053,6.646,0,10.929,3.936,10.929,10.323,0,6.909-5.725,12.412-19.377,13.256l-2.562-5.945c9.288-.241,15.533-2.61,15.533-7.431,0-2.731-2-4.579-5.125-4.579-4.443,0-11.889,3.094-15.773,4.78l-2.442-6.266A45.449,45.449,0,0,0,506.6,1460.155Z" transform="translate(0.043 0.054)" fill="#333"/><path d="M568.772,1455.782c-1.4.844-2.842,1.607-4.444,2.411a106.782,106.782,0,0,0-10.489,5.543c-3.083,2.009-5.286,4.137-5.286,6.749s2.523,3.856,7.607,3.856a67.768,67.768,0,0,0,13.092-1.527l-.08,6.95a75.155,75.155,0,0,1-12.851,1c-8.167,0-14.452-2.209-14.452-9.56,0-4.539,2.8-7.793,6.446-10.564-1.842-3.415-3.684-7.472-5.445-11.649l6.045-2.451a83.471,83.471,0,0,0,4.764,10.6c2.922-1.687,5.925-3.253,7.646-4.258a28.342,28.342,0,0,0,4.124-2.692Z" transform="translate(0.085 0.008)" fill="#333"/><path d="M585.635,1455.286c0,2.611,0,5.223.24,7.873.481,5.222,1.28,8.878,3.563,8.878,1.842,0,3.243-4.982,3.8-7.672l4.844,5.945c-2.763,7.03-5.284,9.52-8.768,9.52-4.684,0-8.567-4.017-9.688-14.9-.4-3.775-.44-8.315-.44-10.845a23.64,23.64,0,0,0-.36-4.3l7.367.081A37.24,37.24,0,0,0,585.635,1455.286Zm27.3,16.108-6.366,2.45c-.561-5.985-2.482-16.148-7.125-21.208l6.124-2.009C609.456,1455.206,612.618,1465.65,612.938,1471.395Z" transform="translate(0.123 0.022)" fill="#333"/><path d="M636.014,1461.569a33.977,33.977,0,0,0-10.049,1.929c-1.12.321-2.882,1.045-4.123,1.486l-1.761-6.829a42.3,42.3,0,0,0,4.684-.723,56.5,56.5,0,0,1,12.091-1.728c6.646,0,11.17,3.817,11.17,10.324,0,8.475-7.967,14.018-19.417,15.5l-3.443-6.025c9.968-1.085,16.014-3.976,16.014-9.72C641.179,1463.578,639.538,1461.569,636.014,1461.569Zm8.568-13.777-.961,5.9c-4.765-.321-13.732-1.085-18.336-1.888l.921-5.784A118.264,118.264,0,0,0,644.582,1447.792Z" transform="translate(0.166 0.006)" fill="#333"/><path d="M663.415,1461.008V1482.7h-5.766v-36.714h15.935v15.024Zm0-10.886v1.366h4.724v-1.366Zm4.724,6.789v-1.567h-4.724v1.567Zm23.98,19.12c0,2.973-.56,4.619-2.321,5.583-1.8.964-4.2,1.085-7.727,1.085a21.007,21.007,0,0,0-.921-3.736H672.1v2.049h-5.244V1463.1h15.773v13.778h2.643c.721,0,.961-.241.961-.924v-14.822H675.786v-15.144h16.333Zm-20.017-8.717V1469h5.084v-1.687Zm5.084,7.432v-1.687H672.1v1.688Zm4.124-24.624v1.366h4.924v-1.366Zm4.924,6.909v-1.687h-4.924v1.688Z" transform="translate(0.205 0.005)" fill="#333"/><path d="M709.933,1447.906a39.286,39.286,0,0,0-1.121,4.057c-.44,2.049-1.882,10.484-1.882,14.18a7.427,7.427,0,0,0,.04.923c.521-1.124,1-1.927,1.522-3.052l2.922,2.29a103.227,103.227,0,0,0-2.882,10.243,12.8,12.8,0,0,0-.24,1.888c0,.442,0,1.164.04,1.807l-5.525.362a50.828,50.828,0,0,1-1.6-13.1,113.437,113.437,0,0,1,1.562-15.666c.16-1.205.44-3.013.481-4.5Zm9.368,19.843a13.493,13.493,0,0,0-.4,3.174c0,1.768,1.642,2.41,4.884,2.41a47.332,47.332,0,0,0,10.009-1.043l.12,6.508a56.864,56.864,0,0,1-10.45.762c-6.926,0-10.369-2.61-10.369-6.828a24.118,24.118,0,0,1,.721-5.464Zm13.372-17.473v6.226a120.024,120.024,0,0,1-17.415,0l-.04-6.186A90.259,90.259,0,0,0,732.673,1450.276Z" transform="translate(0.25 0.012)" fill="#333"/><path d="M778.47,1450.239c-.721,8.918-2.482,15.948-5.365,21.451a21.447,21.447,0,0,0,6.726,6.025,22.084,22.084,0,0,0-4,4.82,26.013,26.013,0,0,1-6.286-5.543,27.324,27.324,0,0,1-6.486,5.623,24.427,24.427,0,0,0-3-4.017v4.138h-5.6v-5.945c-4.4.763-8.928,1.446-12.532,2.048l-1.08-5.823c1.08-.121,2.281-.241,3.563-.4v-20.567h-2.563v-5.383h20.578v2.811h11.25l1-.161Zm-28.545,1.808v2.973h4.525v-2.973Zm0,11.328h4.525V1460.2h-4.525Zm4.525,7.954v-2.772h-4.525v3.375Zm5.6,6.066a20.889,20.889,0,0,0,6.044-5.7,58.963,58.963,0,0,1-5.163-15.345l5.565-1.085a49.1,49.1,0,0,0,2.962,10.083,49.471,49.471,0,0,0,2.682-10.163H761.215v-3.133h-1.16Z" transform="translate(0.291 0.009)" fill="#333"/><path d="M803.73,1463.822s-.04,1.607-.16,2.37c-.6,8.556-1.321,12.533-2.8,14.179a6.022,6.022,0,0,1-4.4,2.049,48.871,48.871,0,0,1-6.286.161,13.67,13.67,0,0,0-2.161-6.146c2.281.2,4.8.241,5.925.241a2.826,2.826,0,0,0,1.841-.482c.721-.6,1.241-2.772,1.642-6.99h-6.766l-.36,1.808-5.844-.924a143.884,143.884,0,0,0,2.442-15.1h10.769v-3.536h-11.53v-5.423H803.33v14.381H792c-.2,1.164-.36,2.289-.521,3.414Zm13.412-18.558V1482.7h-5.885v-37.437Z" transform="translate(0.336 0.002)" fill="#333"/><path d="M857.545,1451.436a22.416,22.416,0,0,0-1.641,2.933,62.315,62.315,0,0,1-6.046,10.6,106.769,106.769,0,0,1,10.89,11.207l-5.565,4.86a79.668,79.668,0,0,0-9.569-11.006A53.643,53.643,0,0,1,830.922,1481l-5.045-5.262a44.644,44.644,0,0,0,16.375-11.287,29.5,29.5,0,0,0,5.6-9.078H835.406c-1.8,0-4,.24-5.124.32v-6.908a47.343,47.343,0,0,0,5.124.321h13.372a16.921,16.921,0,0,0,4.8-.6Z" transform="translate(0.379 0.016)" fill="#333"/><path d="M900.536,1453.3a21.1,21.1,0,0,0-1.562,3.293,46.748,46.748,0,0,1-5.325,10.4c1.482.963,2.8,1.847,3.8,2.57l-4.4,5.744c-.961-.844-2.282-1.848-3.723-2.891a37.6,37.6,0,0,1-14.213,9.6l-5.645-4.9a33.407,33.407,0,0,0,14.412-8.436c-2.442-1.607-4.844-3.093-6.725-4.177l4.123-4.659c1.962,1.045,4.4,2.369,6.806,3.775a25.734,25.734,0,0,0,3.6-7.351H881.4a50.1,50.1,0,0,1-10.529,10.284l-5.245-4.058a37.967,37.967,0,0,0,12.691-12.975,20.962,20.962,0,0,0,2.122-4.78l7.006,2.169c-.881,1.245-1.8,2.811-2.4,3.856h6.646a15.037,15.037,0,0,0,3.964-.522Z" transform="translate(0.421 0)" fill="#333"/><path d="M907.821,1459.542c1.6.121,4.964.281,6.926.281h21.259c1.8,0,3.763-.2,4.924-.281v7.672c-1.041-.039-3.283-.241-4.924-.241H914.747c-2.282,0-5.284.122-6.926.241Z" transform="translate(0.464 0.065)" fill="#333"/><path d="M975.03,1470.283a124.5,124.5,0,0,0-13.772-5.744v10.323c0,1.085.241,4.259.44,6.065h-7.606a45.225,45.225,0,0,0,.481-6.065v-22.936a28.144,28.144,0,0,0-.481-5.222h7.566a48.152,48.152,0,0,0-.4,5.222v5.5a132.115,132.115,0,0,1,16.535,6.066Z" transform="translate(0.512 0.008)" fill="#333"/></g></svg>