<svg xmlns="http://www.w3.org/2000/svg" viewBox="0 0 319.05 57.18"><defs><style>.cls-1{fill:#fc088e;}</style></defs><g id="レイヤー_2" data-name="レイヤー 2"><g id="Quick"><g id="quick_catch-01"><path class="cls-1" d="M53,32.4a37.08,37.08,0,0,1-6.9,14,33.9,33.9,0,0,0,9.78,3.78A29.56,29.56,0,0,0,50.76,57a33.66,33.66,0,0,1-10.44-5A39.87,39.87,0,0,1,31,57.18a31.2,31.2,0,0,0-3.6-5.58v5.46H19.08V52.74c-6.66.48-13.32,1-18.54,1.38L0,46.68c1.5-.06,3.18-.12,5-.24V29.28H.54V22.44H54.6v6.84H27.42V50a28.5,28.5,0,0,0,7-3.66,37.32,37.32,0,0,1-4.86-7.92l4.56-1.26H28.5V30.66H46.14l1.44-.24Zm-5.4-11.46h-40V2h40ZM12.9,29.28v1.44h6.18V29.28Zm0,8.94h6.18V36.6H12.9Zm6.18,7.44V44.1H12.9V46ZM38.82,7.44H15.9V8.88H38.82Zm0,6.54H15.9v1.5H38.82Zm-2,23.22a22.08,22.08,0,0,0,2.94,4.2,24.15,24.15,0,0,0,2.76-4.2Z"/><path class="cls-1" d="M85.78,49.08c-1.26-2.34-3.24-5.4-5.1-8.1a34.67,34.67,0,0,1-10,16.2,30.57,30.57,0,0,0-6-6.12c6.66-5.76,9.06-13.44,9.9-20.52H65.14v-8H75V14.82h-.6a41.87,41.87,0,0,1-3.36,7,51,51,0,0,0-7.38-4C66.7,13.62,68.86,6.66,69.94,0L78.1,1.56c-.3,1.8-.72,3.6-1.2,5.4H89.32v7.86H83.26V22.5H90v8H82.78L82.6,31.8C85,34.26,90,40.38,91.3,41.88Zm35.7-1v8H86.62v-8Zm-1-37.62H89.38v-8h31.08ZM118.84,34.5H91.54V13.92h27.3ZM95.2,47.82a42.39,42.39,0,0,0-2.46-11l7.38-1.8A41.4,41.4,0,0,1,103,45.78Zm15.18-26.34H99.52v5.46h10.86Zm-4.5,24.66a62.7,62.7,0,0,0,3.42-11.52l8.46,1.8c-1.62,4.32-3.18,8.64-4.56,11.46Z"/><path class="cls-1" d="M131.56,42.72H141V18.48h-8.22v-6.6a31.23,31.23,0,0,0,11-4.08h7.85V42.72h8v8.64H131.56Z"/><path class="cls-1" d="M189.92,45.54H178.16v5.58h-8V3.6h19.8Zm-11.76-34.2V20.4h3.66V11.34Zm3.66,26.46V28h-3.66V37.8Zm37.86-12.72v4.14h5.1v7.56h-5.1v11.4c0,4-.72,6.12-3.36,7.38S210.32,57,206,57a29.64,29.64,0,0,0-2.7-8.16c2.52.12,5.76.12,6.66.12s1.2-.18,1.2-1V36.78H191V29.22h20.16V25.08H191V17.46h12.72v-4h-11V6h11V0h8.58V6h11.46v7.5H212.3v4h12.78v7.62ZM199.16,50.64c-1-2.76-3.9-6.9-6.48-9.9l7-4c2.64,2.82,5.76,6.66,7,9.54Z"/><path class="cls-1" d="M244.83,24.66v32.4h-8.64V2.22h23.88V24.66Zm0-16.26v2h7.08v-2Zm7.08,10.14V16.2h-7.08v2.34ZM287.85,47.1c0,4.44-.84,6.9-3.48,8.34s-6.3,1.62-11.58,1.62a31.29,31.29,0,0,0-1.38-5.58H257.85v3.06H250V27.78h23.64V48.36h4c1.08,0,1.44-.36,1.44-1.38V24.84H263.37V2.22h24.48Zm-30-13V36.6h7.62V34.08Zm7.62,11.1V42.66h-7.62v2.52ZM271.65,8.4v2H279v-2ZM279,18.72V16.2h-7.38v2.52Z"/><path class="cls-1" d="M298.59,42.78l7.62-6.54a108.53,108.53,0,0,1,12.84,13l-7.74,6.66A125.41,125.41,0,0,0,298.59,42.78Z"/></g></g></g></svg>