<svg xmlns="http://www.w3.org/2000/svg" width="272" height="108" viewBox="0 0 272 108"><g transform="translate(-583.348 -1162.226)"><g transform="translate(625.438 1162.226)"><path d="M660.362,1228.534l-5.31-4.468a17.9,17.9,0,0,1-10.888,3.217c-7.2,0-10.978-2.86-13.949-6.345-5.13-6.076-4.769-17.6-4.769-26.184s-.361-20.107,4.769-26.184c2.971-3.484,6.749-6.344,13.949-6.344s11.158,2.86,14.128,6.344c5.13,6.077,4.77,17.605,4.77,26.184,0,6.971.27,16-2.43,22.342l5.49,4.557Zm-11.788-52.368a4.54,4.54,0,0,0-4.41-2.5,4.269,4.269,0,0,0-4.23,2.5c-1.53,2.949-1.71,10.9-1.71,18.588s.18,15.639,1.71,18.589a4.269,4.269,0,0,0,4.23,2.5,2.793,2.793,0,0,0,.9-.089l-2.34-1.966,5.759-6.881,1.349,1.162c.361-3.753.451-8.579.451-13.316C650.284,1187.069,650.1,1179.115,648.574,1176.166Z" transform="translate(-625.442 -1162.226)" fill="#333"/><path d="M693.843,1226.683V1223.2a12.632,12.632,0,0,1-3.51,3.039,10.272,10.272,0,0,1-4.589,1.162c-4.411,0-7.019-1.251-9.359-4.022-1.89-2.323-2.7-4.915-2.7-10.9v-33.869h12.059V1212.3c0,2.949,1.619,4.379,3.779,4.379s3.78-1.43,3.78-4.379v-33.691h12.059v48.078Z" transform="translate(-625.446 -1162.341)" fill="#333"/><path d="M716.885,1175.1v-12.689h12.778V1175.1Zm.36,51.474v-46.2H729.3v46.2Z" transform="translate(-625.45 -1162.227)" fill="#333"/><path d="M767.1,1223.639c-2.61,2.592-6.478,3.754-11.158,3.754-5.129,0-9.629-1.073-12.779-5.72-3.059-4.557-3.33-12.6-3.33-19.034s.271-14.477,3.33-19.034c3.15-4.647,7.649-5.72,12.779-5.72,4.32,0,7.828.715,10.978,3.664s4.5,7.686,4.77,11.885H759.722a7.3,7.3,0,0,0-.9-3.306,3.127,3.127,0,0,0-2.88-1.519,3.4,3.4,0,0,0-3.15,1.877c-.9,1.966-.9,6.7-.9,12.153s0,10.188.9,12.154a3.4,3.4,0,0,0,3.15,1.877,3.341,3.341,0,0,0,2.97-1.609,7.416,7.416,0,0,0,.81-3.217H771.69C771.42,1216.311,769.89,1220.869,767.1,1223.639Z" transform="translate(-625.452 -1162.336)" fill="#333"/><path d="M803.551,1226.573l-6.928-17.694-2.971,4.647v13.047H781.594v-63.627h12.058v33.6l10.619-18.051H816.78l-12.419,19.481,12.509,28.6Z" transform="translate(-625.455 -1162.231)" fill="#333"/></g><g transform="translate(583.348 1250.759)"><path d="M583.348,1259c0-6.816,2.808-7.617,5.719-7.617s5.721.8,5.721,7.617v3.924c0,7-2.5,7.926-5.721,7.926s-5.719-.929-5.719-7.926Zm3.64,3.924c0,4.544.676,5.189,2.08,5.189s2.08-.646,2.08-5.189V1259c0-4-.7-4.88-2.08-4.88s-2.08.878-2.08,4.88Z" transform="translate(-583.348 -1251.385)" fill="#333"/><path d="M601.21,1258.029c0-1.291.624-1.885,1.586-1.885s1.586.594,1.586,1.807h.052a3.129,3.129,0,0,1,2.964-1.807c1.768,0,3.042,1.084,3.042,3.46v9.294c0,1.291-.624,1.885-1.586,1.885s-1.586-.594-1.586-1.885v-8.546c0-1.033-.546-1.472-1.222-1.472-1.014,0-1.664.749-1.664,2.5v7.513c0,1.291-.624,1.885-1.586,1.885s-1.586-.594-1.586-1.885Z" transform="translate(-583.35 -1251.418)" fill="#333"/><path d="M617.146,1253.375c0-1.291.624-1.885,1.585-1.885s1.586.594,1.586,1.885v15.49c0,1.291-.624,1.885-1.586,1.885s-1.585-.594-1.585-1.885Z" transform="translate(-583.351 -1251.386)" fill="#333"/><path d="M628.655,1251.385a1.808,1.808,0,1,1-1.82,1.808A1.8,1.8,0,0,1,628.655,1251.385Zm-1.586,6.61c0-1.291.624-1.885,1.586-1.885s1.586.594,1.586,1.885v10.869c0,1.291-.624,1.885-1.586,1.885s-1.586-.594-1.586-1.885Z" transform="translate(-583.352 -1251.385)" fill="#333"/><path d="M636.931,1258.029c0-1.291.624-1.885,1.586-1.885s1.586.594,1.586,1.807h.052a3.129,3.129,0,0,1,2.964-1.807c1.768,0,3.042,1.084,3.042,3.46v9.294c0,1.291-.624,1.885-1.586,1.885s-1.586-.594-1.586-1.885v-8.546c0-1.033-.546-1.472-1.222-1.472-1.014,0-1.664.749-1.664,2.5v7.513c0,1.291-.624,1.885-1.586,1.885s-1.586-.594-1.586-1.885Z" transform="translate(-583.353 -1251.418)" fill="#333"/><path d="M652.5,1262c0-3.563.52-5.861,4.836-5.861,3.3,0,4.421,1.833,4.421,5.5,0,1.265-.156,2.246-1.769,2.246h-4.16v1.42c0,1.678.13,2.995,1.43,2.995a1.4,1.4,0,0,0,1.222-1.446c.052-1.368.676-1.678,1.56-1.678.937,0,1.612.31,1.612,1.549,0,2.53-1.741,4.053-4.316,4.053-4.316,0-4.836-2.3-4.836-5.86Zm6.083-.336v-1.162c0-1.058-.337-1.885-1.377-1.885s-1.379.826-1.379,1.885v1.162Z" transform="translate(-583.354 -1251.418)" fill="#333"/><path d="M680.27,1251.385a1.808,1.808,0,1,1-1.821,1.808A1.8,1.8,0,0,1,680.27,1251.385Zm-1.586,6.61c0-1.291.624-1.885,1.586-1.885s1.585.594,1.585,1.885v10.869c0,1.291-.624,1.885-1.585,1.885s-1.586-.594-1.586-1.885Z" transform="translate(-583.356 -1251.385)" fill="#333"/><path d="M688.3,1261.559c0-2.866.519-5.448,3.38-5.448a3.115,3.115,0,0,1,2.808,1.626h.052v-4.363c0-1.291.624-1.885,1.586-1.885s1.586.594,1.586,1.885v15.49c0,1.291-.624,1.885-1.586,1.885a1.551,1.551,0,0,1-1.586-1.626h-.052a3,3,0,0,1-2.808,1.626c-2.861,0-3.38-2.582-3.38-5.447Zm3.328,2.917c0,2.323.156,3.666,1.326,3.666,1.248,0,1.586-1.42,1.586-3.408V1262.1c0-2.814-.806-3.382-1.561-3.382-1.065,0-1.351.852-1.351,3.924Z" transform="translate(-583.357 -1251.386)" fill="#333"/><path d="M704.143,1262c0-3.563.52-5.861,4.836-5.861,3.3,0,4.42,1.833,4.42,5.5,0,1.265-.156,2.246-1.768,2.246h-4.16v1.42c0,1.678.13,2.995,1.43,2.995a1.4,1.4,0,0,0,1.222-1.446c.052-1.368.676-1.678,1.56-1.678.936,0,1.612.31,1.612,1.549,0,2.53-1.742,4.053-4.316,4.053-4.316,0-4.836-2.3-4.836-5.86Zm6.083-.336v-1.162c0-1.058-.338-1.885-1.378-1.885s-1.378.826-1.378,1.885v1.162Z" transform="translate(-583.359 -1251.418)" fill="#333"/><path d="M719.581,1258.029c0-1.291.624-1.885,1.586-1.885s1.586.594,1.586,1.807h.053a3.127,3.127,0,0,1,2.964-1.807c1.768,0,3.042,1.084,3.042,3.46v9.294c0,1.291-.624,1.885-1.586,1.885s-1.586-.594-1.586-1.885v-8.546c0-1.033-.546-1.472-1.223-1.472-1.014,0-1.664.749-1.664,2.5v7.513c0,1.291-.624,1.885-1.586,1.885s-1.586-.594-1.586-1.885Z" transform="translate(-583.36 -1251.418)" fill="#333"/><path d="M736.229,1258.8h-.338c-.936,0-1.4-.31-1.4-1.162,0-.878.468-1.187,1.4-1.187h.338v-2.4c0-1.291.624-1.885,1.586-1.885s1.586.594,1.586,1.885v2.4h.728c.936,0,1.4.31,1.4,1.188,0,.852-.468,1.162-1.4,1.162H739.4v8.21c0,.594.13.929.858.981.728.026,1.17.284,1.17,1.11,0,1.058-.65,1.472-2,1.472-2.444,0-3.2-1.265-3.2-2.582Z" transform="translate(-583.361 -1251.391)" fill="#333"/><path d="M748.758,1251.385a1.808,1.808,0,1,1-1.82,1.808A1.8,1.8,0,0,1,748.758,1251.385Zm-1.586,6.61c0-1.291.624-1.885,1.586-1.885s1.586.594,1.586,1.885v10.869c0,1.291-.624,1.885-1.586,1.885s-1.586-.594-1.586-1.885Z" transform="translate(-583.362 -1251.385)" fill="#333"/><path d="M757.879,1258.8h-.338c-.936,0-1.4-.31-1.4-1.162,0-.878.468-1.187,1.4-1.187h.338v-1.859c0-2.375,1.118-3.1,3.484-3.1,1.04,0,1.586.413,1.586,1.394a.961.961,0,0,1-.962,1.084c-.78.026-.936.361-.936,1.188v1.291h.494c.936,0,1.4.31,1.4,1.188,0,.852-.468,1.162-1.4,1.162h-.494v10.069c0,1.291-.624,1.885-1.586,1.885s-1.586-.594-1.586-1.885Z" transform="translate(-583.363 -1251.386)" fill="#333"/><path d="M770.15,1251.385a1.808,1.808,0,1,1-1.82,1.808A1.8,1.8,0,0,1,770.15,1251.385Zm-1.586,6.61c0-1.291.624-1.885,1.586-1.885s1.586.594,1.586,1.885v10.869c0,1.291-.624,1.885-1.586,1.885s-1.586-.594-1.586-1.885Z" transform="translate(-583.364 -1251.385)" fill="#333"/><path d="M778.146,1262.185c0-3.356.416-6.041,4.653-6.041,3.64,0,4.394,2.556,4.394,3.821,0,1.239-.675,1.781-1.559,1.781-1.067,0-1.612-.491-1.612-1.781a1.19,1.19,0,0,0-1.2-1.342c-1.274,0-1.351,1.42-1.351,3.279v3.1c0,2.324.338,3.3,1.351,3.3.6,0,1.171-.31,1.2-1.42.078-1.781.6-2.272,1.612-2.272.935,0,1.559.671,1.559,1.833a4.089,4.089,0,0,1-4.394,4.337c-4.237,0-4.653-2.685-4.653-6.041Z" transform="translate(-583.365 -1251.418)" fill="#333"/><path d="M802.47,1267.452c0,.9.181,1.652.181,2.091,0,.826-.571,1.239-1.586,1.239A1.549,1.549,0,0,1,799.4,1269l-.051.026a3.017,3.017,0,0,1-2.887,1.755c-1.872,0-3.276-1.11-3.276-3.744,0-2.117.6-3.33,2.262-4.208l2.834-1.472a1.623,1.623,0,0,0,1.014-1.472,1.248,1.248,0,0,0-1.222-1.394c-1.092,0-1.429.542-1.559,1.652-.079.62-.677,1.007-1.509,1.007-.7,0-1.664-.336-1.664-1.291,0-2.427,1.976-3.718,4.421-3.718,4.237,0,4.706,1.859,4.706,4.131Zm-3.173-4.234-1.117.775c-1.4.981-1.664,1.472-1.664,2.659,0,1.059.442,1.652,1.117,1.652,1.04,0,1.664-1.136,1.664-2.608Z" transform="translate(-583.367 -1251.418)" fill="#333"/><path d="M809.8,1258.8h-.338c-.937,0-1.4-.31-1.4-1.162,0-.878.467-1.187,1.4-1.187h.338v-2.4c0-1.291.624-1.885,1.586-1.885s1.586.594,1.586,1.885v2.4h.728c.936,0,1.4.31,1.4,1.188,0,.852-.468,1.162-1.4,1.162h-.728v8.21c0,.594.13.929.858.981.728.026,1.17.284,1.17,1.11,0,1.058-.65,1.472-2,1.472-2.444,0-3.2-1.265-3.2-2.582Z" transform="translate(-583.368 -1251.391)" fill="#333"/><path d="M822.326,1251.385a1.808,1.808,0,1,1-1.82,1.808A1.8,1.8,0,0,1,822.326,1251.385ZM820.74,1258c0-1.291.624-1.885,1.586-1.885s1.586.594,1.586,1.885v10.869c0,1.291-.624,1.885-1.586,1.885s-1.586-.594-1.586-1.885Z" transform="translate(-583.369 -1251.385)" fill="#333"/><path d="M830.232,1261.566c0-2.995.988-5.422,4.785-5.422s4.784,2.427,4.784,5.422v3.8c0,2.995-.988,5.422-4.784,5.422s-4.785-2.427-4.785-5.422Zm3.329,3.537c0,2.582.416,3.2,1.456,3.2s1.456-.62,1.456-3.2v-3.33c0-2.53-.521-3.15-1.456-3.15s-1.456.62-1.456,3.15Z" transform="translate(-583.37 -1251.418)" fill="#333"/><path d="M846.142,1258.029c0-1.291.624-1.885,1.586-1.885s1.585.594,1.585,1.807h.052a3.13,3.13,0,0,1,2.965-1.807c1.768,0,3.042,1.084,3.042,3.46v9.294c0,1.291-.624,1.885-1.586,1.885s-1.586-.594-1.586-1.885v-8.546c0-1.033-.547-1.472-1.222-1.472-1.015,0-1.665.749-1.665,2.5v7.513c0,1.291-.624,1.885-1.585,1.885s-1.586-.594-1.586-1.885Z" transform="translate(-583.371 -1251.418)" fill="#333"/></g></g></svg>