<svg xmlns="http://www.w3.org/2000/svg" width="326" height="116" viewBox="0 0 326 116"><g transform="translate(-405.354 -11455.144)"><path d="M405.354,11555.518l12.3-16.829c6.75,6.461,14.55,10.819,23.249,10.819,10.35,0,17.1-4.358,17.1-12.772,0-9.617-5.1-15.326-28.5-15.326v-18.783c19.049,0,25.049-5.86,25.049-14.726,0-7.663-4.5-11.87-12.75-11.87-7.5,0-13.2,3.456-19.949,9.316l-13.5-16.379c10.349-8.715,21.449-13.823,34.648-13.823,23.1,0,38.248,10.818,38.248,30.8,0,11.119-6,19.835-18,24.643v.752c12.45,3.757,21.6,12.771,21.6,27.2,0,20.887-19.05,32.606-41.249,32.606C425.9,11571.145,413.454,11564.984,405.354,11555.518Z" transform="translate(0 -0.001)" fill="#fc088e"/><path d="M565.49,11484.295c-3.6-3.907-10.5-7.813-16.649-7.813-11.549,0-20.7,8.265-21.749,32.606,5.55-7.062,15-10.97,21.3-10.97,18.6,0,32.7,10.818,32.7,35.16,0,23.741-16.8,37.866-36.749,37.866-21,0-41.7-16.379-41.7-57.1,0-40.42,21.3-58.9,44.4-58.9a44.553,44.553,0,0,1,32.549,13.372Zm-8.849,48.983c0-12.32-6-16.377-13.35-16.377-5.55,0-11.249,2.7-15.749,10.066,2.25,18.633,9.149,24.192,16.2,24.192S556.641,11545.9,556.641,11533.278Z" transform="translate(0.033 -0.001)" fill="#fc088e"/><path d="M594.412,11555.667l12.15-16.831c6.3,6.012,14.1,10.67,22.949,10.67,10.8,0,17.549-5.861,17.549-17.431,0-11.271-6.75-17.281-16.35-17.281-6.149,0-9.149,1.2-15.749,5.41l-11.7-7.663,2.849-55.3h62.7v22.239H629.061l-1.65,18.934a28.251,28.251,0,0,1,11.549-2.254c18.9,0,34.8,11.119,34.8,35.312,0,25.094-18.9,39.67-40.349,39.67C615.561,11571.144,603.262,11564.382,594.412,11555.667Z" transform="translate(0.065)" fill="#fc088e"/><path d="M731.269,11522.886v44.1h-7.851v-3.3H702.667v3.3h-7.5v-44.1Zm-28.6,7.351v9.15h20.751v-9.15Zm20.751,26.1v-9.751H702.667v9.751Z" transform="translate(0.085 0.205)" fill="#fc088e"/></g></svg>