<svg xmlns="http://www.w3.org/2000/svg" width="338" height="95" viewBox="0 0 338 95"><g transform="translate(-469.906 -11966.857)"><g transform="translate(469.906 11966.857)"><path d="M478.377,11976.705c0,2.795,0,5.59.258,8.428.516,5.59,1.376,9.5,3.827,9.5,1.978,0,3.483-5.332,4.085-8.213l5.2,6.363c-2.967,7.525-5.676,10.191-9.417,10.191-5.031,0-9.2-4.3-10.406-15.953-.429-4.042-.472-8.9-.472-11.609a25.143,25.143,0,0,0-.388-4.6l7.912.086A39.746,39.746,0,0,0,478.377,11976.705Zm29.326,17.242-6.837,2.623c-.6-6.407-2.666-17.285-7.654-22.7l6.579-2.15C503.962,11976.619,507.359,11987.8,507.7,11993.947Z" transform="translate(-469.906 -11966.857)" fill="#333"/><path d="M518.548,11976.446c3.1-.945,11.91-3.955,18.188-3.955,8.041,0,14.362,4.6,14.362,12.9,0,9.331-8.642,16.211-24.724,16.984l-3.01-6.88c11.739-.215,20.3-3.525,20.3-10.233,0-3.74-2.452-6.536-7.224-6.536-5.891,0-15.48,4-20.554,6.278l-2.881-7.225C514.549,11977.521,517.043,11976.877,518.548,11976.446Z" transform="translate(-469.906 -11966.857)" fill="#333"/><path d="M590.56,11982.768c2.752,3.784,4,6.794,4,10.406,0,6.492-5.848,11.523-15.652,11.523-7.267,0-12.04-3.1-12.04-10.32,0-.945.086-2.321.258-3.955a50.647,50.647,0,0,1-7.7-1.333l.344-6.235a36.2,36.2,0,0,0,8.041,1.677l.6-4.772a53.1,53.1,0,0,1-8.084-1.5l.3-5.935a36.666,36.666,0,0,0,8.471,1.592q.193-1.613.258-2.838a26.635,26.635,0,0,0,.086-4.215l7.224.388c-.43,1.806-.645,3.053-.86,4.257-.086.559-.215,1.462-.387,2.623a51.051,51.051,0,0,0,7.31-.56l-.215,6.106a66.219,66.219,0,0,1-7.912.43c-.215,1.548-.43,3.182-.6,4.73h.043a81.919,81.919,0,0,0,8.342-.517l-.172,6.106a69.748,69.748,0,0,1-7.052.387H573.4c-.086.989-.129,1.849-.129,2.451,0,3.182,2.021,4.729,5.848,4.729,5.633,0,8.428-2.666,8.428-5.676,0-2.881-1.634-5.417-4.214-8Z" transform="translate(-469.963 -11966.857)" fill="#333"/><path d="M620.462,11997.989a30.6,30.6,0,0,0,4.171-.773c5.418-1.333,9.03-5.117,9.03-10.707,0-5.5-2.666-9.417-7.568-10.578a89.049,89.049,0,0,1-2.494,11.094c-2.537,8.514-6.364,14.233-11.4,14.233-5.246,0-9.288-5.72-9.288-12.986,0-10.1,8.729-18.705,20.124-18.705,10.835,0,17.715,7.482,17.715,17.157,0,8.943-5.288,15.522-16.382,17.372Zm-1.376-21.93c-6.321,1.72-9.46,7.439-9.46,11.524,0,3.7,1.29,5.633,2.752,5.633,1.72,0,3.01-2.58,4.515-7.525A62.077,62.077,0,0,0,619.086,11976.06Z" transform="translate(-469.991 -11966.857)" fill="#333"/><path d="M660.564,11969.954h7.7v25.541h12.427v6.45H660.564Z" transform="translate(-470.022 -11966.857)" fill="#333"/><path d="M688.608,11969.954h7.7v31.991h-7.7Z" transform="translate(-470.034 -11966.857)" fill="#333"/><path d="M706.448,11969.954h7.826l7.955,15.308,3.139,7.095h.215a100.855,100.855,0,0,1-1.032-11.825v-10.577h7.31v31.991h-7.826l-7.912-15.437-3.139-7.009h-.214c.343,3.568.988,7.954.988,11.824v10.621h-7.31Z" transform="translate(-470.052 -11966.857)" fill="#333"/><path d="M742.117,11969.954h20.3v6.363h-12.6v5.935h10.707v6.449H749.814v6.794h13.072v6.45H742.117Z" transform="translate(-470.099 -11966.857)" fill="#333"/><path d="M774.947,11971.674c4-.344,10.449-.86,18.231-1.548,4.257-.344,9.288-.6,12.384-.731l.043,6.622a53.381,53.381,0,0,0-8.17.517c-4.6,1.031-8.557,6.02-8.557,11.051,0,6.277,5.891,8.729,13.244,9.158l-2.408,7.181c-9.5-.73-17.63-5.891-17.63-14.963a17.361,17.361,0,0,1,5.375-12.427c-3.654.387-11.136,1.246-16.253,2.364l-.645-7.009C772.281,11971.846,774.129,11971.76,774.947,11971.674Zm28.078,13.674-3.827,1.677a34.515,34.515,0,0,0-3.268-5.891l3.741-1.548A57,57,0,0,1,803.025,11985.348Zm5.074-2.236-3.784,1.807a36.037,36.037,0,0,0-3.483-5.72l3.7-1.677C805.648,11979.069,807.239,11981.563,808.1,11983.111Z" transform="translate(-470.099 -11966.857)" fill="#333"/><path d="M485.472,12039.671a35.93,35.93,0,0,1,7.482-.9c6.708,0,12.3,3.483,12.3,9.761,0,4.988-2.279,9.073-9.589,10.922a39.891,39.891,0,0,1-5.762.731l-2.365-6.665a32.169,32.169,0,0,0,5.332-.3c3.268-.56,5.676-2.107,5.676-4.73,0-2.494-2.15-4.042-5.676-4.042a30.071,30.071,0,0,0-7.267.946c.086,3.225.172,6.191.172,7.481,0,6.021-2.15,7.482-5.2,7.482-4.6,0-10.664-3.741-10.664-8.644,0-3.826,4.258-7.825,9.632-10.146-.043-1.119-.043-2.237-.043-3.312v-2.451c-.688.043-1.29.043-1.849.043a60.446,60.446,0,0,1-6.191-.215l-.13-6.192a49.6,49.6,0,0,0,6.149.3c.645,0,1.333,0,2.021-.044v-2.708c0-.9-.172-3.354-.3-4.172h7.052c-.129.817-.344,3.011-.43,4.128l-.129,2.193a52.956,52.956,0,0,0,7.353-1.462l.129,6.407c-2.365.516-5.074.9-7.654,1.2-.043.9-.043,1.849-.043,2.752Zm-5.719,11.953c0-.816-.043-2.235-.086-4-2.106,1.2-3.4,2.58-3.4,3.827,0,.989,1.418,1.85,2.235,1.85C479.151,12053.3,479.753,12053.129,479.753,12051.624Zm18.017-24.251a103.6,103.6,0,0,1,10.879,5.891l-3.053,5.246a78.839,78.839,0,0,0-10.621-6.106Z" transform="translate(-469.906 -11967.116)" fill="#333"/><path d="M522.259,12039.369v22.661h-6.192v-39.3h17.114v16.641Zm0-11.953v1.548h5.074v-1.548Zm5.074,7.267v-1.591h-5.074v1.591Zm25.756,20.124c0,3.311-.645,5.03-2.622,6.063-2.021,1.032-4.816,1.161-8.9,1.161a22.478,22.478,0,0,0-1.978-6.105h-8.041v2.364h-5.762v-16.469h17.07v13.975h2.8c.817,0,1.118-.3,1.118-1.074v-15.308H535.546v-16.685h17.543Zm-16.081-7.912h-5.461v3.956h5.461Zm4.471-19.521v1.591h5.29v-1.591Zm5.29,7.4v-1.677h-5.29v1.677Z" transform="translate(-469.906 -11967.116)" fill="#333"/><path d="M569.783,12032.705c0,2.795,0,5.59.258,8.428.516,5.59,1.376,9.5,3.827,9.5,1.978,0,3.483-5.332,4.085-8.213l5.2,6.363c-2.967,7.525-5.676,10.191-9.417,10.191-5.03,0-9.2-4.3-10.4-15.953-.43-4.042-.473-8.9-.473-11.609a25.229,25.229,0,0,0-.387-4.6l7.912.086A39.746,39.746,0,0,0,569.783,12032.705Zm29.325,17.242-6.837,2.623c-.6-6.407-2.666-17.285-7.654-22.7l6.579-2.15C595.367,12032.619,598.764,12043.8,599.108,12049.947Z" transform="translate(-469.965 -11967.116)" fill="#333"/><path d="M627.948,12021.224a40.333,40.333,0,0,0,18.232,14.534,29.454,29.454,0,0,0-4.085,5.633,55.163,55.163,0,0,1-6.149-3.784v2.838h-21.5v-3.053a54.121,54.121,0,0,1-6.364,3.956,26.735,26.735,0,0,0-3.913-5.074c7.352-3.482,14.146-9.933,17.243-15.05Zm-16.64,22.876h28.035v18.017h-6.449v-1.5H617.457v1.5h-6.149Zm6.149,5.461v5.59h15.437v-5.59Zm15.006-14.577a43.193,43.193,0,0,1-7.525-7.653,41.781,41.781,0,0,1-7.353,7.653Z" transform="translate(-469.993 -11967.116)" fill="#333"/><path d="M666.971,12035.069a20.621,20.621,0,0,1,11.954-3.912c6.923,0,12.039,4.9,12.039,11.867,0,8.643-4.9,14.146-16.21,16.426l-3.053-6.234c7.611-1.2,12.341-4.042,12.341-10.319,0-3.354-2.709-5.677-6.192-5.677-4.3,0-7.955,1.978-11.395,5.031-.043.988-.043,1.892-.043,2.795,0,3.226,0,7.4.3,11.48.043.774.215,2.623.344,3.655h-7.052c.086-1.075.129-2.838.129-3.526.043-2.58.086-4.815.172-7.524-1.634,2.364-3.354,4.987-4.515,6.578l-4-5.676c2.408-2.967,6.407-8.127,8.944-11.781l.129-2.279c-2.193.258-5.16.645-7.439.946l-.645-6.579c1.376.043,2.451.043,4.214-.043,1.161-.086,2.709-.215,4.3-.473.086-1.333.129-2.408.129-2.838a23.21,23.21,0,0,0-.215-4.172l7.482.216c-.3,1.333-.645,3.482-.989,6.063l1.634,2.15c-.559.73-1.548,2.235-2.322,3.354Z" transform="translate(-470.023 -11967.116)" fill="#333"/><path d="M731.531,12031.716c1.161-.086,3.1-.215,4.515-.344v6.277c-.817-.043-3.4.043-4.558.086-.731.043-1.548.086-2.494.129a60.79,60.79,0,0,1-.6,8.3c-.473,2.451-1.634,3.011-3.956,3.011a66.983,66.983,0,0,1-6.837-.688l.129-5.633a30.532,30.532,0,0,0,3.741.473c.731,0,1.075-.129,1.161-.859.129-1.032.215-2.494.258-4.128-3.44.3-7.138.645-10.449.988-.043,3.612-.043,7.268,0,9.159.086,3.956.6,4.515,6.45,4.515a79.679,79.679,0,0,0,12.771-1.16l-.258,7.095a119.266,119.266,0,0,1-12,.688c-11.7,0-13.243-2.364-13.416-10.062-.043-1.806-.043-5.719-.043-9.546l-1.935.214c-1.376.173-4.471.646-5.59.818l-.645-6.536c1.119,0,3.311-.086,5.806-.3l2.364-.215v-3.4a38.886,38.886,0,0,0-.386-5.332h7.266a33.9,33.9,0,0,0-.3,4.945c0,.73,0,1.849-.043,3.139,3.311-.3,7.009-.645,10.492-.946v-4.085a40.606,40.606,0,0,0-.344-4.3h6.923c-.129.646-.258,2.753-.3,4l-.086,3.87Z" transform="translate(-470.053 -11967.116)" fill="#333"/></g></g></svg>