<svg xmlns="http://www.w3.org/2000/svg" width="287" height="49" viewBox="0 0 287 49"><g transform="translate(-745.667 -11519.086)"><path d="M782.568,11545.552a31.744,31.744,0,0,1-5.55,10.711,91.329,91.329,0,0,1,11.651,5.659l-5.95,5.962a82.366,82.366,0,0,0-11.751-6.215c-5.2,3.385-11.951,5.255-20.2,6.417a30.376,30.376,0,0,0-4.051-6.72c6.351-.5,11.651-1.465,15.851-3.183-1.45-.556-2.9-1.111-4.35-1.567l-.75,1.314-7.7-2.072c1.7-2.828,3.75-6.468,5.75-10.307h-9.85v-6.923h13.35c1.15-2.476,2.3-4.85,3.25-7.123l7.7,1.616c-.8,1.769-1.7,3.639-2.6,5.507h23.1v6.923Zm-28.7-8.843h-7.4v-12.58h17.5v-4.094h7.8v4.094h18v12.58h-7.8v-5.811h-28.1Zm10.151,8.843c-.9,1.768-1.8,3.486-2.651,5.1,2.651.808,5.5,1.768,8.451,2.829a18.931,18.931,0,0,0,4.3-7.933Z" fill="#333"/><path d="M806.127,11539.539c-.751,7.177-1.9,14.756-5.05,19.81l-6.851-3.942c2.75-4.3,4.1-10.459,4.75-17.333Zm9.8-4.8v23.447c0,2.526.25,2.829,2.4,2.829h5.5c2.15,0,2.55-1.516,2.9-8.993a21.19,21.19,0,0,0,6.751,3.133c-.75,9.449-2.651,12.531-9,12.531h-7.2c-7.05,0-8.95-2.324-8.95-9.5v-23.447Zm-2.8-14.5a68.723,68.723,0,0,1,16.551,9.046l-4.85,6.468a63.986,63.986,0,0,0-16.451-9.8Zm21.1,15.665c4.2,5.458,7.7,12.734,8.9,17.989l-7.4,3.74c-.951-5.1-4.3-12.836-8.2-18.344Z" transform="translate(-0.015)" fill="#333"/><path d="M883.969,11532.3a31.8,31.8,0,0,0,6.05-.4v8.091c-1.4-.151-3.15-.151-6-.151h-2.7v1.617c0,11.985-3.049,20.025-15.5,25.537l-6.5-6.169c10-3.337,14.051-7.737,14.051-19.166v-1.819h-10.5v6.12c0,2.476.151,4.448.25,5.713h-8.45a49.913,49.913,0,0,0,.3-5.713v-6.12h-3.6c-2.7,0-4.2.1-5.651.2v-8.293a29.378,29.378,0,0,0,5.651.556h3.6v-4.2a40.358,40.358,0,0,0-.35-5.057h8.6a39.82,39.82,0,0,0-.35,5.107v4.146h10.5v-4.753a33.4,33.4,0,0,0-.3-5.008h8.6a41.2,41.2,0,0,0-.35,5.008v4.753Z" transform="translate(-0.03)" fill="#333"/><path d="M911.007,11545.412a87.99,87.99,0,0,1-9.65,14.2l-6.551-4.5a51.4,51.4,0,0,0,9.3-12.986Zm11.651-6.872v22.941c0,3.082-1.9,5.154-5.75,5.154a69.671,69.671,0,0,1-8.7-.455l-.75-7.528a31.815,31.815,0,0,0,5.45.556c1.251,0,1.7-.405,1.751-1.719.05-1.414.05-16.271.05-18.949h-12c-1.5,0-3.7.051-5.15.2v-8.035a44.16,44.16,0,0,0,5.15.4h12v-3.386a32.566,32.566,0,0,0-.451-4.851h8.951a36.167,36.167,0,0,0-.55,4.9v3.336h12a6,6,0,1,1,1.7-.1c.95-.1,1.8-.151,2.45-.253v7.985c-1.7-.152-3.9-.2-5.351-.2Zm10.151,3.335a125.418,125.418,0,0,1,8.5,13.341l-7.1,3.941a106.1,106.1,0,0,0-8-13.644Zm2.4-14.3a2.476,2.476,0,1,0-2.45-2.476A2.467,2.467,0,0,0,935.209,11527.575Z" transform="translate(-0.045)" fill="#333"/><path d="M947.551,11538.837c2,.149,6.2.35,8.651.35h26.551c2.25,0,4.7-.25,6.151-.35v9.551c-1.3-.051-4.1-.3-6.151-.3H956.2c-2.85,0-6.6.15-8.651.3Z" transform="translate(-0.059 0.252)" fill="#333"/><path d="M1029.289,11552.48a154.811,154.811,0,0,0-17.2-7.234v13c0,1.366.3,5.362.551,7.639h-9.5a57.466,57.466,0,0,0,.6-7.639v-28.885a35.741,35.741,0,0,0-.6-6.576h9.45a61.075,61.075,0,0,0-.5,6.576v6.931a164.018,164.018,0,0,1,20.652,7.638Z" transform="translate(-0.072)" fill="#333"/></g></svg>