<svg xmlns="http://www.w3.org/2000/svg" viewBox="0 0 254.86 52.86"><defs><style>.cls-1{fill:#fc088e;}</style></defs><g id="レイヤー_2" data-name="レイヤー 2"><g id="TradeTools"><g id="tradetools_ex_catch-1"><path class="cls-1" d="M0,4.2H28.32v8.94H10.74v8.28H25.68v9H10.74V39.9H29v9H0Z"/><path class="cls-1" d="M50.43,25.92,38.85,4.2H50.79l3.6,8c1,2.1,2,4.44,3.24,7.32h.24c1-2.88,2-5.22,2.88-7.32L64,4.2H75.33L63.81,26.4l12.3,22.5H64.17L60,40.2c-1.08-2.34-2.1-4.68-3.3-7.44h-.24c-1,2.76-2,5.1-3.06,7.44l-3.84,8.7H38.19Z"/><path class="cls-1" d="M93.8,4.26h29.1a50,50,0,0,0,5.64-.3v9c-1.62-.06-3.42-.18-5.64-.18H109.64V21.6h16.92c1.26,0,4.62-.18,6.29-.3l.07,9.3a55.19,55.19,0,0,0-6.12-.18H109.64V38c0,3.42,2,4.26,6.42,4.26,5.16,0,10.68-.36,15.29-.84l-.65,9.9c-3.48.18-10.86.36-16.44.36-12.06,0-14.64-4.08-14.64-10.8V30.42H90.86c-1.8,0-5.16.18-7.08.3V21.24c1.74.12,5.1.36,7.08.36h8.76V12.78H93.8c-2.22,0-4.2.06-6.06.18V4C89.6,4.08,91.58,4.26,93.8,4.26Z"/><path class="cls-1" d="M157.13,20.52H189c2.7,0,5.64-.3,7.38-.42V31.56c-1.56-.06-4.92-.36-7.38-.36H157.13c-3.42,0-7.92.18-10.38.36V20.1C149.15,20.28,154.19,20.52,157.13,20.52Z"/><path class="cls-1" d="M215.5,9.54a41.92,41.92,0,0,0-.72-7.8h11.34a71.33,71.33,0,0,0-.6,7.8v8.22a198.37,198.37,0,0,1,24.78,9.06L246.16,37a187.12,187.12,0,0,0-20.64-8.58V43.8c0,1.62.36,6.36.66,9.06h-11.4a67.36,67.36,0,0,0,.72-9.06Zm31,3-6.18,2.7A49,49,0,0,0,235,5.94l6-2.52A91.5,91.5,0,0,1,246.46,12.54Zm8.4-3.72-6,2.94a52.67,52.67,0,0,0-5.58-9L249.22,0A75,75,0,0,1,254.86,8.82Z"/></g></g></g></svg>