<svg xmlns="http://www.w3.org/2000/svg" viewBox="0 0 415.58 43.38"><defs><style>.cls-1{fill:#333;}</style></defs><g id="レイヤー_2" data-name="レイヤー 2"><g id="TradeTools"><g id="tradetools_modes_catch-02"><path class="cls-1" d="M0,32.49H7.11V14.31H.94v-5A23.42,23.42,0,0,0,9.22,6.3h5.9V32.49h6V39H0Z"/><path class="cls-1" d="M31.56,12.24c3.24-1,12.6-4.19,19.22-4.19,8.5,0,15.16,4.86,15.16,13.64,0,9.85-9.13,17.14-26.1,18L36.65,32.4c12.42-.27,21.46-3.74,21.46-10.85,0-4-2.61-6.88-7.65-6.88-6.21,0-16.38,4.23-21.73,6.61l-3.06-7.65C27.33,13.36,29.94,12.69,31.56,12.24Z"/><path class="cls-1" d="M96.56,41.49,92.42,35a36.25,36.25,0,0,0,4.41-.81c5.71-1.4,9.54-5.4,9.54-11.34s-2.84-9.95-8-11.16a91.92,91.92,0,0,1-2.65,11.74c-2.66,9-6.71,15-12,15-5.58,0-9.81-6-9.81-13.72C73.88,14,83.11,5,95.12,5c11.47,0,18.72,7.92,18.72,18.13C113.84,32.58,108.26,39.51,96.56,41.49ZM83.87,30c1.8,0,3.15-2.75,4.77-8a66.73,66.73,0,0,0,2.3-10.12C84.28,13.68,81,19.75,81,24,81,27.94,82.3,30,83.87,30Z"/><path class="cls-1" d="M158.14,11.2c-2.29,3.78-6.57,9.41-10.62,12.33L141.9,19a24.37,24.37,0,0,0,7.42-7.42H127.09a52.65,52.65,0,0,0-5.71.36V4.45a39,39,0,0,0,5.71.5h23.36a31.17,31.17,0,0,0,5.4-.45l4.32,4C159.63,9.18,158.59,10.48,158.14,11.2ZM129.16,42l-6.34-5.17A17.57,17.57,0,0,0,128,34.06c5-3.78,6.12-7.6,6.12-14.94a25.67,25.67,0,0,0-.36-4.5h7.92C141.63,25.2,141.85,34.92,129.16,42Z"/><path class="cls-1" d="M202.81,0A5.58,5.58,0,0,1,203,11.16c-.23.67-.41,1.35-.54,1.89-1.08,4.23-2.93,11.07-6.8,16.29A36.88,36.88,0,0,1,177.3,42l-5.94-6.52c9-2,14.13-6,17.68-10.4a25.2,25.2,0,0,0,5-11.61h-19.8c-2.2,0-4.68.14-5.85.23V6c1.4.18,4.37.41,5.85.41H194a23.67,23.67,0,0,0,3.24-.23,2.13,2.13,0,0,1-.05-.58A5.61,5.61,0,0,1,202.81,0Zm0,8a2.39,2.39,0,1,0-2.38-2.38A2.4,2.4,0,0,0,202.81,8Z"/><path class="cls-1" d="M225.9,7.56v15.3c0,1.12.09,3,.18,4.18h-7.92c0-.9.22-2.83.22-4.23V7.56A33.47,33.47,0,0,0,218.2,4h7.88C226,5.13,225.9,5.94,225.9,7.56Zm20.83.9v9.81c0,9-2.11,13.54-5.53,17.14a28.07,28.07,0,0,1-11,6.48l-5.71-6c4.68-1,8.19-2.7,10.89-5.49,3-3.19,3.64-6.39,3.64-12.6V8.46a35.69,35.69,0,0,0-.31-4.86h8.23C246.82,5,246.73,6.48,246.73,8.46Z"/><path class="cls-1" d="M267.23,8.73c-.5,2.34-2.16,11.88-2.16,16.06a9.39,9.39,0,0,0,0,1c.63-1.26,1.17-2.16,1.76-3.47L270.15,25c-1.35,4.1-2.74,9.05-3.24,11.57a16.2,16.2,0,0,0-.27,2.16c0,.49,0,1.3.05,2l-6.3.41a57.48,57.48,0,0,1-1.8-14.81c0-6.88,1.3-14.4,1.75-17.73a49,49,0,0,0,.54-5.08l7.61.63A46.12,46.12,0,0,0,267.23,8.73Zm11.43,21.46c0,2,1.89,2.75,5.58,2.75a51.5,51.5,0,0,0,11.34-1.22l.13,7.38a65,65,0,0,1-11.83.86C276,40,272.09,37,272.09,32.22a26.71,26.71,0,0,1,.81-6.17l6.21.54A15.44,15.44,0,0,0,278.66,30.19ZM294.32,6.84v7a127.06,127.06,0,0,1-19.8,0l0-7A104.22,104.22,0,0,0,294.32,6.84Z"/><path class="cls-1" d="M335.18,13.27a27.27,27.27,0,0,0,11.39,8.24,31.46,31.46,0,0,0-3.38,5.71,30.14,30.14,0,0,1-5-3.1v2.47H324.38V24.25a30.13,30.13,0,0,1-5.76,3.6,25.53,25.53,0,0,0-1.57-3.15l-2.07.63V36.09c0,3.06-.45,4.77-2.12,5.8s-4,1.31-7.15,1.31a24.77,24.77,0,0,0-1.8-6.39c1.62.09,3.42.09,4,.09s.81-.23.81-.86V27.18l-4.45,1.26-1.35-6.35c1.62-.31,3.64-.81,5.8-1.3V14.71h-4.81v-6h4.81V.54H315V8.73h2.92v6H315v4.5l2.7-.72.4,2.79a30.51,30.51,0,0,0,9-8.23h-4.5V9.76H318V4.27h4.59V.5h6V4.27h5.8V.5h6.17V4.27h4.77V9.76h-4.77v3.51ZM320.6,28.8h21.56V43.11H336V41.85h-9.59v1.39H320.6Zm5.85,5.08v2.88H336V33.88ZM335,21.51a30.39,30.39,0,0,1-3.87-4.32,25.86,25.86,0,0,1-3.64,4.32ZM328.57,9.76v1.85h5.31l.49.67V9.76Z"/><path class="cls-1" d="M393,18.58a50.93,50.93,0,0,1-7.29,14.85c.76,2.21,1.62,3.47,2.52,3.47s1.21-2.21,1.44-7.25a15.83,15.83,0,0,0,5.13,3.51c-.86,8.19-2.79,10.08-7.16,10.08-2.74,0-4.81-1.71-6.39-4.63a44.22,44.22,0,0,1-6,4.77,19.37,19.37,0,0,0-3.06-3.83h-4.77v3.74h-5.67V39.55H353.3V34.92h8.42V33.61h-7.16V22.36h7.07v-1.3h-7.74v-4.5h7.74v-1.4h-9V9.85h8.86V8.14H354.7V3.24h6.79V.54h6.21v2.7h6.66v4.9H367.7V9.85h8.69c-.05-3.06-.09-6.21-.09-9.31h6.57c-.09,3.1-.14,6.25-.05,9.31h5.54A44.11,44.11,0,0,0,383.5,3.6L388.31.45a45.51,45.51,0,0,1,5.36,6.21L389,9.85h5v5.31H383c.18,3.51.5,6.84.9,9.77a42.46,42.46,0,0,0,3.29-8.1Zm-33.89,8h3.15V25.38h-3.15Zm0,4.05h3.15V29.43h-3.15Zm11-4.05V25.38h-3.15v1.17Zm0,4.05V29.43h-3.15V30.6ZM375,35.68a35.42,35.42,0,0,0,3.83-3.51,97.2,97.2,0,0,1-2.21-17h-9.13v1.4h7.69v4.5h-7.69v1.3h7.29V33.61h-7.38v1.31H375Z"/><path class="cls-1" d="M415.58,35.23a7.52,7.52,0,1,1-7.51-7.51A7.5,7.5,0,0,1,415.58,35.23Zm-3.78,0a3.74,3.74,0,0,0-7.47,0,3.74,3.74,0,1,0,7.47,0Z"/></g></g></g></svg>