<svg xmlns="http://www.w3.org/2000/svg" viewBox="0 0 285.52 43.98"><defs><style>.cls-1{fill:#333;}</style></defs><g id="レイヤー_2" data-name="レイヤー 2"><g id="TradeTools"><g id="tradetools_ex1_02"><path class="cls-1" d="M34.5,11.36a70.5,70.5,0,0,1-6.94,12.15A123.11,123.11,0,0,1,40.07,36.34l-6.39,5.57a91.42,91.42,0,0,0-11-12.6A61.61,61.61,0,0,1,5.8,41.86l-5.8-6A51.39,51.39,0,0,0,18.82,22.91a33.71,33.71,0,0,0,6.44-10.4H11c-2.07,0-4.6.28-5.89.37V5A54.57,54.57,0,0,0,11,5.34H26.31a19.8,19.8,0,0,0,5.53-.69L36.39,8A26.89,26.89,0,0,0,34.5,11.36Z"/><path class="cls-1" d="M80,.74a5.71,5.71,0,0,1,0,11.41,5.4,5.4,0,0,1-2.44-.56l2,4.74c-2,.83-4.33,1.8-5.94,2.39A180.78,180.78,0,0,1,56,24.11V31.7c0,1.79.87,2.25,2.85,2.62a38.06,38.06,0,0,0,4.88.23c4.78,0,12.42-.64,16.19-1.66V41A138.52,138.52,0,0,1,63.3,42a51.68,51.68,0,0,1-8-.56c-4.23-.78-6.76-3.26-6.76-7.4V9.11a50.29,50.29,0,0,0-.37-5.38H56.4A45.21,45.21,0,0,0,56,9.11v7.73A129,129,0,0,0,71,12a34.83,34.83,0,0,0,4.46-2.07,5.83,5.83,0,0,1-1.2-3.5A5.73,5.73,0,0,1,80,.74Zm0,8.14a2.44,2.44,0,1,0-2.44-2.44A2.46,2.46,0,0,0,80,8.88Z"/><path class="cls-1" d="M96.55,17.67H121c2.07,0,4.32-.23,5.66-.33v8.79c-1.2-.05-3.77-.28-5.66-.28H96.55c-2.62,0-6.07.14-8,.28V17.34C90.43,17.48,94.3,17.67,96.55,17.67Z"/><path class="cls-1" d="M139.78,9.25a31.9,31.9,0,0,0-.56-6h8.7a55.5,55.5,0,0,0-.46,6v6.3a150.58,150.58,0,0,1,19,7l-3.17,7.77a144.35,144.35,0,0,0-15.83-6.58V35.52c0,1.24.28,4.87.51,6.94h-8.75a50.41,50.41,0,0,0,.56-6.94Zm23.74,2.3-4.74,2.07a38,38,0,0,0-4.05-7.13l4.6-1.94A71.86,71.86,0,0,1,163.52,11.55ZM170,8.69,165.36,11a40.47,40.47,0,0,0-4.28-6.9l4.55-2.12A58.61,58.61,0,0,1,170,8.69Z"/><path class="cls-1" d="M182,22.63a36.73,36.73,0,0,0-8.7-5l3.45-5.06a36.64,36.64,0,0,1,9,4.46Zm7.08,6.26c-2.44,4.83-5.2,9.8-8,14.4l-5.66-4.51a131,131,0,0,0,8.74-14.35Zm-4-18.58a35.29,35.29,0,0,0-8.52-5.16L180.22.23A33.78,33.78,0,0,1,189,4.88Zm32.11,25.62v6.35H187.58V35.93H199V29.12h-8.15V22.77H199V16.52h-9.76V10.17h12a57,57,0,0,0-8-5L197.7,0c3.68,1.66,8.65,4.46,11.09,6.72l-2.85,3.45h10.3v6.35H206v6.25h8.51v6.35H206v6.81Z"/><path class="cls-1" d="M259,13.62a50,50,0,0,1-9.48,16.19,44.25,44.25,0,0,0,17,7.32,32.54,32.54,0,0,0-4.83,6.71,45.23,45.23,0,0,1-17.85-8.69A53.2,53.2,0,0,1,226.22,44,39,39,0,0,0,222,37.45a48,48,0,0,0,16.7-7.36,56.89,56.89,0,0,1-9.2-16.47H223V7.08h17.67v-7h6.9v7h17.9v6.54Zm-22,0a38.34,38.34,0,0,0,7.22,11.5,37.3,37.3,0,0,0,6.86-11.5Z"/><path class="cls-1" d="M285.52,35.61a7.69,7.69,0,1,1-7.68-7.68A7.67,7.67,0,0,1,285.52,35.61Zm-3.87,0a3.82,3.82,0,1,0-7.63,0,3.82,3.82,0,1,0,7.63,0Z"/></g></g></g></svg>