<svg xmlns="http://www.w3.org/2000/svg" viewBox="0 0 534 48.19"><defs><style>.cls-1{fill:#333;}</style></defs><g id="レイヤー_2" data-name="レイヤー 2"><g id="TradeTools"><g id="tradetools_st_catch-2"><path class="cls-1" d="M0,24.66A43.44,43.44,0,0,1,6.79,1.12l5,2.07A44.12,44.12,0,0,0,6.43,24.66a44,44,0,0,0,5.36,21.46l-5,2.07A43.28,43.28,0,0,1,0,24.66Z"/><path class="cls-1" d="M31.81,19.57l-4,6.12c-2.74-1.89-7.29-4.86-10.48-6.57l4-6C24.52,14.8,29.29,17.82,31.81,19.57Zm2.7,10C42.25,25.33,48.73,19,52.28,12.51L56.47,20A55.21,55.21,0,0,1,38.24,36.22a54.73,54.73,0,0,1-15.07,5.54l-4.1-7.2A49.25,49.25,0,0,0,34.51,29.61ZM38.83,9.22l-4,6c-2.7-1.8-7.29-4.72-10.44-6.48l4-6C31.45,4.45,36.26,7.47,38.83,9.22Z"/><path class="cls-1" d="M78.29,28.44a43.54,43.54,0,0,0,17.19-18l4.23,7.69c-3.6,6.39-10,12.65-17.51,17.06a48,48,0,0,1-16.1,5.94l-4.64-7.2A46.37,46.37,0,0,0,78.29,28.44Zm1.53-14.72-5.58,5.72A94.59,94.59,0,0,0,63,9.58l5.17-5.53A90,90,0,0,1,79.82,13.72Z"/><path class="cls-1" d="M141.62,0a5.58,5.58,0,0,1,.14,11.16c-.23.67-.41,1.35-.54,1.89-1.08,4.23-2.93,11.07-6.8,16.29A36.88,36.88,0,0,1,116.11,42l-5.94-6.52c9-2,14.13-6,17.68-10.4a25.2,25.2,0,0,0,5-11.61H113c-2.2,0-4.68.14-5.85.23V6c1.4.18,4.37.41,5.85.41h19.85a23.67,23.67,0,0,0,3.24-.23,2.13,2.13,0,0,1-.05-.58A5.61,5.61,0,0,1,141.62,0Zm0,8a2.39,2.39,0,1,0-2.38-2.38A2.4,2.4,0,0,0,141.62,8Z"/><path class="cls-1" d="M156.81,26.41c1.27-3.69,1.31-12,1.31-17.59a17.26,17.26,0,0,0-.5-4.64h8a35.7,35.7,0,0,0-.36,4.55c0,5.53-.13,14.94-1.3,19.48a27.1,27.1,0,0,1-8.05,13.23L149.26,37A20.58,20.58,0,0,0,156.81,26.41Zm13.82,7.79V8.37a23.29,23.29,0,0,0-.41-4.19h8.1A27.42,27.42,0,0,0,178,8.41V30.55c3.38-1.39,7.2-4.63,10-8.59l4.19,6a52.08,52.08,0,0,1-15.21,12.19,15.29,15.29,0,0,0-2.16,1.49l-4.55-3.74A16.83,16.83,0,0,0,170.63,34.2Z"/><path class="cls-1" d="M204.54,8.77A31.44,31.44,0,0,0,204,2.92h8.51a53.5,53.5,0,0,0-.45,5.85v6.17a149,149,0,0,1,18.58,6.79l-3.1,7.61a140.78,140.78,0,0,0-15.48-6.44V34.47c0,1.21.27,4.77.49,6.79H204a49.64,49.64,0,0,0,.54-6.79Z"/><path class="cls-1" d="M242.88,33.66V10a29.23,29.23,0,0,0-.59-5.67h8.55a35.9,35.9,0,0,0-.49,5.67V32.17c6.61-2,16.42-7.69,22.27-14.62l3.87,6.21c-6.34,7.42-15.75,12.69-26,16.29a11.44,11.44,0,0,0-3.1,1.44L242.2,37A6.81,6.81,0,0,0,242.88,33.66Z"/><path class="cls-1" d="M293.69,17.68h23.9c2,0,4.23-.22,5.53-.31V26c-1.17,0-3.69-.27-5.53-.27h-23.9c-2.56,0-5.94.14-7.78.27V17.37C287.71,17.5,291.49,17.68,293.69,17.68Z"/><path class="cls-1" d="M337.8,9.45a31.44,31.44,0,0,0-.54-5.85h8.51a51,51,0,0,0-.46,5.85v6.16a148.52,148.52,0,0,1,18.59,6.8L360.79,30a139.91,139.91,0,0,0-15.48-6.43V35.14c0,1.22.27,4.77.5,6.8h-8.55a49.78,49.78,0,0,0,.54-6.8ZM361,11.7l-4.64,2a36.4,36.4,0,0,0-4-7l4.5-1.89A67.57,67.57,0,0,1,361,11.7Zm6.3-2.79-4.5,2.2a39.9,39.9,0,0,0-4.19-6.75l4.46-2.07A57.42,57.42,0,0,1,367.32,8.91Z"/><path class="cls-1" d="M382.51,5.49h21.82a36.23,36.23,0,0,0,4.23-.23V12c-1.21,0-2.56-.13-4.23-.13h-9.94v6.61h12.69c.94,0,3.46-.13,4.72-.22l.05,7a41.29,41.29,0,0,0-4.59-.13H394.39v5.67c0,2.56,1.48,3.19,4.81,3.19,3.87,0,8-.27,11.48-.63l-.5,7.43c-2.61.13-8.14.27-12.33.27-9,0-11-3.06-11-8.1V25.11H380.3c-1.35,0-3.87.13-5.31.22V18.22c1.31.09,3.83.27,5.31.27h6.57V11.88h-4.36c-1.67,0-3.15,0-4.55.13V5.26C379.36,5.35,380.84,5.49,382.51,5.49Z"/><path class="cls-1" d="M430.22,17.68h23.9c2,0,4.23-.22,5.53-.31V26c-1.17,0-3.69-.27-5.53-.27h-23.9c-2.56,0-5.94.14-7.78.27V17.37C424.24,17.5,428,17.68,430.22,17.68Z"/><path class="cls-1" d="M474.33,9.45a31.44,31.44,0,0,0-.54-5.85h8.51a53.5,53.5,0,0,0-.45,5.85v6.16a148.91,148.91,0,0,1,18.58,6.8L497.32,30a139.75,139.75,0,0,0-15.47-6.43V35.14c0,1.22.27,4.77.49,6.8h-8.55a49.78,49.78,0,0,0,.54-6.8Zm23.22,2.25-4.63,2a36.94,36.94,0,0,0-4-7l4.5-1.89A69.33,69.33,0,0,1,497.55,11.7Zm6.3-2.79-4.5,2.2a40.54,40.54,0,0,0-4.18-6.75l4.45-2.07A57.42,57.42,0,0,1,503.85,8.91Z"/><path class="cls-1" d="M522.21,46.12a44,44,0,0,0,5.36-21.46,44.12,44.12,0,0,0-5.36-21.47l5-2.07A43.44,43.44,0,0,1,534,24.66a43.28,43.28,0,0,1-6.79,23.53Z"/></g></g></g></svg>