<svg xmlns="http://www.w3.org/2000/svg" viewBox="0 0 256.58 52.86"><defs><style>.cls-1{fill:#fc088e;}</style></defs><g id="レイヤー_2" data-name="レイヤー 2"><g id="TradeTools"><g id="tradetools_st_catch-1"><path class="cls-1" d="M0,43.32l6.12-7.38c3.12,2.7,7.26,4.56,10.8,4.56,4,0,5.82-1.5,5.82-3.9,0-2.58-2.46-3.42-6.3-5l-5.7-2.4C6.06,27.3,1.68,23.4,1.68,16.92c0-7.5,6.72-13.5,16.2-13.5A20.77,20.77,0,0,1,32.4,9.3L27.06,16a14.52,14.52,0,0,0-9.18-3.42c-3.3,0-5.28,1.32-5.28,3.66,0,2.52,2.76,3.48,6.72,5l5.58,2.22c5.52,2.22,8.82,5.94,8.82,12.24,0,7.44-6.24,14-17,14A25,25,0,0,1,0,43.32Z"/><path class="cls-1" d="M54.08,13.14H42V4.2H76.94v8.94H64.82V48.9H54.08Z"/><path class="cls-1" d="M95.52,4.26h29.1a50,50,0,0,0,5.64-.3v9c-1.62-.06-3.42-.18-5.64-.18H111.36V21.6h16.92c1.26,0,4.62-.18,6.3-.3l.06,9.3a55.19,55.19,0,0,0-6.12-.18H111.36V38c0,3.42,2,4.26,6.42,4.26,5.16,0,10.68-.36,15.3-.84l-.66,9.9c-3.48.18-10.86.36-16.44.36-12.06,0-14.64-4.08-14.64-10.8V30.42H92.58c-1.8,0-5.16.18-7.08.3V21.24c1.74.12,5.1.36,7.08.36h8.76V12.78H95.52c-2.22,0-4.2.06-6.06.18V4C91.32,4.08,93.3,4.26,95.52,4.26Z"/><path class="cls-1" d="M158.85,20.52h31.86c2.7,0,5.64-.3,7.38-.42V31.56c-1.56-.06-4.92-.36-7.38-.36H158.85c-3.42,0-7.92.18-10.38.36V20.1C150.87,20.28,155.91,20.52,158.85,20.52Z"/><path class="cls-1" d="M217.22,9.54a41.92,41.92,0,0,0-.72-7.8h11.34a71.33,71.33,0,0,0-.6,7.8v8.22A198.37,198.37,0,0,1,252,26.82L247.88,37a187.12,187.12,0,0,0-20.64-8.58V43.8c0,1.62.36,6.36.66,9.06H216.5a67.36,67.36,0,0,0,.72-9.06Zm31,3L242,15.24a49,49,0,0,0-5.28-9.3l6-2.52A91.5,91.5,0,0,1,248.18,12.54Zm8.4-3.72-6,2.94a52.67,52.67,0,0,0-5.58-9L250.94,0A75,75,0,0,1,256.58,8.82Z"/></g></g></g></svg>