<svg xmlns="http://www.w3.org/2000/svg" viewBox="0 0 516.55 44.76"><defs><style>.cls-1{fill:#333;}</style></defs><g id="レイヤー_2" data-name="レイヤー 2"><g id="TradeTools"><g id="tradetools_ex2_02"><path class="cls-1" d="M34.37,6.81V44.62H27.24V42.46H6.76v2.16H0V6.81H11.87c.41-1.93.78-4.1,1-5.84L21,1.79c-.64,1.75-1.38,3.5-2,5ZM6.76,13.2v3.55H27.24V13.2Zm0,9.71V26.5H27.24V22.91ZM27.24,36.3V32.66H6.76V36.3Z"/><path class="cls-1" d="M82,9.66v35.1H75V42.51H51.07v2.25H44.36V9.66h15V1.06h6.9v8.6Zm-31,6.76v6.44h8.29V16.42Zm0,19.46h8.29V29.4H51.07ZM66.26,16.42v6.44H75V16.42ZM75,35.88V29.4H66.26v6.48Z"/><path class="cls-1" d="M99.86,9.43c-.51,2.39-2.21,12.15-2.21,16.42a7.81,7.81,0,0,0,0,1.06c.64-1.29,1.19-2.21,1.79-3.54L102.85,26a120.93,120.93,0,0,0-3.31,11.82,15.81,15.81,0,0,0-.28,2.21c0,.51,0,1.33,0,2.07l-6.45.41A58.61,58.61,0,0,1,91,27.42c0-7,1.34-14.72,1.8-18.13a51.06,51.06,0,0,0,.55-5.2l7.78.65A46.22,46.22,0,0,0,99.86,9.43Zm11.68,22c0,2,1.94,2.8,5.71,2.8a53.16,53.16,0,0,0,11.59-1.24l.14,7.54a65.77,65.77,0,0,1-12.1.88c-8,0-12-3-12-7.91a27.47,27.47,0,0,1,.82-6.31l6.35.55A16.28,16.28,0,0,0,111.54,31.38Zm16-23.88v7.18a130.24,130.24,0,0,1-20.24,0l0-7.14A106.37,106.37,0,0,0,127.55,7.5Z"/><path class="cls-1" d="M157.8,7.36c-.05,1.29-.1,2.58-.19,3.77H165a22.75,22.75,0,0,0,3.82-.36l4.74,2.3a20.52,20.52,0,0,0-.32,2.53c-.19,5.29-.78,17.85-2.72,22.68-1,2.53-2.94,3.95-6.44,3.95-2.85,0-5.61-.23-7.77-.41l-.88-7.45a36.53,36.53,0,0,0,6.26.69,2.27,2.27,0,0,0,2.53-1.71c1.1-2.53,1.75-10.53,1.75-15.55h-9c-1.66,11.64-5.85,19-14.36,25.08l-6.48-5.25a29.07,29.07,0,0,0,6.81-5.1c4-4.14,5.93-8.93,6.76-14.73h-5.2c-1.43,0-4.37.05-6.49.23V10.77c2.12.23,4.74.36,6.49.36h5.75c.05-1.15.05-2.39.05-3.63A38.85,38.85,0,0,0,149.93,3h8.19C158,4.14,157.84,6.26,157.8,7.36Z"/><path class="cls-1" d="M214.52,12.28a70.5,70.5,0,0,1-6.94,12.15,123.11,123.11,0,0,1,12.51,12.83l-6.39,5.57a91.42,91.42,0,0,0-11-12.6,61.61,61.61,0,0,1-16.88,12.55l-5.8-6a51.39,51.39,0,0,0,18.82-12.93,33.71,33.71,0,0,0,6.44-10.4H191c-2.07,0-4.6.28-5.89.37V5.89a54.73,54.73,0,0,0,5.89.37h15.37a19.77,19.77,0,0,0,5.52-.69l4.55,3.35A26.89,26.89,0,0,0,214.52,12.28Z"/><path class="cls-1" d="M246.09,8.14h7.64a17.17,17.17,0,0,0,4.55-.6L263.9,11a24.15,24.15,0,0,0-1.8,3.77,53.42,53.42,0,0,1-6.58,12.61c2,1.43,3.78,2.76,5.06,3.77l-5.33,6.35c-1.2-1.1-2.85-2.53-4.74-4a43.1,43.1,0,0,1-15.83,10.44l-6.48-5.61c7.91-2.48,12.74-5.93,16.28-9.43-2.76-2-5.47-3.91-7.54-5.24l5-5.11c2.11,1.24,4.78,2.9,7.45,4.65a31.17,31.17,0,0,0,4.37-8.74H241.91a57.57,57.57,0,0,1-12.1,11.77l-6-4.64A43.58,43.58,0,0,0,238.36,6.72a23.62,23.62,0,0,0,2.44-5.48l8,2.49C247.84,5.15,246.78,7,246.09,8.14Z"/><path class="cls-1" d="M310.27,13.66a79.53,79.53,0,0,1-15.09,17.62c2.48,2.49,5,5.25,6.76,7.36l-6.58,5.25a119,119,0,0,0-9-10.26,97.16,97.16,0,0,0-9.89-8.7l5.88-4.78c1.94,1.47,4.6,3.59,7.32,6A47.18,47.18,0,0,0,299.83,14.4H277.05a54.85,54.85,0,0,0-5.65.41V7a40.86,40.86,0,0,0,5.65.51h24.43a18,18,0,0,0,5.06-.6l5.52,4.56A25.77,25.77,0,0,0,310.27,13.66Z"/><path class="cls-1" d="M334,13.66A61.94,61.94,0,0,0,347.19,2.35l6,5.75a89.19,89.19,0,0,1-12.29,9.84V36.07a34.19,34.19,0,0,0,.46,6.67h-8.83a63,63,0,0,0,.37-6.67V22.59a92.36,92.36,0,0,1-15.55,6.21l-3.45-7A73,73,0,0,0,334,13.66Z"/><path class="cls-1" d="M394.7,7.91,392.12,9l1.66,1.19a25.68,25.68,0,0,0-1.89,3.36,71.28,71.28,0,0,1-6.95,12.15,121.33,121.33,0,0,1,12.52,12.83l-6.4,5.57a91.29,91.29,0,0,0-11-12.61,61.54,61.54,0,0,1-16.89,12.56l-5.79-6A51.39,51.39,0,0,0,376.2,25.12a33.63,33.63,0,0,0,6.44-10.4h-14.3c-2.07,0-4.6.28-5.89.37V7.18a54.44,54.44,0,0,0,5.89.36H383.7A20.62,20.62,0,0,0,388.85,7a41.41,41.41,0,0,0-2.07-3.59l4.33-1.75A61.43,61.43,0,0,1,394.7,7.91Zm6.16-1.65L396.54,8.1a57.19,57.19,0,0,0-3.64-6.35L397.23,0A66,66,0,0,1,400.86,6.26Z"/><path class="cls-1" d="M448,10.77h-5.15V36.62c0,3.77-.88,5.7-3.32,6.76s-6,1.29-10.81,1.29a27.65,27.65,0,0,0-2.8-7.08c3.08.23,7.26.18,8.37.18s1.52-.32,1.52-1.29V10.77H406V4H448ZM416.44,33.31v3.45H410V15H430V33.31Zm0-12V27h6.95V21.35Z"/><path class="cls-1" d="M471.15,17.39a21.62,21.62,0,0,0-.64-2.3l-16.7,1.15-.51-6.3c1.11,0,2.3-.1,3.59-.14A58.75,58.75,0,0,0,459.83.69l7,1.43c-1,2.53-2,5.1-3.08,7.4l4.32-.18c-.55-1.11-1.1-2.21-1.7-3.22L472.07,4a46.15,46.15,0,0,1,5.2,10.81V1.24h6.67V7.08a56.78,56.78,0,0,0,6.95-3.49l4.18,4.83a74.83,74.83,0,0,1-11.13,4.19v1.65c0,1.7.23,1.89,1.75,1.89h3.77c1.34,0,1.61-.65,1.8-4.42a17.71,17.71,0,0,0,5.89,2.44c-.69,6.16-2.44,7.91-7,7.91h-5.43c-5.75,0-7.27-1.75-7.41-7.08Zm2.9,20.84c0,2.71-.51,4.32-2.25,5.29s-3.91,1.1-6.63,1.1a24.58,24.58,0,0,0-2.11-5.88,32.59,32.59,0,0,0,3.63,0c.55,0,.74-.14.74-.69V36.3h-5.25v8.37H456V17.76h18Zm-11.87-15v1.56h5.25V23.19Zm5.25,8.23V29.63h-5.25v1.79Zm22.22,7.22c1.42,0,1.7-.82,1.93-5.24a19.13,19.13,0,0,0,5.84,2.44c-.69,6.67-2.39,8.6-7.13,8.6h-5.61c-5.94,0-7.41-1.89-7.41-7.68V22.82h6.63v5.47a48.84,48.84,0,0,0,7.22-3.91l4.37,4.88A78.8,78.8,0,0,1,483.9,34v2.71c0,1.75.27,1.93,1.84,1.93Z"/><path class="cls-1" d="M516.55,36.53a7.68,7.68,0,1,1-7.68-7.68A7.66,7.66,0,0,1,516.55,36.53Zm-3.86,0a3.82,3.82,0,0,0-7.64,0,3.82,3.82,0,0,0,7.64,0Z"/></g></g></g></svg>