<svg xmlns="http://www.w3.org/2000/svg" viewBox="0 0 489.41 43.98"><defs><style>.cls-1{fill:#333;}</style></defs><g id="レイヤー_2" data-name="レイヤー 2"><g id="TradeTools"><g id="tradetools_st2_02"><path class="cls-1" d="M13.8,17.67c1.66,1.79,5.38,6.53,6.26,7.68l-3.73,5.38c-.6-1.33-1.52-3.13-2.53-4.88V43.8H7.41v-16a36.1,36.1,0,0,1-4.33,8.42A37.55,37.55,0,0,0,0,29.9c2.85-3.49,5.24-9.15,6.58-14.21H1.24V9.39H7.41V.09H13.8v9.3h5.29v6.3H13.8ZM42.69,2.44V43H36V40.76H26.91v2.62H20.52V2.44ZM26.91,8.74V13.3H36V8.74Zm0,10.58V24H36V19.32ZM36,34.73V30H26.91v4.69Z"/><path class="cls-1" d="M74.42,24a15.67,15.67,0,0,1-.92,1.61H91.72s0,1.48-.14,2.21C91,36.53,90.25,40.3,89,41.73a5,5,0,0,1-3.32,1.75,28.21,28.21,0,0,1-4.74.18,13.21,13.21,0,0,0-1.1-4.46A23.72,23.72,0,0,1,75.39,44a21.32,21.32,0,0,0-4.74-3.68,24.36,24.36,0,0,0,8.23-9.48H77.27A35.78,35.78,0,0,1,66.69,41.91,18.75,18.75,0,0,0,62.32,38a27.8,27.8,0,0,0,8.74-7.18H69.45a27.78,27.78,0,0,1-4.87,4,39.47,39.47,0,0,0-3.41-3.22C57.58,33.49,54,35.29,50.82,36.8L48.38,30c1.47-.5,3.32-1.19,5.34-2V15.92H49.49V9.62h4.23V.78h6.21V9.62h3.86v6.3H59.93v9.61L63,24.24l1,4A22,22,0,0,0,67.84,24H63.33V18.45H92.55V24Zm15-6.85H67.11v-16H89.42ZM83.25,5.66H73V7H83.25Zm0,5.61H73v1.38H83.25ZM84.5,30.82a38.89,38.89,0,0,1-4.19,7.73c.92.05,1.66.05,2.12.05a1.45,1.45,0,0,0,1.33-.55c.55-.6,1.06-2.63,1.47-7.23Z"/><path class="cls-1" d="M129.13,19.09c2.35,7.87,6.35,15,12.28,18.91a24.9,24.9,0,0,0-4.83,5.61c-4.64-3.63-8-8.88-10.44-15.18a33.33,33.33,0,0,1-9.89,15.37,27.2,27.2,0,0,0-4.19-3.5v3.41h-6.62V29.86c-1.75,1.52-3.5,3-5.15,4.32L97,28.39c2.17-1.43,5.29-3.82,8.47-6.35V15.73L101.53,18A56.18,56.18,0,0,0,97,8.83l5.29-3c1,1.57,2.17,3.45,3.18,5.25V0h6.62V38.41a30.88,30.88,0,0,0,9.25-19.32H113V12.47h8.7V.18h6.62V12.47h11.64v6.62Zm5-7.31a50.72,50.72,0,0,0-4.56-8.24l5.06-2.8a51.57,51.57,0,0,1,4.92,7.82Z"/><path class="cls-1" d="M153.78,22.59a36.48,36.48,0,0,0-8.6-5.06l3.5-5a37.32,37.32,0,0,1,8.88,4.56Zm7.32,5.57c-2.67,5.15-5.61,10.39-8.56,15.09l-5.7-4.1a138.29,138.29,0,0,0,9.34-15ZM156.22,10a32.21,32.21,0,0,0-8.14-4.92L151.71.18a32.55,32.55,0,0,1,8.42,4.42ZM182.54,37.4c.69,0,.83-1,1-6.3a18.75,18.75,0,0,0,5.85,2.62c-.56,7.45-2.12,9.66-6.12,9.66h-3c-5,0-6.07-2-6.07-7.73V22.31h-2.49c-.27,10.4-1.42,17.48-10.62,21.58a18,18,0,0,0-3.91-5.43c7.4-3,7.77-8,8-16.15h-3.31V2.07h24.75V22.31h-5.71V35.56c0,1.66,0,1.84.65,1.84ZM168.28,16.15h11.36V8.23H168.28Z"/><path class="cls-1" d="M211.84,6.39a106.06,106.06,0,0,0,12.37-1.28l0,6.44c-4.28.55-9.94,1-14.82,1.15A35.42,35.42,0,0,1,207.56,16a22.86,22.86,0,0,1,4.55-.46,6.65,6.65,0,0,1,6.12,3.22c1.84-.87,3.36-1.47,5-2.2,2-.88,3.91-1.75,5.89-2.72l2.71,6.44c-1.61.46-4.51,1.52-6.25,2.21s-4,1.56-6.44,2.62c0,2.53.13,5.62.18,7.69h-6.62c.09-1.2.18-2.9.23-4.65-2.9,1.7-4.15,3.22-4.15,5.06s1.43,2.71,5.76,2.71a69.58,69.58,0,0,0,13.38-1.42l-.23,7.17a110.93,110.93,0,0,1-13.29.83c-7.55,0-13-2-13-8.09s5.48-9.85,10.59-12.52a3.42,3.42,0,0,0-2.54-1A10.85,10.85,0,0,0,202.68,24a51.6,51.6,0,0,0-4.28,5.2l-5.93-4.46a43.69,43.69,0,0,0,9.84-11.87c-1.88,0-5.24-.1-7.68-.33V6.07a60.29,60.29,0,0,0,8.28.55h1.8a29.12,29.12,0,0,0,.78-5l7.36.6C212.67,3.22,212.34,4.65,211.84,6.39Z"/><path class="cls-1" d="M282,17.85v7.32H239.09V17.85Z"/><path class="cls-1" d="M324.55,2.39V43.15h-7.13V40.44H297.64v2.71h-6.76V2.39ZM297.64,8.92v4h19.78v-4Zm0,10.31v4.23h19.78V19.23Zm19.78,14.68V29.77H297.64v4.14Z"/><path class="cls-1" d="M337.5,7c4.33-.37,11.27-.92,19.69-1.66,4.6-.37,10-.69,13.39-.83l.05,7.18a59.36,59.36,0,0,0-8.84.55c-5,1.11-9.24,6.49-9.24,12,0,6.77,6.35,9.43,14.3,9.89l-2.62,7.73c-10.26-.78-19-6.35-19-16.15A18.76,18.76,0,0,1,351,12.19c-4,.42-12,1.34-17.58,2.58l-.69-7.59C334.6,7.13,336.63,7,337.5,7Zm30.18,14.72-4.09,1.79a37,37,0,0,0-3.5-6.3l4-1.66A62.58,62.58,0,0,1,367.68,21.67Zm5.43-2.39-4.05,1.93a38.93,38.93,0,0,0-3.72-6.12l4-1.79A69.57,69.57,0,0,1,373.11,19.28Z"/><path class="cls-1" d="M393.92,25.62,389,26.87v10c0,2.94-.46,4.55-2.07,5.56s-3.82,1.25-6.81,1.25a24.25,24.25,0,0,0-1.75-6.12,27.12,27.12,0,0,0,3.31,0c.55,0,.74-.18.74-.73V28.48l-3.87,1L377,23.05c1.57-.28,3.41-.69,5.39-1.11V14.58h-4.6V8.42h4.6V.09H389V8.42H393v6.16H389v5.85l4.14-1Zm17.89,10.82c2.44,0,2.95-1.11,3.36-6.08A22.46,22.46,0,0,0,421.66,33c-.87,7.22-3,9.93-9.11,9.93h-9c-6.95,0-9.11-2-9.11-9.8v-31h25.21V28.75H412.6V26H401.46v7.22c0,2.94.28,3.27,3,3.27ZM401.46,8.69V19.6h2.44V8.69Zm11.14,0h-2.53V19.6h2.53Z"/><path class="cls-1" d="M441.06,25.4c-1.33.41-2.66.78-4,1.14v10.4c0,2.9-.46,4.6-2,5.61s-3.68,1.29-6.72,1.29a23.42,23.42,0,0,0-1.65-6.21,34.37,34.37,0,0,0,3.54,0c.55,0,.74-.14.74-.74V28.2l-3.73,1-1.38-6.39c1.47-.28,3.22-.69,5.11-1.11V14.63h-4.33V8.51h4.33V.14H437V8.51h3.68v6.12H437v5.61l3.22-.83Zm28.85,12.23v5H445.43v-5h9.11V35.88h-7.22V31.15h7.22V29.31l-6.76.36-.28-2.9c-.69,5.85-2.16,12-5.1,16.38a23.22,23.22,0,0,0-4.92-3.82c4.37-6.57,4.69-16.42,4.69-23.5V1.52h26.54V14.35H448.1v1.94h21.07v5.15H464.3a38.94,38.94,0,0,1,5.47,6.44l-4.28,2.25c-.23-.41-.55-.87-.87-1.38l-4.19.23v2.17h7.41v4.73h-7.41v1.75Zm-19.42-13a34.68,34.68,0,0,0,1.39-3.22H448c0,1.06-.13,2.16-.23,3.31ZM448.1,6.85V9.06h14.26V6.85ZM461,24.34c-.46-.46-.92-1-1.33-1.38l3-1.52H458c-.65,1.06-1.24,2.11-1.84,3.08Z"/><path class="cls-1" d="M489.41,35.61a7.69,7.69,0,1,1-7.68-7.68A7.66,7.66,0,0,1,489.41,35.61Zm-3.87,0a3.82,3.82,0,1,0-7.63,0,3.82,3.82,0,1,0,7.63,0Z"/></g></g></g></svg>