<svg xmlns="http://www.w3.org/2000/svg" viewBox="0 0 428.42 44.35"><defs><style>.cls-1{fill:#333;}</style></defs><g id="レイヤー_2" data-name="レイヤー 2"><g id="TradeTools"><g id="tradetools_st1_02"><path class="cls-1" d="M34.5,11.78a70.82,70.82,0,0,1-6.94,12.14A123.1,123.1,0,0,1,40.07,36.76l-6.39,5.56a92,92,0,0,0-11-12.6A61.85,61.85,0,0,1,5.8,42.28l-5.8-6A51.27,51.27,0,0,0,18.82,23.32a33.79,33.79,0,0,0,6.44-10.39H11c-2.07,0-4.6.27-5.89.37V5.38A54.57,54.57,0,0,0,11,5.75H26.31a19.43,19.43,0,0,0,5.53-.69l4.55,3.36A26.89,26.89,0,0,0,34.5,11.78Z"/><path class="cls-1" d="M82.17,12.56c-.82,4.46-1.93,11.22-5.65,17C72.65,35.65,66.39,40.21,59,42.88l-6.25-6.4C58.62,35.1,66,31.42,69.57,25.76a31.45,31.45,0,0,0,4.09-12.92H53.47v6.8a41.52,41.52,0,0,0,.18,4.24H45.42c.13-1.57.27-2.81.27-4.24V10c0-1.33-.09-2.94-.23-4.28,1.57.1,3.82.19,6,.19H72.56a29.34,29.34,0,0,0,5.2-.37l5.38,3.41A30.72,30.72,0,0,0,82.17,12.56Z"/><path class="cls-1" d="M108.5,13.16A61.68,61.68,0,0,0,121.66,1.84l6,5.75a88.64,88.64,0,0,1-12.29,9.85V35.56a35,35,0,0,0,.46,6.67H107a63,63,0,0,0,.37-6.67V22.08a90.71,90.71,0,0,1-15.55,6.21l-3.45-7A72.65,72.65,0,0,0,108.5,13.16Z"/><path class="cls-1" d="M170.83,0A5.71,5.71,0,0,1,171,11.41c-.23.69-.41,1.38-.55,1.93-1.1,4.33-3,11.32-6.95,16.66a37.71,37.71,0,0,1-18.72,12.92l-6.07-6.67c9.24-2.07,14.44-6.12,18.08-10.63a25.86,25.86,0,0,0,5.06-11.86H141.57c-2.25,0-4.78.13-6,.23V6.12c1.43.18,4.47.41,6,.41h20.29a23.17,23.17,0,0,0,3.32-.23,2.24,2.24,0,0,1-.05-.6A5.74,5.74,0,0,1,170.83,0Zm0,8.14A2.44,2.44,0,1,0,168.4,5.7,2.45,2.45,0,0,0,170.83,8.14Z"/><path class="cls-1" d="M186.88,7.36c4.32-.37,11.27-.92,19.69-1.66,4.6-.36,10-.69,13.38-.82l.05,7.17a58,58,0,0,0-8.83.56c-5,1.1-9.25,6.48-9.25,12,0,6.76,6.35,9.43,14.31,9.89l-2.63,7.73c-10.25-.79-19-6.35-19-16.15a18.78,18.78,0,0,1,5.84-13.43,175.74,175.74,0,0,0-17.57,2.57l-.69-7.59C184,7.54,186,7.45,186.88,7.36Zm30.17,14.72L213,23.88a36.45,36.45,0,0,0-3.5-6.31l4-1.65A59.34,59.34,0,0,1,217.05,22.08Zm5.43-2.39-4,1.93a38.94,38.94,0,0,0-3.73-6.12l4-1.79C219.86,15.37,221.56,18,222.48,19.69Z"/><path class="cls-1" d="M269.24,7c-.83,10.21-2.85,18.26-6.17,24.57a24.84,24.84,0,0,0,7.73,6.9A25,25,0,0,0,266.2,44,30.1,30.1,0,0,1,259,37.68a31.59,31.59,0,0,1-7.45,6.44,28.31,28.31,0,0,0-3.45-4.6v4.74h-6.45V37.45c-5.06.87-10.25,1.65-14.4,2.34L226,33.12c1.24-.13,2.63-.27,4.1-.46V9.11h-3V2.94h23.65V6.16h12.93L264.87,6Zm-32.8,2.07v3.4h5.19V9.11Zm0,13h5.19V18.45h-5.19Zm5.19,9.11V28h-5.19v3.86Zm6.45,7A24.12,24.12,0,0,0,255,31.61,67.2,67.2,0,0,1,249.09,14l6.39-1.24a56.18,56.18,0,0,0,3.41,11.55A56.7,56.7,0,0,0,262,12.7H249.41V9.11h-1.33Z"/><path class="cls-1" d="M296.37,22.59s-.05,1.84-.19,2.71c-.69,9.8-1.52,14.36-3.22,16.24a6.93,6.93,0,0,1-5.06,2.35,55.55,55.55,0,0,1-7.22.18,15.65,15.65,0,0,0-2.49-7c2.63.23,5.53.28,6.81.28a3.25,3.25,0,0,0,2.12-.55c.83-.69,1.43-3.18,1.89-8h-7.78l-.41,2.07-6.72-1.05a164.36,164.36,0,0,0,2.81-17.3h12.42V8.42H276V2.21h19.88V18.68h-13c-.23,1.33-.42,2.62-.6,3.91ZM311.78,1.33V44.21H305V1.33Z"/><path class="cls-1" d="M355.14,37.59c1.33,0,1.61-.74,1.79-5.29a21.21,21.21,0,0,0,6,2.53c-.69,6.9-2.39,8.78-7.13,8.78h-5.24c-6,0-7.41-1.93-7.41-7.68v-8H338.3c-.87,7.73-3.27,13.34-15.37,16.47a19.18,19.18,0,0,0-3.86-6c9.94-2,11.32-5.47,11.91-10.44H320.54V21.62H362v6.26h-12.1v8c0,1.56.23,1.75,1.71,1.75ZM328,16.33h-6.81V4.69h16.29V.55h7.17V4.69h16.52V16.33H354V11H328Zm1.43,3.08v-6H352.7v6Z"/><path class="cls-1" d="M406.39,7C402.25,12.1,396.5,18.08,391,21.81v14.9c0,3.59-.87,5.38-3.45,6.4s-6,1.1-10.25,1.1a28.13,28.13,0,0,0-2.72-6.85c2.95.18,6.86.18,7.91.18s1.38-.23,1.38-1V16.29h3.55a48.83,48.83,0,0,0,6.53-6.17H368.71V3.5h30.82l1.57-.42Z"/><path class="cls-1" d="M428.42,36a7.69,7.69,0,1,1-7.69-7.68A7.68,7.68,0,0,1,428.42,36Zm-3.87,0a3.82,3.82,0,1,0-3.82,3.82A3.81,3.81,0,0,0,424.55,36Z"/></g></g></g></svg>