<svg xmlns="http://www.w3.org/2000/svg" viewBox="0 0 451.22 47.74"><defs><style>.cls-1{fill:#333;}</style></defs><g id="レイヤー_2" data-name="レイヤー 2"><g id="TradeTools"><g id="tradetools_ex_catch-2"><path class="cls-1" d="M0,24.21A43.38,43.38,0,0,1,6.79.68l5,2.07A44.05,44.05,0,0,0,6.43,24.21a44,44,0,0,0,5.36,21.46l-5,2.07A43.28,43.28,0,0,1,0,24.21Z"/><path class="cls-1" d="M25.88,6.66H50.27a36.92,36.92,0,0,0,4.41-.32v7.47c-1.44-.13-3.1-.22-4.41-.22H41.45V30.64H52.7a29.2,29.2,0,0,0,4.46-.4v7.87a38.88,38.88,0,0,0-4.46-.22H23.05a42.58,42.58,0,0,0-4.68.22V30.24a27.73,27.73,0,0,0,4.68.4H33.8v-17H25.88c-1.39,0-3.37.09-4.54.22V6.34A35.4,35.4,0,0,0,25.88,6.66Z"/><path class="cls-1" d="M76.38,2.61l7.7-1.21c.13.89.27,2.56.49,3.68.09.68.36,2,.68,3.78,3.46-.53,6.52-1.07,8-1.35S96.72,6.79,98,6.44l1.31,7.1c-1.17.09-3.24.41-4.68.59l-8.15,1.3c.36,2,.77,4.05,1.17,6.17,3.74-.63,7.11-1.22,9-1.58s3.65-.81,5-1.17L103,26c-1.35.09-3.42.45-5.13.72l-9,1.44c.63,3.28,1.17,6.07,1.49,7.6.31,1.35.76,3,1.17,4.59l-7.83,1.35c-.23-1.75-.32-3.37-.59-4.72s-.76-4.23-1.39-7.65c-4.28.72-8.15,1.39-10,1.75-2,.36-3.74.68-4.77.95l-1.53-7.2c1.26-.05,3.51-.32,5-.54,2-.32,5.8-.9,10-1.58-.4-2.07-.81-4.18-1.17-6.16-3.73.58-7,1.12-8.19,1.35-1.53.31-2.74.58-4.41,1l-1.44-7.42c1.58-.09,3-.18,4.41-.36s4.68-.63,8.37-1.22c-.31-1.66-.58-3-.72-3.73C77.06,4.86,76.74,3.74,76.38,2.61Z"/><path class="cls-1" d="M141.45,11.07A69.69,69.69,0,0,1,134.66,23,120.91,120.91,0,0,1,146.9,35.5L140.64,41a88.72,88.72,0,0,0-10.75-12.33A60.3,60.3,0,0,1,113.37,40.9L107.7,35a50.25,50.25,0,0,0,18.41-12.65,33.19,33.19,0,0,0,6.3-10.17h-14c-2,0-4.5.27-5.76.36V4.81a52.31,52.31,0,0,0,5.76.36h15a19,19,0,0,0,5.4-.67l4.46,3.29A24.41,24.41,0,0,0,141.45,11.07Z"/><path class="cls-1" d="M165.36,6.93l8,1.66c-.41,1.44-1,4.14-1.22,5.18A107.74,107.74,0,0,1,168.42,27a61.56,61.56,0,0,1-6.61,13.14l-7.7-3.24a55.1,55.1,0,0,0,7.07-12.65A65.25,65.25,0,0,0,165.36,6.93Zm11.52,1.71,7.29-2.34c1.93,3.6,5.13,10.93,6.7,15,1.49,3.87,3.87,11.2,5.13,15.88l-8.14,2.66a140.44,140.44,0,0,0-4.46-16.11A123.63,123.63,0,0,0,176.88,8.64ZM192.09,0a5.61,5.61,0,0,1,5.58,5.58,5.58,5.58,0,1,1-11.16,0A5.61,5.61,0,0,1,192.09,0Zm0,8a2.38,2.38,0,1,0-2.39-2.38A2.4,2.4,0,0,0,192.09,8Z"/><path class="cls-1" d="M211.15,17.23h23.9c2,0,4.23-.22,5.53-.31v8.59c-1.17,0-3.69-.27-5.53-.27h-23.9c-2.56,0-5.94.14-7.78.27V16.92C205.17,17.05,209,17.23,211.15,17.23Z"/><path class="cls-1" d="M255.87,8.33a31.36,31.36,0,0,0-.54-5.85h8.51a53.5,53.5,0,0,0-.45,5.85v6.16A149,149,0,0,1,282,21.28l-3.1,7.61a140.78,140.78,0,0,0-15.48-6.44V34c0,1.21.27,4.77.49,6.79h-8.55a49.64,49.64,0,0,0,.54-6.79Z"/><path class="cls-1" d="M299.73,5h21.82a36.23,36.23,0,0,0,4.23-.23v6.75c-1.22,0-2.57-.13-4.23-.13h-9.94V18h12.68c.95,0,3.47-.13,4.73-.22l0,7a41.18,41.18,0,0,0-4.58-.13H311.61v5.67c0,2.56,1.48,3.19,4.81,3.19,3.87,0,8-.27,11.48-.63l-.5,7.43c-2.61.13-8.14.27-12.33.27-9,0-11-3.06-11-8.1V24.66h-6.57c-1.35,0-3.87.13-5.31.22V17.77c1.31.09,3.83.27,5.31.27h6.57V11.43h-4.36c-1.67,0-3.15,0-4.55.13V4.81C296.58,4.91,298.06,5,299.73,5Z"/><path class="cls-1" d="M347.44,17.23h23.89c2,0,4.23-.22,5.54-.31v8.59c-1.17,0-3.69-.27-5.54-.27H347.44c-2.56,0-5.94.14-7.79.27V16.92C341.46,17.05,345.23,17.23,347.44,17.23Z"/><path class="cls-1" d="M391.55,9A31.44,31.44,0,0,0,391,3.15h8.5A53.5,53.5,0,0,0,399.06,9v6.16A148.52,148.52,0,0,1,417.65,22l-3.11,7.6a139.91,139.91,0,0,0-15.48-6.43V34.69c0,1.22.27,4.77.5,6.8H391a51.42,51.42,0,0,0,.54-6.8Zm23.22,2.25-4.64,2a36.4,36.4,0,0,0-4-7l4.5-1.89A68.69,68.69,0,0,1,414.77,11.25Zm6.3-2.79-4.5,2.21a39.12,39.12,0,0,0-4.19-6.75l4.46-2.07A56.47,56.47,0,0,1,421.07,8.46Z"/><path class="cls-1" d="M439.43,45.67a44.07,44.07,0,0,0,5.35-21.46,44.15,44.15,0,0,0-5.35-21.46l5-2.07a43.38,43.38,0,0,1,6.8,23.53,43.28,43.28,0,0,1-6.8,23.53Z"/></g></g></g></svg>