<svg xmlns="http://www.w3.org/2000/svg" viewBox="0 0 552.12 44.17"><defs><style>.cls-1{fill:#333;}</style></defs><g id="レイヤー_2" data-name="レイヤー 2"><g id="TradeTools"><g id="tradetools_ex1_01"><path class="cls-1" d="M8.33,22.45A33.69,33.69,0,0,0,0,17.67l3.59-5.06a35,35,0,0,1,8.6,4.27Zm6.35,6.07c-2.3,4.93-4.88,10-7.5,14.63L1.33,39A135.78,135.78,0,0,0,9.57,24.34ZM11,10A32.76,32.76,0,0,0,2.81,5.11L6.39.18a35.4,35.4,0,0,1,8.47,4.37ZM33.45,26.68A21.14,21.14,0,0,0,44.35,38a25.35,25.35,0,0,0-4.69,5.89C34.09,41,30.41,36.16,27.83,30a23.28,23.28,0,0,1-11,13.9,27.78,27.78,0,0,0-5.61-4.74c6.16-3.36,9.11-7.78,10.44-12.52H13.76V20.43h8.87c.1-1.38.14-2.76.14-4.14V13.2h-6.9V7h6.9V.05h6.67V7H40.53V20.43H43.8v6.25Zm-4-10.35c0,1.34,0,2.72-.09,4.1H34V13.2H29.44Z"/><path class="cls-1" d="M78.53,8.28a6.12,6.12,0,0,0-.23,1c7.08,1.84,11.82,7.78,11.82,15.92,0,10.08-7.18,15.69-16.61,17.21l-4.28-6.49c10.4-.87,13.62-6.12,13.62-11.09,0-4.6-2.35-8-6.26-9.34a56.94,56.94,0,0,1-5.93,13.94c.78.88,1.56,1.75,2.34,2.49l-5.65,4.46c-.42-.51-.83-.92-1.2-1.38-3.22,3.36-5.61,4.46-9,4.46-4,0-7.82-3.4-7.82-9.66a20.8,20.8,0,0,1,6.58-14.72l-1.1-3.45a33.42,33.42,0,0,0-2.07-5.11L60,4.23c.28,1.7.65,3.22,1,4.6.23.79.46,1.61.69,2.44a26.91,26.91,0,0,1,9.66-2.53l.28-1.56A28,28,0,0,0,72,2.3L79.77,3C79.35,4.37,78.85,7,78.53,8.28ZM58,32.2c1.33,0,2.67-1,4.14-2.66a50.26,50.26,0,0,1-3.72-7.73,12.82,12.82,0,0,0-2.54,7.4C55.84,31,56.58,32.2,58,32.2Zm8.37-8.88a46.72,46.72,0,0,0,3.36-8.18,17.56,17.56,0,0,0-5.93,2.16A52.29,52.29,0,0,0,66.33,23.32Z"/><path class="cls-1" d="M113.37,7.08a5.8,5.8,0,0,1-.18.79c2.35-.37,4.69-.83,7-1.38v6.94a66.51,66.51,0,0,1-8.56,1.48c-.46,2-.92,3.95-1.38,5.79a149.82,149.82,0,0,1-7.36,21.44L95.2,39.52c2.72-4.56,6.35-14.35,8.1-20.75.27-1.06.6-2.16.83-3.27-.83.05-1.61.05-2.35.05-2.35,0-4.14-.09-5.7-.18l-.19-6.95a47.49,47.49,0,0,0,5.94.37c1.24,0,2.43,0,3.72-.09.1-.7.19-1.29.23-1.85a25.11,25.11,0,0,0,.14-5.15l8.51.65C114.06,3.77,113.6,6,113.37,7.08ZM119,31.65c0,1.93,1.42,3.13,5.47,3.13a58.76,58.76,0,0,0,9.85-1L134,40.9a76.36,76.36,0,0,1-9.61.64c-8.06,0-12.33-2.9-12.33-7.59a33,33,0,0,1,.87-6.58l6.62.65A16.52,16.52,0,0,0,119,31.65Zm6.34-15.92c2.58,0,5.34.14,8.15.42l-.14,6.67a66.88,66.88,0,0,0-8-.6,71,71,0,0,0-9.1.51V16.24C118.89,16,122.34,15.73,125.33,15.73Z"/><path class="cls-1" d="M183.78,37.54h-3.54v6.21h-5.52V37.54h-8.79v-5.2h2.62v-5.2h-.78v-.36c-2.07,8-6,13.57-11.73,16.88a20.42,20.42,0,0,0-3.22-4.46A17.1,17.1,0,0,0,159.49,33a23.46,23.46,0,0,0-1.89-1.79c-.55.64-1.06,1.29-1.61,1.84a15.26,15.26,0,0,0-1.61-1.2v4.05h-7.22v4h-5.57V2.21h12.79v24.7a25,25,0,0,0,2.9-6.25h-1.89V12.33h4.38a32.79,32.79,0,0,0-2.08-3.87l2.54-1.28c-1.16,0-2.26,0-3.32.09a20,20,0,0,0-1.38-4.56c8.1-.27,17.44-1.15,23-2.71l3.77,4.23a50.46,50.46,0,0,1-5.2,1.2l5.2,1.88c-1.24,1.75-2.39,3.59-3.45,5h4.37v8.33h-2.94V22h2.9v5.1h-2.9v5.2h3.54ZM147.16,7.82v3.77h1.56V7.82Zm0,13h1.56V17h-1.56Zm1.56,9.48V26.22h-1.56v4.05Zm12.29-5c-.32.74-.69,1.48-1.06,2.17.6.41,1.2.87,1.75,1.28a26.72,26.72,0,0,0,1.1-3.45Zm7.82-3.86-.09.6h6V19.51h2.62V17.3H161v1.24l2.11.41c-.13.56-.27,1.15-.46,1.71h1.89l.92-.14Zm-.37-14.82c-1.84.19-3.73.33-5.57.42a22.78,22.78,0,0,1,2.26,4.19l-2.07,1.1h4.64a22.35,22.35,0,0,0-2-4.42Zm5.24,5.16a40.49,40.49,0,0,0,3-6.26c-1.88.32-3.86.6-5.88.83a19.71,19.71,0,0,1,2.07,4.32l-3.36,1.66H175Zm1,20.56v-5.2h-1.43v5.2Z"/><path class="cls-1" d="M197.47,18.91V43.75h-6.62V1.7h18.31V18.91Zm0-12.47V8h5.43V6.44Zm5.43,7.78v-1.8h-5.43v1.8Zm27.56,21.89c0,3.41-.65,5.29-2.67,6.4s-4.83,1.24-8.88,1.24a23.9,23.9,0,0,0-1.06-4.28h-10.4v2.35h-6V21.3h18.12V37.08h3c.83,0,1.1-.28,1.1-1.06v-17h-12V1.7h18.77Zm-23-10v1.93h5.85V26.13Zm5.85,8.51V32.71h-5.85v1.93ZM218,6.44V8h5.66V6.44Zm5.66,7.91V12.42H218v1.93Z"/><path class="cls-1" d="M236.84,32.8l5.85-5a82.7,82.7,0,0,1,9.84,10l-5.93,5.11A95.89,95.89,0,0,0,236.84,32.8Z"/><path class="cls-1" d="M324.39,12.1c-.83,4.46-1.93,11.22-5.66,17-3.87,6.07-10.12,10.63-17.48,13.3L295,36c5.84-1.38,13.25-5.06,16.79-10.72a31.45,31.45,0,0,0,4.1-12.92h-20.2v6.8a41.52,41.52,0,0,0,.18,4.24h-8.23c.14-1.57.28-2.81.28-4.24V9.52c0-1.33-.1-2.94-.24-4.28,1.57.1,3.82.19,6,.19h21.07a29.27,29.27,0,0,0,5.2-.37l5.38,3.4A31.27,31.27,0,0,0,324.39,12.1Z"/><path class="cls-1" d="M349.55,28.62c8.28-4.79,14.49-11.92,17.58-18.41l4.32,7.87c-3.68,6.53-10.21,12.93-17.9,17.44a49,49,0,0,1-16.47,6.07l-4.73-7.36A47.38,47.38,0,0,0,349.55,28.62Zm1.57-15-5.71,5.84A96.5,96.5,0,0,0,333.86,9.34l5.29-5.66A92.65,92.65,0,0,1,351.12,13.57Z"/><path class="cls-1" d="M399.05,7.18h7.64a17.17,17.17,0,0,0,4.55-.6l5.62,3.5a24.15,24.15,0,0,0-1.8,3.77,53.57,53.57,0,0,1-6.58,12.6c2,1.43,3.78,2.76,5.06,3.78l-5.33,6.34c-1.2-1.1-2.86-2.53-4.74-4A43.23,43.23,0,0,1,387.64,43l-6.48-5.61a38.55,38.55,0,0,0,16.28-9.43c-2.76-2-5.47-3.92-7.54-5.25l5-5.11c2.11,1.25,4.78,2.9,7.45,4.65a31,31,0,0,0,4.37-8.74H394.87a57.62,57.62,0,0,1-12.1,11.78l-6-4.65A43.41,43.41,0,0,0,391.32,5.75,23.73,23.73,0,0,0,393.76.28l8.05,2.48C400.8,4.19,399.74,6,399.05,7.18Z"/><path class="cls-1" d="M435.32,24.66l-6.81,2.53a84.1,84.1,0,0,0-4.23-10.72L431,14.08C432.29,16.65,434.4,22,435.32,24.66Zm22.22-5.29a37.52,37.52,0,0,1-6.16,13.06,36.47,36.47,0,0,1-15.6,11.74l-5.84-6c4.88-1.24,11.59-4.73,15.41-9.56,3-3.82,5.2-10.08,5.61-15.78l7.87,2.53C458.19,17.16,457.87,18.26,457.54,19.37Zm-12,2.39-6.67,2.3a87.59,87.59,0,0,0-3.82-10.3l6.62-2.17C442.59,13.62,444.85,19.6,445.54,21.76Z"/><path class="cls-1" d="M485.67,5c4.88-.73,9.11-1.7,11.46-2.85l4.55,6.12c-1.89.46-3.27.83-4.09,1a67.29,67.29,0,0,1-6.95,1.38v6.4h11c1,0,3.41-.19,4.47-.28v7.13c-1.38-.09-3-.18-4.33-.18H490.41c-.88,7.31-4.19,14.08-11.78,18.72l-7.13-4.78c6.81-3.08,10.35-7.82,11.46-13.94H470.9c-1.38,0-3.17.09-4.41.18V16.79a43.76,43.76,0,0,0,4.37.28h12.42V11.59c-4.28.33-8.79.51-11.69.56l-1.75-6.4A108.77,108.77,0,0,0,485.67,5Z"/><path class="cls-1" d="M516.51,6.9c4.32-.37,11.27-.92,19.69-1.66,4.6-.36,10-.69,13.38-.82l0,7.17a58,58,0,0,0-8.83.56c-5,1.1-9.25,6.48-9.25,12,0,6.76,6.35,9.43,14.31,9.89l-2.62,7.73c-10.26-.79-19-6.35-19-16.15A18.78,18.78,0,0,1,530,12.15a176.16,176.16,0,0,0-17.57,2.57l-.69-7.59C513.61,7.08,515.63,7,516.51,6.9Zm30.18,14.72-4.1,1.8a37.11,37.11,0,0,0-3.49-6.31l4-1.65A61.32,61.32,0,0,1,546.69,21.62Zm5.43-2.39-4,1.93A38.94,38.94,0,0,0,544.34,15l4-1.79C549.49,14.91,551.19,17.57,552.12,19.23Z"/></g></g></g></svg>