<svg xmlns="http://www.w3.org/2000/svg" viewBox="0 0 500.32 44.12"><defs><style>.cls-1{fill:#333;}</style></defs><g id="レイヤー_2" data-name="レイヤー 2"><g id="TradeTools"><g id="tradetools_ex2_01"><path class="cls-1" d="M35.84,36.71c1.42,0,1.7-.78,1.93-6a19.31,19.31,0,0,0,6.12,2.66C43.2,41,41.45,43,36.48,43H31.15c-6.12,0-7.6-2-7.6-8V28.71H19.14C18.26,36,15.69,41,3.73,43.66a19.35,19.35,0,0,0-3.73-6c9.52-1.7,11.32-4.42,12-9H6.67V1H37.54v27.7H30.41v6.21c0,1.61.23,1.79,1.75,1.79ZM13.11,8.6H30.73V6.81H13.11Zm0,7.13H30.73V13.94H13.11Zm0,7.18H30.73V21.12H13.11Z"/><path class="cls-1" d="M50.42,16.15c1.15-.46,2.26-.92,3.41-1.43-.56-1.1-1.11-2.21-1.71-3.26a43.59,43.59,0,0,0-3-4.42l7.23-2.81c.41.92,1.42,3,1.93,3.91.64,1.2,1.24,2.49,1.88,3.82,2.4-1.06,4.74-2,7-2.8a74,74,0,0,0-6-5.62L66.34,0A78.58,78.58,0,0,1,73,5.93L69.42,8.46a23.77,23.77,0,0,1,6.21-1c7.5,0,12.06,4.74,12.06,10.26,0,7.08-5,11.18-12,11.18a23.69,23.69,0,0,1-7.22-1.29l.19-7a17.7,17.7,0,0,0,6.25,1.56c2.58,0,5.34-1.38,5.34-4.69,0-2.12-2-3.68-4.83-3.68-3.31,0-8,1.75-12.7,3.86.37.83.69,1.61,1,2.35,2,4.6,5.89,15.13,7.41,20.38l-7.68,1.93a140.86,140.86,0,0,0-6.12-19.23c-.32-.78-.65-1.56-1-2.3-3.13,1.61-5.89,3.08-7.77,4l-3.22-7A38.88,38.88,0,0,0,50.42,16.15Z"/><path class="cls-1" d="M120.66,6.12v.5c4.28,0,10.44-.09,12.84,0l-.1,6.58c-2.71-.14-7-.23-12.83-.28.05,2.21.05,4.56.05,6.49A11.87,11.87,0,0,1,122.41,26c0,5.89-3.82,13.89-15.32,17L101.16,37c4-.82,7.82-1.93,10.53-4a5.77,5.77,0,0,1-.83,0,8.54,8.54,0,0,1-8.14-8.83c0-5.57,4.46-9,9.8-9a10.67,10.67,0,0,1,1.15,0c0-.78,0-1.56,0-2.34-6.9.09-13.71.37-19.32.64L94.12,6.9c5.33,0,13.48-.14,19.41-.23a1.91,1.91,0,0,1,0-.51c-.18-2.2-.36-3.91-.5-4.6h8C120.89,2.44,120.71,5.29,120.66,6.12Zm-8.33,20.75c1.48,0,3-1.06,2.53-4.56a3,3,0,0,0-2.53-1.24,2.8,2.8,0,0,0-2.94,3A2.9,2.9,0,0,0,112.33,26.87Z"/><path class="cls-1" d="M148.62,12c0,3,0,6,.28,9.11.55,6,1.47,10.26,4.14,10.26,2.12,0,3.73-5.75,4.42-8.88l5.61,6.9c-3.22,8.14-6.17,11-10.17,11-5.47,0-10-4.65-11.27-17.21-.46-4.37-.51-9.66-.51-12.56a27.65,27.65,0,0,0-.41-5l8.56.09A43.09,43.09,0,0,0,148.62,12Zm31.7,19-7.41,2.85c-.64-6.94-2.89-19-8.28-24.93l7.13-2.3C176.27,11.87,179.91,24.34,180.32,31Z"/><path class="cls-1" d="M205.36,4.65c4.88-.74,9.11-1.71,11.46-2.86l4.55,6.12c-1.89.46-3.27.83-4.09,1a70,70,0,0,1-6.95,1.39V16.7h11c1,0,3.41-.18,4.47-.28v7.13c-1.38-.09-3-.18-4.33-.18H210.1c-.88,7.32-4.19,14.08-11.78,18.72l-7.13-4.78c6.81-3.08,10.35-7.82,11.46-13.94H190.59c-1.38,0-3.17.09-4.41.18V16.42a43.76,43.76,0,0,0,4.37.28H203V11.23c-4.28.32-8.79.5-11.69.55l-1.75-6.4A110.05,110.05,0,0,0,205.36,4.65Z"/><path class="cls-1" d="M247.73,13c.32,1.11.69,2.49,1.1,4,5.43-1.06,11.13-2.17,13.07-2.58a12.42,12.42,0,0,0,2.62-.83L269,16.75a80.42,80.42,0,0,1-9.8,14.9l-6.12-3a39.09,39.09,0,0,0,6.16-7.6c-1,.19-4.64.92-8.78,1.8,1.7,6.16,3.49,12.74,4.28,15.32.23.78,1,3.17,1.33,4.14l-7.55,1.84a30.26,30.26,0,0,0-.92-4.42c-.73-2.67-2.43-9.34-4-15.41l-8.15,1.79-1.7-6.62c1.52-.14,2.85-.28,4.46-.55.6-.09,2-.32,3.78-.65-.37-1.47-.74-2.8-1.06-3.77A19.72,19.72,0,0,0,239.49,11l7.45-1.75C247.13,10.44,247.45,11.78,247.73,13Z"/><path class="cls-1" d="M285.53,17.25H310c2.07,0,4.33-.23,5.66-.32v8.79c-1.2,0-3.77-.28-5.66-.28H285.53c-2.62,0-6.07.14-8,.28V16.93C279.41,17.07,283.28,17.25,285.53,17.25Z"/><path class="cls-1" d="M329.38,8.14a32,32,0,0,0-.55-6h8.7a53.24,53.24,0,0,0-.46,6v6.31a152.87,152.87,0,0,1,19,6.94l-3.18,7.78a142.26,142.26,0,0,0-15.82-6.58V34.41c0,1.24.27,4.88.5,7h-8.74a52,52,0,0,0,.55-7Z"/><path class="cls-1" d="M404.61,2.3V8.51H386.85v2.9h7.73V32.57H372.73V11.41h7.36V8.51H362.75V2.3Zm-8,8.37h6.49V43.38h-6.49V40.76h-26v2.62h-6.49V10.67h6.49V34.46h26Zm-18.49,8.79h2.48V16.79h-2.48Zm0,7.73h2.48V24.47h-2.48Zm10.72-10.4h-2.53v2.67h2.53Zm0,7.68h-2.53v2.72h2.53Z"/><path class="cls-1" d="M434.41,8.37l-1,3.22h17V43.38h-6.81v-2.3h-25v2.3h-6.44V11.59h14.12c.14-1.05.32-2.16.46-3.22H410.39V2.07h42.05v6.3ZM418.63,35h3.63V17.71h-3.63Zm15.13-17.25H428.2v2.16h5.56Zm0,7.32H428.2v2.44h5.56ZM428.2,35h5.56V32.62H428.2Zm15.41-17.25h-3.86V35h3.86Z"/><path class="cls-1" d="M467.94,8a129,129,0,0,0-2.17,17.39,7.89,7.89,0,0,0,.05,1.06c.55-1.34,1.15-2.21,1.75-3.59l3.36,2.71c-1.38,4.14-2.76,8.79-3.32,11.46a14.76,14.76,0,0,0-.27,2.16c0,.51,0,1.33,0,2.07l-6.3.46a53.86,53.86,0,0,1-1.88-14.77A142.09,142.09,0,0,1,461,7.82c.18-1.38.46-3.5.51-5.2l7.68.65A42.15,42.15,0,0,0,467.94,8Zm23.27-2.21c0,.87-.09,2.39-.13,4.33,2.34-.28,4.6-.6,6.67-1.06V16c-2.07.28-4.33.56-6.72.69.09,4.24.32,7.5.46,10.26a29.19,29.19,0,0,1,8.83,5.94l-3.77,5.84a62.81,62.81,0,0,0-4.92-4.19c-.6,4.33-3.45,7-9.48,7-6.48,0-10.76-2.76-10.76-8s4.23-8.47,10.67-8.47c.78,0,1.56.05,2.3.1-.14-2.44-.28-5.25-.32-8.15-.88.05-1.75.05-2.58.05-2.76,0-5.52-.09-8.23-.28l-.05-6.62a82.06,82.06,0,0,0,8.24.41c.87,0,1.7,0,2.57,0,0-2.17,0-3.87-.09-4.7a21.5,21.5,0,0,0-.37-3.17h8C491.35,3.54,491.26,4.74,491.21,5.75Zm-9.7,29.17c2.21,0,3.08-1.2,3.08-3.73v-.32a11.38,11.38,0,0,0-3.08-.41c-2.16,0-3.59.82-3.59,2.3S479.53,34.92,481.51,34.92Z"/></g></g></g></svg>