<svg xmlns="http://www.w3.org/2000/svg" viewBox="0 0 403.37 117.94"><defs><style>.cls-1{fill:#333;}</style></defs><g id="レイヤー_2" data-name="レイヤー 2"><g id="TradeTools"><g id="tradetools_title"><path class="cls-1" d="M140.78,98.88c1.3,0,1.82.68,1.82,1.56s-.52,1.56-1.82,1.56H138v14.15a1.75,1.75,0,1,1-3.49,0V102h-2.75c-1.3,0-1.82-.67-1.82-1.56s.52-1.56,1.82-1.56Z"/><path class="cls-1" d="M148,105.75a4.06,4.06,0,0,1-.11-.94,1.49,1.49,0,0,1,1.61-1.61c1.1,0,1.56.75,1.72,1.87l1.3,8.71h.05l1.33-8c.28-1.77.62-2.6,1.71-2.6.63,0,1.28.34,1.49,1.45l1.76,9.13h.06l1.3-8.87c.18-1.17.75-1.71,1.69-1.71a1.46,1.46,0,0,1,1.48,1.58,3.79,3.79,0,0,1-.11.84L161.14,116c-.26,1.33-.62,2-2.13,2s-2-.81-2.26-2.37l-1.12-5.85h0l-1.2,6.48a1.92,1.92,0,0,1-2.1,1.74c-1.3,0-1.85-.62-2.16-2.13Z"/><path class="cls-1" d="M169.2,108.66c0-3,1-5.46,4.79-5.46s4.78,2.44,4.78,5.46v3.82c0,3-1,5.46-4.78,5.46s-4.79-2.44-4.79-5.46Zm3.33,3.56c0,2.6.42,3.22,1.46,3.22s1.45-.62,1.45-3.22v-3.35c0-2.55-.52-3.18-1.45-3.18s-1.46.63-1.46,3.18Z"/><path class="cls-1" d="M210.85,116c0,1.3-.62,1.9-1.58,1.9s-1.59-.6-1.59-1.9v-8.6c0-1-.55-1.49-1.22-1.49-1,0-1.64.76-1.64,2.53V116c0,1.3-.62,1.9-1.59,1.9s-1.58-.6-1.58-1.9v-8.6c0-1-.55-1.49-1.22-1.49-1,0-1.64.76-1.64,2.53V116c0,1.3-.63,1.9-1.59,1.9s-1.58-.6-1.58-1.9V105.1c0-1.3.62-1.9,1.58-1.9s1.59.6,1.59,1.82h.05a3.13,3.13,0,0,1,3-1.82,2.77,2.77,0,0,1,2.84,1.58,3.62,3.62,0,0,1,3.17-1.58c1.77,0,3,1.09,3,3.48Z"/><path class="cls-1" d="M217.3,108.66c0-3,1-5.46,4.78-5.46s4.79,2.44,4.79,5.46v3.82c0,3-1,5.46-4.79,5.46s-4.78-2.44-4.78-5.46Zm3.33,3.56c0,2.6.41,3.22,1.45,3.22s1.46-.62,1.46-3.22v-3.35c0-2.55-.52-3.18-1.46-3.18s-1.45.63-1.45,3.18Z"/><path class="cls-1" d="M233.11,108.68c0-2.88.52-5.48,3.38-5.48a3.12,3.12,0,0,1,2.81,1.64h0v-4.4c0-1.3.62-1.9,1.58-1.9s1.59.6,1.59,1.9V116c0,1.3-.62,1.9-1.59,1.9a1.56,1.56,0,0,1-1.58-1.64h0a3,3,0,0,1-2.81,1.64c-2.86,0-3.38-2.6-3.38-5.49Zm3.33,2.94c0,2.34.15,3.69,1.32,3.69s1.59-1.43,1.59-3.43v-2.65c0-2.83-.81-3.41-1.56-3.41-1.07,0-1.35.86-1.35,4Z"/><path class="cls-1" d="M249.2,109.1c0-3.59.52-5.9,4.84-5.9,3.3,0,4.42,1.84,4.42,5.54,0,1.27-.16,2.26-1.77,2.26h-4.16v1.43c0,1.69.13,3,1.43,3a1.39,1.39,0,0,0,1.22-1.45c0-1.38.68-1.69,1.56-1.69s1.61.31,1.61,1.56c0,2.55-1.74,4.08-4.31,4.08-4.32,0-4.84-2.31-4.84-5.9Zm6.09-.34v-1.17c0-1.06-.34-1.9-1.38-1.9s-1.38.84-1.38,1.9v1.17Z"/><path class="cls-1" d="M266.52,110.71c-1.82-1.35-2.13-2.23-2.13-3.72,0-2.54,1.79-3.79,4.34-3.79,3.38,0,4.26,2.31,4.26,3.46,0,.93-.39,1.56-1.66,1.56A1.16,1.16,0,0,1,270,107a1.31,1.31,0,0,0-1.38-1.43,1,1,0,0,0-1.09,1.1,1.64,1.64,0,0,0,.7,1.35l1.95,1.48c2,1.48,3,2.42,3,4.32,0,2.75-2,4.13-4.61,4.13-3.4,0-4.36-2.24-4.36-3.87a1.41,1.41,0,0,1,1.5-1.59c1.17,0,1.56.62,1.67,2,.05.6.39,1.14,1.38,1.14a1.13,1.13,0,0,0,1.24-1.3c0-.7-.23-1.09-1.11-1.76Z"/><path class="cls-1" d="M23.58,11.52V64.08H10.8V11.52H0V0H34.38V11.52Z"/><path class="cls-1" d="M63.45,26.82A7.3,7.3,0,0,0,56,34.56V64.08H43.92V15.66H55.44v5.22a15.8,15.8,0,0,1,5.31-4.32,16.52,16.52,0,0,1,7.11-1.62V26.82Z"/><path class="cls-1" d="M96.12,64.08v-4A14.93,14.93,0,0,1,93,63.27a8.47,8.47,0,0,1-5.31,1.53c-4.5,0-7.2-1.26-9.81-4.5-2.07-2.52-2.79-6.12-2.79-10.71a13.76,13.76,0,0,1,4.68-10.8c2.43-2.07,5.58-3.42,11.88-3.42h3.69V29.79c0-2.7-1.35-4.23-3.6-4.23a3.14,3.14,0,0,0-2.61,1.17A5.1,5.1,0,0,0,88,30.06H76a14.81,14.81,0,0,1,4.41-10.8,17.12,17.12,0,0,1,11.25-4.32c4.14,0,8.28,1.08,11.16,4,2.7,2.7,4.59,6.57,4.59,12.06V64.08Zm-.81-20.34H93.24c-2,0-3.33,0-4.59,1.17a6.36,6.36,0,0,0-1.53,4.14c0,3.51,1.62,5.22,4.14,5.22,2.16,0,4-1.8,4-5.22Z"/><path class="cls-1" d="M138.15,64.08V60.57a13,13,0,0,1-3.51,3.06,10.22,10.22,0,0,1-4.59,1.17c-4,0-6.66-1-9-4-3.33-4.14-3.33-11.34-3.33-21s0-16.83,3.33-21c2.34-3,5-4,9-4a10.22,10.22,0,0,1,4.59,1.17,12.57,12.57,0,0,1,3,2.43V0h12.06V64.08Zm-.54-33.93a4.74,4.74,0,0,0-1.17-3.42,4.1,4.1,0,0,0-2.61-1,3.4,3.4,0,0,0-3.15,1.89c-.9,2-.9,6.75-.9,12.24s0,10.26.9,12.24A3.4,3.4,0,0,0,133.83,54a4.1,4.1,0,0,0,2.61-1,4.74,4.74,0,0,0,1.17-3.42Z"/><path class="cls-1" d="M172.26,43.74c0,3.24.18,7,.9,8.37A3.49,3.49,0,0,0,176.31,54a3.53,3.53,0,0,0,3.15-1.89,8.35,8.35,0,0,0,.63-3h12c-.27,3.78-1.35,8.19-4.32,11.52-2.7,3-6.75,4.14-11.43,4.14-4.86,0-7.92-.9-11.34-4.23-4.68-4.5-4.77-13.41-4.77-20.7s.09-16.29,4.77-20.79c3.42-3.33,7.29-4.14,11.34-4.14,4.23,0,7.92.72,11.25,4.14,5.4,5.67,4.68,16.92,4.77,24.66Zm7.2-16.2a3.66,3.66,0,0,0-6.3,0c-.63,1-.9,4.23-.9,7.47h8C180.27,31.77,180.09,28.53,179.46,27.54Z"/><path class="cls-1" d="M243,11.52V64.08H230.22V11.52h-10.8V0h34.37V11.52Z"/><path class="cls-1" d="M290.87,59c-3.15,4.68-7.65,5.76-12.78,5.76s-9.63-1.08-12.78-5.76S262,46.35,262,39.87s.27-14.58,3.32-19.17,7.65-5.76,12.78-5.76,9.63,1.08,12.78,5.76,3.33,12.69,3.33,19.17S293.93,54.45,290.87,59Zm-9.63-31.41a3.57,3.57,0,0,0-6.3,0c-.9,2-.9,6.75-.9,12.24s0,10.26.9,12.24a3.57,3.57,0,0,0,6.3,0c.9-2,.9-6.75.9-12.24S282.14,29.61,281.24,27.63Z"/><path class="cls-1" d="M332.27,59c-3.15,4.68-7.65,5.76-12.78,5.76s-9.63-1.08-12.78-5.76-3.33-12.69-3.33-19.17.27-14.58,3.33-19.17,7.65-5.76,12.78-5.76,9.63,1.08,12.78,5.76,3.33,12.69,3.33,19.17S335.33,54.45,332.27,59Zm-9.63-31.41a3.57,3.57,0,0,0-6.3,0c-.9,2-.9,6.75-.9,12.24s0,10.26.9,12.24a3.57,3.57,0,0,0,6.3,0c.9-2,.9-6.75.9-12.24S323.54,29.61,322.64,27.63Z"/><path class="cls-1" d="M351.53,61.11c-3.42-2.43-5.58-6.3-5.58-12.6V0H358V47.7c0,3.78,1.89,5.58,5.94,5.58v10.8C359,64.08,355,63.63,351.53,61.11Z"/><path class="cls-1" d="M398.78,60.75c-3.15,3.15-7,4-11.34,4s-8.82-1.44-11.52-4.23a15.45,15.45,0,0,1-4.59-11.07h11.88a4.81,4.81,0,0,0,1.26,3.15,4.08,4.08,0,0,0,3,1.26,3.67,3.67,0,0,0,2.88-1,3.82,3.82,0,0,0,1-2.7,4.32,4.32,0,0,0-.81-2.7,7.41,7.41,0,0,0-3.15-2.07l-6.75-2.61c-3.42-1.35-5.94-3.15-7.47-5.58a12.71,12.71,0,0,1-1.62-6.75,14.66,14.66,0,0,1,4.41-11.16,15.82,15.82,0,0,1,11.43-4.41,16.24,16.24,0,0,1,11,4,14.4,14.4,0,0,1,4.5,10.89H391a4.62,4.62,0,0,0-1-3.06,3.9,3.9,0,0,0-2.7-1.17,3.94,3.94,0,0,0-2.79,1.08,3.35,3.35,0,0,0-1,2.7,3.41,3.41,0,0,0,.63,2.16,5.84,5.84,0,0,0,3.06,2.16l6.66,2.52c3.42,1.35,5.67,2.88,7.29,5.13a13.2,13.2,0,0,1,2.16,7.92A15.84,15.84,0,0,1,398.78,60.75Z"/></g></g></g></svg>