<svg xmlns="http://www.w3.org/2000/svg" viewBox="0 0 492.09 44.21"><defs><style>.cls-1{fill:#333;}</style></defs><g id="レイヤー_2" data-name="レイヤー 2"><g id="TradeTools"><g id="tradetools_st2_01"><path class="cls-1" d="M14.81,20l-4.09,6.26C7.91,24.34,3.27,21.3,0,19.55l4.05-6.16A126,126,0,0,1,14.81,20Zm2.76,10.26c7.92-4.37,14.54-10.86,18.18-17.48L40,20.43A56.38,56.38,0,0,1,21.39,37,55.67,55.67,0,0,1,6,42.69L1.79,35.33A49.78,49.78,0,0,0,17.57,30.27ZM22,9.43,17.85,15.6C15.09,13.76,10.4,10.77,7.18,9l4.05-6.16C14.45,4.55,19.37,7.64,22,9.43Z"/><path class="cls-1" d="M60.46,29.08C68.75,24.29,75,17.16,78,10.67l4.32,7.87C78.68,25.07,72.15,31.47,64.47,36A49.21,49.21,0,0,1,48,42.05l-4.74-7.36A47.31,47.31,0,0,0,60.46,29.08ZM62,14l-5.71,5.84A96.38,96.38,0,0,0,44.78,9.8l5.29-5.66A93.25,93.25,0,0,1,62,14Z"/><path class="cls-1" d="M123.35,0a5.71,5.71,0,0,1,.14,11.41c-.23.69-.41,1.38-.55,1.93-1.11,4.33-3,11.32-7,16.66A37.71,37.71,0,0,1,97.27,42.92L91.2,36.25c9.24-2.07,14.44-6.12,18.08-10.63a25.86,25.86,0,0,0,5.06-11.86H94.09c-2.25,0-4.78.13-6,.23V6.12c1.43.18,4.47.41,6,.41h20.29a23,23,0,0,0,3.31-.23,2.79,2.79,0,0,1,0-.6A5.73,5.73,0,0,1,123.35,0Zm0,8.14a2.44,2.44,0,1,0-2.43-2.44A2.45,2.45,0,0,0,123.35,8.14Z"/><path class="cls-1" d="M137,27c1.29-3.77,1.34-12.23,1.34-18a17.86,17.86,0,0,0-.51-4.74H146a36.18,36.18,0,0,0-.37,4.64c0,5.66-.14,15.28-1.33,19.93a27.71,27.71,0,0,1-8.24,13.52l-6.81-4.51A21.07,21.07,0,0,0,137,27Zm14.12,8V8.56a24.25,24.25,0,0,0-.41-4.28H159a27.78,27.78,0,0,0-.37,4.32V31.24c3.45-1.43,7.36-4.74,10.22-8.79l4.28,6.17c-3.73,4.73-10.45,9.84-15.55,12.46a14.91,14.91,0,0,0-2.21,1.52l-4.65-3.82A17.57,17.57,0,0,0,151.14,35Z"/><path class="cls-1" d="M196.25,8.33c2.16-.42,4.09-.88,5.66-1.34l.18,6.4A63.31,63.31,0,0,1,194.27,15a84.71,84.71,0,0,1-9.75,19.83l-6.72-3.4a74.21,74.21,0,0,0,9.11-15.74,14.54,14.54,0,0,1-1.47,0c-1.94,0-3.82,0-5.94-.19L179,9.06c2.11.23,4.87.33,6.39.33,1.2,0,2.39-.05,3.59-.14a36.92,36.92,0,0,0,1.15-7.5l7.64.73C197.44,3.91,196.89,6,196.25,8.33Zm12.28,15c.05,1.11.14,2.9.23,4.84a29.76,29.76,0,0,1,9.52,6l-3.68,6a48.8,48.8,0,0,0-5.56-4.7c-.14,4.42-2.53,7.73-9.34,7.73-6.08,0-10.81-2.85-10.81-8.19,0-4.6,3.63-8.55,10.72-8.55a21.47,21.47,0,0,1,2.43.13c-.18-3.26-.36-7.08-.5-9.66h7C208.39,18.86,208.48,21.07,208.53,23.32Zm-9.84,13.44c2.76,0,3.58-1.61,3.58-4.19v-.23a17.45,17.45,0,0,0-3.12-.32c-2.26,0-3.68.92-3.68,2.25S196.75,36.76,198.69,36.76Zm5.65-23.42,3.59-5.52a93,93,0,0,1,11.73,6.3L215.71,20A67.32,67.32,0,0,0,204.34,13.34Z"/><path class="cls-1" d="M228.61,34.41V10.21a29.62,29.62,0,0,0-.6-5.79h8.74a36.24,36.24,0,0,0-.5,5.79V32.89C243,30.82,253,25,259,17.94l4,6.35c-6.49,7.59-16.1,13-26.59,16.65a11.89,11.89,0,0,0-3.18,1.48l-5.29-4.6A6.89,6.89,0,0,0,228.61,34.41Z"/><path class="cls-1" d="M278.71,18.08h24.42c2.08,0,4.33-.23,5.66-.32v8.78c-1.19,0-3.77-.27-5.66-.27H278.71c-2.63,0-6.08.14-8,.27V17.76C272.59,17.9,276.45,18.08,278.71,18.08Z"/><path class="cls-1" d="M322.56,9A32.85,32.85,0,0,0,322,3h8.69a55.7,55.7,0,0,0-.46,6v6.3a152.16,152.16,0,0,1,19,7L346.07,30a142.41,142.41,0,0,0-15.83-6.58V35.24c0,1.24.28,4.88.51,6.95H322a52,52,0,0,0,.55-6.95Z"/><path class="cls-1" d="M397.79,3.13V9.34H380v2.9h7.73V33.4H365.9V12.24h7.36V9.34H355.92V3.13Zm-8,8.37h6.48V44.21h-6.48V41.59h-26v2.62h-6.48V11.5h6.48V35.29h26Zm-18.5,8.79h2.49V17.62h-2.49Zm0,7.73h2.49V25.3h-2.49Zm10.72-10.4h-2.53v2.67h2.53Zm0,7.68h-2.53V28h2.53Z"/><path class="cls-1" d="M427.58,9.2l-1,3.22h17V44.21h-6.81v-2.3h-25v2.3h-6.44V12.42h14.13c.13-1.06.32-2.16.46-3.22H403.57V2.9h42.05V9.2ZM411.8,35.79h3.64V18.54H411.8Zm15.14-17.25h-5.57V20.7h5.57Zm0,7.31h-5.57v2.44h5.57Zm-5.57,9.94h5.57V33.45h-5.57Zm15.41-17.25h-3.86V35.79h3.86Z"/><path class="cls-1" d="M456.49,7.36c4.32-.37,11.27-.92,19.69-1.66,4.6-.36,10-.69,13.38-.82l.05,7.17a58,58,0,0,0-8.83.56c-5,1.1-9.25,6.48-9.25,12,0,6.76,6.35,9.43,14.31,9.89l-2.62,7.73C473,41.4,464.17,35.84,464.17,26A18.78,18.78,0,0,1,470,12.61a176.16,176.16,0,0,0-17.57,2.57l-.69-7.59C453.59,7.54,455.61,7.45,456.49,7.36Zm30.18,14.72-4.1,1.8a36.45,36.45,0,0,0-3.5-6.31l4-1.65A61.32,61.32,0,0,1,486.67,22.08Zm5.42-2.39-4,1.93a38.94,38.94,0,0,0-3.73-6.12l4-1.79C489.47,15.37,491.17,18,492.09,19.69Z"/></g></g></g></svg>