<svg xmlns="http://www.w3.org/2000/svg" viewBox="0 0 488.11 44.35"><defs><style>.cls-1{fill:#333;}</style></defs><g id="レイヤー_2" data-name="レイヤー 2"><g id="TradeTools"><g id="tradetools_st1_01"><path class="cls-1" d="M43.71,42.09H25.62v2.08H19.37V20.89l-1.15,1.28c-.46-.78-1.15-1.84-1.89-2.85v.32H2.21v-5H16.1l1-1.38H0V8.1H17.85v4A50.33,50.33,0,0,0,23,.37l6.63,1.84a77.91,77.91,0,0,1-3.08,7.18h3.63A54.08,54.08,0,0,0,33,1.15l7,1.52c-1.1,2.3-2.25,4.69-3.31,6.72h6.08v6H36.07v2.94h5.66v5.93H36.07V27h5.66v5.93H36.07v3h7.64Zm-27.29-.27H7.64v1.66H2.07v-16H16.42ZM16.33,26H2.21V21H16.33ZM16.24,6.76H2.35v-5H16.24Zm-8.6,26v3.91h3.13V32.71ZM29.86,15.37H25.62v2.94h4.24Zm0,8.87H25.62V27h4.24ZM25.62,35.93h4.24v-3H25.62Z"/><path class="cls-1" d="M53.69,7.31C58,7,65,6.4,73.38,5.66c4.6-.37,10-.69,13.39-.83l0,7.18a56.8,56.8,0,0,0-8.84.55c-5,1.1-9.24,6.49-9.24,12,0,6.76,6.34,9.43,14.3,9.89l-2.62,7.73c-10.26-.78-19-6.35-19-16.15a18.74,18.74,0,0,1,5.84-13.43,173.32,173.32,0,0,0-17.58,2.58L49,7.54C50.79,7.5,52.82,7.41,53.69,7.31ZM83.87,22l-4.09,1.79a36.63,36.63,0,0,0-3.5-6.3l4-1.66A60.35,60.35,0,0,1,83.87,22Zm5.43-2.4-4,1.94a38.47,38.47,0,0,0-3.72-6.12l4-1.8C86.68,15.32,88.38,18,89.3,19.64Z"/><path class="cls-1" d="M113.69,7.13c-.1.6-.23,1.57-.42,2.85a53.47,53.47,0,0,0,7.87-.64L120.91,16a71.13,71.13,0,0,1-8.56.46c-.23,1.66-.41,3.41-.64,5.11h0a89,89,0,0,0,9-.55l-.18,6.58A76,76,0,0,1,113,28h-1.89c-.09,1.06-.13,2-.13,2.67,0,3.45,2.2,5.11,6.3,5.11,6.12,0,9.11-2.9,9.11-6.12s-1.75-5.85-4.56-8.65l7.82-1.66c3,4.05,4.33,7.32,4.33,11.23,0,7-6.3,12.47-16.93,12.47-7.82,0-13-3.36-13-11.18,0-1,.09-2.53.27-4.28A54.93,54.93,0,0,1,96,26.13l.37-6.72a39.65,39.65,0,0,0,8.7,1.8c.18-1.7.41-3.45.64-5.15a53.21,53.21,0,0,1-8.74-1.66L97.26,8a40.6,40.6,0,0,0,9.16,1.7c.14-1.11.23-2.17.27-3a26.24,26.24,0,0,0,.1-4.55l7.82.41C114.15,4.46,113.92,5.84,113.69,7.13Z"/><path class="cls-1" d="M181.78,8.51h-6.44A19,19,0,0,1,177,11.13l-5.79,1.52h8.74V37.72c0,2.9-.55,4.47-2.4,5.39s-4.32,1.06-7.72,1A20.56,20.56,0,0,0,168.67,40h-11v1.56h-6V26.82h17.67V38.46c1.47,0,2.94,0,3.45,0,.69,0,.92-.18.92-.83V25.4H161.82V12.65H171a26.33,26.33,0,0,0-2.48-4.14h-1.8a25.31,25.31,0,0,1-3.26,3.64,40.25,40.25,0,0,0-5.89-3.09l.69-.55h-4.46A18,18,0,0,1,155.1,11l-5.8,1.61a18.91,18.91,0,0,0-1.93-4,34.1,34.1,0,0,1-3.49,4,40.82,40.82,0,0,0-5.43-3.59A24,24,0,0,0,145.35,0l6.21,1.7c-.28.6-.55,1.24-.88,1.84h9.16V7a21.27,21.27,0,0,0,4.6-7l6.35,1.56c-.28.65-.6,1.34-.92,2h11.91Zm-22,16.89H148V44.12h-6V12.65h17.85Zm-11.82-9v.92h5.84v-.92Zm5.84,5.33v-1H148v1Zm3.82,8.65v1.29h5.84V30.36Zm5.84,6.08V35.1h-5.84v1.34Zm10.22-20.06H167.8v.92h5.89Zm0,5.33v-1H167.8v1Z"/><path class="cls-1" d="M228.49,36.94H210.78v7.18h-6.9V36.94H186.44V30.78h17.44v-2.3H190.4V8.42H194a39.34,39.34,0,0,0-3.54-5.29l5.8-2.58A37,37,0,0,1,200.89,7l-3,1.43H205a39.16,39.16,0,0,0-3.4-5.94l6-2.3A39.23,39.23,0,0,1,211.79,7L208.2,8.42h6.31a39.87,39.87,0,0,0,4-8l7.5,2.12c-1.38,2.12-2.76,4.14-4,5.89H225V28.48H210.78v2.3h17.71ZM203.88,13.8h-6.95v2.12h6.95Zm0,9.25V20.93h-6.95v2.12Zm14.17-9.25h-7.27v2.12h7.27Zm0,7.13h-7.27v2.12h7.27Z"/><path class="cls-1" d="M252.76,8.28c2.17-.41,4.1-.87,5.66-1.33l.19,6.39a63.45,63.45,0,0,1-7.82,1.57A84.85,84.85,0,0,1,241,34.73l-6.71-3.4a74.34,74.34,0,0,0,9.1-15.73c-.5,0-1,0-1.47,0-1.93,0-3.82,0-5.93-.18L235.51,9c2.12.23,4.88.32,6.4.32,1.19,0,2.39-.05,3.58-.14a36,36,0,0,0,1.15-7.5l7.64.74C254,3.86,253.41,6,252.76,8.28Zm12.29,15c0,1.1.14,2.9.23,4.83a29.93,29.93,0,0,1,9.52,6l-3.68,6a49,49,0,0,0-5.57-4.69c-.13,4.41-2.53,7.73-9.34,7.73-6.07,0-10.81-2.86-10.81-8.19,0-4.6,3.64-8.56,10.72-8.56a21.49,21.49,0,0,1,2.44.14c-.18-3.27-.37-7.09-.51-9.66h7C264.91,18.82,265,21,265.05,23.28ZM255.2,36.71c2.76,0,3.59-1.61,3.59-4.18V32.3a16.59,16.59,0,0,0-3.13-.33c-2.25,0-3.68.92-3.68,2.26S253.27,36.71,255.2,36.71Zm5.66-23.41,3.59-5.53a93.73,93.73,0,0,1,11.73,6.31l-4,5.89A65.92,65.92,0,0,0,260.86,13.3Z"/><path class="cls-1" d="M289,23a37.08,37.08,0,0,0-8.7-5L283.76,13a37,37,0,0,1,9,4.47Zm7.08,6.26c-2.44,4.83-5.2,9.8-8,14.4l-5.66-4.51a132.59,132.59,0,0,0,8.74-14.35Zm-4-18.59a35.33,35.33,0,0,0-8.51-5.15L287.26.6A33.84,33.84,0,0,1,296,5.24ZM324.25,36.3v6.35H294.62V36.3h11.45V29.49h-8.14V23.14h8.14V16.88h-9.75V10.54h12a57,57,0,0,0-8-5l4.42-5.2c3.68,1.65,8.65,4.46,11.09,6.71L313,10.54h10.31v6.34H313.07v6.26h8.51v6.35h-8.51V36.3Z"/><path class="cls-1" d="M366,14a50,50,0,0,1-9.48,16.19,44,44,0,0,0,17,7.31,32.87,32.87,0,0,0-4.83,6.72,45.3,45.3,0,0,1-17.85-8.69,53.2,53.2,0,0,1-17.58,8.83A39.6,39.6,0,0,0,329,37.82a48.09,48.09,0,0,0,16.7-7.36A56.89,56.89,0,0,1,336.53,14H330V7.45h17.67v-7h6.9v7H372.5V14Zm-22,0a38.27,38.27,0,0,0,7.22,11.5A37.09,37.09,0,0,0,358.1,14Z"/><path class="cls-1" d="M420,3.08V9.29H402.24v2.9H410V33.35H388.12V12.19h7.36V9.29H378.13V3.08Zm-8,8.38h6.49V44.17H412V41.54h-26v2.63h-6.49V11.46h6.49V35.24h26Zm-18.49,8.78H396V17.57h-2.48Zm0,7.73H396V25.26h-2.48Zm10.72-10.4h-2.54v2.67h2.54Zm0,7.69h-2.54V28h2.54Z"/><path class="cls-1" d="M449.8,9.16l-1,3.22h17V44.17H459V41.86H434v2.31h-6.45V12.38H441.7c.14-1.06.32-2.17.46-3.22H425.78V2.85h42.05V9.16ZM434,35.75h3.63V18.49H434Zm15.13-17.26h-5.57v2.17h5.57Zm0,7.32h-5.57v2.44h5.57Zm-5.57,9.94h5.57V33.4h-5.57ZM459,18.49h-3.87V35.75H459Z"/><path class="cls-1" d="M488.11,36a7.68,7.68,0,1,1-7.68-7.69A7.66,7.66,0,0,1,488.11,36Zm-3.86,0a3.82,3.82,0,1,0-3.82,3.81A3.81,3.81,0,0,0,484.25,36Z"/></g></g></g></svg>