<svg xmlns="http://www.w3.org/2000/svg" width="318" height="132" viewBox="0 0 318 132"><g transform="translate(-560.631 -9192.945)"><g transform="translate(629.456 9192.945)"><path d="M652.915,9204.489v52.668H640.1v-52.668H629.271v-11.544h34.472v11.544Z" transform="translate(-629.271 -9192.945)" fill="#333"/><path d="M692.773,9219.789a7.32,7.32,0,0,0-7.49,7.756v29.581H673.191v-48.52h11.55v5.231a15.851,15.851,0,0,1,5.325-4.33,16.565,16.565,0,0,1,7.128-1.623v11.9Z" transform="translate(-629.153 -9192.914)" fill="#333"/><path d="M726.523,9257.125v-3.517a12.685,12.685,0,0,1-3.519,3.065,10.246,10.246,0,0,1-4.6,1.173c-4.423,0-7.039-1.263-9.385-4.059-1.9-2.345-2.707-4.961-2.707-11v-34.18H718.4v34c0,2.977,1.623,4.419,3.789,4.419s3.79-1.442,3.79-4.419v-34h12.093v48.52Z" transform="translate(-629.063 -9192.912)" fill="#333"/><path d="M775.411,9253.789c-3.158,3.156-7.039,4.059-11.37,4.059s-8.844-1.443-11.551-4.238a15.483,15.483,0,0,1-4.6-11.094H759.8a4.821,4.821,0,0,0,1.263,3.157,4.1,4.1,0,0,0,2.978,1.262,3.67,3.67,0,0,0,2.887-.992,3.824,3.824,0,0,0,.994-2.705,4.329,4.329,0,0,0-.812-2.705,7.429,7.429,0,0,0-3.158-2.075l-6.768-2.614c-3.429-1.354-5.956-3.157-7.49-5.592a12.728,12.728,0,0,1-1.624-6.765,14.683,14.683,0,0,1,4.422-11.183,15.873,15.873,0,0,1,11.461-4.419,16.287,16.287,0,0,1,11.009,3.968,14.431,14.431,0,0,1,4.512,10.913H767.651a4.627,4.627,0,0,0-.994-3.066,3.912,3.912,0,0,0-2.706-1.172,3.956,3.956,0,0,0-2.8,1.082,3.35,3.35,0,0,0-.993,2.705,3.416,3.416,0,0,0,.632,2.164,5.849,5.849,0,0,0,3.068,2.164l6.678,2.525c3.428,1.354,5.684,2.887,7.309,5.141a13.229,13.229,0,0,1,2.166,7.937A15.872,15.872,0,0,1,775.411,9253.789Z" transform="translate(-628.951 -9192.914)" fill="#333"/><path d="M797.774,9254.172c-3.429-2.435-5.6-6.312-5.6-12.625v-21.915h-4.512v-9.109h4.512v-13.257h12.093v13.257h5.956v9.109h-5.956v21.1c0,3.788,1.9,5.592,5.956,5.592v10.822C805.264,9257.148,801.294,9256.7,797.774,9254.172Z" transform="translate(-628.844 -9192.937)" fill="#333"/></g><g transform="translate(560.631 9301.053)"><path d="M567.41,9319.743c-2.817,0-4.954-.6-6.779-2.449l2.346-2.345a6.08,6.08,0,0,0,4.484,1.563c2.139,0,3.286-.808,3.286-2.293a2.062,2.062,0,0,0-.575-1.563,2.756,2.756,0,0,0-1.641-.65l-2.243-.313a6.3,6.3,0,0,1-3.6-1.537,4.9,4.9,0,0,1-1.331-3.647c0-3.31,2.451-5.628,6.466-5.628a7.957,7.957,0,0,1,6,2.162l-2.294,2.267a5.168,5.168,0,0,0-3.806-1.276c-1.93,0-2.869,1.068-2.869,2.345a1.79,1.79,0,0,0,.548,1.329,3.2,3.2,0,0,0,1.72.729l2.191.313a6.136,6.136,0,0,1,3.546,1.434,5.2,5.2,0,0,1,1.434,3.934C574.293,9317.711,571.295,9319.743,567.41,9319.743Z" transform="translate(-560.631 -9300.827)" fill="#333"/><path d="M589.564,9319.577V9318.4a4.128,4.128,0,0,1-3.337,1.3,4.638,4.638,0,0,1-3.467-1.2,4.35,4.35,0,0,1-1.121-3.049c0-2.162,1.486-3.935,4.641-3.935h3.206v-.678c0-1.485-.73-2.136-2.529-2.136a2.915,2.915,0,0,0-2.607,1.12l-2.164-2.11c1.33-1.46,2.634-1.876,4.9-1.876,3.807,0,5.789,1.615,5.789,4.794v8.937Zm-.078-5.731H586.8c-1.225,0-1.9.573-1.9,1.537,0,.938.626,1.563,1.955,1.563a2.693,2.693,0,0,0,2.139-.65,2.239,2.239,0,0,0,.494-1.721Z" transform="translate(-560.574 -9300.817)" fill="#333"/><path d="M605.494,9308.983v10.6H602.1v-10.6H600.7V9306.4H602.1v-1.694a3.7,3.7,0,0,1,3.963-3.882H608v2.867h-1.33c-.808,0-1.173.442-1.173,1.225v1.484H608v2.579Z" transform="translate(-560.523 -9300.828)" fill="#333"/><path d="M618.438,9313.846a2.8,2.8,0,0,0,2.972,3.021,3.76,3.76,0,0,0,3.076-1.276l2.061,2.007a6.471,6.471,0,0,1-5.163,2.136c-3.207,0-6.283-1.459-6.283-6.957,0-4.429,2.4-6.93,5.918-6.93,3.78,0,5.918,2.761,5.918,6.487v1.512Zm4.849-3.778a2.532,2.532,0,0,0-4.536,0,3.738,3.738,0,0,0-.313,1.459H623.6A3.738,3.738,0,0,0,623.287,9310.067Z" transform="translate(-560.484 -9300.817)" fill="#333"/><path d="M639.476,9319.584a3.682,3.682,0,0,1-3.937-3.882v-6.723h-1.434V9306.4h1.434v-4.013h3.39v4.013h2.4v2.579h-2.4v6.514c0,.782.364,1.226,1.172,1.226h1.226v2.865Z" transform="translate(-560.433 -9300.824)" fill="#333"/><path d="M654.639,9321.766a4.845,4.845,0,0,1-1.018,1.745,3.929,3.929,0,0,1-2.92,1.043h-1.33V9321.5h.782a1.465,1.465,0,0,0,1.695-1.226l.573-1.667L647.782,9306h3.572l2.816,8.39,2.711-8.39h3.573Z" transform="translate(-560.396 -9300.816)" fill="#333"/><path d="M694.651,9319.577v-8.208a2.262,2.262,0,1,0-4.51-.077v8.285h-3.389v-8.208a2.265,2.265,0,1,0-4.51,0v8.208h-3.389V9306h3.311v1.251a4.754,4.754,0,0,1,3.389-1.407,4.209,4.209,0,0,1,3.6,1.719,5.181,5.181,0,0,1,4.067-1.719,4.742,4.742,0,0,1,3.337,1.2,5.111,5.111,0,0,1,1.486,3.855v8.677Z" transform="translate(-560.312 -9300.817)" fill="#333"/><path d="M713.791,9319.577V9318.4a4.128,4.128,0,0,1-3.337,1.3,4.638,4.638,0,0,1-3.467-1.2,4.35,4.35,0,0,1-1.121-3.049c0-2.162,1.486-3.935,4.64-3.935h3.207v-.678c0-1.485-.73-2.136-2.529-2.136a2.914,2.914,0,0,0-2.607,1.12l-2.164-2.11c1.33-1.46,2.633-1.876,4.9-1.876,3.806,0,5.788,1.615,5.788,4.794v8.937Zm-.078-5.731h-2.685c-1.225,0-1.9.573-1.9,1.537,0,.938.626,1.563,1.955,1.563a2.69,2.69,0,0,0,2.138-.65,2.235,2.235,0,0,0,.5-1.721Z" transform="translate(-560.24 -9300.817)" fill="#333"/><path d="M733.811,9319.577v-8.208a2.265,2.265,0,1,0-4.51,0v8.208h-3.39V9306h3.311v1.251a4.651,4.651,0,0,1,3.39-1.407,4.416,4.416,0,0,1,3.207,1.2,5.028,5.028,0,0,1,1.382,3.855v8.677Z" transform="translate(-560.185 -9300.817)" fill="#333"/><path d="M752.973,9319.577V9318.4a4.128,4.128,0,0,1-3.337,1.3,4.637,4.637,0,0,1-3.467-1.2,4.351,4.351,0,0,1-1.122-3.049c0-2.162,1.486-3.935,4.641-3.935H752.9v-.678c0-1.485-.73-2.136-2.529-2.136a2.917,2.917,0,0,0-2.608,1.12l-2.164-2.11c1.33-1.46,2.634-1.876,4.9-1.876,3.807,0,5.789,1.615,5.789,4.794v8.937Zm-.078-5.731h-2.686c-1.224,0-1.9.573-1.9,1.537,0,.938.626,1.563,1.956,1.563a2.691,2.691,0,0,0,2.138-.65,2.235,2.235,0,0,0,.5-1.721Z" transform="translate(-560.134 -9300.817)" fill="#333"/><path d="M769.787,9324.71a6.356,6.356,0,0,1-4.927-1.771l2.112-2.135a3.47,3.47,0,0,0,2.66,1.041,2.567,2.567,0,0,0,2.737-2.814v-1.381a3.98,3.98,0,0,1-3.233,1.355,4.52,4.52,0,0,1-3.234-1.2c-1.277-1.277-1.382-3.022-1.382-5.393s.1-4.092,1.382-5.368a4.588,4.588,0,0,1,3.259-1.2,3.976,3.976,0,0,1,3.312,1.433V9306h3.285v13.08C775.758,9322.34,773.438,9324.71,769.787,9324.71Zm.339-15.815c-2.007,0-2.216,1.72-2.216,3.519s.209,3.542,2.216,3.542,2.243-1.745,2.243-3.542S772.135,9308.895,770.126,9308.895Z" transform="translate(-560.081 -9300.817)" fill="#333"/><path d="M787.384,9313.846a2.8,2.8,0,0,0,2.972,3.021,3.761,3.761,0,0,0,3.076-1.276l2.06,2.007a6.469,6.469,0,0,1-5.162,2.136c-3.207,0-6.283-1.459-6.283-6.957,0-4.429,2.4-6.93,5.918-6.93,3.78,0,5.918,2.761,5.918,6.487v1.512Zm4.849-3.778a2.532,2.532,0,0,0-4.536,0,3.738,3.738,0,0,0-.313,1.459h5.162A3.738,3.738,0,0,0,792.233,9310.067Z" transform="translate(-560.029 -9300.817)" fill="#333"/><path d="M819.97,9319.577v-8.208a2.262,2.262,0,1,0-4.51-.077v8.285H812.07v-8.208a2.265,2.265,0,1,0-4.51,0v8.208h-3.39V9306h3.312v1.251a4.75,4.75,0,0,1,3.389-1.407,4.209,4.209,0,0,1,3.6,1.719,5.181,5.181,0,0,1,4.067-1.719,4.742,4.742,0,0,1,3.337,1.2,5.115,5.115,0,0,1,1.486,3.855v8.677Z" transform="translate(-559.974 -9300.817)" fill="#333"/><path d="M834.807,9313.846a2.8,2.8,0,0,0,2.972,3.021,3.763,3.763,0,0,0,3.077-1.276l2.06,2.007a6.472,6.472,0,0,1-5.163,2.136c-3.207,0-6.283-1.459-6.283-6.957,0-4.429,2.4-6.93,5.918-6.93,3.781,0,5.918,2.761,5.918,6.487v1.512Zm4.849-3.778a2.532,2.532,0,0,0-4.536,0,3.738,3.738,0,0,0-.313,1.459h5.162A3.738,3.738,0,0,0,839.656,9310.067Z" transform="translate(-559.901 -9300.817)" fill="#333"/><path d="M859.493,9319.577v-8.208a2.265,2.265,0,1,0-4.51,0v8.208h-3.389V9306H854.9v1.251a4.648,4.648,0,0,1,3.389-1.407,4.415,4.415,0,0,1,3.207,1.2,5.028,5.028,0,0,1,1.383,3.855v8.677Z" transform="translate(-559.847 -9300.817)" fill="#333"/><path d="M875.945,9319.584a3.682,3.682,0,0,1-3.937-3.882v-6.723h-1.434V9306.4h1.434v-4.013H875.4v4.013h2.4v2.579h-2.4v6.514c0,.782.365,1.226,1.173,1.226H877.8v2.865Z" transform="translate(-559.795 -9300.824)" fill="#333"/></g></g></svg>