<svg xmlns="http://www.w3.org/2000/svg" width="420" height="536" viewBox="0 0 420 536"><g transform="translate(-163.04 -2680.828)" opacity="0.1"><path d="M373.04,3216.828l-4.939-2.285c-56.572-26.182-102.413-65.26-136.249-116.15-26.93-40.5-46.284-88.459-57.525-142.541-19.033-91.574-8.343-168.219-7.879-171.438l1.24-8.59,8.544-1.386c89.06-14.452,188.81-87.689,189.807-88.426l7-5.184,7,5.186c1,.735,100.745,73.972,189.805,88.424l8.543,1.386,1.24,8.59c.464,3.219,11.154,79.864-7.879,171.438-11.241,54.082-30.594,102.04-57.525,142.541-33.836,50.89-79.677,89.968-136.249,116.15Zm-184.2-420.649c-2.137,22.054-6.084,84.886,8.712,155.541,10.675,50.974,28.889,96.021,54.138,133.891,30.373,45.552,71.183,80.9,121.352,105.129,50.169-24.228,90.98-59.576,121.352-105.129,25.249-37.87,43.464-82.917,54.138-133.891,14.795-70.65,10.85-133.478,8.712-155.541-79-15.715-160.122-69.287-184.2-86.135C348.962,2726.892,267.841,2780.464,188.839,2796.179Z" fill="#333"/><path d="M373.128,3162.2l-5.608-3.042c-152.169-82.544-162.577-259.382-159.989-331.579l.308-8.6,8.254-2.348c61.41-17.476,120.72-52.8,150.608-72.295l6.427-4.194,6.427,4.194c29.892,19.5,89.206,54.824,150.616,72.3l8.255,2.348.308,8.6c2.589,72.195-7.817,249.023-160,331.574ZM230.861,2836.9c-.689,37.781,2.758,91.227,20.933,145.323,23.055,68.615,63.855,120.06,121.333,153.012,57.491-32.96,98.3-84.421,121.354-153.059,18.166-54.086,21.61-107.51,20.921-145.271-57.168-17.7-111.177-48.789-142.276-68.6C342.033,2788.113,288.028,2819.2,230.861,2836.9Z" transform="translate(-0.087 0.054)" fill="#333"/><path d="M424.984,2909.245c-.289-16.865-4.335-29.39-12.273-38.04-10.871-11.85-26.016-13.448-39.4-13.448s-28.527,1.6-39.4,13.448c-7.937,8.65-11.983,21.174-12.273,38.04H300.552V3019.96H446.074V2909.245ZM346.479,2882.8c6.384-6.959,16.67-7.918,26.834-7.918s20.449.959,26.834,7.918c4.921,5.363,7.512,14.241,7.762,26.444h-69.19C338.967,2897.042,341.559,2888.164,346.479,2882.8Zm31.159,78.646,10.729,35.867H358.258l10.73-35.867a15.054,15.054,0,1,1,8.65,0Z" transform="translate(-0.272 0.161)" fill="#333"/></g></svg>