<svg xmlns="http://www.w3.org/2000/svg" width="530" height="56" viewBox="0 0 530 56"><g transform="translate(-451.277 -9399.841)"><g transform="translate(451.277 9399.841)"><path d="M493.132,9424.194a67.067,67.067,0,0,1-3.289,17.23,19.519,19.519,0,0,0,5.5,7.268,20.529,20.529,0,0,0-4.01,4.935,22.125,22.125,0,0,1-4.6-5.94,25.4,25.4,0,0,1-5.721,6.17,23,23,0,0,0-2.253-3.245,3.105,3.105,0,0,1-1.442,2.148c-1.352.822-3.019.913-5.227.913a19.11,19.11,0,0,0-1.352-5.117c1.081.045,2.3.045,2.658.045.405,0,.541-.137.541-.548v-2.743h-4.01v8.227h-5.091v-24.45h14.148V9448.1a19.89,19.89,0,0,0,5.136-6.764,64.381,64.381,0,0,1-2.253-10.146c-.36.5-.676.96-1.037,1.37a31.255,31.255,0,0,0-2.387-4.707l-2.613,1.006c-.09-.594-.225-1.325-.406-2.056-4.1.5-8.155.959-11.489,1.37l-.63-3.107q-.677,1.371-1.488,2.741v25.821h-5.631v-17.595c-.5.64-1.037,1.188-1.532,1.736a46.587,46.587,0,0,0-3.379-6.123,38.922,38.922,0,0,0,7.795-11.608l5.676,2.057-.406.914,1.487-.137c.36-1.28.631-2.651.9-3.931h-3.6v-4.708a46.849,46.849,0,0,1-8.47,9.552,39.971,39.971,0,0,0-3.154-5.118,29.637,29.637,0,0,0,6.984-8.547l5.856,2.194c-.36.594-.721,1.143-1.081,1.736h5.272v-3.885h5.9v3.885h5.947v4.891H477.5a32.93,32.93,0,0,1,2.162,4.615c1.757-3.7,2.749-8.454,3.379-13.391l5.587,1.006c-.405,2.65-.946,5.3-1.577,7.814h7.66v5.209Zm-23.2,9.6v1.645h4.01v-1.645Zm4.01,7.4v-1.645h-4.01v1.645Zm-.18-19.011q-.473-1.03-.946-1.921l3.74-1.324H472.5l-1.262,3.473Zm11.849,2.009c.315,2.7.721,5.349,1.262,7.861a78.531,78.531,0,0,0,.9-7.861Z" transform="translate(-451.277 -9399.679)" fill="#333"/><path d="M534.4,9435.985c.9,5.851,2.388,10.146,3.74,10.146.676,0,.992-1.829,1.126-5.438a15.318,15.318,0,0,0,5.046,3.062c-.766,7.13-2.7,8.638-6.622,8.592-5.136,0-8.2-7.038-9.6-16.361H520.7v3.7c2.433-.229,4.956-.5,7.389-.778l.18,5.668c-5.587.686-11.625,1.325-16.219,1.873l-.677-5.94c.947-.092,1.982-.137,3.109-.229v-18.6l4.776,1.279a100.336,100.336,0,0,0,15.274-2.788H511.6v6.81c0,7.633-.72,19.378-4.955,26.6a25.928,25.928,0,0,0-5.362-3.656c3.785-6.489,4.055-16.179,4.055-22.942v-12.705h15.859v-4.113h6.849v4.113h15.994v5.9h-7.974l4.414,4.342a64.393,64.393,0,0,1-6.938,1.737c.044,1.325.135,2.65.225,3.976h10v5.758Zm-22.437,11.2h18.7v5.667h-18.7Zm15.454-16.955c-.09-.96-.135-1.965-.225-2.971-2.163.32-4.371.548-6.488.731v2.239Z" transform="translate(-451.215 -9399.679)" fill="#333"/><path d="M563.567,9412.731c-.315,2.147-.586,4.89-.676,6.854-.225,4.754-.541,14.535-.541,19.517,0,4.342,2.477,5.712,5.5,5.712,6.938,0,11.623-4.113,14.867-9.186l4.91,6.124a23.586,23.586,0,0,1-19.823,10.557c-7.795,0-12.661-3.564-12.661-11.471,0-5.713.406-17.825.406-21.253a33.607,33.607,0,0,0-.676-6.945Z" transform="translate(-451.148 -9399.641)" fill="#333"/><path d="M619.043,9423.482a71.145,71.145,0,0,1-8.289,1.416c-.451,1.92-.9,3.931-1.352,5.713a151.714,151.714,0,0,1-7.119,21.068l-7.524-2.559c2.658-4.479,6.173-14.122,7.84-20.429.27-1.052.586-2.148.811-3.2-.766.046-1.532.046-2.253.046-2.3,0-4.01-.091-5.542-.183l-.18-6.81a45.753,45.753,0,0,0,5.767.366c1.172,0,2.388-.046,3.56-.092a16.422,16.422,0,0,0,.27-1.828,25,25,0,0,0,.135-5.073l8.245.64c-.361,1.418-.811,3.609-1.036,4.662l-.181.776c2.3-.365,4.6-.822,6.849-1.37Zm-.406,14.3a16.67,16.67,0,0,0-.586,3.61c0,1.875,1.171,3.063,5.091,3.063a55.765,55.765,0,0,0,9.552-.96l-.27,6.992a72.144,72.144,0,0,1-9.327.641c-7.795,0-11.714-2.88-11.714-7.5a32.506,32.506,0,0,1,.81-6.443Zm-3.468-11.562c2.567-.274,5.9-.5,8.83-.5,2.478,0,5.181.137,7.885.41l-.135,6.582a63.842,63.842,0,0,0-7.75-.594,67.086,67.086,0,0,0-8.83.5Z" transform="translate(-451.098 -9399.651)" fill="#333"/><path d="M670.39,9432.112a49.933,49.933,0,0,0,8.951-11.151c-2.164.427-8.771,1.767-16.04,3.229v14.99c0,3.595.781,4.874,7.029,4.874a101.91,101.91,0,0,0,19.1-2.132l-.3,9.993a152.455,152.455,0,0,1-18.5,1.341c-15.079,0-17-3.534-17-11.456v-15.6c-4.985,1.036-9.371,1.95-11.954,2.56l-1.742-9.629c2.884-.364,7.99-1.218,13.7-2.254V9409.2a63.556,63.556,0,0,0-.54-7.8H663.9a62.279,62.279,0,0,0-.6,7.8v5.85c7.81-1.462,15.139-2.985,17.9-3.656a20.732,20.732,0,0,0,4.866-1.646l7.029,5.546c-.6.975-1.622,2.559-2.223,3.777-2.583,5.119-8.471,13.894-12.495,17.794Z" transform="translate(-451.042 -9399.816)" fill="#fc088e"/><path d="M754.786,9433.172c-1.8.122-4.566.61-6.849.976-2.643.427-7.089,1.157-12.015,1.95.842,4.448,1.562,8.226,1.982,10.3.421,1.828,1.021,4.082,1.562,6.216l-10.452,1.828c-.3-2.377-.421-4.57-.781-6.4-.3-1.89-1.021-5.728-1.862-10.358-5.707.974-10.874,1.888-13.337,2.376-2.7.487-4.986.913-6.367,1.279l-2.043-9.75c1.682-.062,4.686-.426,6.727-.731,2.643-.427,7.75-1.218,13.4-2.133l-1.562-8.348c-4.986.792-9.312,1.523-10.933,1.827-2.164.427-3.845.854-5.887,1.4l-1.922-10.055c2.1-.122,4.024-.244,5.887-.487,1.922-.243,6.247-.852,11.173-1.646l-.961-5.057c-.421-1.828-.841-3.352-1.322-4.875l10.273-1.646c.18,1.219.36,3.474.661,5,.12.913.481,2.741.9,5.117,4.626-.73,8.71-1.462,10.632-1.827,1.982-.365,4.686-.976,6.368-1.463l1.742,9.628c-1.562.122-4.325.549-6.248.793l-10.873,1.767,1.562,8.348c4.985-.853,9.491-1.646,12.014-2.132,2.343-.488,4.866-1.1,6.608-1.584Z" transform="translate(-450.961 -9399.841)" fill="#fc088e"/><path d="M802.313,9442.466c1.622,0,4.806-.122,6.548-.3v9.506c-1.322-.062-4.686-.183-6.428-.183H771.5c-2.284,0-3.9.061-6.428.183V9442.1c1.682.182,4.205.365,6.428.365h18.142c.841-4.937,1.922-12.065,2.163-15.417H777.143c-1.982,0-4.8.183-6.667.3v-9.688a60.972,60.972,0,0,0,6.607.427H790.9a17.227,17.227,0,0,0,5.286-.793l6.969,3.474a22.137,22.137,0,0,0-.661,2.925c-.481,3.352-1.983,12.979-2.884,18.769Z" transform="translate(-450.886 -9399.566)" fill="#fc088e"/><path d="M833.284,9402.729c-.12,1.523-.24,2.62-.24,4.813v20.719c0,1.523.12,4.082.24,5.667H822.471c.06-1.219.3-3.84.3-5.728v-20.658a48.023,48.023,0,0,0-.24-4.813Zm27.573-.549c-.12,1.828-.24,3.9-.24,6.581v13.285c0,12.247-2.823,18.341-7.389,23.216-4.025,4.266-10.332,7.373-14.717,8.774l-7.63-8.165c6.248-1.4,11.174-3.656,14.777-7.435,4.025-4.326,4.866-8.652,4.866-17.062v-12.614a48.728,48.728,0,0,0-.421-6.581Z" transform="translate(-450.814 -9399.804)" fill="#fc088e"/><path d="M920.494,9418.568a43.2,43.2,0,0,0,5.947-.427v9.566c-1.622-.122-4.145-.183-5.947-.183H907.038a39.293,39.293,0,0,1-3.965,15.051c-2.043,4.327-6.728,9.262-12.2,12.066l-8.53-6.216a25.083,25.083,0,0,0,10.632-8.409,25.671,25.671,0,0,0,3.845-12.492H881.147c-1.742,0-4.385.122-6.068.244v-9.628a50.887,50.887,0,0,0,6.068.427Zm-31.538-6.947c-2.1,0-4.985.122-6.968.243v-9.444a53.571,53.571,0,0,0,6.968.487h24.029a53.562,53.562,0,0,0,6.969-.487v9.444c-2.223-.121-4.686-.243-6.969-.243Z" transform="translate(-450.749 -9399.8)" fill="#fc088e"/><path d="M980.672,9417.766c-2.824,3.168-7.989,7.313-13.456,10.907v19.683c0,2.315.06,5.972.481,7.313H956.883c.18-1.341.361-5,.361-7.312v-14.137a90.459,90.459,0,0,1-15.859,6.094l-4.866-8.471a79.816,79.816,0,0,0,21.446-8.227c6.188-3.655,12.435-8.714,15.438-12.735Z" transform="translate(-450.672 -9399.668)" fill="#fc088e"/></g></g></svg>