<?xml version="1.0" encoding="utf-8"?>
<!-- Generator: Adobe Illustrator 25.0.0, SVG Export Plug-In . SVG Version: 6.00 Build 0)  -->
<svg version="1.1" id="レイヤー_1" xmlns="http://www.w3.org/2000/svg" xmlns:xlink="http://www.w3.org/1999/xlink" x="0px"
	 y="0px" viewBox="0 0 318 154" style="enable-background:new 0 0 318 154;" xml:space="preserve">
<style type="text/css">
	.st0{fill:#343434;}
</style>
<g>
	<path class="st0" d="M2.07,3.83h15.36v56.4c0,5.53,0.84,9.44,2.52,11.72c1.68,2.25,4.33,3.37,7.97,3.37c3.92,0,6.72-1.05,8.4-3.16
		c1.71-2.1,2.57-6.08,2.57-11.93V3.83h15.36v57.69c0,9.03-1.91,15.66-5.73,19.91c-3.82,4.21-10.54,6.32-20.17,6.32
		c-9.6,0-16.38-2.02-20.34-6.05C4.05,77.62,2.07,70.9,2.07,61.52V3.83z"/>
	<path class="st0" d="M70.46,86.03V24.38h14.23v6.96c2.75-5.71,7.14-8.56,13.16-8.56c4.25,0,7.67,1.32,10.27,3.96
		c2.64,2.6,3.96,6.48,3.96,11.61v47.68H97.86V43.7c0-3.6-0.45-6.17-1.34-7.71c-0.86-1.53-2.44-2.3-4.76-2.3
		c-4.71,0-7.06,3.68-7.06,11.02v41.31H70.46z"/>
	<path class="st0" d="M128.79,3.67h14.23v13h-14.23V3.67z M128.79,24.38h14.23v61.65h-14.23V24.38z"/>
	<path class="st0" d="M187.49,31.34v-6.96h14.23v82.2h-14.23V79.07c-1.54,3.1-3.27,5.32-5.19,6.64c-1.89,1.28-4.51,1.93-7.87,1.93
		c-9.56,0-14.34-7.1-14.34-21.3V44.07c0-7.71,1.23-13.18,3.69-16.43c2.46-3.25,6.26-4.87,11.4-4.87
		C181.31,22.77,185.42,25.63,187.49,31.34z M174.32,44.61v21.46c0,7.1,2.09,10.65,6.26,10.65c4.6,0,6.9-4.08,6.9-12.25V45.14
		c0-7.63-2.3-11.45-6.9-11.45c-4.17,0-6.26,2.93-6.26,8.78V44.61z"/>
	<path class="st0" d="M216.87,24.38h14.23v43.77c0,5.71,1.91,8.56,5.73,8.56c4.39,0,6.58-3.67,6.58-11.02V24.38h14.23v61.65h-13.59
		V76.5c-2.32,7.42-6.81,11.13-13.49,11.13c-4.96,0-8.49-1.28-10.6-3.85c-2.07-2.6-3.1-6.67-3.1-12.2V24.38z"/>
	<path class="st0" d="M287.39,58.09v8.88c0,3.35,0.57,5.82,1.71,7.38c1.18,1.57,3.05,2.35,5.62,2.35c4.46,0,6.69-2.82,6.69-8.46
		v-2.89h14.23c0,14.84-6.58,22.26-19.75,22.26c-7.89,0-13.65-1.94-17.29-5.83c-3.64-3.89-5.46-10.31-5.46-19.27V45.78
		c0-15.34,6.97-23.01,20.92-23.01c7.1,0,12.47,1.59,16.11,4.76c3.64,3.18,5.46,10.2,5.46,21.08v9.47H287.39z M287.39,47.18h14.02
		v-5.83c0-2.85-0.57-4.83-1.71-5.94c-1.11-1.14-2.98-1.71-5.62-1.71c-2.68,0-4.46,0.75-5.35,2.25c-0.89,1.5-1.34,4-1.34,7.49V47.18z
		"/>
</g>
<g>
	<path class="st0" d="M17.11,116.02h3.01v11.3h10.31v-11.3h3.01v27.21h-3.01v-13.18H20.13v13.18h-3.01V116.02z"/>
	<path class="st0" d="M46.98,149.77v-2.52c0.66,0.28,1.4,0.42,2.21,0.42c1.42,0,2.38-0.67,2.89-2l0.57-1.68l-6.52-20.89h2.96
		l4.68,17.61l4.71-17.61h2.96l-6.52,21.51c-0.67,2.13-1.44,3.57-2.3,4.34c-0.85,0.77-2.01,1.15-3.49,1.15
		C48.35,150.11,47.64,149.99,46.98,149.77z"/>
	<path class="st0" d="M74.11,143.23v-27.21h2.87v9.39c0.35-0.84,0.93-1.52,1.72-2.04c0.79-0.53,1.68-0.8,2.66-0.8
		c2.14,0,3.74,0.86,4.8,2.59c1.06,1.71,1.59,3.97,1.59,6.77c0,3.89-0.48,6.83-1.45,8.84c-0.96,2-2.59,2.99-4.89,2.99
		c-2.16,0-3.73-1.04-4.7-3.12v2.59H74.11z M76.98,133.61v1.24c0,2.56,0.35,4.29,1.06,5.17c0.72,0.87,1.68,1.31,2.87,1.31
		c1.52,0,2.55-0.73,3.08-2.18c0.53-1.46,0.8-3.59,0.8-6.38c0-5.18-1.31-7.78-3.93-7.78c-1.39,0-2.39,0.57-2.99,1.7
		c-0.59,1.13-0.89,3.02-0.89,5.67V133.61z"/>
	<path class="st0" d="M101.92,143.23V123.1h2.78v3.15c1.04-2.46,2.8-3.69,5.28-3.69c0.26,0,0.51,0.01,0.76,0.04v2.85
		c-0.25-0.07-0.65-0.11-1.21-0.11c-1.5,0-2.67,0.5-3.51,1.49c-0.83,0.99-1.24,2.31-1.24,3.95v12.44H101.92z"/>
	<path class="st0" d="M123.09,116.05h2.87v3.65h-2.87V116.05z M123.09,123.1h2.87v20.13h-2.87V123.1z"/>
	<path class="st0" d="M150.45,125.41v-9.39h2.87v27.21h-2.78v-2.87c-0.53,1.11-1.15,1.96-1.86,2.53c-0.71,0.58-1.74,0.87-3.1,0.87
		c-1.87,0-3.32-0.77-4.36-2.32c-1.03-1.56-1.54-4.65-1.54-9.27c0-2.78,0.52-5.07,1.56-6.87c1.04-1.82,2.53-2.73,4.46-2.73
		C147.68,122.57,149.26,123.52,150.45,125.41z M142.64,133.24c0,3.13,0.3,5.26,0.9,6.4c0.61,1.13,1.61,1.7,2.98,1.7
		c1.23,0,2.19-0.56,2.89-1.67c0.7-1.12,1.05-2.6,1.05-4.43v-2.59c0-2.68-0.31-4.62-0.94-5.83c-0.63-1.22-1.62-1.83-2.99-1.83
		C143.93,125,142.64,127.75,142.64,133.24z"/>
	<path class="st0" d="M184.42,125.53v-2.43h2.78v-5.39h2.87v5.39h3.4v2.43h-3.4v13.71c0,0.61,0.08,1.03,0.23,1.24
		c0.17,0.21,0.58,0.32,1.24,0.32h1.84v2.43h-3.19c-1.17,0-1.96-0.24-2.38-0.71c-0.41-0.48-0.62-1.33-0.62-2.53v-14.46H184.42z"/>
	<path class="st0" d="M206.54,143.23V123.1h2.78v3.15c1.04-2.46,2.8-3.69,5.28-3.69c0.26,0,0.51,0.01,0.76,0.04v2.85
		c-0.25-0.07-0.65-0.11-1.2-0.11c-1.5,0-2.67,0.5-3.51,1.49c-0.83,0.99-1.24,2.31-1.24,3.95v12.44H206.54z"/>
	<path class="st0" d="M227.01,128.52v-0.71c0-3.5,2-5.24,5.99-5.24c1.81,0,3.18,0.44,4.11,1.31c0.95,0.88,1.42,2.03,1.42,3.47v12.49
		c0,0.86,0.39,1.29,1.17,1.29c0.19,0,0.38-0.01,0.58-0.04v2.07c-0.34,0.14-0.78,0.21-1.31,0.21c-1.04,0-1.77-0.22-2.2-0.67
		c-0.41-0.46-0.64-1.25-0.67-2.37c-0.42,1.02-1.08,1.84-1.95,2.48c-0.86,0.63-1.77,0.94-2.73,0.94c-3.47,0-5.21-1.93-5.21-5.79
		c0-2.49,1.07-4.18,3.21-5.07l5.21-2.11c0.46-0.19,0.79-0.41,0.97-0.67c0.19-0.26,0.28-0.79,0.28-1.58c0-1.54-0.28-2.51-0.83-2.92
		c-0.56-0.41-1.36-0.62-2.41-0.62c-1.1,0-1.88,0.22-2.34,0.67s-0.69,1.16-0.69,2.14v0.71H227.01z M235.66,132.32
		c-1,0.61-2.51,1.32-4.52,2.11c-1.31,0.54-1.97,1.75-1.97,3.63c0,2.19,0.96,3.28,2.87,3.28c1.04,0,1.9-0.39,2.59-1.17
		c0.69-0.79,1.03-1.74,1.03-2.85V132.32z"/>
	<path class="st0" d="M263.11,125.41v-9.39h2.87v27.21h-2.78v-2.87c-0.53,1.11-1.15,1.96-1.86,2.53c-0.71,0.58-1.74,0.87-3.1,0.87
		c-1.87,0-3.32-0.77-4.36-2.32c-1.03-1.56-1.54-4.65-1.54-9.27c0-2.78,0.52-5.07,1.56-6.87c1.04-1.82,2.53-2.73,4.47-2.73
		C260.33,122.57,261.92,123.52,263.11,125.41z M255.3,133.24c0,3.13,0.3,5.26,0.9,6.4c0.61,1.13,1.61,1.7,2.98,1.7
		c1.23,0,2.19-0.56,2.89-1.67c0.7-1.12,1.04-2.6,1.04-4.43v-2.59c0-2.68-0.31-4.62-0.94-5.83c-0.63-1.22-1.62-1.83-2.99-1.83
		C256.59,125,255.3,127.75,255.3,133.24z"/>
	<path class="st0" d="M282.73,133.36v1.51c0,2.52,0.34,4.22,1.01,5.12c0.68,0.9,1.58,1.35,2.69,1.35c1.07,0,1.91-0.35,2.5-1.05
		c0.59-0.71,0.9-1.65,0.94-2.82c0-0.35,0.01-0.68,0.04-0.97h2.6v0.69c0,1.85-0.53,3.41-1.59,4.68c-1.05,1.26-2.58,1.9-4.57,1.9
		c-4.38,0-6.57-3.53-6.57-10.59c0-3.27,0.56-5.85,1.68-7.74c1.12-1.9,2.74-2.85,4.86-2.85c2.28,0,3.9,0.74,4.87,2.21
		c0.98,1.48,1.47,4.33,1.47,8.58H282.73z M289.7,131.01c0-2.42-0.31-4.03-0.92-4.82c-0.6-0.79-1.38-1.19-2.34-1.19
		c-1.33,0-2.27,0.47-2.82,1.4c-0.54,0.93-0.84,2.47-0.89,4.61H289.7z"/>
</g>
</svg>
